<svg xmlns="http://www.w3.org/2000/svg" viewBox="0 0 750 500"><g id="freepik--background-complete--inject-1105"><path d="M231.13,137.61l2.58,1-2.24.63a2.36,2.36,0,0,0-1.58,1.52l-.81,2.48-1-2.48a2.33,2.33,0,0,0-1.37-1.33l-2.26-.82,2.45-1a2.33,2.33,0,0,0,1.29-1.32l.89-2.3.63,2.14A2.36,2.36,0,0,0,231.13,137.61Z" style="fill:#ebebeb"></path><path d="M479.1,143.39l2.58,1-2.24.63a2.32,2.32,0,0,0-1.58,1.52l-.81,2.48-1-2.49a2.35,2.35,0,0,0-1.37-1.32l-2.26-.82,2.45-1a2.33,2.33,0,0,0,1.29-1.32l.89-2.3.63,2.14A2.34,2.34,0,0,0,479.1,143.39Z" style="fill:#ebebeb"></path><path d="M588.75,120.25l2.58,1-2.24.63a2.32,2.32,0,0,0-1.58,1.52l-.81,2.48-1-2.49a2.32,2.32,0,0,0-1.37-1.32l-2.26-.82,2.45-1a2.33,2.33,0,0,0,1.29-1.32l.89-2.3.63,2.14A2.36,2.36,0,0,0,588.75,120.25Z" style="fill:#ebebeb"></path><path d="M500.58,252.07l2.58,1-2.24.63a2.32,2.32,0,0,0-1.58,1.52l-.81,2.48-1-2.48a2.31,2.31,0,0,0-1.37-1.33L493.9,253l2.45-1a2.3,2.3,0,0,0,1.29-1.32l.89-2.3.64,2.14A2.32,2.32,0,0,0,500.58,252.07Z" style="fill:#ebebeb"></path><path d="M342.75,226.7l2.58,1-2.24.64a2.34,2.34,0,0,0-1.58,1.52l-.81,2.47-1-2.48a2.36,2.36,0,0,0-1.37-1.33l-2.27-.82,2.45-1a2.34,2.34,0,0,0,1.3-1.32l.88-2.3.64,2.14A2.32,2.32,0,0,0,342.75,226.7Z" style="fill:#ebebeb"></path><path d="M130.7,87.49l2.58,1L131,89.1a2.32,2.32,0,0,0-1.58,1.52l-.81,2.47-1-2.48a2.31,2.31,0,0,0-1.37-1.33L124,88.46l2.45-1a2.33,2.33,0,0,0,1.29-1.32l.89-2.3.63,2.14A2.34,2.34,0,0,0,130.7,87.49Z" style="fill:#ebebeb"></path><path d="M55.3,182.44l1.69.64-1.46.41a1.55,1.55,0,0,0-1,1L54,186.11l-.65-1.63a1.53,1.53,0,0,0-.9-.86l-1.49-.54,1.61-.66a1.55,1.55,0,0,0,.85-.87L54,180l.42,1.4A1.53,1.53,0,0,0,55.3,182.44Z" style="fill:#ebebeb"></path><path d="M379.14,91l1.69.64-1.47.42a1.49,1.49,0,0,0-1,1l-.54,1.63-.65-1.63a1.52,1.52,0,0,0-.9-.87l-1.48-.54,1.61-.66a1.5,1.5,0,0,0,.84-.87l.58-1.51.42,1.41A1.51,1.51,0,0,0,379.14,91Z" style="fill:#ebebeb"></path><path d="M557.76,80.45l1.69.64L558,81.5a1.5,1.5,0,0,0-1,1l-.54,1.62-.65-1.63a1.54,1.54,0,0,0-.9-.87l-1.48-.53,1.61-.67a1.51,1.51,0,0,0,.84-.86l.58-1.51.42,1.4A1.54,1.54,0,0,0,557.76,80.45Z" style="fill:#ebebeb"></path><path d="M504.36,57.47c.14,3.63,36.52,416.18,36.52,416.18l168.82-2.14L524.79,52.62Z" style="fill:#fafafa"></path><path d="M419.6,58c-.7,3.55-60.53,411.39-60.53,411.39h142L440.59,58Z" style="fill:#fafafa"></path><path d="M279.27,58c-.7,3.55-60.84,413.44-60.84,413.44l142.62-.06L300.26,58Z" style="fill:#fafafa"></path><path d="M179.71,52.09C178.47,55.51,25,470.62,25,470.62l171.86.83,3.6-416.11Z" style="fill:#fafafa"></path><path d="M716.14,15.24c0,.18-150.27.34-335.61.34s-335.64-.16-335.64-.34,150.25-.34,335.64-.34S716.14,15.05,716.14,15.24Z" style="fill:#e0e0e0"></path><path d="M716.14,45.65c0,.19-150.27.34-335.61.34s-335.64-.15-335.64-.34,150.25-.34,335.64-.34S716.14,45.46,716.14,45.65Z" style="fill:#e0e0e0"></path><path d="M178.64,16a4.62,4.62,0,0,1-.51.58l-1.55,1.62-6,6.08L149.19,45.85l-.23.23-.24-.23L118.05,15.47h.54l-.23.21-32,30.17-.25.23-.22-.24L65.56,23.7l-5.65-6.22-1.46-1.66a4.43,4.43,0,0,1-.48-.58,5.19,5.19,0,0,1,.55.52l1.54,1.6,5.78,6.12,20.51,22h-.47l32-30.24.23-.21.27-.26.26.27,30.6,30.44h-.47L170.35,24c2.59-2.55,4.65-4.56,6.09-6l1.62-1.56A5.56,5.56,0,0,1,178.64,16Z" style="fill:#e0e0e0"></path><path d="M298.12,16a4.62,4.62,0,0,1-.51.58l-1.55,1.62-6,6.08L268.67,45.85l-.23.23-.24-.23L237.53,15.47h.54l-.23.21-32,30.17-.24.23-.23-.24L185,23.7l-5.65-6.22-1.46-1.66a4.43,4.43,0,0,1-.48-.58,5.19,5.19,0,0,1,.55.52l1.54,1.6,5.78,6.12,20.51,22h-.47l31.95-30.24.23-.21.27-.26.27.27,30.59,30.44h-.47L289.83,24c2.59-2.55,4.65-4.56,6.09-6l1.62-1.56A5.56,5.56,0,0,1,298.12,16Z" style="fill:#e0e0e0"></path><path d="M417.6,16a4.62,4.62,0,0,1-.51.58l-1.55,1.62-6,6.08L388.15,45.85l-.23.23-.24-.23L357,15.47h.54l-.22.21-32,30.17-.24.23-.23-.24L304.52,23.7l-5.64-6.22-1.47-1.66a4.43,4.43,0,0,1-.48-.58,5.19,5.19,0,0,1,.55.52l1.54,1.6,5.78,6.12,20.51,22h-.46l31.94-30.24L357,15l.27-.26.27.27,30.59,30.44h-.47L409.31,24l6.09-6L417,16.47A5.56,5.56,0,0,1,417.6,16Z" style="fill:#e0e0e0"></path><path d="M539.79,16a4.62,4.62,0,0,1-.51.58c-.38.4-.9.93-1.55,1.62l-6,6.08L510.34,45.85l-.23.23-.24-.23L479.2,15.47h.54l-.23.21-32,30.17-.25.23-.22-.24L426.71,23.7l-5.65-6.22c-.62-.7-1.11-1.25-1.46-1.66a3.55,3.55,0,0,1-.48-.58,5.19,5.19,0,0,1,.55.52l1.54,1.6L427,23.48l20.51,22H447l32-30.24.22-.21.28-.26.26.27,30.6,30.44h-.47L531.49,24l6.09-6,1.63-1.56A5.56,5.56,0,0,1,539.79,16Z" style="fill:#e0e0e0"></path><path d="M661.81,16a4.62,4.62,0,0,1-.51.58l-1.55,1.62-6,6.08L632.36,45.85l-.23.23-.24-.23L601.22,15.47h.54l-.22.21-32,30.17-.24.23-.23-.24L548.73,23.7l-5.64-6.22-1.47-1.66a4.43,4.43,0,0,1-.48-.58,5.19,5.19,0,0,1,.55.52l1.54,1.6L549,23.48l20.51,22h-.46L601,15.21l.23-.21.27-.26.27.27,30.59,30.44h-.47L653.52,24l6.09-6,1.62-1.56A5.56,5.56,0,0,1,661.81,16Z" style="fill:#e0e0e0"></path><path d="M720.93,15.24a4.38,4.38,0,0,1-.58.64c-.46.46-1.05,1-1.77,1.77L712,24.05,689.94,45c-.33.3-.65.61-1,.9l-.29.27-.26-.29L668.59,24.26l-5.92-6.56-1.58-1.81a3.91,3.91,0,0,1-.51-.65,3.51,3.51,0,0,1,.62.57c.44.44,1,1,1.68,1.72L669,24l20,21.48-.55,0c.31-.28.63-.59,1-.9l22.18-20.8,6.78-6.25,1.87-1.67A3.88,3.88,0,0,1,720.93,15.24Z" style="fill:#e0e0e0"></path><polygon points="200.84 59.61 178.03 56.03 183.57 42.82 200.06 42.99 200.84 59.61" style="fill:#e0e0e0"></polygon><polygon points="301.6 62.53 277.71 62.53 281.81 42.99 297.41 42.99 301.6 62.53" style="fill:#e0e0e0"></polygon><polygon points="441.95 61.48 417.36 61.48 421.58 42.99 437.64 42.99 441.95 61.48" style="fill:#e0e0e0"></polygon><polygon points="527 55.66 504.05 61.11 503.74 42.77 518.25 42.71 527 55.66" style="fill:#e0e0e0"></polygon><path d="M199,391.73a28.43,28.43,0,0,0-12.17-4.18c-2-.21-4.15-.15-5.75,1.06a1.16,1.16,0,0,0-.59,1.05,1.27,1.27,0,0,0,.56.72,17.39,17.39,0,0,0,18,1.35" style="fill:#e0e0e0"></path><path d="M198.67,391.39a59.37,59.37,0,0,1-7.85-6.91,20,20,0,0,1-4.93-9.11,3.71,3.71,0,0,1,.39-3.05c6.26,4.89,11.18,11.22,12.39,19.07" style="fill:#e0e0e0"></path><path d="M198.92,391.69a28.4,28.4,0,0,1,.15-10.32,13.94,13.94,0,0,1,5.49-8.51c1.08,2.53.62,5.45-.15,8.09A39.24,39.24,0,0,1,199,392.42" style="fill:#e0e0e0"></path><path d="M205.06,402.69a17.91,17.91,0,0,0-9.75,4.93,18.43,18.43,0,0,0-5.58,9.58c3.65-.23,6.75-2.8,9-5.69s3.81-6.07,6.28-8.77" style="fill:#e0e0e0"></path><path d="M206.39,404.44a24.05,24.05,0,0,1,2.78-22.75c2.12,7.55,1.34,16.08-2.78,22.75" style="fill:#e0e0e0"></path><path d="M214.5,414.1a17.43,17.43,0,0,0-16.63,9.57c-.21.42-.39.94-.11,1.31a1.22,1.22,0,0,0,1.1.32c3.28-.21,6.18-2.18,8.58-4.43s4.49-4.84,7.13-6.78" style="fill:#e0e0e0"></path><path d="M214.24,413.58a31.07,31.07,0,0,1-.31-17.31c.61-2.22,1.64-4.57,3.7-5.61a.71.71,0,0,1,.56-.1.7.7,0,0,1,.36.41,10.52,10.52,0,0,1,.87,5,31.69,31.69,0,0,1-.78,5c-.65,3.07-1,6.37-2.68,9a18.9,18.9,0,0,0-1.07,2c-.32.68-.32.91-.61,1.45" style="fill:#e0e0e0"></path><path d="M235.71,416.77a22.31,22.31,0,0,1,3.91-18.34c.28-.36.65-.76,1.11-.71.7.06.88,1,.85,1.7a33,33,0,0,1-5.87,17.35" style="fill:#e0e0e0"></path><path d="M237.64,418.1a26.69,26.69,0,0,0,21.9-4.46,17.72,17.72,0,0,0-11.85-1.45c-4,.9-7.58,2.68-10.05,5.91" style="fill:#e0e0e0"></path><path d="M239.28,414.07a25.3,25.3,0,0,1,19.87-11.49c-.91,3.2-3.54,5.68-6.5,7.18a35.74,35.74,0,0,1-9.54,2.79c-1.27.25-3,.52-3.83,1.52" style="fill:#e0e0e0"></path><path d="M236.12,394.52a58.31,58.31,0,0,0,2.54-11.64,19.35,19.35,0,0,0-2.32-11.51,25.37,25.37,0,0,0-.34,23.55" style="fill:#e0e0e0"></path><path d="M249.06,388c4.5-8.17,13.67-14.7,23-15.62-3.58,8.92-13.35,15.81-23,15.62" style="fill:#e0e0e0"></path><path d="M246.24,389.58c6.7,1,12.42,5.31,18.68,7.9a8.33,8.33,0,0,0,4.23.81,3.68,3.68,0,0,0,3.18-2.57,3.72,3.72,0,0,0-1.11-3.28,9.1,9.1,0,0,0-3.07-1.86c-6.83-2.84-14.15-2.91-21.34-1.19" style="fill:#e0e0e0"></path><path d="M242.35,394.28c1.52.44,2,1.23,3.24,2.25a35,35,0,0,0,14.17,7.28c.55.13,1.26.19,1.52-.3s-.06-.95-.36-1.33a19.6,19.6,0,0,0-8.56-5.81c-3.27-1.21-6.1-2.68-10-2.37" style="fill:#e0e0e0"></path><path d="M238,365.88a26.8,26.8,0,0,0,20.56,7,1.39,1.39,0,0,0,.93-.33c.52-.57-.1-1.44-.7-1.91-6-4.71-13.37-6.66-20.79-4.75" style="fill:#e0e0e0"></path><path d="M243.17,364a28.64,28.64,0,0,1,25.65-4.24,20.33,20.33,0,0,1-12.22,5.37A38.77,38.77,0,0,1,243.17,364" style="fill:#e0e0e0"></path><path d="M241.1,350.92c-.59-6-.2-10.79-.62-16.86,0-.48-.14-1.06-.59-1.24-.63-.24-1.16.54-1.37,1.18a19.36,19.36,0,0,0,2.57,16.79" style="fill:#e0e0e0"></path><path d="M240.67,351.59a35.29,35.29,0,0,0,10-9.72c2-2.7,3.64-5.93,3.19-9.25a9.62,9.62,0,0,0-7.21,3.58,20.16,20.16,0,0,0-3.67,7.4c-.8,2.65-1.36,5.38-2.3,8" style="fill:#e0e0e0"></path><path d="M250.49,348.86a80.84,80.84,0,0,0,24.6-14.5c-2.94-1.19-6.31-.48-9.24.71a29.13,29.13,0,0,0-15.49,13.73" style="fill:#e0e0e0"></path><path d="M243.43,354.89a50,50,0,0,0,13.66.07c4.43-.74,8.61-2.5,12.75-4.24a1.48,1.48,0,0,0,.86-.66,1,1,0,0,0-.31-1.09,2.63,2.63,0,0,0-1.08-.51,23.61,23.61,0,0,0-13.78.82,64.2,64.2,0,0,0-12.1,5.61" style="fill:#e0e0e0"></path><path d="M217.5,366.08a24.2,24.2,0,0,1-.22-20c1.89,2.87,2.12,6.52,1.77,9.94s-1.38,6.93-1.45,10.36" style="fill:#e0e0e0"></path><path d="M205.13,359.84a27.88,27.88,0,0,0-20.72,8.83,19.35,19.35,0,0,0,11.34-2.1,58.56,58.56,0,0,0,9.73-6.51" style="fill:#e0e0e0"></path><path d="M196.81,357.06c-3.78-.31-7.43-.78-11.06.34a13.22,13.22,0,0,0-8.43,7.15,20,20,0,0,0,10.37-2,60.21,60.21,0,0,0,9.12-5.53" style="fill:#e0e0e0"></path><path d="M209.13,357.19c-3.41-2.23-6.9-4.51-10.86-5.43s-8.56-.24-11.32,2.75c3.2,1.88,7.1,2.1,10.82,2.1s8.28-.05,11.78,1.19" style="fill:#e0e0e0"></path><path d="M209.15,357.37c-5.82-5.72-8-16-5.69-23.8a36.23,36.23,0,0,1,5.69,23.8" style="fill:#e0e0e0"></path><path d="M225.15,341.18c1.1-2.56,1.87-5.23,2.85-7.83a22.68,22.68,0,0,1,4.07-7.22,10.74,10.74,0,0,1,7.21-3.73,29.05,29.05,0,0,1-14,18.82" style="fill:#e0e0e0"></path><path d="M222.25,344.55c-1.81-2.5-3.91-5.89-6.37-7.76a10.69,10.69,0,0,0-8.68-2.28,20.19,20.19,0,0,0,15.05,10" style="fill:#e0e0e0"></path><path d="M222.83,341.38a43,43,0,0,1-2.87-9.29,14.5,14.5,0,0,1,1.46-9.46c3.19,6,4.22,12.52,1.58,18.82" style="fill:#e0e0e0"></path><path d="M225.18,322.63c1.81-6,7.29-10.39,13.21-12.41a4.84,4.84,0,0,1,2.31-.35,2,2,0,0,1,1.71,1.43c.21,1-.63,1.93-1.42,2.6a45,45,0,0,1-15.81,8.73" style="fill:#e0e0e0"></path><path d="M225.24,317.74c.23-3.86.47-7.78,1.73-11.43s3.67-7.09,7.19-8.69c.6,3.9-1.12,7.78-3.19,11.13s-4.57,6.52-5.82,10.26" style="fill:#e0e0e0"></path><path d="M225.15,320.4c-1.5-4.37-1.65-9.91-4.26-13.71-1.83-2.66-4.75-4.46-6.33-7.28a11.13,11.13,0,0,0,.37,8.27,23.93,23.93,0,0,0,4.83,6.91c1.94,2.07,3.59,3.62,5.39,5.81" style="fill:#e0e0e0"></path><path d="M225.18,448.86c-.12,0-.22-29.1-.23-65s.08-65,.2-65,.22,29.09.22,65S225.29,448.86,225.18,448.86Z" style="fill:#e0e0e0"></path><path d="M250.61,361.69a6.12,6.12,0,0,1-1.09.41l-3,1c-2.54.86-6,2.12-9.81,3.67s-7.28,2.91-9.29,4.65a6.82,6.82,0,0,0-1.87,2.48c-.29.68-.34,1.1-.38,1.09s0-.11,0-.31a4.37,4.37,0,0,1,.22-.84,6.46,6.46,0,0,1,1.82-2.64,16.29,16.29,0,0,1,4-2.5c1.62-.76,3.4-1.54,5.3-2.32,3.8-1.56,7.31-2.77,9.88-3.56,1.28-.41,2.33-.7,3.06-.89A6.45,6.45,0,0,1,250.61,361.69Z" style="fill:#e0e0e0"></path><path d="M259,341.22a2.75,2.75,0,0,1-.31.32l-.94.88-3.48,3.17-11.6,10.33c-4.53,4-8.45,7.88-11.16,10.78-1.36,1.45-2.43,2.65-3.16,3.49l-.84,1c-.2.22-.3.33-.32.32a2,2,0,0,1,.25-.37c.18-.24.44-.58.79-1,.69-.87,1.73-2.1,3.06-3.58a146.18,146.18,0,0,1,11.1-10.9c4.54-4,8.68-7.63,11.68-10.24l3.58-3.06,1-.82A1.82,1.82,0,0,1,259,341.22Z" style="fill:#e0e0e0"></path><path d="M237.73,360c-.12,0,.82-2.24,1.77-5s1.4-5.1,1.52-5.08a17,17,0,0,1-1.13,5.21,33.24,33.24,0,0,1-1.4,3.5A6,6,0,0,1,237.73,360Z" style="fill:#e0e0e0"></path><path d="M225.21,377.63a4.18,4.18,0,0,1-.7-.81c-.48-.61-1.08-1.37-1.79-2.29-1.5-1.94-3.58-4.62-5.91-7.55s-4.46-5.57-6-7.47L209,357.25a5,5,0,0,1-.63-.87,5,5,0,0,1,.75.76c.47.51,1.13,1.25,1.93,2.18,1.61,1.85,3.79,4.46,6.12,7.39s4.37,5.65,5.82,7.64c.72,1,1.29,1.81,1.68,2.37A5.36,5.36,0,0,1,225.21,377.63Z" style="fill:#e0e0e0"></path><path d="M219.63,370.47a10.16,10.16,0,0,1-2.34-4.37,12.64,12.64,0,0,1-.53-4.41l.19,0c-.08.33-.14.51-.18.51s0-.2,0-.54H217a20.23,20.23,0,0,0,.75,4.29A31.78,31.78,0,0,0,219.63,370.47Z" style="fill:#e0e0e0"></path><path d="M212.43,361.42a7.22,7.22,0,0,0-1.63-.95,11,11,0,0,0-4.53-.36,26.92,26.92,0,0,0-4.56.74,14.72,14.72,0,0,1-1.87.45,6.33,6.33,0,0,1,1.79-.74,21.28,21.28,0,0,1,4.61-.87,9.86,9.86,0,0,1,4.67.5A2.9,2.9,0,0,1,212.43,361.42Z" style="fill:#e0e0e0"></path><path d="M210.72,359.22c0,.07-.95-.38-2.49-.91a25.28,25.28,0,0,0-12.6-1c-1.61.29-2.58.59-2.6.52a2.79,2.79,0,0,1,.66-.28,17.45,17.45,0,0,1,1.88-.53,22.3,22.3,0,0,1,12.76,1,17.52,17.52,0,0,1,1.78.81A2.29,2.29,0,0,1,210.72,359.22Z" style="fill:#e0e0e0"></path><path d="M225.15,349.94a105.19,105.19,0,0,1-3.24-12.76,51.91,51.91,0,0,1,1.82,6.33A51.38,51.38,0,0,1,225.15,349.94Z" style="fill:#e0e0e0"></path><path d="M225.27,349.94a31.52,31.52,0,0,0-2-3.79,16.5,16.5,0,0,0-3-3.06s.49.12,1.15.59a9.07,9.07,0,0,1,2.17,2.23A8.52,8.52,0,0,1,225.27,349.94Z" style="fill:#e0e0e0"></path><path d="M225.18,433.35c-.05,0-.13-.7-.46-1.94a28.05,28.05,0,0,0-1.94-5,70.09,70.09,0,0,0-10.32-14.54c-2.31-2.63-4.54-5.11-6.44-7.49a53.09,53.09,0,0,1-4.6-6.64,31.74,31.74,0,0,1-2.32-4.92c-.22-.61-.37-1.08-.46-1.41a2.94,2.94,0,0,1-.12-.51s.25.67.73,1.86a36,36,0,0,0,2.43,4.83,54.86,54.86,0,0,0,4.64,6.54c1.91,2.36,4.15,4.83,6.45,7.46A65.76,65.76,0,0,1,223,426.25a25,25,0,0,1,1.84,5.12c.13.64.22,1.13.26,1.46A2.89,2.89,0,0,1,225.18,433.35Z" style="fill:#e0e0e0"></path><path d="M248.16,407.39a10.58,10.58,0,0,1-1.21.68,26.54,26.54,0,0,0-3.12,2.06,36.08,36.08,0,0,0-4.1,3.75c-1.44,1.52-2.93,3.28-4.44,5.18-3,3.79-5.86,7.16-7.55,9.84-.86,1.33-1.49,2.45-1.9,3.24a11,11,0,0,1-.66,1.21,1.08,1.08,0,0,1,.11-.34c.09-.22.21-.54.4-.95a30.88,30.88,0,0,1,1.8-3.32,108,108,0,0,1,7.47-9.95c1.52-1.89,3-3.66,4.49-5.18a33.08,33.08,0,0,1,4.2-3.71,22.08,22.08,0,0,1,3.23-2c.4-.2.72-.32.94-.41A1.37,1.37,0,0,1,248.16,407.39Z" style="fill:#e0e0e0"></path><path d="M248.61,415.81a17.78,17.78,0,0,1-2.55.37,34.44,34.44,0,0,0-6,1.19,17.94,17.94,0,0,0-5.41,2.84c-1.25,1-1.83,1.76-1.89,1.71a1.92,1.92,0,0,1,.38-.58,8.88,8.88,0,0,1,1.32-1.36,16.35,16.35,0,0,1,5.47-3,27.34,27.34,0,0,1,6.13-1.08A14.51,14.51,0,0,1,248.61,415.81Z" style="fill:#e0e0e0"></path><path d="M233.47,421c-.13-.08,1-1.83,1.91-4.19s1-4.46,1.18-4.44a4.18,4.18,0,0,1-.05,1.37,14.93,14.93,0,0,1-.74,3.22,15.16,15.16,0,0,1-1.48,3A4,4,0,0,1,233.47,421Z" style="fill:#e0e0e0"></path><path d="M255.6,384.79a2.07,2.07,0,0,1-.41.21l-1.19.55c-.53.22-1.16.51-1.88.88s-1.56.76-2.43,1.28l-1.39.79c-.48.28-1,.61-1.46.93-1,.62-2.05,1.38-3.15,2.16a54,54,0,0,0-12.11,12.53c-.74,1.12-1.47,2.17-2.06,3.22-.3.52-.61,1-.87,1.49s-.5,1-.74,1.42c-.49.89-.85,1.74-1.19,2.47s-.62,1.38-.83,1.91l-.5,1.21a2.63,2.63,0,0,1-.2.42,1.54,1.54,0,0,1,.12-.44c.11-.33.26-.75.43-1.25s.43-1.2.76-1.94.66-1.61,1.14-2.51l.73-1.44c.25-.5.56-1,.85-1.52.58-1.06,1.3-2.12,2-3.26a56.89,56.89,0,0,1,5.57-6.83,56.11,56.11,0,0,1,6.63-5.79c1.11-.78,2.15-1.54,3.19-2.15.51-.31,1-.64,1.49-.91l1.41-.77c.88-.51,1.74-.87,2.47-1.23s1.38-.62,1.91-.82l1.23-.48A1.59,1.59,0,0,1,255.6,384.79Z" style="fill:#e0e0e0"></path><path d="M237.41,397a3.07,3.07,0,0,1,1-1.49,6.35,6.35,0,0,1,4-1.54,10.75,10.75,0,0,1,4.24.83,6.54,6.54,0,0,1,1.61.77,9.44,9.44,0,0,1-1.7-.49,12.62,12.62,0,0,0-4.13-.69,6.5,6.5,0,0,0-3.85,1.35A11.86,11.86,0,0,0,237.41,397Z" style="fill:#e0e0e0"></path><path d="M234.7,399.78a15.44,15.44,0,0,0,1.14-3.73,14.52,14.52,0,0,0-.26-3.88,2.42,2.42,0,0,1,.48,1.08,7.81,7.81,0,0,1,.2,2.85,7.7,7.7,0,0,1-.86,2.73C235.05,399.47,234.74,399.81,234.7,399.78Z" style="fill:#e0e0e0"></path><path d="M205.08,437.52c.63,11.12,4,22.43,9.13,33.87h22.42c4.91-11.33,8-22.62,8.59-33.87Z" style="fill:#e0e0e0"></path><path d="M241.59,455.52c0,.11-7.38.21-16.49.21s-16.48-.1-16.48-.21,7.38-.22,16.48-.22S241.59,455.4,241.59,455.52Z" style="fill:#fafafa"></path><path d="M241.09,459.54c0,.12-6.92.21-15.46.21s-15.45-.09-15.45-.21,6.92-.21,15.45-.21S241.09,459.43,241.09,459.54Z" style="fill:#fafafa"></path><path d="M214.57,444.82a63.62,63.62,0,0,1,0,10.33,63.62,63.62,0,0,1,0-10.33Z" style="fill:#fafafa"></path><path d="M226.58,444.82a68.25,68.25,0,0,1,0,10.7,68.25,68.25,0,0,1,0-10.7Z" style="fill:#fafafa"></path><path d="M237.86,444.73a71,71,0,0,1,0,10.91,71,71,0,0,1,0-10.91Z" style="fill:#fafafa"></path><path d="M244.51,444.82c0,.12-8.66.21-19.34.21s-19.33-.09-19.33-.21,8.66-.21,19.33-.21S244.51,444.7,244.51,444.82Z" style="fill:#fafafa"></path><path d="M491.77,391.73a28.39,28.39,0,0,0-12.16-4.18c-2-.21-4.16-.15-5.75,1.06a1.16,1.16,0,0,0-.59,1.05,1.27,1.27,0,0,0,.56.72,17.37,17.37,0,0,0,17.94,1.35" style="fill:#e0e0e0"></path><path d="M491.46,391.39a59.37,59.37,0,0,1-7.85-6.91,19.86,19.86,0,0,1-4.93-9.11,3.71,3.71,0,0,1,.39-3.05c6.26,4.89,11.18,11.22,12.39,19.07" style="fill:#e0e0e0"></path><path d="M491.71,391.69a28.62,28.62,0,0,1,.14-10.32,14,14,0,0,1,5.5-8.51c1.08,2.53.61,5.45-.15,8.09a39.5,39.5,0,0,1-5.44,11.47" style="fill:#e0e0e0"></path><path d="M497.85,402.69a18,18,0,0,0-9.76,4.93,18.41,18.41,0,0,0-5.57,9.58c3.65-.23,6.75-2.8,9-5.69s3.81-6.07,6.28-8.77" style="fill:#e0e0e0"></path><path d="M499.18,404.44A24.05,24.05,0,0,1,502,381.69c2.12,7.55,1.34,16.08-2.78,22.75" style="fill:#e0e0e0"></path><path d="M507.29,414.1a17.4,17.4,0,0,0-16.63,9.57c-.21.42-.39.94-.11,1.31a1.22,1.22,0,0,0,1.1.32c3.28-.21,6.18-2.18,8.58-4.43s4.48-4.84,7.13-6.78" style="fill:#e0e0e0"></path><path d="M507,413.58a31.07,31.07,0,0,1-.31-17.31c.61-2.22,1.63-4.57,3.69-5.61a.57.57,0,0,1,.93.31,10.52,10.52,0,0,1,.87,5,31.69,31.69,0,0,1-.78,5c-.65,3.07-1,6.37-2.68,9a18.9,18.9,0,0,0-1.07,2c-.32.68-.32.91-.61,1.45" style="fill:#e0e0e0"></path><path d="M528.5,416.77a22.31,22.31,0,0,1,3.91-18.34c.28-.36.65-.76,1.11-.71.7.06.88,1,.85,1.7a33.12,33.12,0,0,1-5.87,17.35" style="fill:#e0e0e0"></path><path d="M530.43,418.1a26.69,26.69,0,0,0,21.9-4.46,17.72,17.72,0,0,0-11.85-1.45c-4,.9-7.58,2.68-10.05,5.91" style="fill:#e0e0e0"></path><path d="M532.07,414.07a25.29,25.29,0,0,1,19.87-11.49c-.91,3.2-3.54,5.68-6.5,7.18a35.74,35.74,0,0,1-9.54,2.79c-1.27.25-3,.52-3.83,1.52" style="fill:#e0e0e0"></path><path d="M528.91,394.52a58.31,58.31,0,0,0,2.54-11.64,19.43,19.43,0,0,0-2.32-11.51,25.37,25.37,0,0,0-.34,23.55" style="fill:#e0e0e0"></path><path d="M541.85,388c4.5-8.17,13.67-14.7,23-15.62-3.58,8.92-13.35,15.81-23,15.62" style="fill:#e0e0e0"></path><path d="M539,389.58c6.71,1,12.42,5.31,18.69,7.9a8.33,8.33,0,0,0,4.23.81,3.31,3.31,0,0,0,2.07-5.85,9.1,9.1,0,0,0-3.07-1.86c-6.83-2.84-14.15-2.91-21.34-1.19" style="fill:#e0e0e0"></path><path d="M535.14,394.28c1.52.44,2,1.23,3.24,2.25a35,35,0,0,0,14.17,7.28c.54.13,1.25.19,1.52-.3s-.06-.95-.36-1.33a19.6,19.6,0,0,0-8.56-5.81c-3.27-1.21-6.1-2.68-10-2.37" style="fill:#e0e0e0"></path><path d="M530.76,365.88a26.82,26.82,0,0,0,20.56,7,1.4,1.4,0,0,0,.94-.33c.52-.57-.1-1.44-.71-1.91-6-4.71-13.36-6.66-20.79-4.75" style="fill:#e0e0e0"></path><path d="M536,364a28.63,28.63,0,0,1,25.65-4.24,20.33,20.33,0,0,1-12.22,5.37A38.75,38.75,0,0,1,536,364" style="fill:#e0e0e0"></path><path d="M533.89,350.92c-.59-6-.21-10.79-.62-16.86,0-.48-.14-1.06-.6-1.24-.63-.24-1.15.54-1.36,1.18a19.33,19.33,0,0,0,2.57,16.79" style="fill:#e0e0e0"></path><path d="M533.46,351.59a35.29,35.29,0,0,0,10-9.72c2-2.7,3.64-5.93,3.19-9.25a9.62,9.62,0,0,0-7.21,3.58,20.16,20.16,0,0,0-3.67,7.4c-.8,2.65-1.36,5.38-2.3,8" style="fill:#e0e0e0"></path><path d="M543.28,348.86a80.67,80.67,0,0,0,24.59-14.5c-2.93-1.19-6.3-.48-9.24.71a29.11,29.11,0,0,0-15.48,13.73" style="fill:#e0e0e0"></path><path d="M536.22,354.89a50,50,0,0,0,13.66.07c4.42-.74,8.61-2.5,12.75-4.24a1.48,1.48,0,0,0,.86-.66,1,1,0,0,0-.31-1.09,2.69,2.69,0,0,0-1.08-.51,23.61,23.61,0,0,0-13.78.82,64.2,64.2,0,0,0-12.1,5.61" style="fill:#e0e0e0"></path><path d="M510.29,366.08a24.2,24.2,0,0,1-.22-20c1.89,2.87,2.12,6.52,1.77,9.94s-1.38,6.93-1.45,10.36" style="fill:#e0e0e0"></path><path d="M497.92,359.84a27.86,27.86,0,0,0-20.72,8.83,19.35,19.35,0,0,0,11.34-2.1,59,59,0,0,0,9.73-6.51" style="fill:#e0e0e0"></path><path d="M489.6,357.06c-3.79-.31-7.43-.78-11.06.34a13.27,13.27,0,0,0-8.44,7.15,20,20,0,0,0,10.37-2,59.81,59.81,0,0,0,9.13-5.53" style="fill:#e0e0e0"></path><path d="M501.92,357.19c-3.41-2.23-6.9-4.51-10.87-5.43s-8.55-.24-11.32,2.75c3.21,1.88,7.11,2.1,10.82,2.1s8.28-.05,11.79,1.19" style="fill:#e0e0e0"></path><path d="M501.94,357.37c-5.82-5.72-8-16-5.69-23.8a36.23,36.23,0,0,1,5.69,23.8" style="fill:#e0e0e0"></path><path d="M517.94,341.18c1.1-2.56,1.87-5.23,2.85-7.83a22.68,22.68,0,0,1,4.07-7.22,10.72,10.72,0,0,1,7.21-3.73,29.05,29.05,0,0,1-14,18.82" style="fill:#e0e0e0"></path><path d="M515,344.55c-1.81-2.5-3.91-5.89-6.38-7.76a10.66,10.66,0,0,0-8.67-2.28,20.19,20.19,0,0,0,15,10" style="fill:#e0e0e0"></path><path d="M515.62,341.38a43,43,0,0,1-2.87-9.29,14.5,14.5,0,0,1,1.46-9.46c3.19,6,4.22,12.52,1.57,18.82" style="fill:#e0e0e0"></path><path d="M518,322.63c1.81-6,7.29-10.39,13.2-12.41a4.9,4.9,0,0,1,2.32-.35,2,2,0,0,1,1.71,1.43c.21,1-.63,1.93-1.42,2.6A45,45,0,0,1,518,322.63" style="fill:#e0e0e0"></path><path d="M518,317.74c.23-3.86.47-7.78,1.73-11.43s3.67-7.09,7.19-8.69c.6,3.9-1.12,7.78-3.19,11.13s-4.58,6.52-5.82,10.26" style="fill:#e0e0e0"></path><path d="M517.94,320.4c-1.5-4.37-1.65-9.91-4.26-13.71-1.83-2.66-4.75-4.46-6.33-7.28a11.13,11.13,0,0,0,.37,8.27,23.93,23.93,0,0,0,4.83,6.91c1.94,2.07,3.59,3.62,5.39,5.81" style="fill:#e0e0e0"></path><path d="M518,448.86c-.12,0-.22-29.1-.23-65s.08-65,.2-65,.21,29.09.22,65S518.08,448.86,518,448.86Z" style="fill:#e0e0e0"></path><path d="M543.4,361.69a6.06,6.06,0,0,1-1.1.41l-3,1c-2.54.86-6,2.12-9.81,3.67s-7.28,2.91-9.3,4.65a6.89,6.89,0,0,0-1.86,2.48c-.29.68-.34,1.1-.38,1.09s0-.11,0-.31a4.2,4.2,0,0,1,.21-.84,6.6,6.6,0,0,1,1.83-2.64,16.29,16.29,0,0,1,4-2.5c1.61-.76,3.4-1.54,5.3-2.32,3.8-1.56,7.31-2.77,9.88-3.56,1.28-.41,2.33-.7,3.06-.89A6.25,6.25,0,0,1,543.4,361.69Z" style="fill:#e0e0e0"></path><path d="M551.73,341.22a1.6,1.6,0,0,1-.3.32l-.94.88L547,345.59,535.4,355.92c-4.53,4-8.44,7.88-11.15,10.78-1.36,1.45-2.43,2.65-3.16,3.49l-.84,1a1.84,1.84,0,0,1-.32.32,2,2,0,0,1,.25-.37c.18-.24.43-.58.78-1,.7-.87,1.74-2.1,3.07-3.58a147.69,147.69,0,0,1,11.09-10.9c4.55-4,8.68-7.63,11.69-10.24l3.57-3.06,1-.82A2,2,0,0,1,551.73,341.22Z" style="fill:#e0e0e0"></path><path d="M530.51,360c-.11,0,.83-2.24,1.77-5s1.4-5.1,1.52-5.08a16.8,16.8,0,0,1-1.12,5.21,31,31,0,0,1-1.41,3.5A5.2,5.2,0,0,1,530.51,360Z" style="fill:#e0e0e0"></path><path d="M518,377.63a5,5,0,0,1-.69-.81c-.48-.61-1.08-1.37-1.79-2.29-1.5-1.94-3.58-4.62-5.91-7.55s-4.47-5.57-6-7.47l-1.82-2.26a5,5,0,0,1-.63-.87,5,5,0,0,1,.75.76c.47.51,1.13,1.25,1.93,2.18,1.61,1.85,3.79,4.46,6.12,7.39s4.37,5.65,5.82,7.64c.72,1,1.29,1.81,1.68,2.37A4.83,4.83,0,0,1,518,377.63Z" style="fill:#e0e0e0"></path><path d="M512.42,370.47a10.16,10.16,0,0,1-2.34-4.37,12.64,12.64,0,0,1-.53-4.41l.19,0c-.09.33-.15.51-.18.51s0-.2,0-.54h.19a20.71,20.71,0,0,0,.74,4.29A32.47,32.47,0,0,0,512.42,370.47Z" style="fill:#e0e0e0"></path><path d="M505.22,361.42a7.54,7.54,0,0,0-1.63-.95,11,11,0,0,0-4.53-.36,26.92,26.92,0,0,0-4.56.74,14.17,14.17,0,0,1-1.88.45,6.32,6.32,0,0,1,1.8-.74,21,21,0,0,1,4.61-.87,9.86,9.86,0,0,1,4.67.5A2.9,2.9,0,0,1,505.22,361.42Z" style="fill:#e0e0e0"></path><path d="M503.51,359.22c0,.07-.95-.38-2.5-.91a25.23,25.23,0,0,0-12.59-1c-1.61.29-2.58.59-2.61.52a3,3,0,0,1,.67-.28,17.45,17.45,0,0,1,1.88-.53,22.3,22.3,0,0,1,12.76,1,17.52,17.52,0,0,1,1.78.81A2.29,2.29,0,0,1,503.51,359.22Z" style="fill:#e0e0e0"></path><path d="M517.94,349.94a105.19,105.19,0,0,1-3.24-12.76,51.91,51.91,0,0,1,1.82,6.33A51.38,51.38,0,0,1,517.94,349.94Z" style="fill:#e0e0e0"></path><path d="M518.05,349.94a29.88,29.88,0,0,0-2-3.79,16.29,16.29,0,0,0-3-3.06s.49.12,1.15.59a9.07,9.07,0,0,1,2.17,2.23A8.32,8.32,0,0,1,518.05,349.94Z" style="fill:#e0e0e0"></path><path d="M518,433.35c-.05,0-.13-.7-.46-1.94a28.23,28.23,0,0,0-2-5,70,70,0,0,0-10.31-14.54c-2.31-2.63-4.54-5.11-6.44-7.49a53.09,53.09,0,0,1-4.6-6.64,30.82,30.82,0,0,1-2.32-4.92c-.22-.61-.37-1.08-.46-1.41a2.94,2.94,0,0,1-.12-.51s.25.67.73,1.86a36,36,0,0,0,2.43,4.83,53.73,53.73,0,0,0,4.64,6.54c1.91,2.36,4.14,4.83,6.45,7.46a66.1,66.1,0,0,1,10.27,14.69,25,25,0,0,1,1.84,5.12c.13.64.22,1.13.25,1.46A2.54,2.54,0,0,1,518,433.35Z" style="fill:#e0e0e0"></path><path d="M541,407.39a10.58,10.58,0,0,1-1.21.68,25.73,25.73,0,0,0-3.12,2.06,36.08,36.08,0,0,0-4.1,3.75c-1.44,1.52-2.93,3.28-4.44,5.18-3,3.79-5.86,7.16-7.55,9.84-.86,1.33-1.49,2.45-1.9,3.24a11,11,0,0,1-.66,1.21s0-.12.11-.34.21-.54.4-.95a32.34,32.34,0,0,1,1.79-3.32,110.26,110.26,0,0,1,7.48-9.95c1.52-1.89,3-3.66,4.49-5.18a33.08,33.08,0,0,1,4.2-3.71,22.08,22.08,0,0,1,3.23-2c.4-.2.72-.32.94-.41A1.24,1.24,0,0,1,541,407.39Z" style="fill:#e0e0e0"></path><path d="M541.4,415.81a18.1,18.1,0,0,1-2.55.37,34.71,34.71,0,0,0-6,1.19,18,18,0,0,0-5.4,2.84c-1.25,1-1.84,1.76-1.89,1.71a2,2,0,0,1,.37-.58,9.57,9.57,0,0,1,1.33-1.36,16.29,16.29,0,0,1,5.46-3,27.51,27.51,0,0,1,6.14-1.08A14.51,14.51,0,0,1,541.4,415.81Z" style="fill:#e0e0e0"></path><path d="M526.26,421c-.13-.08,1-1.83,1.9-4.19s1-4.46,1.18-4.44a3.69,3.69,0,0,1,0,1.37,14.93,14.93,0,0,1-.74,3.22,15.75,15.75,0,0,1-1.48,3A4,4,0,0,1,526.26,421Z" style="fill:#e0e0e0"></path><path d="M548.39,384.79,548,385l-1.19.55c-.53.22-1.16.51-1.88.88s-1.56.76-2.43,1.28l-1.39.79c-.48.28-1,.61-1.47.93-1,.62-2,1.38-3.14,2.16a54,54,0,0,0-12.11,12.53c-.74,1.12-1.47,2.17-2.06,3.22-.3.52-.61,1-.87,1.49s-.5,1-.74,1.42c-.5.89-.85,1.74-1.2,2.47s-.61,1.38-.82,1.91l-.5,1.21a2.63,2.63,0,0,1-.2.42,1.54,1.54,0,0,1,.12-.44c.11-.33.25-.75.43-1.25a18.9,18.9,0,0,1,.76-1.94c.33-.74.66-1.61,1.14-2.51l.72-1.44c.26-.5.57-1,.86-1.52.58-1.06,1.3-2.12,2-3.26a57.75,57.75,0,0,1,5.56-6.83,57,57,0,0,1,6.64-5.79c1.11-.78,2.15-1.54,3.19-2.15.51-.31,1-.64,1.48-.91l1.41-.77c.89-.51,1.75-.87,2.48-1.23s1.38-.62,1.91-.82l1.23-.48A1.41,1.41,0,0,1,548.39,384.79Z" style="fill:#e0e0e0"></path><path d="M530.2,397a3.07,3.07,0,0,1,1-1.49,6.35,6.35,0,0,1,4-1.54,10.75,10.75,0,0,1,4.24.83,6.54,6.54,0,0,1,1.61.77,9.65,9.65,0,0,1-1.71-.49,12.51,12.51,0,0,0-4.12-.69,6.5,6.5,0,0,0-3.85,1.35A11.86,11.86,0,0,0,530.2,397Z" style="fill:#e0e0e0"></path><path d="M527.48,399.78a15.19,15.19,0,0,0,1.15-3.73,15,15,0,0,0-.26-3.88s.28.38.47,1.08a7.78,7.78,0,0,1,.21,2.85,7.7,7.7,0,0,1-.86,2.73C527.84,399.47,527.52,399.81,527.48,399.78Z" style="fill:#e0e0e0"></path><path d="M497.87,437.52c.63,11.12,4,22.43,9.13,33.87h22.42c4.91-11.33,8-22.62,8.59-33.87Z" style="fill:#e0e0e0"></path><path d="M534.37,455.52c0,.11-7.38.21-16.48.21s-16.48-.1-16.48-.21,7.38-.22,16.48-.22S534.37,455.4,534.37,455.52Z" style="fill:#fafafa"></path><path d="M533.87,459.54c0,.12-6.92.21-15.45.21s-15.45-.09-15.45-.21,6.92-.21,15.45-.21S533.87,459.43,533.87,459.54Z" style="fill:#fafafa"></path><path d="M507.36,444.82a63.62,63.62,0,0,1,0,10.33,63.62,63.62,0,0,1,0-10.33Z" style="fill:#fafafa"></path><path d="M519.37,444.82a68.25,68.25,0,0,1,0,10.7,68.25,68.25,0,0,1,0-10.7Z" style="fill:#fafafa"></path><path d="M530.65,444.73a71,71,0,0,1,0,10.91,71,71,0,0,1,0-10.91Z" style="fill:#fafafa"></path><path d="M537.3,444.82c0,.12-8.66.21-19.34.21s-19.33-.09-19.33-.21,8.65-.21,19.33-.21S537.3,444.7,537.3,444.82Z" style="fill:#fafafa"></path></g><g id="freepik--Floor--inject-1105"><path d="M24.93,471.51H725.07a.13.13,0,0,0,0-.25H24.93a.13.13,0,0,0,0,.25Z" style="fill:#263238"></path></g><g id="freepik--musical-notes--inject-1105"><path d="M720.8,225.81a2.59,2.59,0,0,0-1.5-1.6c-.82-.74-2.12-1.88-3.52-3.24-.86-.83-1.68-1.58-2.39-2.21a4,4,0,0,0,2.21-1.27,3.15,3.15,0,0,0,1.06-2.68c-.17,0-.44,1.21-1.48,2.29a7.54,7.54,0,0,1-2,1.47c-.71-.61-1.29-1.07-1.64-1.32a4.71,4.71,0,0,0,2.23-1.61,3.69,3.69,0,0,0,1-2.81c-.16,0-.49,1.24-1.49,2.45a12.26,12.26,0,0,1-2,1.84c-.1-.05-.16-.08-.18-.06s0,.08.09.16,0,0,0,0,0,0,0,0c.48.58,2.12,2.19,4.09,4.1a36.12,36.12,0,0,0,3.08,2.64,2.6,2.6,0,1,0,2.34,1.78Z" style="fill:#263238"></path><path d="M293.46,218.58A2.62,2.62,0,0,0,292,217c-.82-.74-2.11-1.88-3.52-3.24-.86-.83-1.68-1.58-2.39-2.2a4.15,4.15,0,0,0,2.22-1.27,3.18,3.18,0,0,0,1.05-2.69,15.87,15.87,0,0,1-1.47,2.29,7.64,7.64,0,0,1-2,1.48c-.71-.62-1.28-1.08-1.64-1.33a4.77,4.77,0,0,0,2.24-1.61,3.69,3.69,0,0,0,1.05-2.81c-.17,0-.5,1.24-1.5,2.45a11.41,11.41,0,0,1-2,1.84c-.09,0-.16-.08-.17-.06s0,.08.09.16a.08.08,0,0,0,0,0s0,0,.06,0c.48.58,2.12,2.19,4.09,4.1a33.07,33.07,0,0,0,3.07,2.64,2.35,2.35,0,0,0-.94.13,2.6,2.6,0,1,0,3.29,1.66Z" style="fill:#263238"></path><path d="M52.58,223.85a2.62,2.62,0,0,0-1.5-1.6c-.82-.74-2.12-1.88-3.52-3.24-.86-.83-1.68-1.58-2.39-2.2a4.12,4.12,0,0,0,2.22-1.28,3.16,3.16,0,0,0,1-2.68c-.17,0-.44,1.21-1.47,2.29a7.64,7.64,0,0,1-2,1.48c-.71-.62-1.29-1.08-1.64-1.33a4.77,4.77,0,0,0,2.24-1.61,3.74,3.74,0,0,0,1.05-2.81c-.17,0-.5,1.24-1.5,2.45a11.79,11.79,0,0,1-2,1.84c-.1,0-.16-.08-.18-.06s0,.08.09.16,0,0,0,0,0,0,0,0c.48.58,2.12,2.19,4.09,4.1a36.12,36.12,0,0,0,3.08,2.64,2.54,2.54,0,0,0-.94.12,2.6,2.6,0,1,0,3.28,1.66Z" style="fill:#263238"></path><path d="M491.92,211.2a2.61,2.61,0,0,0-1.51-1.6c-.81-.74-2.11-1.88-3.52-3.24-.86-.83-1.68-1.58-2.39-2.21a4,4,0,0,0,2.22-1.27c1.17-1.23,1.21-2.7,1-2.68a15.87,15.87,0,0,1-1.47,2.29,7.54,7.54,0,0,1-2,1.47c-.72-.61-1.29-1.07-1.64-1.32a4.76,4.76,0,0,0,2.23-1.61,3.69,3.69,0,0,0,1.05-2.81c-.16,0-.5,1.24-1.49,2.45a12.19,12.19,0,0,1-2,1.84c-.09,0-.16-.08-.17-.06s0,.08.09.16a.08.08,0,0,0,0,0,.06.06,0,0,0,.06,0c.48.58,2.12,2.19,4.09,4.1a34.64,34.64,0,0,0,3.08,2.64,2.56,2.56,0,0,0-.95.12,2.61,2.61,0,1,0,3.29,1.66Z" style="fill:#263238"></path><path d="M169.66,203.28a2.63,2.63,0,0,0,.64-2.1c.24-1.08.59-2.77,1.07-4.67.29-1.16.54-2.24.73-3.17a4.06,4.06,0,0,0,2.2,1.3,3.18,3.18,0,0,0,2.85-.42,16.47,16.47,0,0,1-2.72-.14,7.67,7.67,0,0,1-2.28-1,20.78,20.78,0,0,0,.34-2.08,4.83,4.83,0,0,0,2.5,1.14,3.72,3.72,0,0,0,3-.48c-.05-.16-1.33.18-2.87-.09a12.06,12.06,0,0,1-2.59-.81c0-.11,0-.18,0-.18s-.06.05-.1.15l0,0s0,0,0,.06c-.27.7-.85,2.93-1.53,5.59a35.77,35.77,0,0,0-.77,4,2.6,2.6,0,1,0-.38,2.92Z" style="fill:#263238"></path><path d="M659.8,181.62h0c.05-.26-1.75-.65-3.54-1.84a7.52,7.52,0,0,1-2-1.84,7.75,7.75,0,0,1-.5-.8c0-.17,0-.28,0-.29s-1.4,2-2.82,4.75a25,25,0,0,0-1.43,3.25,2.38,2.38,0,0,0-3.61-1.21,2.38,2.38,0,1,0,3.67,2.45c.47-.86,1.2-2.39,2.1-4.12.44-.83.83-1.63,1.15-2.34a6.27,6.27,0,0,0,2.49,2.61,6.52,6.52,0,0,0,3.38,1c-.48.83-1.08,1.93-1.72,3.15a28.18,28.18,0,0,0-1.43,3.26,2.31,2.31,0,0,0-.3-.61,2.38,2.38,0,1,0-.6,3.3,2.32,2.32,0,0,0,1-1.45c.46-.86,1.2-2.4,2.1-4.13C659.12,184.05,660,181.71,659.8,181.62Zm-4.06-.09a20.3,20.3,0,0,1-2.79-2.2c.28-.62.49-1.17.64-1.58a2.41,2.41,0,0,0,.18.48,5.59,5.59,0,0,0,2,2.24,6.47,6.47,0,0,0,3.89,1.21,7.43,7.43,0,0,0-.82,1.23A17.32,17.32,0,0,1,655.74,181.53Z" style="fill:#263238"></path><path d="M557.48,233.92h0c.06-.26-1.74-.65-3.54-1.84a7.62,7.62,0,0,1-2-1.84,5.63,5.63,0,0,1-.5-.81c0-.17,0-.27,0-.29-.2-.08-1.41,2.05-2.83,4.75a29,29,0,0,0-1.43,3.26,2.47,2.47,0,0,0-.3-.61,2.38,2.38,0,1,0,.37,1.85c.46-.86,1.2-2.39,2.1-4.12.43-.84.82-1.64,1.14-2.35a6.19,6.19,0,0,0,2.5,2.61,6.4,6.4,0,0,0,3.37,1c-.48.83-1.08,1.93-1.71,3.15a26.71,26.71,0,0,0-1.44,3.25,1.88,1.88,0,0,0-.3-.6,2.37,2.37,0,1,0,.37,1.85c.47-.86,1.2-2.4,2.1-4.13C556.8,236.35,557.7,234,557.48,233.92Zm-4.06-.09a21,21,0,0,1-2.79-2.2c.28-.63.5-1.17.64-1.59a3.33,3.33,0,0,0,.18.49,5.59,5.59,0,0,0,2,2.24,6.58,6.58,0,0,0,3.89,1.21,7.66,7.66,0,0,0-.82,1.22A17.69,17.69,0,0,1,553.42,233.83Z" style="fill:#263238"></path><path d="M331.77,159.74h0c.05-.25-1.75-.64-3.55-1.83a6.83,6.83,0,0,1-2.48-2.65c0-.17,0-.27,0-.29-.2-.08-1.41,2-2.82,4.75a25.1,25.1,0,0,0-1.43,3.26,2.2,2.2,0,0,0-.31-.61,2.37,2.37,0,1,0-.6,3.3,2.32,2.32,0,0,0,1-1.45c.47-.86,1.2-2.4,2.1-4.13.44-.83.83-1.63,1.15-2.34a6.84,6.84,0,0,0,5.86,3.59c-.48.84-1.07,1.94-1.71,3.15a27.23,27.23,0,0,0-1.43,3.26,2.47,2.47,0,0,0-.3-.61,2.38,2.38,0,1,0-.6,3.31,2.45,2.45,0,0,0,1-1.46c.46-.86,1.2-2.39,2.1-4.12C331.09,162.17,332,159.84,331.77,159.74Zm-4.06-.09a20.5,20.5,0,0,1-2.79-2.19c.27-.63.49-1.17.64-1.59a3.2,3.2,0,0,0,.17.49,5.6,5.6,0,0,0,2,2.23,6.58,6.58,0,0,0,3.88,1.22,7.36,7.36,0,0,0-.81,1.22A16.61,16.61,0,0,1,327.71,159.65Z" style="fill:#263238"></path><path d="M220.63,237h0c.06-.25-1.74-.64-3.54-1.83a7.62,7.62,0,0,1-2-1.84,6.25,6.25,0,0,1-.5-.81c0-.17,0-.27,0-.29-.2-.08-1.41,2.05-2.82,4.75a26.78,26.78,0,0,0-1.44,3.26,2.16,2.16,0,0,0-.3-.61,2.38,2.38,0,1,0,.37,1.85c.47-.86,1.2-2.4,2.1-4.12.44-.84.82-1.64,1.15-2.35a6.27,6.27,0,0,0,2.49,2.61,6.43,6.43,0,0,0,3.37,1c-.48.83-1.07,1.93-1.71,3.15a25,25,0,0,0-1.43,3.25,2.65,2.65,0,0,0-.3-.61,2.41,2.41,0,1,0,.36,1.85c.47-.86,1.2-2.39,2.1-4.12C220,239.4,220.86,237.06,220.63,237Zm-4.06-.08a20.81,20.81,0,0,1-2.78-2.2c.27-.63.49-1.17.64-1.59a3.2,3.2,0,0,0,.17.49,5.53,5.53,0,0,0,2,2.23,6.58,6.58,0,0,0,3.88,1.22,7.88,7.88,0,0,0-.82,1.22A17.69,17.69,0,0,1,216.57,236.88Z" style="fill:#263238"></path></g><g id="freepik--character-3--inject-1105"><path d="M578.93,155.38l-.17,1.94a4.82,4.82,0,0,0-2.66-3.69,6.07,6.07,0,0,0-6.08.81,8.94,8.94,0,0,0-3.17,5.45,12,12,0,0,0,7.63,13.23,4.37,4.37,0,0,0,2.71.23c1.58-.47,2.38-2.22,2.74-3.83C581,164.87,580,160,578.93,155.38Z" style="fill:#263238"></path><path d="M583,145.8A25.78,25.78,0,0,1,602.49,135c4.53-.28,6.45.58,9.76,1.32a14.34,14.34,0,0,1,8.39,5c2.46,3.18,4.57,6.78,5.18,10.75s-1.11,8.16-1.24,12.29-1.42,9.67-3.7,13.12l-7.66,1c-5.78.45-13.26,7.28-19,6.21s-9.49-6.41-12.77-10.89C576.73,167.3,578.14,152.24,583,145.8Z" style="fill:#263238"></path><path d="M592.28,145.32,606,139.16l3.67.26c8.21-.33,14.26,8.48,14.61,15.12.38,7.38.56,16.41-.38,21.9-1.88,11.05-11.18,12.37-11.18,12.37l.14,9.17,3.63,5.31.35,22.83-17.09,2.63-8.47-31.32-.18-7.79-2.34-40.41A3.89,3.89,0,0,1,592.28,145.32Z" style="fill:#ffbf9d"></path><path d="M607.37,174.6a2.29,2.29,0,0,1,.74-1.47,2.37,2.37,0,0,1,2.88-.29,3.18,3.18,0,0,1,1.34,2.94h0a2.91,2.91,0,0,1-2,1.29,2.81,2.81,0,0,1-2.17-.59A2.26,2.26,0,0,1,607.37,174.6Z" style="fill:#ff9a6c"></path><path d="M621.2,163.25a1.44,1.44,0,0,1-1.39,1.42,1.37,1.37,0,0,1-1.45-1.3,1.42,1.42,0,0,1,1.38-1.42A1.37,1.37,0,0,1,621.2,163.25Z" style="fill:#263238"></path><path d="M621.93,158.34c-.18.18-1.25-.62-2.77-.64s-2.66.74-2.82.55.1-.41.59-.76a3.86,3.86,0,0,1,2.26-.67,3.69,3.69,0,0,1,2.21.74C621.86,157.92,622,158.26,621.93,158.34Z" style="fill:#263238"></path><path d="M612.66,170.72a10,10,0,0,1,2.49-.42c.39,0,.76-.11.83-.38a2,2,0,0,0-.25-1.15c-.36-1-.73-2-1.12-3-1.56-4.24-2.68-7.73-2.51-7.79s1.57,3.33,3.13,7.57c.37,1.05.73,2.05,1.07,3a2.33,2.33,0,0,1,.19,1.54,1,1,0,0,1-.65.56,2.81,2.81,0,0,1-.66.08A9.76,9.76,0,0,1,612.66,170.72Z" style="fill:#263238"></path><path d="M612.73,188.8A28.13,28.13,0,0,1,598,184.68s3.73,8.84,14.82,7.93Z" style="fill:#ff9a6c"></path><path d="M608.15,171.73c.25,0,.24,1.64,1.64,2.84s3.18,1,3.19,1.26-.4.31-1.15.33a4.15,4.15,0,0,1-2.65-1,3.59,3.59,0,0,1-1.27-2.38C607.85,172.12,608,171.72,608.15,171.73Z" style="fill:#263238"></path><path d="M621.18,153c-.26.37-1.43.11-2.8.2s-2.5.45-2.8.11c-.13-.16,0-.53.5-.9a4.16,4.16,0,0,1,2.22-.75,4.08,4.08,0,0,1,2.29.5C621.1,152.51,621.29,152.85,621.18,153Z" style="fill:#263238"></path><path d="M604.87,163.27a1.42,1.42,0,0,0,1.41,1.4,1.35,1.35,0,0,0,1.42-1.32,1.42,1.42,0,0,0-1.4-1.4A1.36,1.36,0,0,0,604.87,163.27Z" style="fill:#263238"></path><path d="M601.28,158.66c.18.18,1.24-.65,2.77-.68s2.66.69,2.82.5-.11-.41-.6-.75a3.89,3.89,0,0,0-4.47.13C601.34,158.24,601.19,158.57,601.28,158.66Z" style="fill:#263238"></path><path d="M602,153.73c.31.34,1.47,0,2.89-.1s2.62.16,2.89-.21c.11-.18-.08-.52-.62-.84a4.38,4.38,0,0,0-2.36-.5,4.31,4.31,0,0,0-2.3.76C602,153.21,601.85,153.57,602,153.73Z" style="fill:#263238"></path><path d="M591.46,167.7c0-.82-.92-2.78-1.74-2.91-2.17-.37-6.09-.23-6.18,5.29-.14,7.54,7.47,6.12,7.48,5.9S591.44,170.55,591.46,167.7Z" style="fill:#ffbf9d"></path><path d="M589,173.19s-.13.09-.36.19a1.36,1.36,0,0,1-1,0,3.25,3.25,0,0,1-1.45-2.95,4.35,4.35,0,0,1,.4-1.87,1.5,1.5,0,0,1,1-1,.66.66,0,0,1,.77.37c.1.21,0,.36.09.38s.16-.13.11-.44a.83.83,0,0,0-.29-.48,1,1,0,0,0-.72-.2,1.84,1.84,0,0,0-1.4,1.14,4.49,4.49,0,0,0-.49,2.1c0,1.52.78,3,1.86,3.29a1.39,1.39,0,0,0,1.21-.18C589,173.37,589,173.2,589,173.19Z" style="fill:#ff9a6c"></path><path d="M589.42,164.82l2,1.9c7.91-8.26,23.17-28.76,22.32-27.54a24,24,0,0,0-11.85-.76c-6.09,1.31-17.6,4.9-17.1,12.13S589.42,164.82,589.42,164.82Z" style="fill:#263238"></path><path d="M588.55,174.79c-.81.05-3.78,12.65-3.78,12.65l9.05-.87Z" style="fill:#9376C0"></path><path d="M535.7,435.17s-6.54,2.53-6.92,4.83,4.61,8.61,5.2,11.46,1.32,7.07,3.7,8.39S547,460,547,460s.59-10.85.85-16.3l5.51-7.86-12.46-6.1Z" style="fill:#ffbf9d"></path><path d="M527.65,439.75c-.11.23-5.13,14-6.86,16.59,0,0,2.07,1.43,2.12,1.18s5.4-11.35,5.4-11.35,1.52-1.49,3,2.42.46,13.07,3.17,15.48,10.43,6.5,14.65,7.26,5.93-2.3,4.25-4.26-6.39-8-6.39-8l-3.47.41a5.71,5.71,0,0,1-5.83-3.3c-2.49-5.51-6.16-15.74-2.22-21.36C535.48,434.86,528.88,437.36,527.65,439.75Z" style="fill:#9376C0"></path><path d="M664.65,445.13s-4.5,5.37-3.72,7.57,8.21,5.3,10.11,7.5,4.59,5.54,7.31,5.54,8.16-4.4,8.16-4.4-4.75-9.78-7.17-14.67l-3.45-8.11-13.57,1.6Z" style="fill:#ffbf9d"></path><path d="M659.83,453c0,.26,2.31,14.74,2,17.84,0,0,2.51.24,2.42,0s-.77-12.55-.77-12.55.6-2,3.8.66,6.74,11.21,10.28,12,12.27.62,16.34-.76,4.06-4.89,1.64-5.79-9.45-3.86-9.45-3.86l-2.83,2a5.72,5.72,0,0,1-6.7-.05c-4.86-3.61-13-10.78-12.3-17.6C664.31,445,659.75,450.34,659.83,453Z" style="fill:#9376C0"></path><path d="M659.93,294.33c-.24.76,3.47,9.38,5.6,11.9s6.12,9.93,9,8.29c0,0,2.72,2.38,4.09-.09,0,0,1.58,2.55,3.52,2,1.4-.42.51-2.32.51-2.32s1.66,2.27,2.63.33S681,300.75,679,297.11s-11.85-9.89-11.85-9.89Z" style="fill:#ffbf9d"></path><path d="M605.53,195.6c-8.56-1.15-15,7.77-11.64,15.72a50.91,50.91,0,0,0,6.3,11.08c6,7.8,23.66,32.52,29.28,40,5.16,6.84,31.41,33.66,31.41,33.66l7.8-7.61s-21.92-31.51-26.82-36.69-14.76-20-19.09-31.6-8.9-22.86-16.43-24.4C606.08,195.68,605.81,195.63,605.53,195.6Z" style="fill:#ffbf9d"></path><path d="M679.45,298.47a3.32,3.32,0,0,1,0,1c0,.66,0,1.61-.15,2.78s-.27,2.55-.52,4.08a3,3,0,0,1-.4,1.22,1,1,0,0,1-1.42.32,2.45,2.45,0,0,1-.85-1.13,12.43,12.43,0,0,1-.48-1.25,16.53,16.53,0,0,1-.62-2.57,6,6,0,0,0-.5-2.25c-.35-.56-1.12-.8-1.71-1.14l-1.69-.88c-1-.55-1.87-1-2.44-1.32a3.89,3.89,0,0,1-.86-.54,4.26,4.26,0,0,1,.95.36c.6.27,1.46.67,2.51,1.17l1.73.83,1,.47a2.42,2.42,0,0,1,1,.78,6.1,6.1,0,0,1,.61,2.44,16.54,16.54,0,0,0,.6,2.48c.31.8.56,1.74,1.11,2.12a.5.5,0,0,0,.74-.17,2.46,2.46,0,0,0,.33-1c.29-1.51.49-2.89.63-4C679.28,299.91,679.37,298.47,679.45,298.47Z" style="fill:#ff9a6c"></path><path d="M678.91,307.82A17.33,17.33,0,0,1,681,311a17,17,0,0,1,1.83,3.29,19.89,19.89,0,0,1-3.93-6.42Z" style="fill:#ff9a6c"></path><path d="M674.19,306.67a20.83,20.83,0,0,1,2.47,3.86,20.27,20.27,0,0,1,2,4.12,20.83,20.83,0,0,1-2.47-3.86A19.91,19.91,0,0,1,674.19,306.67Z" style="fill:#ff9a6c"></path><path d="M670,307.24c.14-.07,1,1.74,2.33,3.83s2.54,3.68,2.42,3.78a12.59,12.59,0,0,1-2.86-3.5A12.83,12.83,0,0,1,670,307.24Z" style="fill:#ff9a6c"></path><path d="M599.76,265.16s-9.67,24.29-9.3,35.29,40.31,60.39,46.15,69.5,4.19,28.14,9.1,39.95c5.27,12.68,18.94,34.66,18.94,34.66l13.88-.54s-13.42-46.47-12.25-56.71-17.5-61.07-17.5-61.07-6.61-21.24-9.72-33.76-3.65-29.86-3.65-29.86Z" style="fill:#ffbf9d"></path><path d="M584.56,328.66s3-14.72,6.2-26.37c8.67-31.86,9-37.13,9-37.13l27.63,41s-14.49,59.24-29.39,77c-8.82,10.48-48.26,58.07-48.26,58.07L538.86,432s8.92-23.14,17.09-35.66,13.9-15.52,21.28-26.52S584.56,328.66,584.56,328.66Z" style="fill:#ffbf9d"></path><path d="M587.56,296.86a161.06,161.06,0,0,1,10.05-34.8l-8.23-29.94s-10.82-15.53,1.17-38.26l22.26.49a168.94,168.94,0,0,1,11.24,15.39c6.29,9.43,8.68,14.71,8.16,24.81-.49,9.72,2.28,14.07,8.13,40.61,0,0,12.21,42,14.79,49.31s48.3,116.72,48.3,116.72-47.74,18.56-65.13,16.45c-3.16-.39-23.53-116.72-22.32-112.74,1.64,5.36-22.13,107.2-25.53,106.68-17.73-2.7-67.73-21.88-67.73-21.88s60.47-105.33,61.6-113C586.51,301.85,587.56,296.86,587.56,296.86Z" style="fill:#9376C0"></path><path d="M597.32,257.78s37.32-5.44,37.34-5.38l.84,4.69-37.38,3.23Z" style="fill:#9376C0"></path><path d="M626.62,405.59a1.61,1.61,0,0,1-.1-.3c-.07-.22-.15-.51-.25-.87-.22-.76-.5-1.9-.83-3.37-.66-2.95-1.51-7.25-2.46-12.59-1.92-10.68-4.3-25.53-6.74-42.09v0c-.23-.84-.46-1.75-.75-2.64a86.61,86.61,0,0,0-4.78-11.69c-1.78-3.68-3.62-7.18-5.36-10.51a171.75,171.75,0,0,1-8.55-18.09,47.11,47.11,0,0,1-3.22-13.08,22.73,22.73,0,0,1,.07-4.94,1,1,0,0,1,0,.32c0,.25,0,.56,0,.95s0,.94,0,1.55.06,1.31.13,2.1a48.78,48.78,0,0,0,3.36,13,176.38,176.38,0,0,0,8.64,18c1.75,3.34,3.6,6.83,5.39,10.52A87.23,87.23,0,0,1,616,343.59c.29.91.52,1.83.75,2.68h0c2.43,16.56,4.75,31.41,6.57,42.11.91,5.34,1.7,9.65,2.31,12.6.29,1.48.54,2.63.73,3.4l.2.88A1.35,1.35,0,0,1,626.62,405.59Z" style="fill:#263238"></path><path d="M596.46,258.76s38.18-6.42,38.2-6.36l.84,4.69-38.11,5Z" style="fill:#263238"></path><g style="opacity:0.30000000000000004"><path d="M594.54,294.48c-2.52,9.15-.43,19.09,3.9,27.53s10.76,15.6,17.32,22.45C612.66,327.94,596.82,310.64,594.54,294.48Z"></path></g><path d="M568.64,309.57c-.73.31-5.56,8.39-6.08,11.64s-2.42,7.66.73,8.82c0,0-1.26,2.2,2.73,3a2.19,2.19,0,0,0,1.47,2.52l1.89.73s.52,2.31,2.62,1.79,5.45-8.4,6.92-12.28-.2-15.44-.2-15.44Z" style="fill:#ffbf9d"></path><path d="M605.36,201c5.23,3.22,20.6,23.24,11,39.71-6.71,11.58-19.71,18.05-19.71,18.05l-3.87-13.08Z" style="fill:#ffbf9d"></path><path d="M608.2,204c-4.7-7.25-15.68-6.35-19.52,1.39a51,51,0,0,0-4.3,12c-2,9.63-9.3,39.13-11.3,48.24C571.25,274,568,311.39,568,311.39l10.85,1s9.66-37.15,10.41-44.24,5.59-24.24,11.56-35.06,11.56-21.63,7.83-28.35C608.49,204.47,608.35,204.24,608.2,204Z" style="fill:#ffbf9d"></path><path d="M605.36,218.58a6.2,6.2,0,0,1-.41,1.23c-.33.88-.74,2-1.24,3.31-1.07,2.91-2.47,6.73-4,10.95s-2.9,8.07-3.94,11c-.47,1.33-.87,2.44-1.18,3.33a5.66,5.66,0,0,1-.49,1.21,6.33,6.33,0,0,1,.3-1.27c.22-.81.56-2,1-3.39.91-2.85,2.24-6.76,3.8-11.05s3-8.13,4.18-10.9c.57-1.38,1-2.5,1.39-3.26A6.28,6.28,0,0,1,605.36,218.58Z" style="fill:#ff9a6c"></path></g><g id="freepik--character-2--inject-1105"><path d="M373.56,185.59c-1.2.72-8.15,11.59-8.63,20s-.64,10.37,3.2,24.28,11.8,32.92,11.8,32.92l34.55-3.4s-5-23-5-27.27,1.44-10.07-1.68-18-15.58-23-15.58-23Z" style="fill:#ae7461"></path><path d="M371.89,240.72a4.12,4.12,0,0,1-.48-.88c-.27-.58-.64-1.44-1-2.51-.82-2.14-1.84-5.14-2.82-8.5s-1.76-6.42-2.21-8.67a26.37,26.37,0,0,1-.43-2.69,3.89,3.89,0,0,1,0-.74.63.63,0,0,1,0-.26c.06,0,.05.35.18,1s.32,1.53.59,2.64c.54,2.22,1.38,5.26,2.35,8.61s1.93,6.35,2.66,8.52S372,240.68,371.89,240.72Z" style="fill:#6f4439"></path><path d="M362.63,172.44a90,90,0,0,0-10.87,35.26,4.58,4.58,0,0,0,.48,3.15,4.66,4.66,0,0,0,3,1.43q5.07,1,10.2,1.75,1.2-19.59,3.51-39.1" style="fill:#263238"></path><path d="M368.54,173.24a18.43,18.43,0,0,0-4.09-4.27l-.31.08a5.47,5.47,0,0,0-2.67.33,1.87,1.87,0,0,0-1.05,2.24,2.69,2.69,0,0,0,1.39,1.17l4.29,2.2a3.66,3.66,0,0,0,1.58.53,1.29,1.29,0,0,0,1.32-.82A1.84,1.84,0,0,0,368.54,173.24Z" style="fill:#455a64"></path><path d="M363.09,138.11a26.23,26.23,0,0,1,19.85-11c4.6-.28,6.55.6,9.91,1.35a14.56,14.56,0,0,1,8.53,5.12c2.49,3.23,4.63,6.88,5.26,10.92s-1.14,8.29-1.27,12.48-1.44,9.83-3.75,13.33l-7.79,1c-5.87.46-13.47,7.39-19.25,6.31s-9.65-6.52-13-11.07C356.77,160,358.2,144.65,363.09,138.11Z" style="fill:#263238"></path><path d="M372.56,137.62l13.93-6.26,3.73.27c8.34-.34,14.49,8.61,14.84,15.36.39,7.49.57,16.66-.38,22.25-1.91,11.22-11.36,12.56-11.36,12.56l-.43,9.7,4.27,5.83.34,22.38-17.36,2.67-8.61-31.82-.18-7.92-2.37-41A3.94,3.94,0,0,1,372.56,137.62Z" style="fill:#ae7461"></path><path d="M387.89,167.37a2.36,2.36,0,0,1,.75-1.5,2.43,2.43,0,0,1,2.93-.3,3.25,3.25,0,0,1,1.36,3h0a2.94,2.94,0,0,1-2.05,1.32l-.4,0a2.65,2.65,0,0,1-1.81-.63A2.34,2.34,0,0,1,387.89,167.37Z" style="fill:#6f4439"></path><path d="M401.94,155.83a1.43,1.43,0,0,1-1.41,1.44,1.37,1.37,0,0,1-1.47-1.31,1.44,1.44,0,0,1,1.4-1.44A1.38,1.38,0,0,1,401.94,155.83Z" style="fill:#263238"></path><path d="M402.68,150.85c-.18.18-1.26-.64-2.81-.65s-2.7.75-2.87.56.11-.42.61-.78a4,4,0,0,1,2.29-.68,3.81,3.81,0,0,1,2.24.75C402.61,150.42,402.77,150.76,402.68,150.85Z" style="fill:#263238"></path><path d="M393.27,163.42a10.19,10.19,0,0,1,2.52-.42c.4,0,.77-.12.84-.39a2,2,0,0,0-.25-1.17c-.36-1-.74-2-1.14-3-1.58-4.32-2.71-7.86-2.54-7.92s1.6,3.38,3.18,7.69l1.08,3a2.27,2.27,0,0,1,.19,1.56,1,1,0,0,1-.65.57,2.55,2.55,0,0,1-.68.09A10.18,10.18,0,0,1,393.27,163.42Z" style="fill:#263238"></path><path d="M393.34,181.79a28.65,28.65,0,0,1-15-4.18s3.78,9,15.05,8Z" style="fill:#6f4439"></path><path d="M388.69,164.45c.25,0,.24,1.67,1.66,2.88s3.23,1,3.24,1.28-.41.32-1.16.34a4.23,4.23,0,0,1-2.7-1,3.6,3.6,0,0,1-1.29-2.42C388.38,164.85,388.57,164.43,388.69,164.45Z" style="fill:#263238"></path><path d="M401.92,145.45c-.27.38-1.45.11-2.84.21s-2.55.45-2.85.11c-.13-.17,0-.54.51-.91a4.43,4.43,0,0,1,4.58-.26C401.84,144.92,402,145.27,401.92,145.45Z" style="fill:#263238"></path><path d="M385.35,155.86a1.43,1.43,0,0,0,1.43,1.41,1.37,1.37,0,0,0,1.45-1.33,1.43,1.43,0,0,0-1.43-1.42A1.37,1.37,0,0,0,385.35,155.86Z" style="fill:#263238"></path><path d="M381.71,151.17c.18.18,1.25-.66,2.8-.69s2.71.7,2.88.51-.12-.42-.62-.77a4,4,0,0,0-2.31-.64,3.81,3.81,0,0,0-2.22.78C381.77,150.74,381.62,151.08,381.71,151.17Z" style="fill:#263238"></path><path d="M382.42,146.17c.32.34,1.5-.06,2.94-.11s2.67.16,2.94-.21c.11-.18-.09-.53-.63-.85a4.66,4.66,0,0,0-4.73.25C382.44,145.63,382.28,146,382.42,146.17Z" style="fill:#263238"></path><path d="M371.73,160.36c0-.84-.94-2.83-1.77-3-2.2-.37-6.18-.24-6.28,5.37-.14,7.66,7.59,6.22,7.6,6S371.7,163.25,371.73,160.36Z" style="fill:#ae7461"></path><path d="M369.22,165.93s-.14.09-.36.19a1.31,1.31,0,0,1-1,0c-.81-.31-1.47-1.6-1.48-3a4.28,4.28,0,0,1,.41-1.9,1.54,1.54,0,0,1,1-1,.67.67,0,0,1,.78.38c.1.22.05.37.09.38s.17-.12.11-.44a.85.85,0,0,0-.29-.49,1,1,0,0,0-.74-.2,1.86,1.86,0,0,0-1.41,1.16,4.44,4.44,0,0,0-.5,2.13c0,1.54.78,3,1.89,3.34a1.41,1.41,0,0,0,1.22-.18C369.2,166.12,369.25,165.94,369.22,165.93Z" style="fill:#6f4439"></path><path d="M369.65,157.43l2,1.93c8-8.39,23.55-29.21,22.69-28a24.42,24.42,0,0,0-12-.77c-6.19,1.33-17.88,5-17.38,12.32S369.65,157.43,369.65,157.43Z" style="fill:#263238"></path><path d="M368.77,167.56c-.82.05-3.84,12.85-3.84,12.85l9.2-.88Z" style="fill:#9376C0"></path><path d="M379.93,262.63a8.25,8.25,0,0,1-.86,1.25c-.63.87-1.46,2-2.45,3.34-2,2.84-4.79,6.82-7.58,11.36s-5.11,8.79-6.69,11.91c-.79,1.55-1.4,2.83-1.83,3.71a9.39,9.39,0,0,1-.7,1.35,8.66,8.66,0,0,1,.52-1.43c.37-.91.93-2.21,1.68-3.8a128.73,128.73,0,0,1,6.58-12,136.9,136.9,0,0,1,7.73-11.3c1.06-1.4,1.94-2.51,2.58-3.25A7.69,7.69,0,0,1,379.93,262.63Z" style="fill:#263238"></path><path d="M341.3,277.58c.17.32-4.28,13.35-4.28,13.35l10.89,4.37a59.23,59.23,0,0,0,4.28-8.11c2.62-5.72,4.08-8.9,6.8-15.33s15.65-38.15,15.65-38.15l-7.29-18.91s-8.94,19.21-11.08,23.43-1.75,5.71-2.82,8.5-6.21,15.12-8.75,20.75A50.76,50.76,0,0,0,341.3,277.58Z" style="fill:#ae7461"></path><path d="M338.58,296.28c-.2.37-3,6-2.14,9.91l1,3.1s-5.36,3.41-3.13,4.76,5.44-3.1,8.46-5.48,5.05-13,5.15-13.27-5.54-2.38-5.83-2.38A39.07,39.07,0,0,0,338.58,296.28Z" style="fill:#ae7461"></path><path d="M337,290.93s-13,11.52-14.38,13.67-3.7,4.29-1.46,4.92,3.89-2,4.18-2.3-5,5.09-4.28,6.36,1,1,1.95.72-2.14,2.3-.29,3.25,4.56-1,4.56-1-.48,1.47,2.43,1.29,7.29-4.18,7.29-4.18l7-12.53,1.94-6.75Z" style="fill:#ae7461"></path><path d="M336.47,314.24s-.12.3-.63.45a2,2,0,0,1-2-.64,1.78,1.78,0,0,1-.44-1.48,3.42,3.42,0,0,1,.78-1.57,10.51,10.51,0,0,1,1.36-1.3l1.51-1.31-.08.28a12.76,12.76,0,0,1-.41-1.36,15.56,15.56,0,0,1,.26-7.9,19.78,19.78,0,0,1,.81-2.26,2.61,2.61,0,0,1,.42-.78c.08,0-.4,1.19-.87,3.14a16.53,16.53,0,0,0-.11,7.68c.11.46.25.89.39,1.31l.05.17-.13.11-1.52,1.29a11.44,11.44,0,0,0-1.33,1.23,3.07,3.07,0,0,0-.73,1.34,1.48,1.48,0,0,0,.3,1.19,1.9,1.9,0,0,0,1.7.68C336.25,314.43,336.44,314.2,336.47,314.24Z" style="fill:#6f4439"></path><path d="M330.11,302.61c.09.13-1.63,1.52-3.55,3.45s-3.33,3.63-3.45,3.54a21,21,0,0,1,7-7Z" style="fill:#6f4439"></path><path d="M332.12,306.11c.09.12-2.08,1.81-4.56,4.1s-4.34,4.32-4.45,4.23a21.86,21.86,0,0,1,4.1-4.61A22.44,22.44,0,0,1,332.12,306.11Z" style="fill:#6f4439"></path><path d="M334.24,309.6a99.46,99.46,0,0,1-7.38,7.24,20.48,20.48,0,0,1,3.42-3.9A21,21,0,0,1,334.24,309.6Z" style="fill:#6f4439"></path><path d="M460.24,416.41C447,362.9,420.27,291.59,419,285.52c-1-5-4.53-26.14-4.53-26.14l-34.55,3.25c-3.4,1.62-15.29,22.16-22.09,36.76s-23.2,56.49-50.18,87.13c-35,39.7-60.15,60.08-62,84.93H471.05Z" style="fill:#9376C0"></path><path d="M416.9,399.08s-.06-.07-.17-.21-.25-.4-.43-.67l-1.64-2.58c-1.41-2.24-3.42-5.51-5.86-9.58-4.89-8.13-11.46-19.47-18.34-32.21s-12.76-24.46-16.87-33c-2.06-4.27-3.69-7.75-4.79-10.16-.54-1.18-1-2.11-1.26-2.78l-.32-.73a.84.84,0,0,1-.09-.26,1,1,0,0,1,.14.24c.1.18.21.41.36.7l1.35,2.74,4.94,10.09c4.2,8.5,10.12,20.19,17,32.92s13.39,24.1,18.19,32.27l5.73,9.67,1.55,2.63.39.69A1,1,0,0,1,416.9,399.08Z" style="fill:#263238"></path><path d="M378.64,375c-.15,0,1-6.39,2.65-14.2s3-14.13,3.17-14.1-1,6.39-2.66,14.2S378.78,375,378.64,375Z" style="fill:#263238"></path><g style="opacity:0.30000000000000004"><path d="M374.23,321.72c-3,8-.35,17,2.18,25.24s6.83,15.72,11.08,23.14c2.76,4.82,5.55,9.67,9.16,13.84s11,7.72,16.21,9.1C398.31,368.46,385.24,344.6,374.23,321.72Z"></path></g><path d="M371.89,242.06s13.18-6.6,19.66-12.59,11.5-23.89,11.5-23.89,6.7,8.15,6.65,16,.69,17.09.69,17.09-8,21.58-35.34,11.51Z" style="fill:#9376C0"></path><path d="M368,246.4c-6.69,3.51-10.92,10.31-14.48,17s-6.94,13.71-12.75,18.53c-.51.42-1.1,1-.83,1.64a1.51,1.51,0,0,0,.78.64l1.8.9c2.19,1.09,4.46,2.19,6.91,2.27s5.1-1.2,5.84-3.53c0,2.29,0,4.58-.05,6.87,2.33-.43,4.83,1.51,6.95.47a5.41,5.41,0,0,0,2.09-2.43,80.68,80.68,0,0,0,7.92-18.49c1.72-6.51.93-16.46-.79-23" style="fill:#9376C0"></path><path d="M414.32,218.31a6.42,6.42,0,0,0-2.2-1.36c-.77-.41-1.53-1.16-1.38-2s.94-1.22,1.46-1.82c1.35-1.55.59-4.15-1-5.43a9.62,9.62,0,0,0-7.89-1.35l3.46,23.48c1.22,0,2.57.26,3.54-.46a2.87,2.87,0,0,0,.71-3.25,8.46,8.46,0,0,0-2.12-2.83,8.39,8.39,0,0,0,4.43-1C414.58,221.42,415.28,219.51,414.32,218.31Z" style="fill:#9376C0"></path><path d="M374.92,246a3.67,3.67,0,1,1-3.67-3.67A3.67,3.67,0,0,1,374.92,246Z" style="fill:#9376C0"></path><path d="M372,249.62c0,.06-.33.21-.94.21a3.6,3.6,0,0,1-3.42-2.79c-.12-.59,0-1,0-1a4.44,4.44,0,0,0,4.34,3.54Z" style="fill:#263238"></path><path d="M371.06,242.33c0-.06.36-.17,1-.09a3.57,3.57,0,0,1,3,3.21c.05.6-.08,1-.14,1a4.43,4.43,0,0,0-3.85-4.07Z" style="fill:#263238"></path><path d="M362.59,258.74a16.09,16.09,0,0,1,6.06-9.19c.11.12-1.74,1.8-3.41,4.35S362.74,258.79,362.59,258.74Z" style="fill:#263238"></path><path d="M362.58,278a4.76,4.76,0,0,1,.06-1.15c.07-.73.2-1.79.4-3.09a103.76,103.76,0,0,1,5.13-19.91c.46-1.24.85-2.23,1.15-2.9a5.32,5.32,0,0,1,.5-1,5.12,5.12,0,0,1-.31,1.11l-1,2.95c-.83,2.49-1.91,6-2.91,9.84s-1.73,7.43-2.21,10c-.22,1.21-.41,2.23-.56,3.06A4.26,4.26,0,0,1,362.58,278Z" style="fill:#263238"></path><path d="M411.16,226.7s.3.28.17.88a4.38,4.38,0,0,1-1.16,2.19c-.89.8-2.28.64-3.52.82a2.27,2.27,0,0,0-1.63.89,5.31,5.31,0,0,0-.6,2.05,3.14,3.14,0,0,1-1.1,2.14,3.06,3.06,0,0,1-2.21.4c-1.4-.24-2.46-.86-3.44-.9a2.33,2.33,0,0,0-2,.8,2.4,2.4,0,0,0-.34.77s-.14-.35.18-.89a2.47,2.47,0,0,1,2.21-1c1.08,0,2.23.62,3.48.8a2.18,2.18,0,0,0,2.74-2.16,5.5,5.5,0,0,1,.69-2.25,2.75,2.75,0,0,1,2-1.07c.7-.1,1.34-.07,1.92-.14a2.6,2.6,0,0,0,1.44-.49,4.52,4.52,0,0,0,1.2-2A1.68,1.68,0,0,0,411.16,226.7Z" style="fill:#263238"></path><path d="M369,211.73s8.18,46,10.92,51,26.31,37.29,26.31,37.29l10.73-4s-18.88-34.41-19.12-38-6.06-44.41-5.58-46.32,0-19.91-9.12-19.19S367.56,203.77,369,211.73Z" style="fill:#ae7461"></path><path d="M381.34,191.5a20.64,20.64,0,0,0-3,.52,12.2,12.2,0,0,0-6.63,4.88,13.57,13.57,0,0,0-2.21,5.3,27.17,27.17,0,0,0-.4,6.66,53.14,53.14,0,0,0,.95,7.34l1.46,7.86c2,10.76,4,20.48,5.59,27.48.8,3.49,1.49,6.31,2,8.24.25,1,.49,1.71.64,2.22a4.28,4.28,0,0,1,.2.78,5.19,5.19,0,0,1-.3-.75c-.18-.49-.45-1.23-.74-2.19-.6-1.92-1.35-4.73-2.19-8.22-1.7-7-3.72-16.7-5.75-27.46-.5-2.7-1-5.33-1.45-7.87a52.1,52.1,0,0,1-.93-7.41,28,28,0,0,1,.45-6.76,13.9,13.9,0,0,1,2.33-5.43,12.38,12.38,0,0,1,6.88-4.87,8.59,8.59,0,0,1,1.32-.25,6.39,6.39,0,0,1,1-.08A4.56,4.56,0,0,1,381.34,191.5Z" style="fill:#6f4439"></path><path d="M416.28,295.3a.87.87,0,0,1-.14-.21l-.35-.62L414.51,292c-1.12-2.16-2.71-5.21-4.65-9s-4.25-8.33-6.81-13.35c-1.26-2.53-2.59-5.17-4-7.92-.34-.69-.69-1.37-1-2.1a13,13,0,0,1-.75-2.28,27.5,27.5,0,0,1-.7-4.8c-.62-6.47-1.41-12.63-2.09-18.23s-1.32-10.62-1.85-14.87-.91-7.62-1.2-10c-.12-1.16-.22-2.07-.29-2.73q0-.44-.06-.72a.73.73,0,0,1,0-.24.68.68,0,0,1,.05.24c0,.19.07.42.11.7.1.67.23,1.58.39,2.72.33,2.41.79,5.82,1.36,10s1.23,9.28,2,14.86,1.51,11.75,2.14,18.24a27.09,27.09,0,0,0,.68,4.73,18.67,18.67,0,0,0,1.71,4.28c1.37,2.75,2.68,5.4,3.94,7.92,2.52,5,4.79,9.58,6.71,13.4s3.41,6.87,4.5,9.05c.5,1,.9,1.87,1.2,2.47l.3.65Z" style="fill:#6f4439"></path><path d="M413.15,293.13s7.67,5.06,11.43,9,4.61,9.9,4.61,9.9c-.1,3.38-1.67,2.62-3.59,0a49.56,49.56,0,0,1,2.73,7.69c.86,3.37,1.24,4.93.05,5.43-2.11.9-3.8-2.88-3.8-2.88l-3.41-1.19s-1.2,1-3.77-.34-4.95-4.78-6.82-9.05-5.83-14.95-5.83-14.95Z" style="fill:#ae7461"></path><path d="M422.48,305.48a13.44,13.44,0,0,1,2,3.24,8.83,8.83,0,0,1,1.23,3.59A31.28,31.28,0,0,1,424,309,14,14,0,0,1,422.48,305.48Z" style="fill:#6f4439"></path><path d="M420.7,313.46a28.39,28.39,0,0,1,2,4.36,39,39,0,0,1,1.84,4.44,15.59,15.59,0,0,1-2.32-4.23A18.48,18.48,0,0,1,420.7,313.46Z" style="fill:#6f4439"></path><path d="M416.53,314.29a22.21,22.21,0,0,1,2.56,3.36,21.38,21.38,0,0,1,2.29,3.55,14.72,14.72,0,0,1-2.72-3.25A14.28,14.28,0,0,1,416.53,314.29Z" style="fill:#6f4439"></path></g><g id="freepik--character-1--inject-1105"><path d="M155.35,300.24c-.31.74,2.54,9.68,4.41,12.39s5.13,10.48,8.2,9.13c0,0,2.47,2.64,4.07.31,0,0,1.33,2.69,3.32,2.29,1.43-.28.72-2.25.72-2.25s1.44,2.41,2.59.58-3-14-4.63-17.83-10.84-11-10.84-11Z" style="fill:#ffbf9d"></path><path d="M110.82,196.68c-8.41-2-15.71,6.28-13.12,14.52a51,51,0,0,0,5.19,11.63c5.22,8.36,20.39,34.68,25.25,42.64,4.47,7.3,28,36.56,28,36.56l8.5-6.82s-18.75-33.49-23.12-39.13-12.74-21.36-15.93-33.3-6.63-23.62-14-25.88Z" style="fill:#ffbf9d"></path><path d="M174.37,306.26a3.46,3.46,0,0,1-.05,1c-.07.66-.2,1.6-.42,2.75s-.51,2.52-.92,4a2.91,2.91,0,0,1-.51,1.17,1,1,0,0,1-.67.4,1,1,0,0,1-.77-.22,2.38,2.38,0,0,1-.74-1.21c-.13-.42-.25-.85-.35-1.29a16.35,16.35,0,0,1-.37-2.62,6.18,6.18,0,0,0-.28-2.29c-.3-.59-1-.9-1.59-1.29l-1.6-1.05c-1-.64-1.76-1.17-2.3-1.54a3.73,3.73,0,0,1-.8-.63,3.81,3.81,0,0,1,.91.45c.57.33,1.39.81,2.39,1.41l1.63,1,.91.56a2.37,2.37,0,0,1,.87.88,6.09,6.09,0,0,1,.37,2.48,16.05,16.05,0,0,0,.36,2.53,4.66,4.66,0,0,0,.9,2.22.51.51,0,0,0,.75-.1,2.59,2.59,0,0,0,.43-1c.43-1.48.76-2.83,1-4C174.06,307.68,174.3,306.25,174.37,306.26Z" style="fill:#ff9a6c"></path><path d="M172.92,315.52a16.13,16.13,0,0,1,1.79,3.31,17.45,17.45,0,0,1,1.5,3.46,11.63,11.63,0,0,1-2-3.23A11.87,11.87,0,0,1,172.92,315.52Z" style="fill:#ff9a6c"></path><path d="M168.34,313.91a20.55,20.55,0,0,1,2.08,4.08,20.19,20.19,0,0,1,1.6,4.3,20.82,20.82,0,0,1-2.08-4.09A20,20,0,0,1,168.34,313.91Z" style="fill:#ff9a6c"></path><path d="M164.12,314.07c.14-.05.84,1.83,1.94,4s2.17,3.91,2,4a18,18,0,0,1-4-8Z" style="fill:#ff9a6c"></path><path d="M91.59,146.4a25.82,25.82,0,0,1,19.53-10.82c4.53-.27,6.45.59,9.75,1.33a14.28,14.28,0,0,1,8.4,5c2.46,3.18,4.25,5.23,4.86,9.21s-.8,9.7-.93,13.82-1.42,9.68-3.69,13.12l-7.67,1c-5.77.45-13.26,7.28-19,6.21s-9.49-6.42-12.77-10.89C85.36,167.9,86.77,152.84,91.59,146.4Z" style="fill:#263238"></path><path d="M100.9,145.92l13.72-6.16,3.67.26c8.2-.33,14.26,8.47,14.6,15.12.39,7.38.56,16.41-.37,21.9-1.88,11.05-11.18,12.37-11.18,12.37l.13,9.16.88,4.79,3.11,23.36-17.09,2.63L99.89,198l-.17-7.8-2.34-40.4A3.89,3.89,0,0,1,100.9,145.92Z" style="fill:#ffbf9d"></path><path d="M116,175.2a2.37,2.37,0,0,1,.74-1.48,2.41,2.41,0,0,1,2.89-.29,3.22,3.22,0,0,1,1.34,2.94h0a2.89,2.89,0,0,1-2,1.3,2.56,2.56,0,0,1-.39,0,2.64,2.64,0,0,1-1.79-.62A2.33,2.33,0,0,1,116,175.2Z" style="fill:#ff9a6c"></path><path d="M129.82,163.85a1.41,1.41,0,0,1-1.38,1.41A1.35,1.35,0,0,1,127,164a1.42,1.42,0,0,1,1.38-1.42A1.37,1.37,0,0,1,129.82,163.85Z" style="fill:#263238"></path><path d="M130.56,158.94c-.18.18-1.25-.63-2.78-.64s-2.65.74-2.82.55.11-.42.6-.77a3.91,3.91,0,0,1,2.26-.66,3.7,3.7,0,0,1,2.2.73C130.49,158.52,130.64,158.86,130.56,158.94Z" style="fill:#263238"></path><path d="M121.29,171.32a9.82,9.82,0,0,1,2.48-.42c.39,0,.76-.11.83-.38a1.92,1.92,0,0,0-.25-1.16c-.35-1-.72-1.94-1.12-3-1.55-4.25-2.67-7.74-2.5-7.8s1.57,3.33,3.13,7.58c.37,1.05.73,2,1.07,3a2.24,2.24,0,0,1,.18,1.53,1,1,0,0,1-.64.57,2.89,2.89,0,0,1-.67.08A10.21,10.21,0,0,1,121.29,171.32Z" style="fill:#263238"></path><path d="M121.36,189.39a28.17,28.17,0,0,1-14.78-4.11s3.73,8.84,14.82,7.93Z" style="fill:#ff9a6c"></path><path d="M116.78,172.32c.25,0,.23,1.65,1.64,2.84s3.17,1,3.18,1.26-.39.32-1.14.33a4.12,4.12,0,0,1-2.66-1,3.57,3.57,0,0,1-1.27-2.38C116.48,172.72,116.67,172.31,116.78,172.32Z" style="fill:#263238"></path><path d="M129.8,153.62c-.26.37-1.43.11-2.79.21s-2.51.45-2.8.11c-.14-.17,0-.53.5-.9a4.16,4.16,0,0,1,2.22-.76,4,4,0,0,1,2.28.51C129.73,153.1,129.92,153.44,129.8,153.62Z" style="fill:#263238"></path><path d="M113.5,163.87a1.41,1.41,0,0,0,1.4,1.39,1.35,1.35,0,0,0,1.43-1.31,1.42,1.42,0,0,0-1.4-1.4A1.35,1.35,0,0,0,113.5,163.87Z" style="fill:#263238"></path><path d="M109.91,159.25c.18.18,1.23-.64,2.76-.68s2.67.7,2.83.51-.11-.42-.61-.76a3.9,3.9,0,0,0-2.27-.63,3.74,3.74,0,0,0-2.19.77C110,158.83,109.82,159.17,109.91,159.25Z" style="fill:#263238"></path><path d="M110.61,154.33c.31.34,1.48-.05,2.9-.11s2.62.17,2.88-.2c.12-.18-.08-.52-.61-.84a4.33,4.33,0,0,0-2.37-.5,4.27,4.27,0,0,0-2.29.75C110.63,153.8,110.47,154.16,110.61,154.33Z" style="fill:#263238"></path><path d="M100.09,168.3c0-.83-.93-2.78-1.74-2.92-2.17-.36-6.09-.23-6.19,5.29-.13,7.55,7.47,6.12,7.49,5.91S100.06,171.14,100.09,168.3Z" style="fill:#ffbf9d"></path><path d="M97.62,173.78s-.14.09-.36.19a1.3,1.3,0,0,1-1,0c-.8-.31-1.44-1.59-1.46-2.95a4.43,4.43,0,0,1,.4-1.87,1.55,1.55,0,0,1,1-1,.67.67,0,0,1,.77.38c.1.21,0,.36.09.37s.16-.12.11-.43a.89.89,0,0,0-.29-.48,1,1,0,0,0-.73-.2,1.84,1.84,0,0,0-1.39,1.14,4.43,4.43,0,0,0-.49,2.1c0,1.52.77,3,1.86,3.29a1.4,1.4,0,0,0,1.2-.18C97.6,174,97.64,173.8,97.62,173.78Z" style="fill:#ff9a6c"></path><path d="M98,165.42l2,1.9c28.36-18.76,23.18-28.76,22.33-27.54a24,24,0,0,0-11.85-.76c-6.09,1.31-17.6,4.89-17.11,12.13S98,165.42,98,165.42Z" style="fill:#263238"></path><path d="M101.67,139.67c2.45-2,5.7-2.63,8.55-4s5.59-4.08,5.09-7.2-3.73-4.75-6.71-5.45a25.16,25.16,0,0,0-15.87,1.48c-2.15,1-4.31,2.39-5.09,4.61a6.46,6.46,0,0,0,2,6.73,10.6,10.6,0,0,0,6.87,2.43,31.72,31.72,0,0,0,7.37-1" style="fill:#263238"></path><path d="M43.18,434.91s-6.53,2.52-6.92,4.82,4.61,8.62,5.2,11.46,1.33,7.07,3.7,8.39,9.28.12,9.28.12.58-10.86.84-16.31l5.51-7.85-12.45-6.1Z" style="fill:#ffbf9d"></path><path d="M35.14,439.49c-.12.23-5.14,14-6.87,16.59,0,0,2.08,1.43,2.12,1.17s5.41-11.34,5.41-11.34,1.51-1.49,3,2.41.45,13.08,3.16,15.49,10.43,6.5,14.66,7.26,5.92-2.31,4.24-4.26-6.39-8-6.39-8l-3.46.41a5.74,5.74,0,0,1-5.84-3.3C42.69,450.44,39,440.22,43,434.6,43,434.6,36.37,437.09,35.14,439.49Z" style="fill:#9376C0"></path><path d="M172.13,444.3s-4.49,5.37-3.72,7.57,8.22,5.3,10.12,7.5,4.59,5.54,7.3,5.54,8.17-4.4,8.17-4.4-4.76-9.78-7.18-14.67l-3.45-8.11-13.57,1.6Z" style="fill:#ffbf9d"></path><path d="M167.31,452.2c0,.26,2.31,14.74,2.06,17.84,0,0,2.5.24,2.42,0s-.78-12.55-.78-12.55.6-2,3.8.65,6.74,11.22,10.28,12,12.28.62,16.34-.76,4.06-4.89,1.64-5.79-9.45-3.86-9.45-3.86l-2.83,2a5.72,5.72,0,0,1-6.7,0c-4.86-3.61-13-10.78-12.3-17.6C171.79,444.13,167.23,449.51,167.31,452.2Z" style="fill:#9376C0"></path><path d="M107.24,264.93l-11.7-16.6s-2.77-19.38-3.4-28.87c-.55-8.45,3.76-20.13,8.29-24.27l20.85,3.56c.47,0,13.76,17,16.12,24.39l.21.65a34.9,34.9,0,0,1,1.14,15.47,19.33,19.33,0,0,0-.25,4.19c.32,3.62,1.59,7.11,2.43,12.28a69.56,69.56,0,0,1,.41,7.86Z" style="fill:#ffbf9d"></path><path d="M101.86,255.25l36.64-11.8s3.87-18.62-5.3-28.46c0,0-.16-.3-1,0S100,236.59,99.58,237.26,101.86,255.25,101.86,255.25Z" style="fill:#9376C0"></path><path d="M139.8,249.64a8.22,8.22,0,0,1,.54,2.07c.24,1.29.5,3.1.67,5.1s.26,3.82.33,5.13a8.68,8.68,0,0,1,0,2.13,43.88,43.88,0,0,1-.87-7.21C140.17,252.87,139.65,249.67,139.8,249.64Z" style="fill:#ff9a6c"></path><path d="M107.24,264.9s-9.67,24.28-9.3,35.28c.17,4.7,5.65,17.52,14.76,29.75,12.7,17,25.44,35.59,28.78,40.81,5.84,9.1,4,28.77,9,40.58,5.27,12.68,20.23,30.6,20.23,30.6l14.18-1.68s-12.25-42.95-11.08-53.19S156.26,326,156.26,326s-6.61-21.25-9.72-33.76-5.2-28.63-5.2-28.63Z" style="fill:#9376C0"></path><path d="M92.05,328.39s-5.43-15.8-2.26-27.45c8.67-31.86,17.45-36,17.45-36l27.63,41s-26.83,71.69-35,82.69-42.06,51.87-42.06,51.87L44.89,433.1s5.21-22.91,13.38-35.43,14.39-18.21,21.78-29.21S92.05,328.39,92.05,328.39Z" style="fill:#9376C0"></path><polygon points="141.59 265.49 105.76 266.14 106.61 264.04 141.35 263.69 141.59 265.49" style="fill:#263238"></polygon><path d="M104.78,274.81a6.62,6.62,0,0,1-.51.69c-.34.45-.83,1.13-1.4,2a36.29,36.29,0,0,0-3.81,8.18,39.84,39.84,0,0,0-1.92,13.2c0,1.26.13,2.55.22,3.86a23.07,23.07,0,0,0,.68,4,47.25,47.25,0,0,0,2.85,8,62.87,62.87,0,0,0,8.59,14L118.21,339l5.86,6.94c.66.8,1.19,1.43,1.57,1.9a6.11,6.11,0,0,1,.53.69,5.09,5.09,0,0,1-.61-.62L123.92,346l-6-6.83c-2.52-2.9-5.53-6.33-8.82-10.2a62.16,62.16,0,0,1-8.7-14.05,47.27,47.27,0,0,1-2.86-8.08,22.89,22.89,0,0,1-.68-4c-.09-1.33-.25-2.63-.21-3.91a39.5,39.5,0,0,1,2-13.32,34.38,34.38,0,0,1,4-8.17,21.55,21.55,0,0,1,1.49-2c.18-.22.33-.38.43-.48A1,1,0,0,1,104.78,274.81Z" style="fill:#263238"></path><g style="opacity:0.30000000000000004"><path d="M87.77,293.2a14.2,14.2,0,0,0,20.51-1.57c6,4.31,12.91,7.65,20.28,8s14.12-.56,18.11-6.75l-3-13s-28.06,1.46-28.83,1.46-17.69-1.78-17.69-1.78Z"></path></g><path d="M194.34,281a11,11,0,0,0-4.54-1.77c-17.52-4-30.68-9.79-48.21-13.76l-36,.84a189,189,0,0,0-50.5,17.1c-2,1-4.35,2.88-3.58,5,.64,1.75,2.93,2.1,4.79,2.06a50,50,0,0,0,15.88-2.94c2.8-1,5.77-2.27,8.63-1.45,2.12.6,3.75,2.26,5.56,3.52,6.89,4.82,17.4,3.32,22.68-3.22a44.69,44.69,0,0,0,28.2,7.81c2-.14,4.19-.48,5.65-1.88s1.7-4.19,0-5.27c15.47,4.79,32.13,2.71,48.19.59,1.78-.24,3.85-.67,4.63-2.29A3.75,3.75,0,0,0,194.34,281Z" style="fill:#9376C0"></path><path d="M164.09,290s-.13,0-.39,0l-1.15,0c-1,0-2.48,0-4.36-.11s-4.17-.27-6.78-.63c-1.3-.18-2.69-.42-4.13-.73a31.62,31.62,0,0,1-4.51-1.29l.2-.39a3,3,0,0,1,1.31,2.65,4.3,4.3,0,0,1-1.15,2.87,6.13,6.13,0,0,1-2.78,1.58,15.29,15.29,0,0,1-3.23.49,44.82,44.82,0,0,1-28.24-7.86l.33,0a17.17,17.17,0,0,1-11.13,5.94,17.45,17.45,0,0,1-5.43-.14,15.65,15.65,0,0,1-4.41-1.46,17,17,0,0,1-3.16-2.07c-.86-.68-1.59-1.26-2.23-1.68a11.36,11.36,0,0,0-2.07-1,6.2,6.2,0,0,1,2.16.92c1.35.74,2.93,2.4,5.43,3.6A15.33,15.33,0,0,0,92.72,292a17.36,17.36,0,0,0,5.31.09,16.83,16.83,0,0,0,10.8-5.84l.14-.18.19.13A44.8,44.8,0,0,0,137.08,294c2.13-.12,4.33-.49,5.71-1.91a3.83,3.83,0,0,0,1-2.55,2.55,2.55,0,0,0-1.09-2.27l.2-.38a42.77,42.77,0,0,0,8.53,2.07c2.59.38,4.86.61,6.73.73s3.35.2,4.35.22l1.15.05A2.33,2.33,0,0,1,164.09,290Z" style="fill:#263238"></path><path d="M77.69,312.07c-.73.31-5.56,8.39-6.08,11.65s-2.42,7.65.73,8.81c0,0-1.26,2.2,2.73,3a2.19,2.19,0,0,0,1.47,2.52l1.88.73s.53,2.31,2.63,1.79,5.45-8.4,6.92-12.28-.2-15.44-.2-15.44Z" style="fill:#ffbf9d"></path><path d="M117.25,206.51c-4.7-7.25-15.68-6.35-19.52,1.39a50.5,50.5,0,0,0-4.3,12c-2,9.63-9.3,39.13-11.3,48.24C80.3,276.5,77,313.89,77,313.89l10.86,1s9.66-37.16,10.41-44.24,5.59-24.25,11.56-35.07,11.56-21.63,7.83-28.35C117.54,207,117.4,206.74,117.25,206.51Z" style="fill:#ffbf9d"></path><path d="M113,200.19a4.27,4.27,0,0,1,1,.62,10.62,10.62,0,0,1,2.23,2.32,16,16,0,0,1,2.67,10.12,32,32,0,0,1-2.65,10.2c-.52,1.25-1,2.24-1.3,2.92a5.08,5.08,0,0,1-.55,1,5.31,5.31,0,0,1,.37-1.11l1.14-3a35.47,35.47,0,0,0,2.47-10.1,16.36,16.36,0,0,0-2.46-9.88A16.08,16.08,0,0,0,113,200.19Z" style="fill:#ff9a6c"></path><path d="M98.33,203.72a32.1,32.1,0,0,1-1.2,3,72.06,72.06,0,0,0-2.54,7.38,71,71,0,0,0-1.67,7.62,30.47,30.47,0,0,1-.55,3.2,2.68,2.68,0,0,1,0-.87c0-.57.09-1.38.2-2.38a51.41,51.41,0,0,1,4.24-15.1c.42-.91.79-1.64,1.07-2.13A2.81,2.81,0,0,1,98.33,203.72Z" style="fill:#ff9a6c"></path></g></svg>
