<svg xmlns="http://www.w3.org/2000/svg" viewBox="0 0 750 500"><g id="freepik--background-complete--inject-372"><path d="M50.21,472.69a3.32,3.32,0,0,1-3.31-3.33V455.88a3.33,3.33,0,0,1,2.5-3.21l2.07-62a3.33,3.33,0,0,1-1.93-3.34l1.27-13.47a3.33,3.33,0,0,1,3.31-3h2.19A8.06,8.06,0,0,0,64,365.29a7.62,7.62,0,0,0,.41-2.34L65,339.49l.12-5H80.64l.12,5L81.37,363a7.33,7.33,0,0,0,.41,2.34,8.06,8.06,0,0,0,7.66,5.53h2.18a3.34,3.34,0,0,1,3.32,3l1.27,13.47a3.35,3.35,0,0,1-1.93,3.34l2.06,62a3.33,3.33,0,0,1,2.51,3.21v13.48a3.33,3.33,0,0,1-3.32,3.33Z" style="fill:#e0e0e0"></path><path d="M52.32,374.06l-1.26,13.39a1.81,1.81,0,0,0,1,1.8l.93.42-2.14,64.2-1.11.28a1.79,1.79,0,0,0-1.35,1.73v13.48a1.79,1.79,0,0,0,1.78,1.8,54.22,54.22,0,0,1,22.66-5.23,54.18,54.18,0,0,1,22.66,5.23,1.8,1.8,0,0,0,1.79-1.8V455.88A1.8,1.8,0,0,0,96,454.15l-1.11-.28-2.13-64.2.93-.42a1.78,1.78,0,0,0,1-1.8l-1.26-13.39Z" style="fill:#ebebeb"></path><path d="M64.92,339.49a1.33,1.33,0,0,1-1.34-1.33h0a1.34,1.34,0,0,1,1.34-1.34H80.83a1.34,1.34,0,0,1,1.34,1.34h0a1.33,1.33,0,0,1-1.34,1.33Z" style="fill:#e0e0e0"></path><path d="M66.32,326.76a2.43,2.43,0,0,0-2.23,2.59v6.45H81.66v-6.45a2.43,2.43,0,0,0-2.23-2.59Z" style="fill:#e0e0e0"></path><path d="M64,365.29a7.4,7.4,0,0,0,.38-1.87c0-.17,0-.32,0-.47l0-1.54.23-9,.26-9.89,0-2,0-1H80.76l0,1,0,2,.26,9.89.23,9,.05,1.54a4,4,0,0,0,0,.47,7.4,7.4,0,0,0,.38,1.87Z" style="fill:#ebebeb"></path><polygon points="64.91 342.5 64.96 340.5 80.79 340.5 80.83 342.5 64.91 342.5" style="fill:#fafafa"></polygon><path d="M64.35,363.42c0-.17,0-.32,0-.47l0-1.54h16.9l.05,1.54a4,4,0,0,0,0,.47Z" style="fill:#fafafa"></path><polygon points="58.25 448.49 59.42 394.5 86.33 394.5 87.5 448.49 58.25 448.49" style="fill:#fff"></polygon><path d="M382.67,374.92a32.29,32.29,0,0,0-2.72,13c0,13.91,8.77,26.31,22.35,31.57a33.87,33.87,0,0,0,26.41,0c13.58-5.26,22.35-17.66,22.35-31.57a32.29,32.29,0,0,0-2.72-13Z" style="fill:#ebebeb"></path><path d="M415.51,422.91A41.09,41.09,0,0,1,402,420.18c-13.86-5.38-22.82-18.05-22.82-32.27A33,33,0,0,1,382,374.62l.19-.45h66.65l.2.45a33.13,33.13,0,0,1,2.78,13.29c0,14.22-9,26.89-22.83,32.27A40.93,40.93,0,0,1,415.51,422.91Zm-32.35-47.25a31.68,31.68,0,0,0-2.46,12.25c0,13.6,8.58,25.73,21.87,30.88a33.1,33.1,0,0,0,25.86,0c13.3-5.15,21.89-17.28,21.89-30.88a31.5,31.5,0,0,0-2.47-12.25Z" style="fill:#e0e0e0"></path><path d="M415.51,421.49a40.69,40.69,0,0,1-13.21-2.68C388.72,413.54,380,401.15,380,387.23a32.33,32.33,0,0,1,2.72-13h-2a33.29,33.29,0,0,0-2.7,13c0,14.74,9.63,27.36,23.31,32.67,6.89,2.67,11.11,7.47,11.11,12.62v32c0,2.62-3,4.84-7.07,5.2l-18.72,1.67c-.74.07-1.27.49-1.22,1s.67.85,1.42.85h57.45c.75,0,1.37-.37,1.43-.85s-.49-.9-1.23-1l-18.72-1.67c-4-.36-7.07-2.58-7.07-5.2v-32c0-5.15,4.23-9.95,11.11-12.62,13.68-5.31,23.31-17.93,23.31-32.67a33.11,33.11,0,0,0-2.7-13h-2a32.33,32.33,0,0,1,2.72,13c0,13.92-8.77,26.31-22.35,31.58A40.67,40.67,0,0,1,415.51,421.49Z" style="fill:#e0e0e0"></path><path d="M281.73,385.3a28.94,28.94,0,0,0-2.44,11.62c0,12.45,7.85,23.53,20,28.24a30.28,30.28,0,0,0,23.63,0c12.14-4.71,20-15.79,20-28.24a28.93,28.93,0,0,0-2.43-11.62Z" style="fill:#ebebeb"></path><path d="M311.09,428.23a36.71,36.71,0,0,1-12-2.44c-12.4-4.82-20.41-16.14-20.41-28.87A29.53,29.53,0,0,1,281.11,385l.18-.4H340.9l.17.4a29.54,29.54,0,0,1,2.49,11.88c0,12.73-8,24.05-20.41,28.86A36.42,36.42,0,0,1,311.09,428.23ZM282.17,386A28.12,28.12,0,0,0,280,396.92c0,12.17,7.68,23,19.56,27.62a29.63,29.63,0,0,0,23.13,0c11.9-4.61,19.57-15.45,19.57-27.62A28.29,28.29,0,0,0,340,386Z" style="fill:#e0e0e0"></path><path d="M311.09,427a36.47,36.47,0,0,1-11.81-2.39c-12.14-4.71-20-15.8-20-28.24a28.9,28.9,0,0,1,2.44-11.62h-1.81a29.57,29.57,0,0,0-2.41,11.62c0,13.18,8.61,24.47,20.84,29.22,6.16,2.38,9.94,6.67,9.94,11.28v28.65c0,2.34-2.7,4.33-6.32,4.65l-16.74,1.49c-.67.06-1.15.44-1.1.87s.6.76,1.27.76h51.38c.67,0,1.23-.33,1.28-.76s-.44-.81-1.1-.87l-16.74-1.49c-3.63-.32-6.32-2.31-6.32-4.65V436.82c0-4.61,3.78-8.9,9.93-11.28,12.24-4.75,20.85-16,20.85-29.22a29.75,29.75,0,0,0-2.41-11.62h-1.81a28.89,28.89,0,0,1,2.43,11.62c0,12.44-7.84,23.53-20,28.24A36.49,36.49,0,0,1,311.09,427Z" style="fill:#e0e0e0"></path><rect x="316.71" y="160.45" width="60.79" height="15.54" style="fill:#ebebeb"></rect><path d="M351.79,192.37s0-.1,0-.28,0-.47,0-.8c0-.73,0-1.75,0-3.06,0-2.68-.06-6.54-.1-11.41l.18.19-60.78.11c.13-.13-.32.3.3-.3h0v15.52l-.31-.29,43.32.13,12.79.08,3.46,0,.9,0,.32,0-.28,0-.87,0-3.39,0-12.71.09-43.54.13h-.3v-.29q0-3.75,0-7.65v-7.87h0l.32-.3,60.78.12H352v.18c0,4.91-.08,8.81-.1,11.52,0,1.29,0,2.29-.05,3,0,.31,0,.56,0,.76A.67.67,0,0,1,351.79,192.37Z" style="fill:#e0e0e0"></path><rect x="638.18" y="221.42" width="60.79" height="15.54" style="fill:#ebebeb"></rect><path d="M673.27,253.33a.9.9,0,0,1,0-.28c0-.21,0-.47,0-.8,0-.73,0-1.75-.05-3.06,0-2.68-.06-6.54-.1-11.4l.19.18-60.79.12c.14-.14-.31.3.3-.3h0v15.53l-.31-.29,43.33.13,12.78.09,3.46,0,.91,0,.32,0-.29,0-.86,0-3.4,0-12.71.08-43.54.13h-.3V241.76c0-.66,0-1.32,0-2v-2h0c.62-.6.18-.17.32-.3l60.79.12h.19v.18c0,4.91-.08,8.8-.1,11.51,0,1.29,0,2.3-.05,3,0,.31,0,.57,0,.76A2.06,2.06,0,0,1,673.27,253.33Z" style="fill:#e0e0e0"></path><rect x="26.04" y="201.82" width="64.41" height="15.79" style="fill:#ebebeb"></rect><rect x="485.45" y="143.65" width="64.41" height="15.79" style="fill:#ebebeb"></rect><path d="M410.14,279.28a2.08,2.08,0,0,1,0-.31c0-.23,0-.51,0-.87,0-.79,0-1.91-.05-3.33,0-2.92-.06-7.13-.11-12.43l.2.2-63.61.13.33-.33h0v2.14c0,.73,0,1.45,0,2.16v12.61l-.32-.32,45.33.15,13.38.09,3.62,0,.94,0,.34,0a1.45,1.45,0,0,1-.3,0l-.9,0-3.55,0-13.31.09-45.55.15h-.32V262.37h0l.32-.32,63.61.12h.2v.2c0,5.35-.09,9.6-.11,12.55,0,1.4,0,2.5-.05,3.29,0,.34,0,.61,0,.83A1.15,1.15,0,0,1,410.14,279.28Z" style="fill:#e0e0e0"></path><path d="M418.76,262.34s0-.11,0-.32,0-.54,0-.9c0-.83,0-2,0-3.39,0-3-.08-7.17-.13-12.32l.23.23-38.21.09.32-.32h0v8.71c0,2.83,0,5.58,0,8.21l-.3-.31,27.33.15,8,.09,2.15,0,.76,0a3,3,0,0,1-.69,0l-2.08,0-7.9.09-27.54.14h-.31v-.31c0-2.63,0-5.38,0-8.21,0-1.42,0-2.85,0-4.31v-4.4h0l.33-.33,38.21.09H419v.24c-.06,5.21-.1,9.46-.13,12.46,0,1.41,0,2.52-.06,3.34A7,7,0,0,1,418.76,262.34Z" style="fill:#e0e0e0"></path><path d="M696.11,127.06a1.85,1.85,0,0,1,0-.3c0-.23,0-.52,0-.87,0-.8,0-1.91-.05-3.34,0-2.92-.06-7.12-.11-12.42l.2.19-63.6.13.32-.32h0v8.59q0,4.24,0,8.33l-.32-.32,45.33.15,13.38.09,3.62,0,.95,0,.33,0a.83.83,0,0,1-.29,0l-.91,0-3.55.05-13.31.09-45.55.14h-.31v-.32q0-4.08,0-8.33v-8.59h0l.33-.33,63.6.13h.2v.2c0,5.35-.08,9.59-.11,12.54,0,1.41,0,2.5-.05,3.29,0,.34,0,.62,0,.83A1.15,1.15,0,0,1,696.11,127.06Z" style="fill:#e0e0e0"></path><path d="M704.74,110.13a1.62,1.62,0,0,1,0-.33c0-.24,0-.53,0-.89,0-.84,0-2-.06-3.4,0-3-.07-7.16-.13-12.32l.24.23-38.22.1.32-.33h0v8.71q0,4.26,0,8.22l-.31-.31,27.34.14,8,.09,2.15,0a4.58,4.58,0,0,1,.77,0,5.87,5.87,0,0,1-.7,0l-2.08,0-7.89.09-27.55.15h-.31v-.31c0-2.64,0-5.38,0-8.22,0-1.41,0-2.85,0-4.31V93.2h0l.33-.33,38.22.1H705v.23c-.05,5.22-.1,9.46-.13,12.46,0,1.41,0,2.53-.05,3.35S704.75,110.14,704.74,110.13Z" style="fill:#e0e0e0"></path><path d="M122.58,100.58a2.08,2.08,0,0,1,0-.31c0-.23,0-.51,0-.87,0-.8,0-1.91-.05-3.33,0-2.93-.06-7.13-.11-12.43l.2.2L59,84l.33-.33h0v2.16c0,.72,0,1.45,0,2.16v12.61l-.32-.32,45.33.14,13.38.09,3.62.05.94,0a1.37,1.37,0,0,1,.34,0l-.3,0-.9,0-3.55,0-13.31.09L59,100.9h-.32V83.65h0c.65-.65.18-.18.32-.33l63.61.13h.2v.2c0,5.35-.09,9.59-.11,12.55,0,1.4,0,2.5,0,3.28,0,.35,0,.62,0,.84A1.39,1.39,0,0,1,122.58,100.58Z" style="fill:#e0e0e0"></path><path d="M131.2,83.64s0-.12,0-.32,0-.54,0-.9c0-.83,0-2-.05-3.39,0-3-.08-7.17-.13-12.33l.23.24L93,67c-.29.29.39-.4.32-.32h0v8.71c0,2.83,0,5.58,0,8.21l-.3-.31,27.33.15,8,.08,2.15,0,.76,0a4,4,0,0,1-.69,0l-2.08,0-7.9.08L93,84h-.31v-.31c0-2.63,0-5.38,0-8.21,0-1.42,0-2.86,0-4.31v-4.4h0l.33-.33,38.21.09h.24v.23c-.06,5.22-.1,9.46-.13,12.47,0,1.41,0,2.52-.06,3.34A7,7,0,0,1,131.2,83.64Z" style="fill:#e0e0e0"></path><path d="M258.68,45l-7.34-.82-7.23-1c-12-1.51-23.63-3.37-34.76-5.34h0s13,62.76,21,62.33c10.27-.55,44.23-53.51,44.23-53.51h0l-.91-.08C268.57,46.19,263.6,45.56,258.68,45Z" style="fill:#f5f5f5"></path><path d="M332.52,50.36l-4-.17-8.06-.32-8-.32-7.91-.5c-5.25-.37-10.47-.6-15.61-1.07L281,47.29h0s18.73,61.47,26.63,60.37c10.18-1.43,39.1-57,39.1-57l-10.12-.18Z" style="fill:#ebebeb"></path><path d="M386.19,49.6q4.49-.15,8.93-.33Z" style="fill:#f5f5f5"></path><path d="M353,50.71s24.49,59.14,32.24,57.36c9.63-2.21,31.83-55.36,33.52-59.44-16,1.06-32.4,1.75-49.11,2Z" style="fill:#f5f5f5"></path><path d="M423,48.33c-.46,0-.83.08-1.09.09,0,0,27.93,57.36,35.56,55.15,9.26-2.68,27.54-55.85,29.7-62.23-16.77,2.4-34.29,4.5-52.42,6.1Q428.9,47.92,423,48.33Z" style="fill:#ebebeb"></path><path d="M444.87,45.85c14.6-1.44,28.77-3.18,42.44-5.13C486.11,40.87,463.31,43.67,444.87,45.85Z" style="fill:#ebebeb"></path><path d="M555.81,27.6s-40.88,8.23-57.75,11.5C518.61,35.79,537.92,32,555.71,28,555.77,27.75,555.81,27.6,555.81,27.6Z" style="fill:#f5f5f5"></path><path d="M491.58,40.7c2.85,4.53,34.12,53.82,41.14,51,8.76-3.52,21-55.24,22.86-63.1-18.65,4.22-39,8.16-60.63,11.6Z" style="fill:#f5f5f5"></path><path d="M605.28,15.22l4.93-1.41L615,12.34l6.34-2c-12.15,3.38-46,12.77-56.26,15.5,10.59-2.51,20.61-5.1,30-7.73Z" style="fill:#ebebeb"></path><path d="M615.11,12.73c-1.57.49-3.15,1-4.77,1.48l-4.93,1.42-10.26,2.95c-10,2.84-20.88,5.65-32.38,8.36,3.53,4.74,38.26,51.1,45,47.8,8.81-4.32,17.28-61,17.91-65.32l-1.45.45Z" style="fill:#ebebeb"></path><path d="M143.48,23.53l-3.89-1h0s7.84,63.92,15.82,64.09c10.29.22,48.46-49.51,48.46-49.51l-4-.91c-3.32-.61-6.61-1.23-9.85-1.85C173.17,30.84,157.56,27.32,143.48,23.53Z" style="fill:#ebebeb"></path><path d="M157.52,26.61q10.39,2.49,21.65,4.9Z" style="fill:#ebebeb"></path><path d="M105.7,12.58c5.48,1.85,11.44,3.53,17.73,5.4,3.16.9,6.37,1.93,9.73,2.8l6.43,1.72,3.89,1c14.08,3.79,29.69,7.31,46.5,10.79,3.24.62,6.53,1.24,9.85,1.85,3.14.58,6.3,1.16,9.52,1.73,11.13,2,22.73,3.83,34.76,5.34l7.23,1,7.34.82c4.92.53,9.89,1.16,14.93,1.61l.91.08,6.46.57,7.92.69c5.14.47,10.36.7,15.61,1.07l7.91.5,8,.32,8.06.32,4,.17,4.07.07,10.12.18,6.3.1,16.65-.09c16.71-.24,33.12-.93,49.11-2l4.21-.3q5.91-.42,11.75-.89c18.13-1.6,35.65-3.7,52.42-6.1l4.43-.64,3.37-.5c21.66-3.44,42-7.38,60.63-11.6,2.43-.55,4.82-1.11,7.19-1.66,11.5-2.71,22.33-5.52,32.38-8.36l10.26-2.95,4.93-1.42c1.62-.48,3.2-1,4.77-1.48l9.12-2.86,1.45-.45c2.26-.71,4.48-1.41,6.6-2.15h-1.15c-2.27.76-4.61,1.49-7,2.24l-2.78.86-6.34,2-4.77,1.47-4.93,1.41L595,18.14c-9.35,2.63-19.37,5.22-30,7.73-3.07.73-6.18,1.45-9.35,2.16-17.79,4-37.1,7.76-57.65,11.07l-3.21.52-7.54,1.1c-13.67,2-27.84,3.69-42.44,5.13-3.38.34-6.77.66-10.2,1q-19.35,1.61-39.55,2.46-4.44.18-8.93.33-8.22.26-16.54.38l-16.63.1L336.6,49.8l-4.06-.08-4.05-.16-8.05-.32-8-.32-7.9-.5c-5.25-.36-10.46-.59-15.6-1.05L273.68,46c-5-.46-10-1.08-14.93-1.6l-7.33-.81-7.22-1C225,40.27,207,37,190.09,33.81c-3.7-.77-7.33-1.53-10.92-2.3q-11.25-2.42-21.65-4.9c-4.78-1.15-9.43-2.32-13.92-3.51l-10.31-2.73c-3.36-.86-6.58-1.89-9.73-2.78-6.3-1.85-12.26-3.52-17.75-5.35s-10.65-3.36-15.33-5V7.6C95.13,9.21,100.24,10.79,105.7,12.58Z" style="fill:#e0e0e0"></path></g><g id="freepik--Table--inject-372"><path d="M687.47,473.24c0,.14-140.36.26-313.45.26s-313.49-.12-313.49-.26S200.86,473,374,473,687.47,473.1,687.47,473.24Z" style="fill:#263238"></path></g><g id="freepik--Lines--inject-372"><path d="M310.06,255.07c.14,0-.91,8.26-2.35,18.39s-2.73,18.34-2.87,18.32.91-8.26,2.35-18.39S309.92,255.05,310.06,255.07Z" style="fill:#263238"></path><path d="M333,272.66a4.74,4.74,0,0,1-.7.85l-2,2.18c-1.73,1.83-4.12,4.36-6.72,7.19s-4.91,5.43-6.59,7.31l-2,2.22c-.48.52-.76.8-.79.77a5.28,5.28,0,0,1,.63-.9c.43-.56,1.07-1.35,1.87-2.33,1.61-1.94,3.89-4.58,6.49-7.42s5-5.33,6.83-7.1c.9-.88,1.64-1.59,2.16-2.06A4.59,4.59,0,0,1,333,272.66Z" style="fill:#263238"></path><path d="M293.41,291.78c-.13.05-2.59-5.44-5.48-12.27s-5.14-12.42-5-12.48,2.58,5.44,5.48,12.27S293.54,291.72,293.41,291.78Z" style="fill:#263238"></path></g><g id="freepik--Shots--inject-372"><path d="M322.9,433.85S325,458.3,325.63,466l.5,7,26,0,.56-6.68,2.21-33Z" style="fill:#fff"></path><path d="M322.91,433.85a4.23,4.23,0,0,1,.55,0l1.69-.05,6.45-.17,23.26-.51h.24v.24c-.7,10.49-1.45,23-2.46,36.48l-.27,3.23,0,.24H325.91V473c-.38-5.8-.83-11.18-1.22-16s-.71-8.95-1-12.41-.47-6.13-.61-8c-.07-.9-.12-1.6-.15-2.11,0-.22,0-.39,0-.53s0-.18,0-.17l0,.19c0,.15,0,.33.06.56l.21,2.15c.17,1.9.42,4.61.74,8s.69,7.61,1.12,12.34.89,10.06,1.3,15.88l-.24-.22,26-.05-.25.24c.08-1.07.17-2.15.26-3.24,1-13.43,1.79-26,2.54-36.46l.22.24-23.13.28-6.5.05h-2.33Z" style="fill:#263238"></path><path d="M325.45,435.61s.94,13.65,1.82,20.84c.26,2.13,1,4.56,2.65,5.4,2.42,1.23,14,2.95,18.78.2,1.44-.83,2.13-1.67,2.31-4.21s1.56-22.47,1.56-22.47Z" style="fill:#ebebeb"></path><path d="M348.61,464.2a10.59,10.59,0,0,1-2.58.93,27.54,27.54,0,0,1-6.54,1,28,28,0,0,1-6.59-.62,9.89,9.89,0,0,1-2.62-.81,22.82,22.82,0,0,1,2.68.45,35.94,35.94,0,0,0,6.51.46,35.31,35.31,0,0,0,6.48-.8A23,23,0,0,1,348.61,464.2Z" style="fill:#263238"></path><path d="M327.18,433.9c.05.37.79,23.07,2.48,25.3s4.54,2.14,5.72,1.92-1.05-27.29-1.05-27.29Z" style="fill:#fff;opacity:0.30000000000000004"></path><path d="M330.06,466.36a21.38,21.38,0,0,0,6.16,3.69,10.92,10.92,0,0,0,6.78.15,10.64,10.64,0,0,0,5.9-4.9C342.91,469.28,336,468.32,330.06,466.36Z" style="fill:#ebebeb"></path><path d="M361.38,433.85s2.11,24.45,2.73,32.19l.5,7,26,0,.56-6.68,2.21-33Z" style="fill:#fff"></path><path d="M361.38,433.85a4.31,4.31,0,0,1,.56,0l1.68-.05,6.45-.17,23.27-.51h.24l0,.24c-.7,10.49-1.44,23-2.45,36.48l-.27,3.23,0,.24H364.39V473c-.39-5.8-.83-11.18-1.22-16s-.71-8.95-1-12.41-.47-6.13-.61-8c-.07-.9-.12-1.6-.15-2.11,0-.22,0-.39,0-.53v-.17a.52.52,0,0,1,0,.19c0,.15,0,.33.06.56l.21,2.15c.18,1.9.43,4.61.75,8s.69,7.61,1.11,12.34.9,10.06,1.31,15.88l-.24-.22,26-.05-.26.24q.14-1.61.27-3.24c1-13.43,1.78-26,2.54-36.46l.22.24-23.13.28-6.5.05h-2.34Z" style="fill:#263238"></path><path d="M363.93,435.61s.94,13.65,1.81,20.84c.26,2.13,1,4.56,2.66,5.4,2.41,1.23,14,2.95,18.77.2,1.45-.83,2.14-1.67,2.32-4.21s1.56-22.47,1.56-22.47Z" style="fill:#ebebeb"></path><path d="M387.09,464.2a10.59,10.59,0,0,1-2.58.93,27.55,27.55,0,0,1-6.55,1,28.16,28.16,0,0,1-6.59-.62,9.89,9.89,0,0,1-2.61-.81,22.82,22.82,0,0,1,2.68.45,35.87,35.87,0,0,0,6.51.46,35.07,35.07,0,0,0,6.47-.8A23.31,23.31,0,0,1,387.09,464.2Z" style="fill:#263238"></path><path d="M365.66,433.9c0,.37.79,23.07,2.47,25.3s4.55,2.14,5.72,1.92-1.05-27.29-1.05-27.29Z" style="fill:#fff;opacity:0.30000000000000004"></path><path d="M368.53,466.36a21.56,21.56,0,0,0,6.17,3.69,10.92,10.92,0,0,0,6.78.15,10.59,10.59,0,0,0,5.89-4.9C381.38,469.28,374.44,468.32,368.53,466.36Z" style="fill:#ebebeb"></path></g><g id="freepik--speech-bubble--inject-372"><polygon points="355.61 116.41 370.61 78.72 393.76 111.86 429.25 87.58 423.66 133.99 459.61 142.95 424.77 172.01 458.62 209.36 411.95 194.86 389.52 235.07 369.35 200.03 326.3 211.29 342.12 173.61 304.53 157.49 337.64 144.43 318.31 109.95 355.61 116.41" style="fill:#fff"></polygon><path d="M355.6,116.41s-.84-.17-2.47-.46l-7.2-1.29-27.6-4.87-.33-.06.16.3,19.29,34.52.11-.33-33.13,13-.6.24.59.25L342,173.89l-.15-.39c-5,12-10.34,24.57-15.84,37.67l-.26.6.64-.16,43-11.25-.38-.16,20.16,35.05.31.54.3-.55L412.27,195l-.42.17,12.72,4,33.94,10.55,1.25.39-.88-1L425,171.78l0,.5,34.83-29.07.5-.42-.63-.16-35.95-8.94.23.34c2-16.47,3.82-32,5.55-46.42l.07-.61-.5.35-35.46,24.32.32.06-23.2-33.1-.18-.26-.11.29c-4.84,12.25-8.55,21.66-11.07,28-1.25,3.18-2.19,5.6-2.84,7.24s-.95,2.48-.95,2.48.35-.8,1-2.4l2.9-7.18c2.56-6.38,6.35-15.79,11.27-28l-.29,0c6.34,9.11,14,20.1,23.09,33.17l.13.19.19-.13L429.4,87.8l-.43-.26c-1.74,14.43-3.62,29.95-5.62,46.41l0,.27.27.07,35.94,9-.13-.57-34.85,29.05-.28.23.24.27,33.84,37.35.37-.58-33.93-10.55-12.73-3.95-.28-.09-.14.25L389.21,234.9h.61c-6.95-12.08-13.76-23.9-20.18-35l-.13-.23-.25.07-43,11.28.38.44,15.8-37.69.11-.28-.27-.11-37.61-16.1v.5c12-4.76,23.19-9.17,33.1-13.09l.24-.1-.13-.23-19.39-34.45-.17.24L346,114.82l7.18,1.2C354.79,116.29,355.6,116.41,355.6,116.41Z" style="fill:#263238"></path><path d="M376.23,135.91l3,27.67a4.5,4.5,0,0,0,4.4,4h0a4.51,4.51,0,0,0,4.57-4.21l1.86-28a3.53,3.53,0,0,0-3.73-3.76l-6.76.39A3.52,3.52,0,0,0,376.23,135.91Z" style="fill:#9376C0"></path><path d="M390.29,180.43a6.78,6.78,0,1,1-4.66-8.37A6.78,6.78,0,0,1,390.29,180.43Z" style="fill:#9376C0"></path></g><g id="freepik--character-2--inject-372"><path d="M503.21,167.29c-8.51,19.38-19.29,43-15.5,63.83,1.07,5.91,3.14,12,1.42,17.77-2.38,8-11.44,12.95-12.78,21.18-1.17,7.2,4,13.69,6.78,20.43,3.77,9.11,3.25,19.39,2.07,29.17s-3,19.69-1.5,29.44,6.95,19.59,16.15,23.16l39.88-18.14-7.58-169.32Z" style="fill:#263238"></path><path d="M707.87,369.35c-5.57-10.79-8.58-23.17-16.68-32.23-6.79-7.59-17-12.58-20.84-22-4.83-11.66,1.95-25.23-1.05-37.48-3.38-13.85-17.71-21.66-26.52-32.87C624,220.9,620.42,185.65,609,163.61L554.36,286.9c13.38,50.31,20.52,97.48,38,146.52,27.17,5.89,64.47,5.58,89.93-5.58L675.57,411a19.79,19.79,0,0,0,15.22,7.24c8.44,0,16.25-4.36,23.09-9.31A126.24,126.24,0,0,0,736,388.53C724,390.42,713.44,380.15,707.87,369.35Z" style="fill:#263238"></path><path d="M611,167.24c-9.21-17.66-24-29.79-43.42-34.17-11-2.47-16-1.14-24.37-.65s-16.4,3.25-22.53,9c-7.27,6.8-13.85,14.73-16.93,24.19-3.16,9.72-6.34,19.51-7.67,29.64s-.71,20.75,3.49,30.07l24.49,9.7c13.93,3.4,28.06,6.82,42.4,6.46s29.15-4.94,39-15.39C619.08,211.55,620.22,184.89,611,167.24Z" style="fill:#263238"></path><path d="M588.44,162.37l-31.07-20.5-9.07-.82c-19.92-4.07-38.23,15-41.71,31.1-3.88,17.87-7.9,39.85-7.81,53.63.2,27.73,22.4,34.65,22.4,34.65l-2.63,26.15-8,6.9L496.27,349.9,537,363.11l49.44-91.9L573.7,271l21.8-97.72A9.63,9.63,0,0,0,588.44,162.37Z" style="fill:#ae7461"></path><path d="M539.91,227.86a5.81,5.81,0,0,0-1.23-3.89,5.92,5.92,0,0,0-6.93-1.86,7.91,7.91,0,0,0-4.45,6.65h0a7.18,7.18,0,0,0,4.43,4c.31.09.62.17.94.23a6.48,6.48,0,0,0,4.61-.8A5.74,5.74,0,0,0,539.91,227.86Z" style="fill:#6f4439"></path><path d="M509.07,196.54a3.52,3.52,0,0,0,2.82,4A3.37,3.37,0,0,0,516,198a3.51,3.51,0,0,0-2.82-4A3.35,3.35,0,0,0,509.07,196.54Z" style="fill:#263238"></path><path d="M510.79,182.36c.36.52,3.29-1,7-.45s6.19,2.86,6.67,2.46c.23-.17-.09-1.05-1.15-2.1a9.62,9.62,0,0,0-5.25-2.53,9.29,9.29,0,0,0-5.68.92C511.12,181.37,510.61,182.13,510.79,182.36Z" style="fill:#263238"></path><path d="M528.51,216.28c0-.21-2.21-1-5.91-2-.93-.24-1.81-.57-1.87-1.24a4.88,4.88,0,0,1,1.06-2.73l3.93-6.84c5.49-9.75,9.62-17.83,9.22-18s-5.16,7.51-10.65,17.26q-2,3.6-3.82,6.89c-.52,1-1.33,2.17-1.06,3.67a2.42,2.42,0,0,0,1.36,1.64,6.47,6.47,0,0,0,1.59.47C526.12,216.11,528.47,216.49,528.51,216.28Z" style="fill:#263238"></path><path d="M521.14,260.39a69.71,69.71,0,0,0,37.76-4.18s-12.52,17.31-39.25,10.66Z" style="fill:#6f4439"></path><path d="M539.12,220.53c-.6-.13-1.22,3.92-5.13,6.28s-8.17,1.25-8.28,1.81c-.1.25.84.93,2.66,1.26a10.26,10.26,0,0,0,6.88-1.29,8.9,8.9,0,0,0,4-5.3C539.7,221.62,539.4,220.55,539.12,220.53Z" style="fill:#263238"></path><path d="M514.74,169.69c.49,1,3.45.83,6.75,1.62s6,2.08,6.81,1.37c.38-.35.15-1.3-.87-2.39a10.74,10.74,0,0,0-10.92-2.41C515.14,168.45,514.54,169.21,514.74,169.69Z" style="fill:#263238"></path><path d="M549.43,203.09a3.51,3.51,0,0,1-4,2.85,3.36,3.36,0,0,1-3-3.78,3.53,3.53,0,0,1,4-2.86A3.35,3.35,0,0,1,549.43,203.09Z" style="fill:#263238"></path><path d="M561.12,191.34c-.51.37-2.76-2.06-6.48-2.76s-6.79.65-7.11.12c-.16-.24.43-1,1.78-1.61a9.73,9.73,0,0,1,5.8-.65,9.33,9.33,0,0,1,5,2.76C561.14,190.29,561.37,191.18,561.12,191.34Z" style="fill:#263238"></path><path d="M561.36,179.05c-.89.7-3.59-.72-7-1.42s-6.47-.64-7-1.65c-.21-.48.41-1.24,1.84-1.79a11.43,11.43,0,0,1,11.29,2.46C561.53,177.75,561.76,178.7,561.36,179.05Z" style="fill:#263238"></path><path d="M581.53,217.34c.31-2,3.36-6.42,5.4-6.43,5.45,0,15,1.86,13,15.38-2.67,18.47-20.69,12-20.64,11.44S580.45,224.3,581.53,217.34Z" style="fill:#ae7461"></path><path d="M585.38,231.72c.09-.05.29.27.79.6a3.28,3.28,0,0,0,2.41.4c2-.44,4.15-3.3,4.72-6.61a10.81,10.81,0,0,0-.23-4.74,3.73,3.73,0,0,0-2.07-2.82,1.65,1.65,0,0,0-2,.6c-.32.48-.26.87-.36.89s-.35-.37-.09-1.11a2.12,2.12,0,0,1,.89-1.06,2.51,2.51,0,0,1,1.85-.21,4.55,4.55,0,0,1,3,3.35,11,11,0,0,1,.37,5.32c-.66,3.7-3.07,6.91-5.85,7.29a3.5,3.5,0,0,1-2.88-.91C585.34,232.17,585.31,231.74,585.38,231.72Z" style="fill:#6f4439"></path><path d="M587.66,211.12,582,215c-16-23.32-45.19-79.43-43.6-76.12,0,0,14.9-2.79,29.26,2.85s41.07,19,37,36.42S587.66,211.12,587.66,211.12Z" style="fill:#263238"></path><path d="M365.22,404.94l-19.78-12.83,21.21-21.6s17.92,13.57,18.34,14S365.22,404.94,365.22,404.94Z" style="fill:#ae7461"></path><path d="M337,345.75s-7.5-5.49-11.3-6.7-8.48-2.43-8.48-2.43-5.63-4.31-7.46-6.64-3.82-1.86-5.52-.83-1.45,4.52,3.05,9.56l4,4.06a12.5,12.5,0,0,0-1.2,7,10.26,10.26,0,0,0,1.5,3.74s-4.28,2.05-4.12,6.05a5.11,5.11,0,0,0,3.5,4.89s-2.73,4.46-1.86,8.05,10.36,10.41,10.36,10.41,20.9,10.25,28.12,10.82l5.27-1.6L369,372Z" style="fill:#ae7461"></path><path d="M306.35,317s3.8,24.24,4.95,31.92l1,6.94,25.9-1.83.09-6.7-.08-33.1Z" style="fill:#fff"></path><path d="M306.35,317a4.14,4.14,0,0,1,.55-.07l1.68-.17,6.42-.62L338.18,314l.24,0v.24c0,10.51.15,23.08.08,36.56,0,1.09,0,2.17-.05,3.25v.23l-.24,0-25.91,1.8-.22,0,0-.22c-.79-5.76-1.61-11.09-2.33-15.84s-1.33-8.87-1.84-12.31-.89-6.08-1.16-7.95c-.13-.89-.23-1.59-.3-2.09l-.07-.53c0-.12,0-.18,0-.17a1.9,1.9,0,0,1,0,.19c0,.15.06.33.1.56.09.51.21,1.22.36,2.12.31,1.88.75,4.58,1.3,8s1.21,7.53,2,12.23,1.59,10,2.4,15.74l-.25-.2,25.91-1.85-.25.26c0-1.07,0-2.16.05-3.25.07-13.47,0-26,0-36.55l.23.22-23,1.89-6.48.5L307,317C306.56,317,306.35,317,306.35,317Z" style="fill:#263238"></path><path d="M309,318.6s1.88,13.55,3.26,20.66c.4,2.11,1.3,4.48,3,5.21,2.49,1.06,14.13,2,18.74-1.11,1.39-.92,2-1.81,2-4.36V316.48Z" style="fill:#ebebeb"></path><path d="M334.1,345.51a10.06,10.06,0,0,1-2.51,1.11,27.64,27.64,0,0,1-6.46,1.41,27.28,27.28,0,0,1-6.62-.16,10.55,10.55,0,0,1-2.67-.62,21.24,21.24,0,0,1,2.71.26,34.14,34.14,0,0,0,12.93-1.24A24.21,24.21,0,0,1,334.1,345.51Z" style="fill:#263238"></path><path d="M311,332l1.25,7.22c.4,2.11,1.3,4.48,3,5.21,2.49,1.06,14.13,2,18.74-1.11,1.39-.92,2-1.81,2-4.36V327.9Z" style="fill:#9376C0"></path><path d="M336.05,327.91c.13.82-5.37,2.38-12.29,3.49s-12.63,1.36-12.76.55,5.37-2.38,12.29-3.49S335.92,327.1,336.05,327.91Z" style="fill:#9376C0"></path><path d="M336.05,327.91c.13.82-5.37,2.38-12.29,3.49s-12.63,1.36-12.76.55,5.37-2.38,12.29-3.49S335.92,327.1,336.05,327.91Z" style="opacity:0.30000000000000004"></path><path d="M310.62,316.77c.07.37,2.39,23,4.22,25.07s4.69,1.82,5.84,1.52-2.94-27.15-2.94-27.15Z" style="fill:#fff;opacity:0.30000000000000004"></path><path d="M315.74,349a21.33,21.33,0,0,0,6.4,3.27,11.06,11.06,0,0,0,6.78-.33,10.6,10.6,0,0,0,5.54-5.3C328.76,351,321.77,350.5,315.74,349Z" style="fill:#ebebeb"></path><path d="M318.76,349.42a2.61,2.61,0,0,0-.27-1.9c1.13-1.46,4.16-4.8,4.56-6.61s-.23-4-1.89-4.77a5,5,0,0,0-4.2.33c-2.33,1.07-8.86,6.66-8.86,12.08a6.78,6.78,0,0,0,1.83,5.89h0l8.83-5" style="fill:#ae7461"></path><path d="M309.39,344.16c-.11-.05.67-1.65,2.52-3.77a23.21,23.21,0,0,1,3.57-3.43,7.68,7.68,0,0,1,2.7-1.34,4.44,4.44,0,0,1,3.3.25,4.39,4.39,0,0,1,2.06,3.88,4.55,4.55,0,0,1-.42,2,11,11,0,0,1-1,1.59,54.65,54.65,0,0,1-3.52,4.26l0-.21c.56,1.27.15,2,.11,2a3.79,3.79,0,0,0-.44-1.81l-.06-.1.08-.11c.74-1,2-2.5,3.26-4.39a5.28,5.28,0,0,0,1.18-3.25,3.68,3.68,0,0,0-1.68-3.21,3.77,3.77,0,0,0-2.73-.19,7.16,7.16,0,0,0-2.47,1.18,27.31,27.31,0,0,0-3.58,3.22C310.39,342.76,309.48,344.21,309.39,344.16Z" style="fill:#6f4439"></path><path d="M311.85,364.66c1.58-.79,11.78-7.13,13.08-8.32a6.63,6.63,0,0,0,2.33-4.6,4.08,4.08,0,0,0-2.77-4.05,6.32,6.32,0,0,0-4.09.76,56.56,56.56,0,0,0-9.31,5.27" style="fill:#ae7461"></path><path d="M311.09,353.72a18,18,0,0,1,3.66-2.67,48.51,48.51,0,0,1,4.31-2.38,22.58,22.58,0,0,1,2.7-1.17,4.71,4.71,0,0,1,3.31,0,4.65,4.65,0,0,1,2.38,5.51,7.78,7.78,0,0,1-2.95,4.07,15.69,15.69,0,0,1-2.89,1.66,4,4,0,0,1-1.15.42c0-.05.34-.29,1-.69a20.58,20.58,0,0,0,2.7-1.82,7.45,7.45,0,0,0,2.59-3.81,4.29,4.29,0,0,0-.14-2.62,3.56,3.56,0,0,0-1.85-2,4,4,0,0,0-2.77,0,24.42,24.42,0,0,0-2.62,1.09c-1.66.77-3.12,1.53-4.34,2.2C312.6,352.87,311.16,353.82,311.09,353.72Z" style="fill:#6f4439"></path><path d="M369.44,373c0-.5-8.94-15.13-12-19.6s-13-11.78-12.74-16.34a95.12,95.12,0,0,1,1.2-9.91s-2.72-3.38-6.58.53a16.36,16.36,0,0,0-4,14.61c1.07,4.59,6.33,12,6.33,12a26.71,26.71,0,0,0,.11,16c2.85,8.37,14.06,16.36,14.52,16.49S371,378.69,371,378.69Z" style="fill:#ae7461"></path><path d="M354.18,386.3a10.31,10.31,0,0,1-1.77-.9,34.88,34.88,0,0,1-4.45-3.1,25,25,0,0,1-5.34-6,21.05,21.05,0,0,1-3-9.39,29.69,29.69,0,0,1,.29-6.85,47.18,47.18,0,0,1,1.45-5.9l0,.27a86.35,86.35,0,0,1-4.68-7.64,11.35,11.35,0,0,1-.9-2.37,2.61,2.61,0,0,1-.11-.89,22,22,0,0,0,1.35,3.08c1,1.89,2.86,4.35,4.91,7.47l.08.12,0,.16a51.61,51.61,0,0,0-1.35,5.82,30.46,30.46,0,0,0-.26,6.66,21,21,0,0,0,2.86,9.09,26.25,26.25,0,0,0,5.09,6C351.75,384.83,354.27,386.16,354.18,386.3Z" style="fill:#6f4439"></path><path d="M320.51,370a7.82,7.82,0,0,0-3.11-1.87,17.08,17.08,0,0,0,2.39-7.41,5.76,5.76,0,0,0-.18-2.3,2.52,2.52,0,0,0-1.5-1.65c-1.32-.44-2.66.58-3.56,1.63a18.1,18.1,0,0,0-3.52,6.31" style="fill:#ae7461"></path><path d="M311,364.68a9.84,9.84,0,0,1,1.4-3.82,14.64,14.64,0,0,1,2.7-3.57,3.54,3.54,0,0,1,2.62-1,2.8,2.8,0,0,1,2.25,2.06,7.25,7.25,0,0,1,.1,3.06,16.85,16.85,0,0,1-.57,2.71,16.35,16.35,0,0,1-1.91,4.14l-.14-.39a7.36,7.36,0,0,1,2.39,1.37c.48.43.68.72.64.75a13.3,13.3,0,0,0-3.19-1.62l-.32-.09.17-.29a18,18,0,0,0,1.67-4.07,16.87,16.87,0,0,0,.5-2.6,7,7,0,0,0-.08-2.74,2.06,2.06,0,0,0-1.6-1.53,2.82,2.82,0,0,0-2.06.81,15.55,15.55,0,0,0-2.69,3.3C311.61,363.24,311.16,364.73,311,364.68Z" style="fill:#6f4439"></path><path d="M369.44,373l56.82,22.67s12.08-26.13,23.95-60.34c13-37.45,30.83-37.72,30.83-37.72l11.1,82.32L480.65,412s-17.64,34.87-27,39.21c-23.08,10.73-88.47-46.28-88.47-46.28Z" style="fill:#ae7461"></path><path d="M469.3,473.24c.93-8.4,4.38-20.77,4.69-24.88L469,422c-.38-1.1-2.32-8.15-3.39-36.2-1-27.14,3.73-53.17,8.9-79.44,0,0,.4-6.73,4.82-8.47,11.61-4.58,36.47-9.62,37.54-10.72,6.92,11.89,23.49,22.72,56.06-.67l39.27,8.41c5.56,2.34,5.38,6.1,4.83,12.1l-3.64,73L598.1,439.48l14.31,33.18Z" style="fill:#9376C0"></path><path d="M650.88,355c-1.39-51.45-39.65-60.53-39.65-60.53l-6.87,45.75a105.74,105.74,0,0,0,1.11,37.5L608.9,394l9.68,43.38,9.9,35.87h47.74C670.69,443.82,652.22,404.07,650.88,355Z" style="fill:#ae7461"></path><g style="opacity:0.30000000000000004"><path d="M469.3,341.05s-13.57,33.18-11.69,49.26a71.17,71.17,0,0,0,9.94,28.2s-2.74-26.71-1.94-38.73S469.3,341.05,469.3,341.05Z"></path></g><path d="M435,414.11c-.22.07-1.5-4.33-3.94-9.39s-5.05-8.82-4.85-9a10.17,10.17,0,0,1,1.91,2.33,46.34,46.34,0,0,1,6.27,13.07A9.63,9.63,0,0,1,435,414.11Z" style="fill:#6f4439"></path><path d="M473,328.59a5.84,5.84,0,0,1-.2,1.07l-.7,3c-.33,1.32-.72,2.93-1.09,4.82s-.9,4-1.3,6.41-.92,5-1.32,7.82-.79,5.84-1.18,9c-.66,6.37-1.15,13.4-1.27,20.79s.25,14.44.75,20.82c.31,3.19.56,6.23,1,9.05s.73,5.45,1.12,7.85.79,4.54,1.13,6.44.68,3.52,1,4.85l.63,3.06a5,5,0,0,1,.17,1.08,5.37,5.37,0,0,1-.32-1.05q-.3-1.14-.78-3c-.33-1.31-.72-2.93-1.1-4.82s-.87-4-1.25-6.44-.86-5-1.22-7.86-.7-5.87-1-9.06c-.54-6.41-.88-13.48-.81-20.9s.63-14.48,1.33-20.86c.41-3.19.77-6.23,1.26-9s.94-5.44,1.42-7.82,1-4.53,1.41-6.41.85-3.49,1.22-4.8.64-2.24.85-3A4.94,4.94,0,0,1,473,328.59Z" style="fill:#263238"></path><path d="M482.8,296.85s31.18,67.53,38,62.3,85.32-65.47,85.32-65.47l-33.22-7.21-56.06.67Z" style="fill:#ae7461"></path><path d="M518.32,368l-.36,0a2,2,0,1,0,.36,0Z" style="fill:#fff"></path><path d="M492.7,352.21l-.37,0a2,2,0,1,0,.37,0Z" style="fill:#fff"></path><path d="M484.2,323.59l-.37,0a2,2,0,1,0,.37,0Z" style="fill:#fff"></path><path d="M547.65,378.32l-.37,0a2.06,2.06,0,1,0,.37,0Z" style="fill:#fff"></path><path d="M527.35,427.73l-.37,0a2,2,0,1,0,.37,0Z" style="fill:#fff"></path><path d="M576.68,399.45l-.37,0a2,2,0,1,0,.37,0Z" style="fill:#fff"></path><path d="M482.82,425.75l-.36,0a2.06,2.06,0,1,0,.36,0Z" style="fill:#fff"></path><path d="M558.34,351.36l-.32,0a2.21,2.21,0,0,0-1.14,3.19,1.75,1.75,0,0,0,3-.26C560.45,353.1,559.55,351.38,558.34,351.36Z" style="fill:#fff"></path><path d="M590,329.14l-.32,0a2.23,2.23,0,0,0-1.15,3.2,1.75,1.75,0,0,0,3-.26C592.15,330.88,591.24,329.16,590,329.14Z" style="fill:#fff"></path><path d="M586.72,369l-.32,0a2.22,2.22,0,0,0-1.14,3.19,1.74,1.74,0,0,0,3-.26C588.83,370.72,587.93,369,586.72,369Z" style="fill:#fff"></path><path d="M564.79,425.31l-.32,0a2.23,2.23,0,0,0-1.15,3.2,1.75,1.75,0,0,0,3-.26C566.9,427.06,566,425.33,564.79,425.31Z" style="fill:#fff"></path><path d="M583.41,456.27l-.32,0a2.23,2.23,0,0,0-1.15,3.2,1.75,1.75,0,0,0,3-.26C585.52,458,584.62,456.29,583.41,456.27Z" style="fill:#fff"></path><path d="M542.9,456.27l-.32,0a2.23,2.23,0,0,0-1.15,3.2,1.76,1.76,0,0,0,3-.26C545,458,544.11,456.29,542.9,456.27Z" style="fill:#fff"></path><path d="M486.18,391.69l-.32,0a2.23,2.23,0,0,0-1.15,3.2,1.75,1.75,0,0,0,3-.26C488.29,393.43,487.38,391.71,486.18,391.69Z" style="fill:#fff"></path><path d="M590.07,425.75l-.32,0a2.24,2.24,0,0,0-1.15,3.2,1.75,1.75,0,0,0,3-.26C592.18,427.49,591.27,425.77,590.07,425.75Z" style="fill:#fff"></path><path d="M523.09,398.55l-.32,0c-1.2.22-1.86,2.08-1.15,3.19a1.75,1.75,0,0,0,3-.26C525.2,400.29,524.29,398.57,523.09,398.55Z" style="fill:#fff"></path><path d="M501.74,452.6l-.32,0c-1.19.22-1.86,2.08-1.15,3.19a1.76,1.76,0,0,0,3-.26C503.85,454.34,503,452.62,501.74,452.6Z" style="fill:#fff"></path><path d="M475.6,364.7l-.32,0c-1.19.22-1.85,2.08-1.14,3.19a1.75,1.75,0,0,0,3-.26C477.71,366.44,476.81,364.72,475.6,364.7Z" style="fill:#fff"></path><path d="M635.76,414.58c-13-17.18-26.59-35.85-27.42-57.38-.48-12.3,3.32-24.66,1.32-36.79s-9.52-22.49-15.27-33.36-9.56-69.94-4.34-81.08l-13.48-5.1c-8.87,18.44-11.67,96.36-2.4,114.6,4,7.93,9.74,15.32,11.06,24.11,2,13.33-6.61,26.42-5.27,39.84,1.83,18.36,21.73,33.17,18,51.24A113.33,113.33,0,0,0,635.76,414.58Z" style="fill:#263238"></path></g><g id="freepik--character-1--inject-372"><path d="M234.25,171.68,127.46,184.86a164.33,164.33,0,0,0-7.64,98.27,345.57,345.57,0,0,0,134.09-6.49C251.31,241,244.33,205.92,234.25,171.68Z" style="fill:#263238"></path><path d="M130,178c9.11-17.47,23.74-29.48,43-33.81,10.85-2.45,15.83-1.13,24.11-.64s16.24,3.21,22.3,8.87c7.2,6.73,13.7,14.58,16.75,23.95,3.13,9.62,6.28,19.3,7.59,29.33s.7,20.53-3.44,29.76L216,245.07c-13.79,3.36-27.78,6.74-42,6.39s-28.85-4.89-38.56-15.23C122,221.87,120.85,195.49,130,178Z" style="fill:#263238"></path><path d="M152.31,173.19l30.75-20.28,9-.81c19.72-4,37.84,14.86,41.29,30.78,3.83,17.69,7.82,39.43,7.72,53.07-.19,27.44-22.17,34.29-22.17,34.29l2.61,25.89,7.93,6.82,14.12,55.84-40.3,13.08L169.91,296.5l-3-15.75L145.32,184A9.54,9.54,0,0,1,152.31,173.19Z" style="fill:#ffbf9d"></path><path d="M200.34,238a5.67,5.67,0,0,1,1.22-3.85,5.84,5.84,0,0,1,6.85-1.84,7.82,7.82,0,0,1,4.41,6.58h0a7.14,7.14,0,0,1-4.38,3.92c-.31.09-.62.17-.93.23a6.43,6.43,0,0,1-4.56-.79A5.71,5.71,0,0,1,200.34,238Z" style="fill:#ff9a6c"></path><path d="M230.86,207a3.48,3.48,0,0,1-2.79,4,3.33,3.33,0,0,1-4-2.56,3.49,3.49,0,0,1,2.79-4A3.32,3.32,0,0,1,230.86,207Z" style="fill:#263238"></path><path d="M229.16,193c-.36.51-3.26-1-7-.45s-6.13,2.83-6.6,2.43c-.23-.17.09-1,1.14-2.08a9.55,9.55,0,0,1,5.2-2.51,9.22,9.22,0,0,1,5.62.92C228.83,192,229.34,192.75,229.16,193Z" style="fill:#263238"></path><path d="M211.62,226.55c-.05-.21,2.19-1,5.84-2,.93-.24,1.8-.56,1.86-1.23a4.86,4.86,0,0,0-1-2.7l-3.89-6.77c-5.43-9.65-9.52-17.64-9.13-17.85s5.12,7.43,10.55,17.08l3.77,6.82c.52,1,1.32,2.15,1.06,3.63a2.4,2.4,0,0,1-1.35,1.62,6.47,6.47,0,0,1-1.57.47C214,226.39,211.66,226.75,211.62,226.55Z" style="fill:#263238"></path><path d="M218.91,270.21a69,69,0,0,1-37.36-4.14s11.66,18.63,38.12,12.05Z" style="fill:#ff9a6c"></path><path d="M201.12,230.75c.59-.12,1.21,3.89,5.08,6.22s8.08,1.24,8.19,1.79c.1.25-.83.93-2.63,1.25a10.15,10.15,0,0,1-6.81-1.27,8.84,8.84,0,0,1-4-5.25C200.54,231.83,200.84,230.77,201.12,230.75Z" style="fill:#263238"></path><path d="M225.24,180.44c-.48,1-3.41.82-6.68,1.6s-5.88,2.06-6.73,1.36c-.38-.35-.15-1.28.86-2.36a10.64,10.64,0,0,1,10.8-2.39C224.86,179.21,225.45,180,225.24,180.44Z" style="fill:#263238"></path><path d="M190.91,213.5a3.48,3.48,0,0,0,4,2.82,3.33,3.33,0,0,0,2.94-3.75,3.48,3.48,0,0,0-4-2.82A3.33,3.33,0,0,0,190.91,213.5Z" style="fill:#263238"></path><path d="M179.35,201.87c.51.37,2.73-2,6.41-2.73s6.72.64,7,.11c.15-.23-.43-1-1.77-1.59a9.61,9.61,0,0,0-5.74-.64,9.19,9.19,0,0,0-5,2.73C179.33,200.83,179.1,201.71,179.35,201.87Z" style="fill:#263238"></path><path d="M179.11,189.7c.88.7,3.55-.71,6.95-1.4s6.41-.63,6.91-1.63c.21-.48-.4-1.23-1.82-1.78A11.34,11.34,0,0,0,180,187.33C178.94,188.42,178.71,189.35,179.11,189.7Z" style="fill:#263238"></path><path d="M159.15,227.6c-.31-2-3.33-6.35-5.35-6.36-5.39,0-14.82,1.84-12.88,15.21,2.65,18.29,20.48,11.86,20.44,11.33S160.21,234.48,159.15,227.6Z" style="fill:#ffbf9d"></path><path d="M155.34,241.83c-.09-.05-.29.27-.79.59a3.2,3.2,0,0,1-2.38.4c-2-.43-4.1-3.26-4.67-6.55a10.6,10.6,0,0,1,.23-4.69,3.75,3.75,0,0,1,2-2.79,1.65,1.65,0,0,1,2,.6c.32.48.26.86.36.88s.35-.37.09-1.1a2,2,0,0,0-.89-1,2.45,2.45,0,0,0-1.83-.21c-1.39.3-2.47,1.78-2.91,3.32a10.89,10.89,0,0,0-.37,5.25c.65,3.67,3,6.84,5.79,7.23a3.49,3.49,0,0,0,2.85-.91C155.37,242.28,155.41,241.85,155.34,241.83Z" style="fill:#ff9a6c"></path><path d="M153.08,221.44l5.58,3.81c15.87-23.09,44.73-78.62,43.15-75.34,0,0-14.74-2.76-29,2.82s-40.64,18.76-36.59,36S153.08,221.44,153.08,221.44Z" style="fill:#263238"></path><path d="M270.66,309.36a61.78,61.78,0,0,1,29.79,42c5,26.74,12.08,64.31,13.51,72.86,2.26,13.61,10.43,48.65,10.43,48.65l-41.36.33L268,416.29l-8.11-111.51Z" style="fill:#ffbf9d"></path><path d="M266.05,399.45l40.78-24.25s-5.68-23.42-11.09-41.76c-4.41-14.94-20.17-26.56-41.39-31.47,0,0,12.63,93.31,12.16,95.39" style="fill:#9376C0"></path><path d="M263.6,472.91c-.94-8.39-1.65-15.59-2-19.69l5-26.4c.38-1.1,2.32-8.15,3.4-36.19,1-27.15-3.74-53.17-8.91-79.44,0,0-.4-6.74-4.82-8.48-11.6-4.58-36.47-9.61-37.54-10.71-6.92,11.89-23.49,22.72-56-.68l-39.28,8.41c-5.56,2.34-14.27,8.36-13.71,14.37l12.53,70.78,15.24,59.45-11.35,28.58Z" style="fill:#9376C0"></path><g style="opacity:0.30000000000000004"><path d="M266.32,345.91s13.57,33.17,11.69,49.26a71.15,71.15,0,0,1-9.93,28.2s2.73-26.72,1.93-38.73S266.32,345.91,266.32,345.91Z"></path></g><path d="M262.59,333.44a7.43,7.43,0,0,0,.2,1.08c.18.77.41,1.78.71,3s.71,2.93,1.09,4.82.89,4,1.29,6.42.92,5,1.32,7.81.8,5.84,1.18,9c.67,6.37,1.15,13.4,1.27,20.79s-.24,14.44-.75,20.83c-.3,3.19-.56,6.22-.95,9s-.74,5.46-1.13,7.85-.79,4.55-1.13,6.44-.68,3.53-1,4.85l-.63,3.06a6,6,0,0,0-.17,1.08,4.81,4.81,0,0,0,.32-1l.78-3c.34-1.32.72-2.94,1.1-4.83s.87-4,1.25-6.44.87-5,1.22-7.85.7-5.87,1-9.07c.54-6.4.88-13.47.81-20.9s-.63-14.47-1.33-20.86c-.41-3.19-.77-6.22-1.26-9s-.94-5.44-1.42-7.82-1-4.52-1.41-6.4-.85-3.49-1.22-4.8-.63-2.25-.85-3A5.23,5.23,0,0,0,262.59,333.44Z" style="fill:#263238"></path><path d="M252.32,301.27s-30.68,68-37.49,62.73-81.17-66.36-81.17-66.36L169,290l49.79,2C232.35,295.51,246.35,299.11,252.32,301.27Z" style="fill:#ffbf9d"></path><path d="M95,356.05s2.14,66.41,9,90.53c7.32,25.56,27.92,26.11,42.16,18.85s86.9-92.4,86.9-92.4L216,349.15l-72.18,57.17V373Z" style="fill:#ffbf9d"></path><path d="M84,373s14.83-58.77,34.42-70.49c16.21-9.69,37.33,57.72,37.33,57.72l-3.91,24.38Z" style="fill:#9376C0"></path><path d="M294.16,313.74s-3.8,24.24-5,31.92l-1,6.93-25.91-1.82-.09-6.7.09-33.1Z" style="fill:#fff"></path><path d="M294.16,313.74l-.61,0-1.72-.13-6.49-.5-23-1.89.24-.22c0,10.51-.08,23.08,0,36.55,0,1.09,0,2.17,0,3.24l-.24-.25,25.9,1.85-.25.2c.81-5.78,1.65-11.05,2.41-15.74s1.41-8.82,2-12.24l1.31-8c.15-.91.27-1.61.35-2.13l.1-.55c0-.13,0-.19.05-.19a1.4,1.4,0,0,1,0,.17c0,.14,0,.31-.06.53-.08.5-.17,1.2-.3,2.09-.27,1.87-.67,4.56-1.17,7.94s-1.13,7.59-1.83,12.32-1.54,10.08-2.33,15.84l0,.21h-.22L262.29,351l-.24,0v-.24c0-1.07,0-2.16,0-3.25-.08-13.47.05-26,.08-36.55v-.24l.24,0,23.18,2.13,6.42.61,1.67.17A3.08,3.08,0,0,1,294.16,313.74Z" style="fill:#263238"></path><path d="M291.49,315.31s-1.88,13.56-3.25,20.67c-.41,2.11-1.3,4.48-3,5.21-2.5,1.05-14.13,2-18.75-1.11-1.39-.92-2-1.81-2-4.36V313.2Z" style="fill:#ebebeb"></path><path d="M266.41,342.23A22.26,22.26,0,0,1,269,343a35.59,35.59,0,0,0,6.4,1.24,35,35,0,0,0,6.52,0,24.22,24.22,0,0,1,2.71-.26,10.09,10.09,0,0,1-2.66.63,27.8,27.8,0,0,1-13.09-1.25A10.06,10.06,0,0,1,266.41,342.23Z" style="fill:#263238"></path><path d="M289.49,328.76,288.24,336c-.41,2.11-1.3,4.48-3,5.21-2.5,1.05-14.13,2-18.75-1.11-1.39-.92-2-1.81-2-4.36V324.61Z" style="fill:#9376C0"></path><path d="M264.45,324.63c-.13.81,5.37,2.38,12.29,3.49s12.63,1.36,12.76.54-5.37-2.37-12.28-3.49S264.59,323.82,264.45,324.63Z" style="fill:#9376C0"></path><path d="M264.45,324.63c-.13.81,5.37,2.38,12.29,3.49s12.63,1.36,12.76.54-5.37-2.37-12.28-3.49S264.59,323.82,264.45,324.63Z" style="opacity:0.30000000000000004"></path><path d="M289.89,313.49c-.08.37-2.39,23-4.23,25.07s-4.68,1.82-5.84,1.52,2.95-27.15,2.95-27.15Z" style="fill:#fff;opacity:0.30000000000000004"></path><path d="M284.77,345.67a21.35,21.35,0,0,1-6.41,3.26,11,11,0,0,1-6.78-.32,10.59,10.59,0,0,1-5.53-5.3C271.74,347.7,278.74,347.22,284.77,345.67Z" style="fill:#ebebeb"></path><path d="M293.64,338.94c-.6-2.44-12.35-6.55-22.4-7.18s-27.88-.84-27.88-.84c-2.88.62-10.22,6.86-10.22,6.86s-4.82,0-8,2.8-17.26,15-17.26,15-11.46,8.23-21.32,17.1l21.82,28.83,19.08-21.87,5.37.21c3.51,1,13.23-2.66,13.23-2.66a92.41,92.41,0,0,1,10.26.25A22,22,0,0,0,268,375.38c3.56-2,3.7-2.79,4-6.27s-7.42-2-7.76-1.68-10.7-1-10.7-1l14.83-1s7.57-.61,12-2.72,2.06-8.41,2.06-8.41a11,11,0,0,0,7-2.26c2.94-2.49.81-6.78.81-6.78C293.72,344.54,294.23,341.38,293.64,338.94Z" style="fill:#ffbf9d"></path><path d="M282.1,354.28a4.85,4.85,0,0,1-1.05.2c-.68.1-1.67.21-2.9.31-2.45.22-5.85.39-9.61.34s-7.15-.32-9.6-.6c-1.22-.14-2.21-.27-2.89-.39a4.73,4.73,0,0,1-1-.23,4.16,4.16,0,0,1,1.07,0l2.9.22c2.44.19,5.83.4,9.57.45s7.13-.06,9.58-.18l2.9-.15A3.68,3.68,0,0,1,282.1,354.28Z" style="fill:#ff9a6c"></path><path d="M253.53,366.42a3.1,3.1,0,0,1,.71-.11l2.07-.23,7.65-.87c3.24-.4,7.13-.87,11.45-1.66,1.07-.21,2.17-.43,3.28-.72a6,6,0,0,0,3-1.45,5.91,5.91,0,0,0,1.34-3.22,11.9,11.9,0,0,0-.15-3.71l-.07-.33.34,0a7.38,7.38,0,0,0,5.8-2,5.8,5.8,0,0,0,1-6.15l.13.13a36.15,36.15,0,0,0-13.82-3c-4.34-.2-8.23-.05-11.47-.11a62.75,62.75,0,0,1-7.63-.49c-.89-.12-1.57-.24-2-.34a6.26,6.26,0,0,1-.7-.17,3.7,3.7,0,0,1,.71.07c.47.07,1.15.16,2,.26a72.07,72.07,0,0,0,7.61.33c3.24,0,7.12-.17,11.49,0a36.22,36.22,0,0,1,14,3l.09.05,0,.08a7,7,0,0,1,.45,3.46,5.76,5.76,0,0,1-1.53,3.26,6.68,6.68,0,0,1-2.93,1.79,9.06,9.06,0,0,1-3.3.39l.28-.31a12.44,12.44,0,0,1,.15,3.89,6.34,6.34,0,0,1-1.48,3.48,5.42,5.42,0,0,1-.72.63,4.47,4.47,0,0,1-.85.42,13.28,13.28,0,0,1-1.7.52c-1.13.3-2.24.51-3.32.71-4.34.77-8.24,1.2-11.49,1.56s-5.87.57-7.68.71l-2.07.14A4.88,4.88,0,0,1,253.53,366.42Z" style="fill:#ff9a6c"></path><path d="M293.64,338.94a5.21,5.21,0,0,0-.77-.94,11.06,11.06,0,0,0-3-1.8,61.84,61.84,0,0,0-12.77-3.55,29,29,0,0,0-4.43-.5c-1.56-.1-3.19-.17-4.89-.25l-10.94-.39-12.34-.33a7.24,7.24,0,0,0-1.56,0,8.88,8.88,0,0,0-1.44.67,32.32,32.32,0,0,0-2.78,1.82c-1.83,1.32-3.63,2.75-5.42,4.26l-.06,0h-.07a33.56,33.56,0,0,0-3.76.71,4.52,4.52,0,0,0-1.74.64c-.54.35-1.08.74-1.61,1.13-2.13,1.57-4.26,3.23-6.43,4.92-4.33,3.38-8.78,6.92-13.31,10.54-24.79,19.83-46.66,37.61-60.24,48.59l0,0c-4.07,4.73-7.3,8.47-9.51,11.05l-2.54,2.92-.66.74q-.22.25-.24.24l.2-.27c.16-.19.37-.44.63-.77l2.48-3c2.19-2.61,5.37-6.38,9.4-11.15h0c13.5-11.08,35.32-28.93,60.11-48.76,4.53-3.62,9-7.15,13.32-10.54,2.18-1.68,4.31-3.34,6.45-4.92.54-.39,1.08-.78,1.63-1.15a5.36,5.36,0,0,1,1.9-.7,36.53,36.53,0,0,1,3.82-.7l-.13,0c1.81-1.51,3.62-2.94,5.46-4.26a32.72,32.72,0,0,1,2.83-1.85,9.05,9.05,0,0,1,1.55-.7,7,7,0,0,1,1.69-.06l12.34.37c3.89.14,7.55.28,10.95.45,1.7.08,3.33.17,4.9.28a29.6,29.6,0,0,1,4.46.53,60.05,60.05,0,0,1,12.77,3.7,10.59,10.59,0,0,1,3,1.89A2.8,2.8,0,0,1,293.64,338.94Z" style="fill:#ff9a6c"></path><path d="M137.92,344.44c.14,0,1.68,9.39,3.43,21s3.06,21.06,2.91,21.08-1.67-9.38-3.43-21S137.78,344.47,137.92,344.44Z" style="fill:#263238"></path></g></svg>
