<svg xmlns="http://www.w3.org/2000/svg" viewBox="0 0 500 500"><g id="freepik--background-complete--inject-1069"><rect x="53.47" y="379.04" width="59.25" height="66.11" transform="translate(208.8 10.94) rotate(28.8)" style="fill:#ebebeb"></rect><rect x="63.27" y="389.98" width="39.64" height="44.23" transform="translate(208.8 10.94) rotate(28.8)" style="fill:#f5f5f5"></rect><polygon points="76.38 383.17 73.06 368.86 124.98 397.4 111.12 402.26 76.38 383.17" style="fill:#f5f5f5"></polygon><polygon points="41.2 426.78 55.06 421.92 89.8 441.02 93.12 455.33 41.2 426.78" style="fill:#e0e0e0"></polygon><g style="opacity:0.5"><path d="M109.61,401.77c-.08.14-5.43-2.65-12-6.24s-11.74-6.6-11.66-6.74,5.42,2.65,11.94,6.24S109.68,401.63,109.61,401.77Z" style="fill:#fff"></path></g><rect x="60.38" y="52.53" width="45.85" height="51.16" transform="translate(73.91 -35.7) rotate(42.13)" style="fill:#ebebeb"></rect><rect x="67.96" y="60.99" width="30.68" height="34.23" transform="translate(73.91 -35.7) rotate(42.13)" style="fill:#f5f5f5"></rect><g style="opacity:0.30000000000000004"><path d="M70,70,60.44,80.51,71,90.09l-8.84-9a1.08,1.08,0,0,1-.13-1.44Z" style="fill:#fff"></path></g><polygon points="83.41 55.13 83.46 43.76 117.46 74.51 106.16 75.7 83.41 55.13" style="fill:#f5f5f5"></polygon><polygon points="49.14 81.69 60.44 80.51 83.19 101.08 83.14 112.45 49.14 81.69" style="fill:#e0e0e0"></polygon><g style="opacity:0.5"><path d="M105.11,75.06a103,103,0,0,1-7.91-6.8,100.83,100.83,0,0,1-7.55-7.19c.09-.1,3.63,2.94,7.9,6.8A102.3,102.3,0,0,1,105.11,75.06Z" style="fill:#fff"></path></g><rect x="402.33" y="192.47" width="46.89" height="52.32" transform="translate(-47.09 292.65) rotate(-36.08)" style="fill:#ebebeb"></rect><rect x="410.08" y="201.12" width="31.37" height="35.01" transform="translate(-47.09 292.65) rotate(-36.08)" style="fill:#f5f5f5"></rect><g style="opacity:0.30000000000000004"><path d="M414.84,230.27,423.4,242l11.8-8.6-10.82,7a1.11,1.11,0,0,1-1.47-.17Z" style="fill:#fff"></path></g><polygon points="402.79 213.72 391.42 211.29 429.32 183.68 428.14 195.24 402.79 213.72" style="fill:#f5f5f5"></polygon><polygon points="422.22 253.58 423.4 242.01 448.75 223.54 460.12 225.97 422.22 253.58" style="fill:#e0e0e0"></polygon><g style="opacity:0.5"><path d="M427.28,196.16a104.91,104.91,0,0,1-8.45,6.49,104.27,104.27,0,0,1-8.78,6.06,104.09,104.09,0,0,1,8.46-6.49A103.27,103.27,0,0,1,427.28,196.16Z" style="fill:#fff"></path></g><polygon points="81.17 186.13 73.96 189.42 69.83 197.53 84.12 207.01 96.76 195.74 94.43 192.18 81.17 186.13" style="fill:#ebebeb"></polygon><path d="M81.17,186.13c-.76.13-5.43,5.63-5.43,5.63l6.05,7.42,12.64-7Z" style="fill:#f5f5f5"></path><polygon points="69.83 197.53 75.74 191.76 81.79 199.18 84.12 207.01 69.83 197.53" style="fill:#e0e0e0"></polygon><polygon points="433.08 292.46 425.86 295.76 421.74 303.87 436.03 313.35 448.67 302.08 446.33 298.51 433.08 292.46" style="fill:#ebebeb"></polygon><path d="M433.08,292.46c-.76.14-5.43,5.64-5.43,5.64l6,7.42,12.64-7Z" style="fill:#f5f5f5"></path><polygon points="421.74 303.87 427.65 298.1 433.69 305.52 436.03 313.35 421.74 303.87" style="fill:#e0e0e0"></polygon><polygon points="258.23 19.46 251.02 22.75 246.9 30.86 261.18 40.34 273.82 29.07 271.49 25.51 258.23 19.46" style="fill:#ebebeb"></polygon><path d="M258.23,19.46c-.76.13-5.43,5.63-5.43,5.63l6.05,7.42,12.64-7Z" style="fill:#f5f5f5"></path><polygon points="246.9 30.86 252.8 25.09 258.85 32.51 261.18 40.34 246.9 30.86" style="fill:#e0e0e0"></polygon><polygon points="430.42 353.27 431.36 356 438.71 358.82 439.69 354.63 437.31 350.44 430.42 353.27" style="fill:#e0e0e0"></polygon><polygon points="437.31 350.44 432.22 348.99 430.42 353.27 438.71 356.95 437.31 350.44" style="fill:#ebebeb"></polygon><polygon points="74.8 327.85 75.74 330.58 83.09 333.4 84.06 329.2 81.69 325.02 74.8 327.85" style="fill:#e0e0e0"></polygon><polygon points="81.69 325.02 76.6 323.56 74.8 327.85 83.09 331.52 81.69 325.02" style="fill:#ebebeb"></polygon><polygon points="313.01 53.45 314.25 57.07 324 60.82 325.3 55.25 322.15 49.69 313.01 53.45" style="fill:#e0e0e0"></polygon><polygon points="322.15 49.69 315.39 47.77 313.01 53.45 324 58.33 322.15 49.69" style="fill:#ebebeb"></polygon><polygon points="374.06 97.56 368.87 107.01 372.74 128.9 379.41 112.81 374.06 97.56" style="fill:#ebebeb"></polygon><polygon points="412.5 65.08 423.78 97.24 439.05 105.63 426.77 70.65 412.5 65.08" style="fill:#ebebeb"></polygon><polygon points="379.41 112.81 372.74 128.9 439.05 105.63 423.78 97.24 379.41 112.81" style="fill:#e0e0e0"></polygon><polygon points="374.06 97.56 374.06 97.56 379.41 112.81 374.06 97.56" style="fill:#fff"></polygon><g style="opacity:0.30000000000000004"><polygon points="374.06 97.56 374.06 97.56 379.41 112.81 374.06 97.56" style="fill:#fff"></polygon></g><polygon points="412.5 65.08 412.5 65.08 386.44 75.05 374.3 97.36 374.06 97.56 379.41 112.81 423.78 97.24 412.5 65.08" style="fill:#f5f5f5"></polygon><g style="opacity:0.2"><polygon points="402.56 118.43 439.05 105.63 372.74 128.9 402.56 118.43" style="fill:#fff"></polygon></g><polygon points="397.9 402.54 390.25 406.07 382.53 421.65 394.2 414.62 397.9 402.54" style="fill:#ebebeb"></polygon><polygon points="437.15 399.92 429.34 425.39 435.06 437.76 443.56 410.05 437.15 399.92" style="fill:#ebebeb"></polygon><polygon points="394.2 414.62 382.53 421.65 435.06 437.76 429.34 425.39 394.2 414.62" style="fill:#e0e0e0"></polygon><polygon points="397.9 402.54 397.9 402.54 394.2 414.62 397.9 402.54" style="fill:#fff"></polygon><g style="opacity:0.30000000000000004"><polygon points="397.9 402.54 397.9 402.54 394.2 414.62 397.9 402.54" style="fill:#fff"></polygon></g><polygon points="437.16 399.92 437.15 399.92 416.13 394.12 398.14 402.52 397.9 402.54 394.2 414.62 429.34 425.39 437.16 399.92" style="fill:#f5f5f5"></polygon><g style="opacity:0.2"><polygon points="406.16 428.89 435.06 437.76 382.53 421.65 406.16 428.89" style="fill:#fff"></polygon></g><polygon points="32.06 272.09 26.12 278.08 24.33 295.37 32.81 284.7 32.06 272.09" style="fill:#ebebeb"></polygon><polygon points="67.92 255.92 69.5 282.51 79.18 292.1 77.45 263.17 67.92 255.92" style="fill:#ebebeb"></polygon><polygon points="32.81 284.7 24.33 295.37 79.18 292.1 69.5 282.51 32.81 284.7" style="fill:#e0e0e0"></polygon><polygon points="32.06 272.09 32.06 272.09 32.81 284.7 32.06 272.09" style="fill:#fff"></polygon><g style="opacity:0.30000000000000004"><polygon points="32.06 272.09 32.06 272.09 32.81 284.7 32.06 272.09" style="fill:#fff"></polygon></g><polygon points="67.92 255.92 67.92 255.92 46.19 257.82 32.28 271.99 32.06 272.09 32.81 284.7 69.5 282.51 67.92 255.92" style="fill:#f5f5f5"></polygon><g style="opacity:0.2"><polygon points="49 293.9 79.18 292.1 24.33 295.37 49 293.9" style="fill:#fff"></polygon></g></g><g id="freepik--Table--inject-1069"><path d="M469.34,478.76c0,.14-98.18.26-219.27.26s-219.29-.12-219.29-.26,98.16-.26,219.29-.26S469.34,478.61,469.34,478.76Z" style="fill:#263238"></path></g><g id="freepik--speech-bubble--inject-1069"><path d="M321.69,158.81l4.54-13.37a45.53,45.53,0,1,1,10,12.86v0Z" style="fill:#fff"></path><path d="M321.69,158.81s.3,0,.91,0l2.77-.06,10.88-.3h.2l-.11-.18v0l-.18.15a45.43,45.43,0,0,0,19.74,10.43,44.69,44.69,0,0,0,7,1.12,50.47,50.47,0,0,0,7.57-.05,45.15,45.15,0,0,0,15.9-4.33,45.77,45.77,0,0,0,24-28.13,45.17,45.17,0,0,0,1.17-20.77,44.69,44.69,0,0,0-8.75-19.93c-.59-.74-1.15-1.49-1.75-2.21l-1.93-2-1-1L397,90.57l-2.1-1.82c-.72-.58-1.49-1.08-2.23-1.62a24.41,24.41,0,0,0-2.28-1.52,42.66,42.66,0,0,0-4.81-2.55,46.33,46.33,0,0,0-20.5-4.2,45.67,45.67,0,0,0-41.58,30.57,50.42,50.42,0,0,0-1.93,7.34,60.75,60.75,0,0,0-.64,7,45.3,45.3,0,0,0,5.18,21.68v-.09c-1.46,4.37-2.57,7.73-3.34,10q-.54,1.68-.84,2.55c-.18.57-.26.85-.26.85s.11-.3.31-.88.51-1.44.9-2.56c.79-2.26,1.94-5.58,3.44-9.9l0,0,0-.05a45.22,45.22,0,0,1-5-21.56,59.87,59.87,0,0,1,.66-7,50.92,50.92,0,0,1,1.94-7.27,45.34,45.34,0,0,1,41.21-30.17,45.78,45.78,0,0,1,20.25,4.16,40.79,40.79,0,0,1,4.75,2.52,22.65,22.65,0,0,1,2.25,1.51c.74.53,1.5,1,2.21,1.6l2.07,1.8,1,.9.95,1c.63.67,1.27,1.33,1.91,2s1.15,1.46,1.72,2.18a44.23,44.23,0,0,1,8.66,19.7,44.84,44.84,0,0,1-1.15,20.53,45.41,45.41,0,0,1-23.65,27.86,44.85,44.85,0,0,1-15.74,4.32,49.62,49.62,0,0,1-7.5.08,44.26,44.26,0,0,1-6.92-1.08,45.58,45.58,0,0,1-19.66-10.25l-.64-.57.46.72v0l.1-.18-10.79.43-2.8.12Z" style="fill:#263238"></path><path d="M384.25,119.87a10.8,10.8,0,0,0-2.64-5.94,10.36,10.36,0,0,0-5.34-3.47,8.38,8.38,0,0,0-9.34,4.1,8.38,8.38,0,0,0-9-4.2,10.35,10.35,0,0,0-5.5,3.21,10.76,10.76,0,0,0-2.92,5.81,13.13,13.13,0,0,0,1.45,8.14,18.6,18.6,0,0,0,6.28,6.16c4.13,2.63,9.58,5.92,9.58,5.92s4.75-3.38,9-5.8a18.72,18.72,0,0,0,6.56-5.87A13.13,13.13,0,0,0,384.25,119.87Z" style="fill:#9376C0"></path></g><g id="freepik--Character--inject-1069"><path d="M150.08,383.57s-5.56,33.75,3.08,49.53,25.89,19.42,25.89,19.42,12.34-25,15-37.59-.25-81.95-.25-81.95l-40.69-4Z" style="fill:#ffbf9d"></path><path d="M199.17,246.17c1.41-.32,16.54-6.42,16.54-6.42l57.15-8.32,27.72.74-7.25,42.59-20.47,20.58-30,4.17s-38-11.65-36.82-11.94S199.17,246.17,199.17,246.17Z" style="fill:#ffbf9d"></path><path d="M330.2,229.05s17.18.38,28.05,12.28,29.51,51.78,29.51,51.78l-55.92,10.35s-21.74-50.22-21.74-51.77S330.2,229.05,330.2,229.05Z" style="fill:#9376C0"></path><path d="M166.13,478.76H355l-12.5-49.16a113,113,0,0,1,.71-49.38c2.71-11.37,4.23-17.81,5.75-26.65,6.34-36.83-18.73-124.52-18.73-124.52l-43.1,2.19s1.55,56.64-36.5,54.47-48.42-41.38-48.42-41.38-15.71,5-32.56,10.94-34.78,69-34.78,69L180.54,339s1.84,22.64,9.45,43.84-.8,46.87-.8,46.87S173.73,458.73,166.13,478.76Z" style="fill:#9376C0"></path><path d="M178.74,314.3c.14,0,.94,7.26,1.77,16.25s1.39,16.29,1.25,16.31-.94-7.27-1.77-16.26S178.6,314.31,178.74,314.3Z" style="fill:#263238"></path><path d="M280,403.46c0,.14-16.19-2.38-36.11-5.63s-36.06-6-36-6.15,16.19,2.38,36.11,5.63S280,403.32,280,403.46Z" style="fill:#263238"></path><path d="M283.52,452.16c0,.14-13.78-4.68-30.67-10.76s-30.54-11.11-30.5-11.25,13.78,4.68,30.68,10.76S283.57,452,283.52,452.16Z" style="fill:#263238"></path><path d="M136.08,180.09a17.73,17.73,0,0,1,2.27-33.77,19.49,19.49,0,0,1,9.3-35.21c-5.6-3.66-8-11.16-6.58-17.7s6-12.09,11.56-15.78C167.85,67.56,190.78,72,201.15,87l15.42,151.92a26.2,26.2,0,0,1-44.09-4.18c-5.46.2-11,.38-16.28-1.15s-10.22-5.06-12-10.22.57-11.83,5.75-13.55c-6.39-2.76-13.14-5.82-17-11.61S129.76,183,136.08,180.09Z" style="fill:#263238"></path><path d="M163.11,97.21c.55-8,5.37-15.13,11-20.86,2.36-2.4,5-4.7,8.22-5.69s7.14-.38,9.22,2.27l.35,5.62c2,8.73-3.77,17.14-5.83,25.85-.9,3.79-1.43,8.26-4.75,10.3a8.37,8.37,0,0,1-5.93.79C167.51,114,162.55,105.22,163.11,97.21Z" style="fill:#455a64"></path><path d="M168.2,138.16a18,18,0,0,1-1.36-23c-3.78-3.66-3.43-10.12-.64-14.59s7.39-7.43,11.85-10.23c1.06-12.3,13.4-22.45,25.68-21.11,5-9.91,18-13,29-11.33,2.68.42,5.39,1.06,8.08.7a47.2,47.2,0,0,0,5.76-1.56c10.57-2.84,22.24,3.36,27.73,12.83a19.61,19.61,0,0,0,2.89,4.37c1.62,1.62,3.88,2.41,5.86,3.56a17.36,17.36,0,0,1,8.23,11.87c.71,4.15,0,8.76,2.21,12.33,1.12,1.79,2.92,3.12,3.86,5,2.73,5.49-2.88,12.18-.93,18,.4,1.19,1.09,2.25,1.59,3.4a10.76,10.76,0,0,1,.31,7.5c-.62,1.87-1.79,3.66-1.65,5.63.1,1.5.95,2.82,1.43,4.24,1.19,3.47-4.72,18.18-7.55,20.52L198.77,179a17.31,17.31,0,0,1-15.2-13.07,6.37,6.37,0,0,0-1.3-3.27,7.39,7.39,0,0,0-2.72-1.31c-6.32-2.41-8.09-10.45-8.33-17.21a8.23,8.23,0,0,0-.41-2.8A10.54,10.54,0,0,0,168.2,138.16Z" style="fill:#263238"></path><path d="M194.41,134.92C192,118.69,199.83,98.68,215,88.64c9.54-6.33,17.48-7.39,22.75-8.7A37.56,37.56,0,0,1,260,81.68c5.22.54,26,15.14,29.32,33.47,3.72,20.35,7.45,45.35,6.83,60.94-1.25,31.34-24.37,38-24.37,38s4,24.26,4,24.26l5,18.84-64.3-5.44Z" style="fill:#ffbf9d"></path><path d="M282.4,145.23a4,4,0,0,1-3.34,4.43,3.8,3.8,0,0,1-4.49-3.08,4,4,0,0,1,3.33-4.43A3.8,3.8,0,0,1,282.4,145.23Z" style="fill:#263238"></path><path d="M283.77,127.77c-.43.57-3.68-1.29-7.92-.78s-7.11,3-7.63,2.54c-.25-.2.14-1.19,1.37-2.34a10.92,10.92,0,0,1,6-2.67,10.5,10.5,0,0,1,6.38,1.26C283.43,126.63,284,127.51,283.77,127.77Z" style="fill:#263238"></path><path d="M262.89,164.23c-.05-.24,2.54-1,6.75-2.06,1.07-.24,2.07-.57,2.17-1.33s-.43-1.93-1.11-3.13l-4.18-7.88c-5.84-11.23-10.21-20.51-9.75-20.74s5.56,8.68,11.4,19.91l4.05,7.94c.56,1.18,1.43,2.5,1.07,4.19a2.77,2.77,0,0,1-1.6,1.79,7.41,7.41,0,0,1-1.81.48C265.6,164.14,262.94,164.47,262.89,164.23Z" style="fill:#263238"></path><path d="M271.76,214.13a78.82,78.82,0,0,1-42.5-6.12s13.49,20.82,43.95,14.3Z" style="fill:#ff9a6c"></path><path d="M280.17,112.06c-.59,1.12-3.92.81-7.68,1.58s-6.79,2.13-7.74,1.3c-.42-.42-.13-1.47,1.07-2.67A12.11,12.11,0,0,1,278.24,110C279.78,110.64,280.43,111.52,280.17,112.06Z" style="fill:#263238"></path><path d="M239,150.1a4,4,0,0,0,4.41,3.37,3.81,3.81,0,0,0,3.49-4.18,4,4,0,0,0-4.4-3.37A3.81,3.81,0,0,0,239,150.1Z" style="fill:#263238"></path><path d="M225.87,136.3c.57.43,3.2-2.23,7.43-2.88s7.65,1,8,.39c.19-.26-.45-1.11-1.95-1.88a10.93,10.93,0,0,0-6.53-1,10.44,10.44,0,0,0-5.8,2.93C225.89,135.11,225.6,136.11,225.87,136.3Z" style="fill:#263238"></path><path d="M223,122.21c1,.82,4.08-.68,8-1.34s7.34-.49,8-1.61c.26-.54-.41-1.42-2-2.1a12.95,12.95,0,0,0-12.84,2.37C222.85,120.73,222.55,121.79,223,122.21Z" style="fill:#263238"></path><path d="M203,163.47c-.28-2.29-3.57-7.38-5.87-7.47-6.16-.22-17,1.55-15.28,16.91,2.34,21,22.94,14.31,22.91,13.7S203.9,171.38,203,163.47Z" style="fill:#ffbf9d"></path><path d="M198.06,179.59c-.1-.06-.34.3-.92.65a3.69,3.69,0,0,1-2.73.36c-2.31-.57-4.57-3.88-5.09-7.65a12.08,12.08,0,0,1,.44-5.35c.47-1.61,1.34-2.8,2.44-3.12a1.88,1.88,0,0,1,2.27.76c.34.56.26,1,.37,1s.41-.4.15-1.25a2.4,2.4,0,0,0-1-1.23,2.79,2.79,0,0,0-2.08-.31c-1.61.3-2.9,1.95-3.46,3.69a12.56,12.56,0,0,0-.61,6c.6,4.21,3.21,7.93,6.35,8.47a3.93,3.93,0,0,0,3.28-.93C198.08,180.1,198.14,179.62,198.06,179.59Z" style="fill:#ff9a6c"></path><path d="M294.13,114.86c-4.55-2.14-7.69-5.43-8-10.45-2.71,1.17-6-2.11-7.92-4.34s-4.08-3.23-4.3-6.17a3.33,3.33,0,0,0-.42-1.68A3.59,3.59,0,0,0,271,91.15a14.15,14.15,0,0,1-10.41-8.66,29.89,29.89,0,0,1-14.09,4.08A11.44,11.44,0,0,1,227.19,88,10.26,10.26,0,0,1,221,93.85a30,30,0,0,1-8.64,1.51,12.12,12.12,0,0,1-6.3,14.57c-.72.31-1.56.64-1.82,1.39s.23,1.57.61,2.29a9.53,9.53,0,0,1-4.91,12.81c3.74,2.26,4.12,8.45.68,11.14-.71.55-1.64,1.23-1.42,2.1a2,2,0,0,0,.57.84c1.81,1.88,3.63,4,4.13,6.53s-.91,5.69-3.49,6.11c1.51,1.05,3,2.46,3.21,4.28s-1.37,3.89-3.15,3.44c-.76-.2-11.45-1-12-1.58-6.89-7.35-.49-17.14-1.09-27.2s1.74-20.15,5.7-29.41a47.64,47.64,0,0,1,6.25-11,63.87,63.87,0,0,1,10.52-9.86c4.91-3.93,10-7.87,15.87-10,11-4,23.26-1.31,34.39,2.32a49.63,49.63,0,0,1,12.2,5.36c4.44,2.94,7.95,7.09,11.09,11.4,4.53,6.22,8.5,13,10.14,20.57" style="fill:#263238"></path><path d="M297.37,107a7.92,7.92,0,0,0-1.4-2.11c-.53-.65-1.25-1.38-2-2.35a9.75,9.75,0,0,1-1.65-3.78,31.56,31.56,0,0,1-.53-5.2,23.27,23.27,0,0,0-.91-6.21,17.54,17.54,0,0,0-3.55-6.27,17.07,17.07,0,0,0-2.94-2.66,25.46,25.46,0,0,0-3.61-2.07A13.12,13.12,0,0,1,277.3,74a17.09,17.09,0,0,1-2.46-3.71,28.3,28.3,0,0,0-14.95-12.77,25,25,0,0,0-5.28-1.3,22.66,22.66,0,0,0-5.58,0,24.81,24.81,0,0,0-2.8.57c-.92.26-1.82.56-2.73.84a13.64,13.64,0,0,1-5.61.68c-1.92-.14-3.84-.6-5.84-.85a37.34,37.34,0,0,0-12.22.35,32.72,32.72,0,0,0-6,1.87A20.88,20.88,0,0,0,204.09,68c-.21.38-.43.75-.65,1.13l.32-.18a24.52,24.52,0,0,0-26,21.4l.14-.23A66.14,66.14,0,0,0,171,94.87a22.19,22.19,0,0,0-5.36,6.09,14.56,14.56,0,0,0-1.86,7.57,10,10,0,0,0,2.86,6.84l0-.35a17.5,17.5,0,0,0-3.53,11.35,17.91,17.91,0,0,0,3.44,10.16,16.81,16.81,0,0,0,1.64,1.91,22.1,22.1,0,0,1,1.67,1.69,4.49,4.49,0,0,1,1,2,13.41,13.41,0,0,1,.21,2.18,34.1,34.1,0,0,0,1.18,7.94A16.82,16.82,0,0,0,175,158a10.43,10.43,0,0,0,3.68,3c1.16.58,2.15.74,2.73,1.07a4.3,4.3,0,0,1,.84.54,2.59,2.59,0,0,0-.8-.62c-.58-.35-1.57-.54-2.7-1.14a10.17,10.17,0,0,1-3.56-3,16.64,16.64,0,0,1-2.69-5.74,34.79,34.79,0,0,1-1.11-7.87,12.58,12.58,0,0,0-.19-2.25,4.9,4.9,0,0,0-1.06-2.14,23.13,23.13,0,0,0-1.69-1.74,16,16,0,0,1-1.59-1.87,17.45,17.45,0,0,1-3.3-9.91,17,17,0,0,1,3.47-11l.14-.19L167,115a9.39,9.39,0,0,1-2.67-6.49,14,14,0,0,1,1.8-7.26,21.74,21.74,0,0,1,5.23-5.92,68,68,0,0,1,6.83-4.71l.13-.08,0-.15a23.89,23.89,0,0,1,25.33-20.81l.21,0,.11-.2c.21-.35.42-.72.63-1.08a20.21,20.21,0,0,1,9.43-8A31.75,31.75,0,0,1,220,58.49a36.51,36.51,0,0,1,6.05-.68,37,37,0,0,1,6,.32c2,.24,3.9.7,5.88.85a15.52,15.52,0,0,0,3,0,17.91,17.91,0,0,0,2.85-.67c.92-.28,1.82-.59,2.72-.84a25.23,25.23,0,0,1,2.72-.56,22.44,22.44,0,0,1,5.43,0,25.25,25.25,0,0,1,5.16,1.25,27.92,27.92,0,0,1,14.71,12.49,17.8,17.8,0,0,0,2.55,3.8,13.44,13.44,0,0,0,3.65,2.43,25.06,25.06,0,0,1,3.57,2,17,17,0,0,1,2.88,2.58,17.26,17.26,0,0,1,3.51,6.11,22.82,22.82,0,0,1,.95,6.12,30.14,30.14,0,0,0,.59,5.24,9.91,9.91,0,0,0,1.74,3.83c.74,1,1.48,1.69,2,2.32a12.5,12.5,0,0,1,1.16,1.49C297.26,106.84,297.36,107,297.37,107Z" style="fill:#455a64"></path><path d="M213,63.45s.52-.38,1.48-1a14,14,0,0,1,4.41-1.89,13.34,13.34,0,0,1,7,.17,13.79,13.79,0,0,1,7,4.92,11.27,11.27,0,0,1,1.33,2.25,2.66,2.66,0,0,1,.12,2.23l-.43.77.82-.34a8.7,8.7,0,0,1,6.58,0,8.39,8.39,0,0,1,4,3.45,9.3,9.3,0,0,1,1.24,3.35c.13.84.12,1.31.17,1.31s0-.12.05-.34a4.71,4.71,0,0,0,0-1,8.79,8.79,0,0,0-5.27-7.28,9.19,9.19,0,0,0-7-.06l.39.43a3.25,3.25,0,0,0-.07-2.76,12,12,0,0,0-1.41-2.39,14.1,14.1,0,0,0-7.3-5.1,13.45,13.45,0,0,0-7.29-.05,13.29,13.29,0,0,0-4.44,2.12,9.71,9.71,0,0,0-1,.86A1.68,1.68,0,0,0,213,63.45Z" style="fill:#455a64"></path><path d="M181.9,91.65a3.43,3.43,0,0,0,.82.66,14.24,14.24,0,0,0,2.58,1.36,10.19,10.19,0,0,0,4.33.75,7.55,7.55,0,0,0,5-2.21h-.48c.24.25.48.52.72.78s.54.49.82.74a12.75,12.75,0,0,0,5.63,2.63,13.13,13.13,0,0,0,5.08,0,11.46,11.46,0,0,0,3.21-1.15,4.41,4.41,0,0,0,1-.72,17.87,17.87,0,0,1-4.31,1.43,13.39,13.39,0,0,1-4.88-.16,12.59,12.59,0,0,1-5.35-2.54c-.25-.23-.52-.46-.77-.7s-.46-.49-.68-.74l-.24-.26-.23.25a7.15,7.15,0,0,1-4.6,2.08,10.17,10.17,0,0,1-4.15-.59C183.17,92.45,182,91.55,181.9,91.65Z" style="fill:#455a64"></path><path d="M173.17,112.44s0,.13.1.38a3.62,3.62,0,0,0,.59,1,5.65,5.65,0,0,0,3.65,1.84,10.76,10.76,0,0,0,5.91-1.37,34.11,34.11,0,0,0,3.15-1.71,5.79,5.79,0,0,0,2.58-3l.09-.35-.48.21a24.39,24.39,0,0,0,6.68,3,10.83,10.83,0,0,0,6-.11,8,8,0,0,0,3.43-2.08,5.2,5.2,0,0,0,.66-.87c.13-.22.19-.34.17-.35s-.33.41-1,1a8.26,8.26,0,0,1-3.39,1.84,10.76,10.76,0,0,1-5.69,0,24.68,24.68,0,0,1-6.49-3l-.36-.22-.11.43c0,.1-.05.2-.08.3a5.23,5.23,0,0,1-2.31,2.65,33.53,33.53,0,0,1-3.07,1.7,10.57,10.57,0,0,1-5.6,1.45,5.62,5.62,0,0,1-3.52-1.55A9.92,9.92,0,0,1,173.17,112.44Z" style="fill:#455a64"></path><path d="M250.25,175.92a8.44,8.44,0,0,1,.61-2.78,2.83,2.83,0,0,1,2.13-1.7,4.15,4.15,0,0,1,2,.45l8.27,3.36.95,1.75a21,21,0,0,1-4.89,6.84,4.31,4.31,0,0,1-2.17,1.27,4.87,4.87,0,0,1-3-.94,8.65,8.65,0,0,1-3.16-2.57C249.89,180,250.05,177.86,250.25,175.92Z" style="fill:#ff9a6c"></path><path d="M257.56,185.63c.05-.2-1.84-.23-4.06-1.88a8.29,8.29,0,0,1-2.81-3.74,8.5,8.5,0,0,1,0-5.66,7.31,7.31,0,0,1,.63-1.36,3.6,3.6,0,0,1,.84-1.07,1.1,1.1,0,0,1,1-.25,7.15,7.15,0,0,1,1.26.45c1.74.73,3.32,1.37,4.64,1.89,2.66,1.05,4.34,1.62,4.4,1.48s-1.51-1-4.09-2.19c-1.29-.61-2.83-1.32-4.55-2.1a7.71,7.71,0,0,0-1.45-.56,2.21,2.21,0,0,0-1.85.44,4.6,4.6,0,0,0-1.12,1.36,8.78,8.78,0,0,0-.72,1.55,9.12,9.12,0,0,0,.11,6.38,8.7,8.7,0,0,0,3.3,4,8.15,8.15,0,0,0,3.24,1.27C257.11,185.76,257.56,185.69,257.56,185.63Z" style="fill:#263238"></path><g style="opacity:0.30000000000000004"><path d="M298.33,235.59c-4.62,7.2-4.41,16.58-2.06,24.81s6.59,15.77,9.72,23.73c7.43,18.89,8.43,39.64,13.6,59.27s16.32,39.71,35.44,46.52l2.83-38.75-44.27-91.76s-15.53-16.3-15.39-20.06"></path></g><path d="M320.76,320.85S332.9,389.33,355,397.57s39.55-8.18,37.72-27.41C391.32,355.67,380,294.55,380,294.55l-34,5.55L332.1,271l-19,23.33Z" style="fill:#ffbf9d"></path><path d="M369.74,357.62a1.14,1.14,0,0,1-.11-.22l-.26-.66-1-2.55c-.84-2.22-2.06-5.43-3.6-9.38-3.08-7.9-7.51-18.75-12.71-30.6S341.94,291.73,338.36,284c-1.78-3.81-3.22-6.91-4.24-9.11L333,272.45l-.28-.65a.88.88,0,0,1-.08-.23s.05.06.13.2.19.38.33.63c.3.6.7,1.42,1.22,2.45,1.06,2.17,2.55,5.25,4.39,9,3.67,7.65,8.65,18.27,13.86,30.12s9.59,22.74,12.58,30.68c1.5,4,2.67,7.2,3.45,9.44.37,1.09.67,1.95.88,2.58l.22.68A.67.67,0,0,1,369.74,357.62Z" style="fill:#ff9a6c"></path><rect x="272.4" y="182.53" width="17.71" height="19.76" transform="translate(-58.99 173.46) rotate(-31.19)" style="fill:#7d413c"></rect><rect x="275.33" y="185.8" width="11.85" height="13.22" transform="translate(-58.99 173.47) rotate(-31.19)" style="fill:#ab5d56"></rect><g style="opacity:0.30000000000000004"><path d="M276.76,196.44l2.84,4.69,4.72-2.85L280,200.55a.41.41,0,0,1-.55-.11Z" style="fill:#fff"></path></g><g style="opacity:0.30000000000000004"><polygon points="283.71 179.38 282.89 183.69 289.74 195 293.94 196.28 283.71 179.38"></polygon></g><polygon points="272.76 189.82 268.56 188.54 283.71 179.38 282.89 183.69 272.76 189.82" style="fill:#ab5d56"></polygon><g style="opacity:0.1"><polygon points="272.76 189.82 268.56 188.54 283.71 179.38 282.89 183.69 272.76 189.82"></polygon></g><g style="opacity:0.2"><polygon points="278.79 205.45 279.6 201.13 289.74 195 293.94 196.28 278.79 205.45"></polygon></g><g style="opacity:0.5"><path d="M282.54,184s-1.5,1-3.4,2.15-3.46,2.06-3.49,2,1.5-1,3.4-2.16S282.52,184,282.54,184Z" style="fill:#fff"></path></g><rect x="282.63" y="199.45" width="17.68" height="19.72" transform="translate(-66.26 181.14) rotate(-31.18)" style="fill:#7d413c"></rect><rect x="285.55" y="202.71" width="11.83" height="13.19" transform="translate(-66.26 181.14) rotate(-31.18)" style="fill:#ab5d56"></rect><g style="opacity:0.30000000000000004"><path d="M287,213.33l2.83,4.68,4.72-2.85-4.3,2.27a.4.4,0,0,1-.54-.11Z" style="fill:#fff"></path></g><g style="opacity:0.30000000000000004"><polygon points="293.92 196.3 293.11 200.6 299.94 211.89 304.13 213.16 293.92 196.3"></polygon></g><polygon points="282.99 206.73 278.8 205.45 293.92 196.3 293.11 200.6 282.99 206.73" style="fill:#ab5d56"></polygon><g style="opacity:0.1"><polygon points="282.99 206.73 278.8 205.45 293.92 196.3 293.11 200.6 282.99 206.73"></polygon></g><g style="opacity:0.2"><polygon points="289.01 222.32 289.82 218.01 299.94 211.89 304.13 213.16 289.01 222.32"></polygon></g><g style="opacity:0.5"><path d="M292.76,200.92s-1.5,1-3.4,2.15-3.46,2.05-3.48,2,1.5-1,3.39-2.15S292.73,200.88,292.76,200.92Z" style="fill:#fff"></path></g><rect x="292.84" y="216.29" width="17.68" height="19.72" transform="translate(-73.5 188.86) rotate(-31.18)" style="fill:#7d413c"></rect><rect x="295.76" y="219.55" width="11.83" height="13.19" transform="translate(-73.5 188.86) rotate(-31.18)" style="fill:#ab5d56"></rect><g style="opacity:0.30000000000000004"><path d="M297.2,230.17l2.83,4.68,4.72-2.85-4.3,2.27a.41.41,0,0,1-.54-.11Z" style="fill:#fff"></path></g><g style="opacity:0.30000000000000004"><polygon points="304.13 213.13 303.32 217.44 310.15 228.73 314.35 230 304.13 213.13"></polygon></g><polygon points="293.2 223.56 289.01 222.29 304.13 213.13 303.32 217.44 293.2 223.56" style="fill:#ab5d56"></polygon><g style="opacity:0.1"><polygon points="293.2 223.56 289.01 222.29 304.13 213.13 303.32 217.44 293.2 223.56"></polygon></g><g style="opacity:0.2"><polygon points="299.22 239.16 300.03 234.85 310.15 228.73 314.35 230 299.22 239.16"></polygon></g><g style="opacity:0.5"><path d="M303,217.76s-1.5,1-3.4,2.15-3.46,2.05-3.48,2,1.49-1,3.39-2.16S302.94,217.72,303,217.76Z" style="fill:#fff"></path></g><path d="M287.26,197.7c.41.09,12.6-1.93,12.6-1.93l13.93,5.37a11.6,11.6,0,0,1,3.83.36c1.23.51,19,20.09,20.2,21.66s3.44,5.07,1.6,7.28a6.76,6.76,0,0,1-.88,7.4c-3,3.48-8.53,23-8.83,26.22l8.51,19.55-23.31,17.2S308,276.55,305,266.17s-6.18-16.69-6.79-26.82l-.51-6.87s-3.5-.91-4.69-3.4l5-9.45-4.29.88s-4.58,0-6.06-3.9l2.06-2.58,7.31-8.27,4.63-1.83s-12.09.57-14.49-3.34S287.26,197.7,287.26,197.7Z" style="fill:#ffbf9d"></path><path d="M314.84,251.69a4.07,4.07,0,0,1,0-.57,13.16,13.16,0,0,1,.16-1.63,17.51,17.51,0,0,1,2-5.81,17.68,17.68,0,0,1,4.35-5.2,13.92,13.92,0,0,0,1.9-1.71,2.67,2.67,0,0,0,.73-2.35,14,14,0,0,0-1.18-2.58q-1.37-2.64-2.83-5.51l.41,0a6.25,6.25,0,0,1-6,2.28l.3-.22a9.78,9.78,0,0,1-3.22,5.86,7.53,7.53,0,0,1-4,2,3.43,3.43,0,0,1-2.22-.45A3.65,3.65,0,0,1,303.9,234a2.07,2.07,0,0,1-.07-1.16l.26-1,.48-2a37.72,37.72,0,0,1,1.08-3.79,9.1,9.1,0,0,1,4.79-5.39c1-.53,2-1,2.89-1.56a21.81,21.81,0,0,1,2.78-1.26,13.3,13.3,0,0,1,5.17-.88,9.72,9.72,0,0,1,3.83,1,7.42,7.42,0,0,1,2,1.44,3.73,3.73,0,0,1,.56.67,9.36,9.36,0,0,0-2.69-1.93,9.67,9.67,0,0,0-3.76-.85,12.91,12.91,0,0,0-5,.94,19.34,19.34,0,0,0-2.71,1.27c-.9.52-1.89,1.06-2.88,1.58a9.21,9.21,0,0,0-2.74,2,9.35,9.35,0,0,0-1.81,3.13,37.3,37.3,0,0,0-1,3.75l-.48,2-.26,1a1.66,1.66,0,0,0,.06.88,3.14,3.14,0,0,0,1.14,1.52,3,3,0,0,0,1.89.36,7.12,7.12,0,0,0,3.71-1.83,9.31,9.31,0,0,0,3.05-5.54l0-.27.27,0a5.72,5.72,0,0,0,5.5-2.08l.24-.31.18.35c1,1.92,1.91,3.76,2.8,5.53a13.62,13.62,0,0,1,1.2,2.7,2.83,2.83,0,0,1-.09,1.5,4.09,4.09,0,0,1-.75,1.22,13.79,13.79,0,0,1-2,1.74,19.92,19.92,0,0,0-1.77,1.62,17.33,17.33,0,0,0-2.55,3.42,18.18,18.18,0,0,0-2.1,5.69C314.9,250.92,314.89,251.69,314.84,251.69Z" style="fill:#ff9a6c"></path><path d="M305.39,227.7s0,.06-.05.16a4.41,4.41,0,0,1-.22.44,6.23,6.23,0,0,1-1.17,1.51,8.76,8.76,0,0,1-2.52,1.69,12,12,0,0,1-1.78.64,6.1,6.1,0,0,1-2.14.28,7.4,7.4,0,0,1-4.24-2.41,1.36,1.36,0,0,1-.36-.69,2.31,2.31,0,0,1,.14-.73,9,9,0,0,1,.56-1.28c.48-.84,1-1.59,1.53-2.42l3.32-5.14a27.07,27.07,0,0,1,4.08-5.19,20.54,20.54,0,0,1,5.64-3.45c1.94-.87,3.83-1.64,5.51-2.6a9.79,9.79,0,0,1,2.66-1.15,3.84,3.84,0,0,1,2.74.44c.79.44,1.44,1,2.1,1.41l1.89,1.34,5.67,4.06,1.53,1.12a2.76,2.76,0,0,1,.51.43,4.23,4.23,0,0,1-.57-.34l-1.58-1-5.77-3.93L321,209.54c-.67-.44-1.34-1-2.07-1.36a3.38,3.38,0,0,0-2.44-.37,9.08,9.08,0,0,0-2.53,1.12,59,59,0,0,1-5.53,2.64,20.06,20.06,0,0,0-5.5,3.38,26.83,26.83,0,0,0-4,5.08c-1.15,1.78-2.27,3.49-3.34,5.12-.52.81-1.08,1.61-1.52,2.37a9.25,9.25,0,0,0-.55,1.21,2.33,2.33,0,0,0-.12.57,1,1,0,0,0,.26.44,7.11,7.11,0,0,0,3.95,2.32,5.85,5.85,0,0,0,2-.24,13,13,0,0,0,1.76-.58,9,9,0,0,0,2.49-1.57A9.71,9.71,0,0,0,305.39,227.7Z" style="fill:#ff9a6c"></path><path d="M297.35,219.55a3,3,0,0,1-.75.36,8.33,8.33,0,0,1-2.27.53,7.14,7.14,0,0,1-3.59-.58,7.74,7.74,0,0,1-1.9-1.22,10.71,10.71,0,0,1-1.65-1.87l-.1-.13.11-.14c1.9-2.47,4.15-5.35,6.79-8.23a13.91,13.91,0,0,1,1.67-1.58,21.4,21.4,0,0,1,2-1c1.32-.58,2.61-1.1,3.85-1.56a58.39,58.39,0,0,1,6.72-2,42.2,42.2,0,0,1,4.66-.85c.56-.07,1-.1,1.29-.12a1.33,1.33,0,0,1,.45,0,14.19,14.19,0,0,1-1.71.32c-1.09.2-2.67.5-4.6,1a63.55,63.55,0,0,0-6.64,2.13c-1.23.47-2.5,1-3.81,1.58-.63.29-1.37.59-1.93.91a13.28,13.28,0,0,0-1.59,1.52c-2.61,2.85-4.88,5.72-6.81,8.15v-.26a10.19,10.19,0,0,0,1.54,1.81,8,8,0,0,0,1.78,1.19,7,7,0,0,0,3.42.65A14.57,14.57,0,0,0,297.35,219.55Z" style="fill:#ff9a6c"></path><path d="M143.62,308c-.62-.41-10.56-3.75-14.66-3.16s-15.51,6.85-14.9,10.14S123.5,329,123.5,329s-6,10.57.83,16.52c0,0-1.24,5.33,5.74,10.87s20.11,14.37,20.11,14.37l.83,14.41s25,.45,24.21,0-3.9-27.34-4.31-35.55-18.26-28.32-18.26-28.32Z" style="fill:#ffbf9d"></path><path d="M187.67,417c-.12.06-.58-1.33-1.26-3.83s-1.6-6.17-2.7-10.69c-2.2-9-5.12-21.56-8.32-35.4-1.6-6.91-3.1-13.51-4.56-19.48a19.65,19.65,0,0,0-.69-2.13c-.33-.66-.62-1.33-1-2-.69-1.27-1.44-2.47-2.18-3.61-1.49-2.29-3-4.35-4.36-6.23-2.76-3.73-5.1-6.69-6.71-8.72L154,322.62l-.48-.61-.15-.22s.08,0,.2.18.3.35.51.58l1.95,2.29c1.66,2,4,4.92,6.85,8.63,1.39,1.87,2.91,3.92,4.42,6.21.75,1.15,1.51,2.35,2.23,3.63.37.63.67,1.32,1,2a18.1,18.1,0,0,1,.72,2.19c1.5,6,3,12.57,4.61,19.49,3.19,13.81,6.07,26.32,8.17,35.42,1.06,4.5,1.93,8.15,2.54,10.72.31,1.27.56,2.25.74,2.91A4.1,4.1,0,0,0,187.67,417Z" style="fill:#ff9a6c"></path><path d="M100.78,257.23v0S100.77,257.21,100.78,257.23Z" style="fill:#7d413c"></path><path d="M110.28,271.41l-5.51-12.29s-3.7-1.69-4-1.89l8.14,18.44Z" style="fill:#7d413c"></path><polygon points="121.3 266.47 125.38 268.28 117.14 249.92 115.74 254.25 121.3 266.47" style="fill:#7d413c"></polygon><polygon points="115.38 269.04 115.38 269.04 110.28 271.39 108.92 275.67 125.38 268.28 121.27 266.4 115.38 269.04" style="fill:#7d413c"></polygon><path d="M108,266.32l2.25,4.38a.43.43,0,0,0,.54.18l4.63-1.76,5.88-2.64-5.59-12.35-10.93,5,5.51,12.29Z" style="fill:#ab5d56"></path><rect x="120.47" y="245.35" width="18.04" height="20.13" transform="translate(-93.23 75.41) rotate(-24.17)" style="fill:#7d413c"></rect><rect x="123.46" y="248.68" width="12.07" height="13.47" transform="translate(-93.23 75.41) rotate(-24.17)" style="fill:#ab5d56"></rect><g style="opacity:0.30000000000000004"><path d="M124.46,258.93l2.28,5.1,5.13-2.3-4.63,1.76a.43.43,0,0,1-.54-.18Z" style="fill:#fff"></path></g><g style="opacity:0.30000000000000004"><polygon points="133.6 242.54 132.24 246.8 137.75 259.09 141.84 260.9 133.6 242.54"></polygon></g><polygon points="121.23 251.74 117.14 249.93 133.6 242.54 132.24 246.8 121.23 251.74" style="fill:#ab5d56"></polygon><g style="opacity:0.1"><polygon points="121.23 251.74 117.14 249.93 133.6 242.54 132.24 246.8 121.23 251.74"></polygon></g><g style="opacity:0.2"><polygon points="125.38 268.29 126.74 264.03 137.75 259.09 141.84 260.9 125.38 268.29"></polygon></g><g style="opacity:0.5"><path d="M131.85,247.08s-1.64.83-3.71,1.76-3.76,1.64-3.78,1.59,1.64-.83,3.71-1.76S131.83,247,131.85,247.08Z" style="fill:#fff"></path></g><rect x="136.94" y="237.96" width="18.04" height="20.13" transform="translate(-88.76 81.51) rotate(-24.17)" style="fill:#7d413c"></rect><rect x="139.92" y="241.29" width="12.07" height="13.47" transform="translate(-88.76 81.5) rotate(-24.17)" style="fill:#ab5d56"></rect><g style="opacity:0.30000000000000004"><path d="M140.92,251.54l2.29,5.1,5.12-2.3-4.63,1.76a.41.41,0,0,1-.53-.18Z" style="fill:#fff"></path></g><g style="opacity:0.30000000000000004"><polygon points="150.06 235.15 148.71 239.41 154.22 251.7 158.3 253.51 150.06 235.15"></polygon></g><polygon points="137.69 244.35 133.61 242.54 150.06 235.15 148.71 239.41 137.69 244.35" style="fill:#ab5d56"></polygon><g style="opacity:0.1"><polygon points="137.69 244.35 133.61 242.54 150.06 235.15 148.71 239.41 137.69 244.35"></polygon></g><g style="opacity:0.2"><polygon points="141.85 260.9 143.21 256.64 154.22 251.7 158.3 253.51 141.85 260.9"></polygon></g><g style="opacity:0.5"><path d="M148.31,239.69s-1.64.83-3.71,1.76-3.76,1.64-3.78,1.6,1.64-.84,3.71-1.76S148.29,239.64,148.31,239.69Z" style="fill:#fff"></path></g><rect x="112.24" y="271.07" width="18.04" height="20.13" transform="translate(-104.48 74.3) rotate(-24.17)" style="fill:#7d413c"></rect><rect x="115.22" y="274.4" width="12.07" height="13.47" transform="translate(-104.48 74.29) rotate(-24.17)" style="fill:#ab5d56"></rect><g style="opacity:0.30000000000000004"><path d="M116.22,284.65l2.29,5.1,5.13-2.3L119,289.21a.43.43,0,0,1-.54-.18Z" style="fill:#fff"></path></g><g style="opacity:0.30000000000000004"><polygon points="125.37 268.26 124.01 272.52 129.52 284.81 133.61 286.62 125.37 268.26"></polygon></g><polygon points="113 277.46 108.91 275.64 125.37 268.26 124.01 272.52 113 277.46" style="fill:#ab5d56"></polygon><g style="opacity:0.1"><polygon points="113 277.46 108.91 275.64 125.37 268.26 124.01 272.52 113 277.46"></polygon></g><g style="opacity:0.2"><polygon points="117.16 294.01 118.52 289.75 129.53 284.8 133.62 286.62 117.16 294.01"></polygon></g><g style="opacity:0.5"><path d="M123.61,272.79s-1.64.84-3.7,1.76-3.76,1.65-3.78,1.6,1.64-.83,3.7-1.76S123.59,272.75,123.61,272.79Z" style="fill:#fff"></path></g><rect x="128.7" y="263.68" width="18.04" height="20.13" transform="translate(-100.01 80.39) rotate(-24.17)" style="fill:#7d413c"></rect><rect x="131.68" y="267.01" width="12.07" height="13.47" transform="translate(-100.01 80.39) rotate(-24.17)" style="fill:#ab5d56"></rect><g style="opacity:0.30000000000000004"><path d="M132.68,277.26l2.29,5.1,5.12-2.3-4.62,1.76a.41.41,0,0,1-.54-.18Z" style="fill:#fff"></path></g><g style="opacity:0.30000000000000004"><polygon points="141.83 260.87 140.47 265.13 145.98 277.42 150.06 279.24 141.83 260.87"></polygon></g><polygon points="129.46 270.07 125.37 268.26 141.83 260.87 140.47 265.13 129.46 270.07" style="fill:#ab5d56"></polygon><g style="opacity:0.1"><polygon points="129.46 270.07 125.37 268.26 141.83 260.87 140.47 265.13 129.46 270.07"></polygon></g><g style="opacity:0.2"><polygon points="133.61 286.62 134.97 282.36 145.98 277.42 150.06 279.24 133.61 286.62"></polygon></g><g style="opacity:0.5"><path d="M140.07,265.41s-1.64.83-3.71,1.76-3.75,1.64-3.77,1.6,1.63-.84,3.7-1.76S140.05,265.36,140.07,265.41Z" style="fill:#fff"></path></g><rect x="145.17" y="256.29" width="18.04" height="20.13" transform="translate(-95.54 86.48) rotate(-24.17)" style="fill:#7d413c"></rect><rect x="148.15" y="259.62" width="12.07" height="13.47" transform="translate(-95.54 86.48) rotate(-24.17)" style="fill:#ab5d56"></rect><g style="opacity:0.30000000000000004"><path d="M149.15,269.87l2.29,5.1,5.13-2.3-4.63,1.76a.42.42,0,0,1-.54-.18Z" style="fill:#fff"></path></g><g style="opacity:0.30000000000000004"><polygon points="158.3 253.48 156.94 257.74 162.45 270.03 166.54 271.84 158.3 253.48"></polygon></g><polygon points="145.93 262.68 141.84 260.87 158.3 253.48 156.94 257.74 145.93 262.68" style="fill:#ab5d56"></polygon><g style="opacity:0.1"><polygon points="145.93 262.68 141.84 260.87 158.3 253.48 156.94 257.74 145.93 262.68"></polygon></g><g style="opacity:0.2"><polygon points="150.08 279.23 151.44 274.97 162.45 270.03 166.54 271.84 150.08 279.23"></polygon></g><g style="opacity:0.5"><path d="M156.54,258s-1.64.83-3.71,1.76-3.75,1.64-3.77,1.59,1.64-.83,3.7-1.76S156.52,258,156.54,258Z" style="fill:#fff"></path></g><rect x="120.49" y="289.47" width="18.04" height="20.13" transform="translate(-111.29 79.29) rotate(-24.17)" style="fill:#7d413c"></rect><rect x="123.48" y="292.8" width="12.07" height="13.47" transform="translate(-111.29 79.29) rotate(-24.17)" style="fill:#ab5d56"></rect><g style="opacity:0.30000000000000004"><path d="M124.48,303.05l2.28,5.1,5.13-2.3-4.63,1.76a.44.44,0,0,1-.54-.18Z" style="fill:#fff"></path></g><g style="opacity:0.30000000000000004"><polygon points="133.62 286.66 132.26 290.92 137.78 303.21 141.86 305.02 133.62 286.66"></polygon></g><polygon points="121.25 295.86 117.17 294.04 133.62 286.66 132.26 290.92 121.25 295.86" style="fill:#ab5d56"></polygon><g style="opacity:0.1"><polygon points="121.25 295.86 117.17 294.04 133.62 286.66 132.26 290.92 121.25 295.86"></polygon></g><g style="opacity:0.2"><polygon points="125.4 312.41 126.76 308.15 137.78 303.21 141.86 305.02 125.4 312.41"></polygon></g><g style="opacity:0.5"><path d="M131.87,291.19c0,.05-1.64.84-3.71,1.76s-3.76,1.65-3.78,1.6,1.64-.83,3.71-1.76S131.85,291.15,131.87,291.19Z" style="fill:#fff"></path></g><rect x="136.95" y="282.08" width="18.04" height="20.13" transform="translate(-106.82 85.38) rotate(-24.17)" style="fill:#7d413c"></rect><rect x="139.94" y="285.41" width="12.07" height="13.47" transform="translate(-106.82 85.38) rotate(-24.17)" style="fill:#ab5d56"></rect><g style="opacity:0.30000000000000004"><path d="M140.93,295.66l2.29,5.1,5.13-2.3-4.63,1.77a.43.43,0,0,1-.54-.19Z" style="fill:#fff"></path></g><g style="opacity:0.30000000000000004"><polygon points="150.08 279.27 148.72 283.53 154.23 295.82 158.32 297.64 150.08 279.27"></polygon></g><polygon points="137.71 288.47 133.62 286.66 150.08 279.27 148.72 283.53 137.71 288.47" style="fill:#ab5d56"></polygon><g style="opacity:0.1"><polygon points="137.71 288.47 133.62 286.66 150.08 279.27 148.72 283.53 137.71 288.47"></polygon></g><g style="opacity:0.2"><polygon points="141.86 305.02 143.22 300.76 154.23 295.82 158.32 297.64 141.86 305.02"></polygon></g><g style="opacity:0.5"><path d="M148.32,283.81s-1.64.83-3.7,1.76-3.76,1.64-3.78,1.6,1.64-.84,3.71-1.76S148.3,283.76,148.32,283.81Z" style="fill:#fff"></path></g><rect x="153.41" y="274.69" width="18.04" height="20.13" transform="translate(-102.35 91.47) rotate(-24.17)" style="fill:#7d413c"></rect><rect x="156.4" y="278.02" width="12.07" height="13.47" transform="translate(-102.35 91.47) rotate(-24.17)" style="fill:#ab5d56"></rect><g style="opacity:0.30000000000000004"><path d="M157.4,288.27l2.28,5.1,5.13-2.3-4.63,1.77a.44.44,0,0,1-.54-.18Z" style="fill:#fff"></path></g><g style="opacity:0.30000000000000004"><polygon points="166.54 271.88 165.18 276.14 170.7 288.43 174.78 290.25 166.54 271.88"></polygon></g><polygon points="154.17 281.09 150.09 279.27 166.54 271.88 165.18 276.14 154.17 281.09" style="fill:#ab5d56"></polygon><g style="opacity:0.1"><polygon points="154.17 281.09 150.09 279.27 166.54 271.88 165.18 276.14 154.17 281.09"></polygon></g><g style="opacity:0.2"><polygon points="158.32 297.63 159.68 293.37 170.7 288.43 174.78 290.25 158.32 297.63"></polygon></g><g style="opacity:0.5"><path d="M164.79,276.42s-1.64.83-3.71,1.76-3.76,1.64-3.78,1.6S158.94,279,161,278,164.77,276.38,164.79,276.42Z" style="fill:#fff"></path></g><rect x="128.63" y="307.62" width="18.04" height="20.13" transform="translate(-118.01 84.21) rotate(-24.17)" style="fill:#7d413c"></rect><rect x="131.62" y="310.95" width="12.07" height="13.47" transform="translate(-118.01 84.21) rotate(-24.17)" style="fill:#ab5d56"></rect><g style="opacity:0.30000000000000004"><path d="M132.62,321.2l2.28,5.09L140,324l-4.63,1.77a.44.44,0,0,1-.54-.18Z" style="fill:#fff"></path></g><g style="opacity:0.30000000000000004"><polygon points="141.76 304.81 140.4 309.07 145.92 321.35 150 323.17 141.76 304.81"></polygon></g><polygon points="129.39 314.01 125.31 312.19 141.76 304.81 140.4 309.07 129.39 314.01" style="fill:#ab5d56"></polygon><g style="opacity:0.1"><polygon points="129.39 314.01 125.31 312.19 141.76 304.81 140.4 309.07 129.39 314.01"></polygon></g><g style="opacity:0.2"><polygon points="133.54 330.56 134.91 326.3 145.92 321.35 150 323.17 133.54 330.56"></polygon></g><g style="opacity:0.5"><path d="M140,309.34c0,.05-1.64.83-3.71,1.76s-3.76,1.65-3.78,1.6,1.64-.83,3.71-1.76S140,309.3,140,309.34Z" style="fill:#fff"></path></g><rect x="145.09" y="300.23" width="18.04" height="20.13" transform="translate(-113.54 90.31) rotate(-24.17)" style="fill:#7d413c"></rect><rect x="148.08" y="303.56" width="12.07" height="13.47" transform="translate(-113.54 90.31) rotate(-24.17)" style="fill:#ab5d56"></rect><g style="opacity:0.30000000000000004"><path d="M149.07,313.81l2.29,5.1,5.13-2.3-4.63,1.76a.43.43,0,0,1-.54-.18Z" style="fill:#fff"></path></g><g style="opacity:0.30000000000000004"><polygon points="158.22 297.42 156.86 301.68 162.37 313.97 166.46 315.78 158.22 297.42"></polygon></g><polygon points="145.85 306.62 141.76 304.81 158.22 297.42 156.86 301.68 145.85 306.62" style="fill:#ab5d56"></polygon><g style="opacity:0.1"><polygon points="145.85 306.62 141.76 304.81 158.22 297.42 156.86 301.68 145.85 306.62"></polygon></g><g style="opacity:0.2"><polygon points="150 323.17 151.36 318.91 162.37 313.97 166.46 315.78 150 323.17"></polygon></g><g style="opacity:0.5"><path d="M156.46,302s-1.63.83-3.7,1.76-3.76,1.64-3.78,1.59,1.64-.83,3.71-1.76S156.44,301.91,156.46,302Z" style="fill:#fff"></path></g><rect x="161.56" y="292.84" width="18.04" height="20.13" transform="translate(-109.07 96.4) rotate(-24.17)" style="fill:#7d413c"></rect><rect x="164.54" y="296.17" width="12.07" height="13.47" transform="translate(-109.07 96.4) rotate(-24.17)" style="fill:#ab5d56"></rect><g style="opacity:0.30000000000000004"><path d="M165.54,306.42l2.29,5.1,5.12-2.3L168.32,311a.41.41,0,0,1-.53-.18Z" style="fill:#fff"></path></g><g style="opacity:0.30000000000000004"><polygon points="174.69 290.03 173.32 294.29 178.84 306.58 182.92 308.39 174.69 290.03"></polygon></g><polygon points="162.31 299.23 158.23 297.42 174.69 290.03 173.32 294.29 162.31 299.23" style="fill:#ab5d56"></polygon><g style="opacity:0.1"><polygon points="162.31 299.23 158.23 297.42 174.69 290.03 173.32 294.29 162.31 299.23"></polygon></g><g style="opacity:0.2"><polygon points="166.47 315.78 167.82 311.52 178.84 306.58 182.92 308.39 166.47 315.78"></polygon></g><g style="opacity:0.5"><path d="M172.93,294.57s-1.64.83-3.71,1.76-3.76,1.64-3.78,1.6,1.64-.84,3.71-1.76S172.91,294.52,172.93,294.57Z" style="fill:#fff"></path></g><polygon points="117.24 294.38 133.54 330.56 182.92 308.39 172.93 286.08 172.58 289.1 170.42 289.29 166.85 290.26 163.92 292.09 159.19 292.29 153.43 286.93 143.91 288.9 139.94 292.85 134.28 291.62 127.33 295.25 124.41 292.58 117.24 294.38" style="fill:#9376C0"></polygon><path d="M172.92,286.08,170.64,288l-2.89.59-2.95.71-1.72,1.33-3.72.78-5.08-5.84-10.44,2.63-4,3.34-5.57-1.28-5.09,3.47L125,291.14l-7.71,3.24,1.82,1.48,3.23-1.26,1-1.36,1,.75,1.36,1.51s1.32,1.41,1.71,1.06,1.93-1.55,1.93-1.55l1.36-1,2.78.36,1.07-1.25c.62-1,2.9-.81,2.9-.81l2.5.93,1.81-.94,2-1.06,1-1.36,1.93-.17,3.33,0L152,288l1.47-1,1.43,1.62,3,4,1.08.69,1.81-.94,2.45,1.65,2-1.05a7.47,7.47,0,0,1,.45-1.63,3.23,3.23,0,0,1,1.19-1,19,19,0,0,1,2.21-.17,15.19,15.19,0,0,0,2-.23l1.48-.76.56-1.13Z" style="fill:#fff"></path><g style="opacity:0.30000000000000004"><polygon points="178.61 306.56 170.54 287.83 172.93 285.86 182.92 308.39 178.61 306.56"></polygon></g><g style="opacity:0.30000000000000004"><polygon points="134.91 326.3 119.8 293.3 117.25 294.44 133.54 330.56 134.91 326.3"></polygon></g><path d="M110.24,270.69,108,266.31l2.28,5.1,5.13-2.3-4.63,1.76A.44.44,0,0,1,110.24,270.69Z" style="fill:#fff"></path><path d="M110.28,271.41l5.13-2.3-4.63,1.76a.44.44,0,0,1-.54-.18L108,266.31" style="fill:#ab5d56"></path><path d="M110.3,271.45l0-.08,3.78-1.7-3.25,1.24a.46.46,0,0,1-.59-.2L108,266.33l.07,0,2.25,4.38a.39.39,0,0,0,.49.16l4.63-1.76,0,.08Z" style="fill:#ab5d56"></path><g style="opacity:0.30000000000000004"><polygon points="121.3 266.47 125.38 268.28 117.14 249.92 115.74 254.25 121.3 266.47"></polygon></g><polygon points="114.42 251.14 100.78 257.21 104.57 259.03 104.76 259.21 115.76 254.25 117.14 249.92 114.42 251.14" style="fill:#ab5d56"></polygon><g style="opacity:0.2"><polygon points="115.41 269.11 115.41 269.11 110.28 271.41 108.91 275.64 125.33 268.26 121.3 266.47 115.41 269.11"></polygon></g><polygon points="115.41 269.11 115.41 269.11 110.28 271.41 115.41 269.11" style="fill:#fff"></polygon><g style="opacity:0.2"><polygon points="133.54 330.56 134.91 326.3 178.61 306.56 182.92 308.39 133.54 330.56"></polygon></g><g style="opacity:0.5"><path d="M115.14,254.47a5.9,5.9,0,0,1-1,.51c-.6.29-1.45.68-2.39,1.09l-2.4,1a8.67,8.67,0,0,1-1,.4,5.48,5.48,0,0,1,1-.51c.61-.3,1.45-.68,2.39-1.09l2.41-1A5.67,5.67,0,0,1,115.14,254.47Z" style="fill:#fff"></path></g><g style="opacity:0.30000000000000004"><path d="M110.28,271.4l5.13-2.3-4.63,1.76a.44.44,0,0,1-.54-.18L108,266.3" style="fill:#fff"></path></g><path d="M127.83,321.27c-.15,0-2.54-3.15-2.54-3.15l5.39-2.84s8.81,3.71,11.68,0,1.17-7.1-.94-7.94-6.94-1.69-12.84-1.94-12.69,6.65-13.61,7.3" style="fill:#ffbf9d"></path><path d="M115,312.7a4.08,4.08,0,0,1,.44-.43c.29-.28.72-.69,1.3-1.2A33.48,33.48,0,0,1,122,307.2a16,16,0,0,1,4.17-1.75c.4-.11.82-.15,1.23-.23s.87,0,1.31-.05c.86,0,1.74.08,2.65.15,1.81.14,3.71.34,5.67.66,1,.17,2,.36,3,.62a12.34,12.34,0,0,1,1.5.47,4,4,0,0,1,1.38.92,4.7,4.7,0,0,1,1.28,2.71,5.71,5.71,0,0,1-.45,2.87,6.68,6.68,0,0,1-1.56,2.33,4.78,4.78,0,0,1-2.46,1.13,13.06,13.06,0,0,1-4.91-.28,25.59,25.59,0,0,1-4.12-1.29h.17l-5.42,2.79,0-.19,1.8,2.4c.42.55.64.82.64.82a18.39,18.39,0,0,1-2.64-3.07l-.1-.12.14-.07,5.36-2.9.07,0,.09,0a26.08,26.08,0,0,0,4.07,1.22,12.63,12.63,0,0,0,4.73.23,4.29,4.29,0,0,0,2.21-1,6.25,6.25,0,0,0,1.42-2.16,5.17,5.17,0,0,0,.4-2.61,4.23,4.23,0,0,0-1.13-2.41,5.29,5.29,0,0,0-2.64-1.25c-1-.26-1.95-.45-2.92-.62-1.93-.32-3.82-.53-5.62-.68a12.87,12.87,0,0,0-9.14,1.72,37.33,37.33,0,0,0-5.29,3.71A17.4,17.4,0,0,1,115,312.7Z" style="fill:#ff9a6c"></path><path d="M122,331.93c.77-2.11,1.54-5.58,2.67-7.51a12.39,12.39,0,0,1,4.64-4.75,11.91,11.91,0,0,1,4.75-1.27,33.34,33.34,0,0,1,8.55.86,20.06,20.06,0,0,1,4.82,1.34A6.78,6.78,0,0,1,151,324a4.11,4.11,0,0,1-1,4.6l-10.82,1.7H134l-1.37,3.92" style="fill:#ffbf9d"></path><path d="M132.66,334.24a6.28,6.28,0,0,1,.3-1c.24-.73.55-1.71.95-2.92l0-.09H134l5.13-.05h0L150,328.38l-.12.05a3.94,3.94,0,0,0,.65-4.8,7.55,7.55,0,0,0-4.54-3.33,25.87,25.87,0,0,0-3.13-.74c-1.05-.2-2.08-.39-3.09-.56a24.17,24.17,0,0,0-5.88-.34,11.15,11.15,0,0,0-5,1.55,12,12,0,0,0-3.29,3.2,13,13,0,0,0-1.75,3.4c-.39,1.06-.68,2-.92,2.77s-.45,1.36-.6,1.76a2.51,2.51,0,0,1-.26.59,3.92,3.92,0,0,1,.16-.63c.13-.46.3-1.05.5-1.78s.48-1.72.85-2.81a13,13,0,0,1,1.72-3.51,12.47,12.47,0,0,1,3.36-3.36,11.41,11.41,0,0,1,5.2-1.66,24,24,0,0,1,6,.32c1,.16,2.06.36,3.11.55a28.83,28.83,0,0,1,3.19.75,8,8,0,0,1,4.83,3.59,4.41,4.41,0,0,1-.79,5.41l0,.05H150l-10.83,1.64h0l-5.13-.05.12-.09c-.44,1.2-.8,2.16-1.07,2.88A5.74,5.74,0,0,1,132.66,334.24Z" style="fill:#ff9a6c"></path><path d="M147,357.59a11.43,11.43,0,0,0,1-1.85,7,7,0,0,0-.28-5.55l-.08-.16.15-.08,2.56-1.43.43-.24-.14.48a2.78,2.78,0,0,0,1.55,3,3.64,3.64,0,0,0,3.87-.53,6.84,6.84,0,0,0,2.37-3.84,17.21,17.21,0,0,0,.57-4.93,5.75,5.75,0,0,0-.79-2.7,3.72,3.72,0,0,0-2.14-1.55,12.19,12.19,0,0,0-5.28.13,27.68,27.68,0,0,0-8.43,3.49c-2.25,1.34-4,2.59-5.18,3.43l-1.38,1a3.38,3.38,0,0,1-.5.32,2.36,2.36,0,0,1,.44-.4c.29-.25.74-.6,1.32-1.05a62.27,62.27,0,0,1,5.11-3.58,27,27,0,0,1,8.52-3.64c.43-.1.87-.16,1.31-.24s.91-.1,1.37-.14a8.34,8.34,0,0,1,2.84.22,4.26,4.26,0,0,1,2.44,1.76,6.24,6.24,0,0,1,.87,2.94,17.15,17.15,0,0,1-.6,5.1,7.24,7.24,0,0,1-2.57,4.11,4.1,4.1,0,0,1-4.38.53,3.2,3.2,0,0,1-1.72-3.52l.29.23-2.58,1.38L148,350a7.14,7.14,0,0,1,.14,5.79,6.21,6.21,0,0,1-.79,1.37A2.5,2.5,0,0,1,147,357.59Z" style="fill:#ff9a6c"></path><path d="M157.15,338.46a10.77,10.77,0,0,1,.18-1.51,9.38,9.38,0,0,0-.16-4,4.41,4.41,0,0,0-1.55-2.18,7.11,7.11,0,0,0-2.91-1.2,22.79,22.79,0,0,0-7.37,0,26,26,0,0,0-12.16,5.49,38.41,38.41,0,0,0-4,3.95,8.9,8.9,0,0,1,.86-1.25,23,23,0,0,1,2.89-3,25.2,25.2,0,0,1,12.32-5.72,22.22,22.22,0,0,1,7.55,0,7.61,7.61,0,0,1,3.07,1.32,4.72,4.72,0,0,1,1.64,2.42,9,9,0,0,1,0,4.17A7,7,0,0,1,157.15,338.46Z" style="fill:#ff9a6c"></path></g></svg>
