<svg xmlns="http://www.w3.org/2000/svg" viewBox="0 0 500 500"><g id="freepik--background-complete--inject-357"><rect x="71.98" y="67.91" width="77.48" height="20.5" style="fill:#ebebeb"></rect><path d="M116.7,110a2.08,2.08,0,0,1,0-.37c0-.28,0-.62,0-1.06,0-1,0-2.3-.06-4,0-3.54-.08-8.62-.13-15l.24.24-77.48.16c.18-.18-.4.39.39-.4h0v10.4c0,3.42,0,6.78,0,10.08l-.38-.39,55.21.18,16.3.11,4.41,0,1.15,0,.41,0a1.34,1.34,0,0,1-.36,0l-1.11,0-4.32,0-16.21.11-55.48.17h-.39V110q0-4.95,0-10.08V89.52h0c.79-.79.22-.22.4-.39l77.48.15h.24v.24c-.06,6.48-.1,11.61-.14,15.18,0,1.7,0,3,0,4,0,.42,0,.75,0,1S116.7,110,116.7,110Z" style="fill:#e0e0e0"></path><rect x="383.35" y="353.03" width="77.48" height="20.5" style="fill:#ebebeb"></rect><path d="M428.06,395.11s0-.13,0-.37,0-.62,0-1.05c0-1,0-2.31-.05-4,0-3.54-.08-8.63-.14-15l.24.24-77.47.15.39-.39h0V385c0,3.42,0,6.79,0,10.08l-.39-.38,55.22.17,16.3.11,4.4.05,1.16,0,.4,0a1.44,1.44,0,0,1-.36,0l-1.1,0-4.32.06-16.21.11-55.49.17h-.38v-.39c0-3.29,0-6.66,0-10.08v-10.4h0l.4-.4,77.47.16h.25v.24c-.05,6.47-.1,11.61-.13,15.18,0,1.7,0,3-.06,4,0,.41,0,.75,0,1A1.15,1.15,0,0,1,428.06,395.11Z" style="fill:#e0e0e0"></path><rect x="71.98" y="200.57" width="77.48" height="20.5" style="fill:#ebebeb"></rect><rect x="383.42" y="231.05" width="77.48" height="20.5" style="fill:#ebebeb"></rect><path d="M450.43,112.74a2.14,2.14,0,0,1,0-.38c0-.27,0-.62,0-1,0-1,0-2.31-.06-4,0-3.54-.08-8.63-.13-15l.24.24L373,92.63c.18-.17-.4.4.39-.39h0v10.39q0,5.14,0,10.09l-.38-.39,55.21.18,16.3.11,4.41,0,1.15,0,.41,0a2.13,2.13,0,0,1-.36,0l-1.11,0-4.32,0-16.21.11-55.48.17h-.39V102.65c0-1.71,0-3.43,0-5.17V92.26h0l.4-.4,77.48.16h.24v.24c-.06,6.47-.1,11.61-.13,15.18,0,1.7-.05,3-.06,4,0,.42,0,.75,0,1A1.91,1.91,0,0,1,450.43,112.74Z" style="fill:#e0e0e0"></path><path d="M460.93,92.24a2.19,2.19,0,0,1,0-.39c0-.29,0-.65,0-1.09,0-1,0-2.38-.07-4.11,0-3.59-.09-8.67-.15-14.91l.28.29-46.55.11.4-.4h0V82.3c0,3.43,0,6.75,0,9.94l-.38-.38,33.3.18,9.7.11,2.62,0a7.08,7.08,0,0,1,.93,0,4.89,4.89,0,0,1-.84.05l-2.54,0-9.61.11-33.56.18H414v-.38c0-3.19,0-6.51,0-9.94V71.76h0l.39-.39,46.55.11h.29v.28c-.07,6.32-.12,11.45-.16,15.09,0,1.7-.05,3-.07,4A11.23,11.23,0,0,1,460.93,92.24Z" style="fill:#e0e0e0"></path><path d="M199.61,424.14a2,2,0,0,1,0-.37c0-.28,0-.62,0-1,0-1,0-2.31-.06-4,0-3.53-.08-8.62-.13-15l.24.24-77.48.16c.18-.18-.4.39.39-.4h0v10.4c0,3.42,0,6.79,0,10.08l-.38-.38,55.21.17,16.3.11,4.41,0,1.15,0a2,2,0,0,1,.41,0,1.54,1.54,0,0,1-.36,0l-1.11,0-4.32.05-16.21.11-55.48.18h-.39v-.39c0-3.29,0-6.66,0-10.08v-10.4h0c.79-.79.22-.21.4-.39l77.48.15h.24v.24c-.06,6.48-.1,11.61-.14,15.19,0,1.7,0,3-.05,4,0,.41,0,.74,0,1S199.61,424.15,199.61,424.14Z" style="fill:#e0e0e0"></path><path d="M210.11,403.64a2.19,2.19,0,0,1,0-.39q0-.44,0-1.08c0-1,0-2.38-.07-4.11,0-3.6-.09-8.67-.15-14.91l.28.28-46.55.11.39-.39h0v10.56c0,3.42,0,6.75,0,9.93l-.37-.37,33.3.18,9.7.1,2.62.05a8.83,8.83,0,0,1,.93,0,3.81,3.81,0,0,1-.84.05l-2.54.05-9.62.1-33.55.18h-.38v-.38c0-3.18,0-6.51,0-9.93V383.15h0l.4-.4,46.55.11h.29v.29c-.07,6.31-.12,11.45-.16,15.08,0,1.7-.05,3-.07,4A11.13,11.13,0,0,1,210.11,403.64Z" style="fill:#e0e0e0"></path><path d="M338.37,210.43a2.71,2.71,0,0,1,0-.37q0-.41,0-1.05c0-1,0-2.31-.06-4,0-3.54-.07-8.63-.13-15l.24.24-77.47.15.39-.39h0v5.23c0,1.74,0,3.46,0,5.17v10.08l-.39-.38,55.22.17,16.29.11,4.41,0,1.15,0,.41,0a1.44,1.44,0,0,1-.36,0l-1.1,0-4.33.05-16.21.11-55.48.18h-.38V190h0l.4-.4,77.47.16h.24v.24c-.06,6.47-.1,11.61-.13,15.18,0,1.7-.05,3-.06,4,0,.41,0,.74,0,1A1.15,1.15,0,0,1,338.37,210.43Z" style="fill:#e0e0e0"></path></g><g id="freepik--Table--inject-357"><path d="M455.66,446.54c0,.15-91.26.26-203.81.26S48,446.69,48,446.54s91.24-.26,203.82-.26S455.66,446.4,455.66,446.54Z" style="fill:#263238"></path></g><g id="freepik--Character--inject-357"><path d="M189.06,249,236.92,241l43.56-1.61,52.83,17.41-27.08,56H242s-43.78-39.26-43.44-40.28S189.06,249,189.06,249Z" style="fill:#ae7461"></path><path d="M91.74,327.83c-1.08.63-3.6,14.1-8.15,34.22-3.26,14.4-10.8,48.9,15.73,57.59,19,6.22,29.74-10,40.63-24.29,10.76-14.1,27.71-42.26,27.71-42.26l11.75-104a35.07,35.07,0,0,0-26.25,17.67c-9.38,16.55-28.81,68.12-28.81,68.12Z" style="fill:#455a64"></path><path d="M330.25,368.72c3.7-18.05,17.35-109.85,17.35-109.85L298,243.32s-18.5,41.1-43,39.74c-29.35-1.61-42-38.08-42-38.08L179.41,249s-14.49,44.9-16.32,69.39,15.4,85.32,16.32,91.8c.57,4-3.57,22.43-5.87,36.31H333.78c-.1-.72-9-29.57-9-29.57S326.55,386.76,330.25,368.72Z" style="fill:#455a64"></path><path d="M347.6,258.87s14.16,7.64,18.68,36.55,11.37,111.87,11.37,111.87l8.58,39.25-39.83-.28-8.58-24.18-14.7-70.69Z" style="fill:#455a64"></path><path d="M163,295.5a1.07,1.07,0,0,1,0,.29c0,.23,0,.51-.05.86-.06.79-.14,1.89-.25,3.29s0,3.18-.08,5.21.14,4.35.22,6.9c.53,10.23,2.32,24.28,4.84,39.7s5.37,29.31,7.5,39.33c1.08,5,2,9,2.58,11.86l.71,3.22q.1.51.18.84a1.58,1.58,0,0,1,0,.29,1.33,1.33,0,0,1-.1-.28c-.05-.21-.13-.49-.22-.83-.19-.77-.46-1.84-.81-3.2-.68-2.78-1.63-6.82-2.74-11.82-2.23-10-5.06-23.89-7.65-39.32s-4.26-29.51-4.7-39.77c-.05-2.56-.2-4.88-.14-6.92s.05-3.79.17-5.22.26-2.5.35-3.29l.1-.85A1,1,0,0,1,163,295.5Z" style="fill:#263238"></path><path d="M340.21,298.51a1.13,1.13,0,0,1,0,.3l0,.88c-.07.82-.16,1.95-.27,3.4s-.3,3.27-.53,5.35-.49,4.46-.84,7.08c-1.31,10.49-3.71,24.88-6.49,40.75s-5.21,30.26-6.68,40.72c-.39,2.61-.68,5-1,7.05s-.5,3.87-.67,5.34l-.42,3.38-.12.87a1.21,1.21,0,0,1-.06.3,1.69,1.69,0,0,1,0-.3l.07-.89c.08-.81.18-1.94.32-3.38s.32-3.27.58-5.35.51-4.46.89-7.07c1.37-10.48,3.73-24.88,6.52-40.76s5.24-30.24,6.65-40.71c.37-2.61.68-5,.91-7.06s.48-3.87.62-5.34.27-2.58.36-3.39c0-.36.08-.65.11-.87A1,1,0,0,1,340.21,298.51Z" style="fill:#263238"></path><path d="M122,402.34a3.76,3.76,0,0,1,.33-.6c.22-.4.6-.94,1-1.7A29.15,29.15,0,0,0,126,393.4a30.87,30.87,0,0,0,.84-10.59,96.91,96.91,0,0,0-2.17-12.93c-1-4.57-1.86-8.95-2.3-13a61.17,61.17,0,0,1-.32-10.77,54.34,54.34,0,0,1,.94-7.2q.27-1.19.45-1.92a3.41,3.41,0,0,1,.19-.66,2.89,2.89,0,0,1-.09.68c-.09.5-.21,1.14-.35,1.94a62.2,62.2,0,0,0-.77,7.18,63.27,63.27,0,0,0,.43,10.69c.46,4,1.35,8.37,2.33,12.93a93.31,93.31,0,0,1,2.14,13,30.66,30.66,0,0,1-1,10.72,27.5,27.5,0,0,1-2.91,6.65c-.43.74-.84,1.27-1.09,1.64A3.07,3.07,0,0,1,122,402.34Z" style="fill:#263238"></path><path d="M84.85,310.05s-3,6.5.39,11,5.36,2.65,5.36,2.65-.72,5.75,3.94,9.11a8,8,0,0,0,9.14.14s1.95,3.07,7.66,3.47a12.42,12.42,0,0,0,9.09-2.84s3.39,3.25,9.08.88,9-11.73,11.7-18.83,12.34-23.43,11.61-25.55-2.6-5.71-5.68-3.92-8.2,9.61-8.2,9.61L98,302S87.42,304.07,84.85,310.05Z" style="fill:#ae7461"></path><path d="M235.38,274.65l-173,34.68a1.15,1.15,0,0,0-.91,1.36h0a1.16,1.16,0,0,0,1.37.91l173-34.67a1.17,1.17,0,0,0,.91-1.37h0A1.17,1.17,0,0,0,235.38,274.65Z" style="fill:#9376C0"></path><path d="M235.38,274.65l-173,34.68a1.15,1.15,0,0,0-.91,1.36h0a1.16,1.16,0,0,0,1.37.91l173-34.67a1.17,1.17,0,0,0,.91-1.37h0A1.17,1.17,0,0,0,235.38,274.65Z" style="opacity:0.30000000000000004"></path><path d="M238.07,349.36a2.16,2.16,0,0,0,2.15-1.08s-2.54-2.32-2.64-4.51c-.19-3.81,3.22-7.14,5.07-11,1.64-3.44,1.84-6.19,0-10.28-2.42-5.41-8.3-9-8-14.95.16-3,3.5-8,4.29-10.89,1.43-5.38-2.53-15.24-7-19.06a2.12,2.12,0,0,0-1.18-.5l-26,2s-1,2.06,3,6.67c3.64,4.18,5.27,7.84,3.29,13.74s-3.84,9.83-.9,16.95c3.54,8.58,7.83,8.13,5.44,16.79s-6.92,8-3.71,20.14a3.87,3.87,0,0,0,4.3-.71l.7,2.88s3.19,1,4.91-1.07l-.63-3.48a4.91,4.91,0,0,0,4.56-.69l-.35-4.41s1.59,2.95,2.76,3.82c0,0,2.07,3.27,5.2.22h0s1.49,1.58,4.74-.57h0" style="fill:#ffbe9d"></path><path d="M202,281.45a1.37,1.37,0,0,0-1.12-1.52,1.35,1.35,0,0,0-1.51,1.12c-.12,3.48,1.51,6.45,3.3,9.32,1.42,2.3,3.07,4.8,3.09,7.6,0,2.27-1,4.39-2,6.39a19.46,19.46,0,0,0-2.2,6.92,12.57,12.57,0,0,0,2.16,7.87c1,1.41,3.08-.2,2.12-1.62a9.69,9.69,0,0,1-1.36-7.76,41.29,41.29,0,0,1,2.59-6.28,12.82,12.82,0,0,0,1.19-7c-.45-2.84-2-5.31-3.5-7.69-1.36-2.19-2.88-4.68-2.79-7.34Z" style="fill:#ffbe9d"></path><path d="M209.74,281.1a10.13,10.13,0,0,0,.86,3.29,23,23,0,0,0,2.25,3.95,36.7,36.7,0,0,1,2.92,4.73,10.9,10.9,0,0,1,1,2.94,9,9,0,0,1-.07,3.28,31.63,31.63,0,0,1-2.56,6.57,19.76,19.76,0,0,0-1.24,3.48,9,9,0,0,0-.12,3.73,11.68,11.68,0,0,0,1.36,3.5,28,28,0,0,0,2.09,3.06,35.82,35.82,0,0,1,4,5.79,11,11,0,0,1,1.07,3.1,8,8,0,0,1-.07,3.11,16,16,0,0,1-2.33,5.06c-.92,1.43-1.79,2.7-2.4,3.91a12.4,12.4,0,0,0-1.21,3.22,7.33,7.33,0,0,0-.13,2.14c.06.49.1.75.1.75a3.14,3.14,0,0,1-.15-.74,6.59,6.59,0,0,1,.08-2.17,11.59,11.59,0,0,1,1.16-3.25c.59-1.22,1.47-2.51,2.36-3.95a15.83,15.83,0,0,0,2.28-5,7.82,7.82,0,0,0,0-3,10.27,10.27,0,0,0-1.06-3,38,38,0,0,0-4-5.71,29.06,29.06,0,0,1-2.11-3.09,11.87,11.87,0,0,1-1.4-3.58,9.38,9.38,0,0,1,.13-3.84,18.47,18.47,0,0,1,1.26-3.52,32.53,32.53,0,0,0,2.55-6.52,9,9,0,0,0,.09-3.19,10.5,10.5,0,0,0-.93-2.89,37.44,37.44,0,0,0-2.88-4.72,23.26,23.26,0,0,1-2.23-4,10.51,10.51,0,0,1-.83-3.34,6.9,6.9,0,0,1,.2-2.17,4.34,4.34,0,0,1,.24-.72A7.55,7.55,0,0,0,209.74,281.1Z" style="fill:#263238"></path><path d="M214.53,278.48a7.73,7.73,0,0,0,.12,2.15,12.73,12.73,0,0,0,1.11,3.23,33,33,0,0,0,2.37,3.9,27.58,27.58,0,0,1,2.77,4.8,10.11,10.11,0,0,1,.76,3,10.3,10.3,0,0,1-.31,3.27,46.68,46.68,0,0,1-2.63,6.53,16.57,16.57,0,0,0-1.11,3.5,8.64,8.64,0,0,0,.1,3.72,17.75,17.75,0,0,0,3.58,6.5,32.72,32.72,0,0,1,4,5.8,9.15,9.15,0,0,1,.84,6.23,17.65,17.65,0,0,1-2.36,5c-.91,1.43-1.76,2.71-2.36,3.92a12.45,12.45,0,0,0-1.15,3.21,6.82,6.82,0,0,0-.11,2.16l.09.74a4.62,4.62,0,0,1-.15-.74,6.87,6.87,0,0,1,.06-2.17,12.26,12.26,0,0,1,1.13-3.28,40.11,40.11,0,0,1,2.33-4,17.29,17.29,0,0,0,2.29-5A9,9,0,0,0,225,325a30.75,30.75,0,0,0-3.91-5.77,32.16,32.16,0,0,1-2.13-3.06,13.08,13.08,0,0,1-1.5-3.53,9,9,0,0,1-.09-3.84,16.49,16.49,0,0,1,1.13-3.55,50,50,0,0,0,2.64-6.49,10,10,0,0,0,.3-3.18,9.69,9.69,0,0,0-.73-2.94,27.82,27.82,0,0,0-2.72-4.77,30.61,30.61,0,0,1-2.34-3.93,12.68,12.68,0,0,1-1.08-3.27,7.18,7.18,0,0,1-.06-2.17,4.52,4.52,0,0,1,.13-.75S214.6,278,214.53,278.48Z" style="fill:#263238"></path><path d="M219.37,278.12a10.54,10.54,0,0,0,.48,2.07,18.24,18.24,0,0,0,1.45,3.1c.66,1.16,1.53,2.41,2.45,3.83a19,19,0,0,1,2.44,4.95,9.09,9.09,0,0,1,.38,3.07,13.06,13.06,0,0,1-.64,3.21c-.69,2.13-1.8,4.22-2.65,6.46a13.18,13.18,0,0,0-.86,3.54,10.5,10.5,0,0,0,0,1.86,10.65,10.65,0,0,0,.42,1.84,21.94,21.94,0,0,0,3.78,6.38,27.17,27.17,0,0,1,3.77,5.89,10.35,10.35,0,0,1,.85,3.17,8.64,8.64,0,0,1-.28,3.08,19.18,19.18,0,0,1-2.38,5,42.48,42.48,0,0,0-2.29,3.91,13.09,13.09,0,0,0-1.09,3.23,7.32,7.32,0,0,0-.1,2.14l.09.75c-.06-.24-.11-.49-.15-.74a7.52,7.52,0,0,1,0-2.17,12.29,12.29,0,0,1,1.07-3.27,44.1,44.1,0,0,1,2.25-3.95,19,19,0,0,0,2.33-4.93,8.23,8.23,0,0,0,.25-3,10.09,10.09,0,0,0-.83-3.11,30.13,30.13,0,0,0-3.76-5.83,23.8,23.8,0,0,1-3.83-6.48,10.13,10.13,0,0,1-.42-1.89,9.48,9.48,0,0,1,0-1.92,14.11,14.11,0,0,1,.88-3.61c.87-2.27,2-4.34,2.67-6.44a13,13,0,0,0,.63-3.15,9,9,0,0,0-.37-3,19.19,19.19,0,0,0-2.39-4.9c-.89-1.42-1.77-2.67-2.41-3.85a17.25,17.25,0,0,1-1.39-3.14,10.47,10.47,0,0,1-.44-2.13,4.83,4.83,0,0,1,0-.76S219.31,277.57,219.37,278.12Z" style="fill:#263238"></path><path d="M224.42,278.22c0,.13.07.32.14.58a14.84,14.84,0,0,0,.79,2.14,25.1,25.1,0,0,0,1.76,3.17c.77,1.19,1.71,2.5,2.59,4.06a12.23,12.23,0,0,1,1.81,5.53,15.31,15.31,0,0,1-1.59,6.5,29,29,0,0,0-2.48,6.9,7.5,7.5,0,0,0-.1.94c0,.32,0,.64,0,1a9.4,9.4,0,0,0,.31,1.91,14.27,14.27,0,0,0,1.63,3.63c1.41,2.31,3.23,4.28,4.62,6.45a17.15,17.15,0,0,1,1.74,3.38,9.79,9.79,0,0,1,.61,3.59,10,10,0,0,1-.78,3.38,22.15,22.15,0,0,1-1.49,2.91c-.54.9-1.09,1.75-1.6,2.57a17.54,17.54,0,0,0-1.36,2.43,8,8,0,0,0-.5,4.66,14.47,14.47,0,0,0,1.23,3.39c.25.43.46.83.65,1.15s.38.6.52.81l.32.5.1.17a.67.67,0,0,1-.12-.16l-.35-.49c-.15-.22-.35-.47-.54-.8s-.42-.72-.68-1.14a14.48,14.48,0,0,1-1.28-3.41,8.12,8.12,0,0,1,.46-4.77,16.81,16.81,0,0,1,1.35-2.46c.51-.85,1.05-1.68,1.58-2.58a21,21,0,0,0,1.46-2.88,9.85,9.85,0,0,0,.75-3.3,9.23,9.23,0,0,0-.6-3.49,16.33,16.33,0,0,0-1.72-3.32c-1.38-2.15-3.19-4.12-4.62-6.46a14.76,14.76,0,0,1-1.66-3.69,10.22,10.22,0,0,1-.32-2c0-.33,0-.66,0-1s.07-.65.1-1a28.29,28.29,0,0,1,2.52-7,14.82,14.82,0,0,0,1.6-6.38,12.36,12.36,0,0,0-1.74-5.45c-.87-1.55-1.79-2.88-2.55-4.07a23,23,0,0,1-1.72-3.21,12.91,12.91,0,0,1-.74-2.17,5.42,5.42,0,0,1-.13-.79A1,1,0,0,0,224.42,278.22Z" style="fill:#263238"></path><path d="M237.45,348.85a9.59,9.59,0,0,1-1.34-1.88,14.07,14.07,0,0,1-.72-1.52c-.11-.29-.22-.59-.32-.9a5.27,5.27,0,0,1-.2-1.05,9.79,9.79,0,0,1,.89-4.74,22.09,22.09,0,0,1,1.3-2.51l1.58-2.61a23.05,23.05,0,0,0,1.49-2.88,9.84,9.84,0,0,0,.79-3.3,9.39,9.39,0,0,0-.57-3.52,16.71,16.71,0,0,0-1.71-3.34c-1.38-2.16-3.2-4.14-4.64-6.49a14.44,14.44,0,0,1-1.68-3.71,9.51,9.51,0,0,1-.32-2c0-.33,0-.66,0-1s.07-.66.11-1a27.82,27.82,0,0,1,2.54-7,14.81,14.81,0,0,0,1.58-6.42,12.58,12.58,0,0,0-1.81-5.46c-.88-1.56-1.81-2.89-2.57-4.09s-1.37-2.27-1.85-3.15a19.83,19.83,0,0,1-1-2.07,4.33,4.33,0,0,1-.22-.56,1,1,0,0,1-.06-.2.66.66,0,0,1,.09.19l.24.55c.21.47.57,1.16,1.06,2s1.1,1.92,1.89,3.12,1.74,2.52,2.64,4.08a12.75,12.75,0,0,1,1.86,5.55,15.47,15.47,0,0,1-1.57,6.53,30.43,30.43,0,0,0-2.51,6.94c0,.31-.09.63-.1.95s0,.64,0,1a9.61,9.61,0,0,0,.31,1.92,14.46,14.46,0,0,0,1.65,3.65c1.42,2.31,3.24,4.29,4.63,6.48a16,16,0,0,1,1.73,3.4,9.32,9.32,0,0,1,.57,3.62,10.19,10.19,0,0,1-.81,3.39,23.69,23.69,0,0,1-1.52,2.91l-1.61,2.58a25.25,25.25,0,0,0-1.3,2.47,9.58,9.58,0,0,0-.9,4.66,4.87,4.87,0,0,0,.17,1c.09.31.2.61.31.89a13.87,13.87,0,0,0,.69,1.52,9.76,9.76,0,0,0,1.3,1.89,5.67,5.67,0,0,0,.55.58A4.31,4.31,0,0,1,237.45,348.85Z" style="fill:#263238"></path><path d="M243,328.18c.18-1.16.15-2.11.23-2.12a4.77,4.77,0,0,1,0,2.16,4.59,4.59,0,0,1-.69,2C242.55,330.24,242.87,329.34,243,328.18Z" style="fill:#fff"></path><path d="M238.53,329.86a4.66,4.66,0,0,0,1.14-4.19s.17.22.27.64a3.63,3.63,0,0,1-.05,1.67,3.52,3.52,0,0,1-.81,1.46c-.29.32-.55.45-.55.42Z" style="fill:#fff"></path><path d="M233.2,324.35a24.23,24.23,0,0,0-1-2.48,6.49,6.49,0,0,1,1.44,5.12A23.44,23.44,0,0,0,233.2,324.35Z" style="fill:#fff"></path><path d="M228.34,323.88c-.32-.83-.78-1.4-.72-1.45a3.37,3.37,0,0,1,1.21,3C228.75,325.43,228.65,324.71,228.34,323.88Z" style="fill:#fff"></path><path d="M223,324.5c-.57-.94-1.24-1.52-1.18-1.59a3.38,3.38,0,0,1,1.42,1.43,3.34,3.34,0,0,1,.57,1.94C223.73,326.3,223.56,325.44,223,324.5Z" style="fill:#fff"></path><path d="M217.42,324.33a7.27,7.27,0,0,1-.51-1c.05-.06.47.28.77.88a1.63,1.63,0,0,1,.22,1.14C217.82,325.36,217.69,324.88,217.42,324.33Z" style="fill:#fff"></path><path d="M238.62,293.14a9.8,9.8,0,0,0-.4-2.41,1.52,1.52,0,0,1,.37.64,4.76,4.76,0,0,1-.06,3.52,2.4,2.4,0,0,1-.39.64A9.84,9.84,0,0,0,238.62,293.14Z" style="fill:#fff"></path><path d="M235.2,292.81c.06-.94-.09-1.71,0-1.71a4,4,0,0,1-.17,3.4C235,294.48,235.15,293.75,235.2,292.81Z" style="fill:#fff"></path><path d="M229.24,291.74c-.14-.84-.41-1.49-.34-1.53a3.66,3.66,0,0,1,.54,3.08C229.36,293.28,229.39,292.57,229.24,291.74Z" style="fill:#fff"></path><path d="M223.71,290.16c-.48-1.13-1.08-1.94-1-2a6,6,0,0,1,1.76,4.07C224.36,292.25,224.19,291.28,223.71,290.16Z" style="fill:#fff"></path><path d="M218.67,290.47a15,15,0,0,1-.93-1.61,4,4,0,0,1,1.17,1.47,4.11,4.11,0,0,1,.64,1.77A15.09,15.09,0,0,1,218.67,290.47Z" style="fill:#fff"></path><path d="M213.11,290.43a11.4,11.4,0,0,1-.6-1.79,7.54,7.54,0,0,1,1.27,3.58A10.12,10.12,0,0,1,213.11,290.43Z" style="fill:#fff"></path><path d="M207.56,297.42c-.16-1.14-.55-2-.48-2a5,5,0,0,1,.58,4.12C207.59,299.5,207.72,298.56,207.56,297.42Z" style="fill:#fff"></path><path d="M211,310.35a5.23,5.23,0,0,1,.29-2.45c.08,0-.1,1.09,0,2.42s.43,2.4.35,2.41A5.22,5.22,0,0,1,211,310.35Z" style="fill:#fff"></path><path d="M219.58,312.51a3.81,3.81,0,0,1-.73-4,12.53,12.53,0,0,0,.07,2,13.31,13.31,0,0,0,.66,1.93Z" style="fill:#fff"></path><path d="M224.94,312.24c-.18-.59,0-1.12.07-1.08s0,.5.2,1,.43.92.38,1S225.11,312.83,224.94,312.24Z" style="fill:#fff"></path><path d="M227.76,344.47a3.65,3.65,0,0,1-.22-1.5,3.6,3.6,0,0,1,.38-1.47,1.26,1.26,0,0,1,.38-.5,8.52,8.52,0,0,0-.49,2,8.62,8.62,0,0,0,.27,2S227.91,344.84,227.76,344.47Z" style="fill:#fff"></path><path d="M222.86,342.92c0-.55.22-1,.29-.94s0,.44,0,1,0,.94-.08.95S222.84,343.48,222.86,342.92Z" style="fill:#fff"></path><path d="M218.05,343.35c-.05-.39.07-.69.15-.68s.09.3.13.65.1.64,0,.65S218.1,343.75,218.05,343.35Z" style="fill:#fff"></path><path d="M214.4,343.92a.59.59,0,0,1,.16-.55c.05,0,.08.25.12.52s.08.49,0,.53S214.44,344.25,214.4,343.92Z" style="fill:#fff"></path><path d="M231.85,277.49a1.16,1.16,0,0,0,1-1.32h0a1.16,1.16,0,0,0-1.31-1L56.91,300.5a1.16,1.16,0,0,0-1,1.31h0a1.15,1.15,0,0,0,1.31,1" style="fill:#9376C0"></path><path d="M121.54,291.13a10.15,10.15,0,0,0-5.91-2.72c-4.25-.46-9.56-.72-11.47.36-2.51,1.41-3.5,3.58-7.38,6.57s-2.63,5.51-1.55,6.64,5.59.73,9.61-1.18,8-6.7,8-6.7l1.37-1.87,7.34-1.1Z" style="fill:#ae7461"></path><path d="M95.27,320.73s31.86-18.68,33.53-20.45,1.33-5.39-1.17-7.15c-2.1-1.48-8-2.66-19.79,3.95,0,0-17.19,8.95-17.29,9.44" style="fill:#ae7461"></path><path d="M90.55,306.52a12.76,12.76,0,0,1,2.9-1.88c1.94-1.12,4.77-2.67,8.28-4.55l5.75-3.07a61.53,61.53,0,0,1,6.75-3.28,26.12,26.12,0,0,1,8.07-2,10.35,10.35,0,0,1,4.41.6,5.31,5.31,0,0,1,3.1,3.36,4.89,4.89,0,0,1-.64,4.52,4.64,4.64,0,0,1-.88.78l-.91.63c-.61.41-1.22.79-1.82,1.18-2.43,1.54-4.79,3-7,4.35-4.51,2.72-8.6,5.14-12,7.15l-8.17,4.74-2.24,1.26-.59.32c-.13.06-.2.1-.21.09a5.79,5.79,0,0,1,.75-.5l2.19-1.34,8.08-4.88,12-7.25c2.25-1.38,4.6-2.83,7-4.37.6-.39,1.21-.77,1.81-1.18a8.84,8.84,0,0,0,1.67-1.3,4.4,4.4,0,0,0,.56-4,4.78,4.78,0,0,0-2.81-3,10,10,0,0,0-4.19-.57,26,26,0,0,0-7.92,1.93,60.86,60.86,0,0,0-6.72,3.22l-5.78,3-8.35,4.4-2.25,1.24A5.91,5.91,0,0,0,90.55,306.52Z" style="fill:#6f4439"></path><path d="M120.44,331s21.87-21.87,23.16-24.22,3.94-5,.83-8.6-11.33,2.48-11.33,2.48l-13.76,13.37" style="fill:#ae7461"></path><path d="M119.34,314.06s.07-.1.23-.28l.71-.74,2.76-2.76,9.9-9.75h0a29.08,29.08,0,0,1,3.58-2.17,14.45,14.45,0,0,1,4.27-1.45,5.22,5.22,0,0,1,2.41.19,3.72,3.72,0,0,1,1.1.65,7.27,7.27,0,0,1,.81.95,5.36,5.36,0,0,1,1,2.33,5.07,5.07,0,0,1-.37,2.55,35.34,35.34,0,0,1-1.89,3.35,27.12,27.12,0,0,1-2.41,2.89c-1.65,1.8-3.27,3.5-4.82,5.11-3.11,3.22-5.94,6.08-8.33,8.47L122.59,329,121,330.53a5,5,0,0,1-.58.5,4.11,4.11,0,0,1,.5-.58l1.5-1.57c1.36-1.4,3.25-3.36,5.58-5.75l8.24-8.55c1.55-1.62,3.15-3.32,4.79-5.12a27.88,27.88,0,0,0,2.33-2.8,30.11,30.11,0,0,0,1.86-3.3,4.41,4.41,0,0,0,.34-2.28,4.69,4.69,0,0,0-.87-2.1,8,8,0,0,0-.73-.87,3.13,3.13,0,0,0-.93-.55,4.82,4.82,0,0,0-2.17-.17,13.71,13.71,0,0,0-4.12,1.38,27.45,27.45,0,0,0-3.53,2.11l0,0-10,9.61-2.84,2.67-.76.7A1.55,1.55,0,0,1,119.34,314.06Z" style="fill:#6f4439"></path><path d="M103.89,315.64l24.91-15.36s8.83-5,10.71.1-2.7,8.83-6.15,11.45-23.58,14.36-23.58,14.36" style="fill:#ae7461"></path><path d="M109.78,326.19s.24-.17.71-.47l2.06-1.26,7.61-4.61c3.2-2,7-4.25,11.2-6.94a35.11,35.11,0,0,0,3.07-2.23,22.61,22.61,0,0,0,2.89-2.66,9.86,9.86,0,0,0,2.07-3.41,6.37,6.37,0,0,0-.08-4,3.15,3.15,0,0,0-2.94-2.24,10.19,10.19,0,0,0-3.94.6,21.07,21.07,0,0,0-3.59,1.57l-3.25,2-11.26,6.88-7.61,4.6-2.08,1.23a4.49,4.49,0,0,1-.75.39,5.89,5.89,0,0,1,.69-.48l2-1.31,7.53-4.75,11.2-7,3.25-2a21,21,0,0,1,3.68-1.63,10.63,10.63,0,0,1,4.15-.64,4,4,0,0,1,2.09.74,3.65,3.65,0,0,1,1.29,1.85,6.9,6.9,0,0,1,.08,4.33,10.1,10.1,0,0,1-2.18,3.59,23.47,23.47,0,0,1-3,2.71,35.18,35.18,0,0,1-3.11,2.24c-4.19,2.68-8,4.94-11.28,6.86s-5.87,3.42-7.7,4.46l-2.11,1.18A4.09,4.09,0,0,1,109.78,326.19Z" style="fill:#6f4439"></path><path d="M270.62,46.78a14.89,14.89,0,0,1,12.12-5.39c1.87.09,3.93.49,5.45-.58,1.09-.78,1.6-2.11,2.38-3.2a7.56,7.56,0,0,1,10.82-1.11,9,9,0,0,0,2.29,2c3.75,1.61,7.21-5.44,10.94-3.79a8.55,8.55,0,0,0-3.77,3.46,3.89,3.89,0,0,0,.8,4.72c3.59,2.71,8.63-4.33,12.57-2.16,2.12,1.17,2.66,4.59,5,5a8.26,8.26,0,0,0,2.76-.41,6.21,6.21,0,0,1,7,4.83c.47,2.65-.63,6,1.51,7.65,1.33,1,3.2.69,4.82.32a16.15,16.15,0,0,1-1.22,7.21,9.74,9.74,0,0,1,4.24,12.83c2.25,1.5,4.54,3.07,6,5.32s2,5.33.63,7.63a6.81,6.81,0,0,0-.91,1.59,3.65,3.65,0,0,0,.14,2c.7,2.46,2,4.81,2.1,7.36s-1.57,5.51-4.13,5.48c-.6,0-1.27-.16-1.74.2a1.72,1.72,0,0,0-.53,1.21,17.81,17.81,0,0,0,.78,5.44c.39,1.8.54,3.8-.42,5.37s-3.43,2.27-4.68.93l2.82,8.36c.56,1.65,1.06,3.67-.08,5-1.49,1.74-4.5.68-5.86-1.16s-1.88-4.21-3.29-6a13,13,0,0,1-1.72-2.21c-.33-.66-.49-1.47-1.09-1.9-1.22-.86-2.86.87-2.59,2.34s1.52,2.49,2.54,3.58,1.9,2.66,1.24,4c-.32.65-.95,1.1-1.25,1.75-1.05,2.26,2.28,4.12,2.84,6.54.41,1.79-.78,3.53-2,4.92-1.47,1.69-4.44,3.2-5.58,1.27a20.49,20.49,0,0,1-.66-2.23,5.63,5.63,0,0,0-1.91-1.91,11.59,11.59,0,0,1-3.87-5.45c2.06,2.19,4.27,5.11,3.14,7.89a12.52,12.52,0,0,1-2.27,3c-1.57,1.9-2.45,4.29-4,6.2s-4.22,3.35-6.45,2.31A5.54,5.54,0,0,1,306.8,163a4.88,4.88,0,0,0-1.61-1.23A3.91,3.91,0,0,0,303,162a12,12,0,0,1-11.91-3.77l2.13-.94c-4.35-.24-8.88-.53-12.65-2.71s-6.46-6.9-4.89-11c.68-1.76,2.1-3.62,1.26-5.31-.57-1.17-2-1.63-3.23-2L258,132.09c-2.55-.69-5.24-1.46-7.05-3.39s-2.22-5.41-.14-7A14.1,14.1,0,0,0,245,116.3c-2.67-1.34-5.7-1.81-8.43-3s-5.31-3.6-5.35-6.59,3.9-5.59,6.11-3.58c-.75-4.45-8.75-4.13-9.77-8.52-.83-3.57,3.65-5.8,5.82-8.75-.58-1.22-1.92-1.93-2.54-3.13-1.29-2.52,1.22-5.32,3.67-6.72s5.48-2.88,5.89-5.68-2.24-5.86-.93-8.45a3.21,3.21,0,0,1,4.12-1.36c1.67-5.31,11.68-2.16,14.16-7.15a1.75,1.75,0,0,0-.34-2.25c-1.22-1.33-3-2-4.53-3s-2.84-2.76-2.32-4.49,3.72-1.92,3.82-.11a4,4,0,0,1,6.18,1.06c1.13-1.6,3.58-1.76,5.33-.89a12.53,12.53,0,0,1,4.17,4.09" style="fill:#263238"></path><path d="M299.38,102c-2.33-7.24-8.37-12.7-14.85-16.69-2.72-1.67-5.66-3.19-8.85-3.37s-6.65,1.28-8,4.18l1,5.25c.17,8.48,7.36,14.91,11.23,22.45,1.68,3.28,3.18,7.27,6.7,8.4a8,8,0,0,0,5.63-.62C299.14,118.4,301.71,109.22,299.38,102Z" style="fill:#9376C0"></path><path d="M304,140.8a17,17,0,0,0-4-21.44c2.64-4.23.85-10.09-2.72-13.57s-8.49-5.15-13.23-6.72c-3.76-11.07-17.41-17.6-28.39-13.59-6.87-8-19.56-7.9-29.27-3.83-2.37,1-4.71,2.19-7.27,2.47A42.72,42.72,0,0,1,213.5,84c-10.37-.21-19.69,8.13-22.59,18.09a18.88,18.88,0,0,1-1.66,4.68c-1.14,1.86-3,3.09-4.59,4.6a16.45,16.45,0,0,0-4.88,12.78c.29,4,2,8,.77,11.84-.63,1.9-2,3.53-2.42,5.49-1.26,5.66,5.41,10.55,4.94,16.33-.1,1.18-.5,2.32-.69,3.49a10.07,10.07,0,0,0,1.42,7c1,1.59,2.47,3,2.79,4.81.24,1.4-.23,2.81-.36,4.22-.3,3.46,8.47,15.65,11.6,17.16l87.31-9.16a16.41,16.41,0,0,0,11-15.47,6,6,0,0,1,.45-3.3,7,7,0,0,1,2.2-1.82c5.27-3.65,5.07-11.44,3.76-17.72a7.81,7.81,0,0,1-.26-2.67A10,10,0,0,1,304,140.8Z" style="fill:#263238"></path><path d="M279,144c-1.5-15.47-13.2-32.1-29.4-37.9-10.2-3.66-17.75-2.83-22.9-2.85a35.66,35.66,0,0,0-20.08,6.66c-4.68,1.68-20.46,19.82-19.38,37.43,1.2,19.56,3.44,43.39,7.55,57.59,8.26,28.54,31,29.46,31,29.46s1.82,26.22,1.82,26.22l53-5.6Z" style="fill:#ae7461"></path><path d="M241.51,193.28a5.78,5.78,0,0,0-2.23-3.4,5.88,5.88,0,0,0-7.15.09c-2,1.63-4,.59-3.43,3.4l1.88,3.59c1.33,1.58,2.33,3.17,4.4,3.2a7.7,7.7,0,0,0,1,0,6.44,6.44,0,0,0,4.2-2A5.72,5.72,0,0,0,241.51,193.28Z" style="fill:#6f4439"></path><path d="M202.54,171.12a3.76,3.76,0,0,0,4.08,3.31,3.6,3.6,0,0,0,3.43-3.84,3.76,3.76,0,0,0-4.07-3.32A3.6,3.6,0,0,0,202.54,171.12Z" style="fill:#263238"></path><path d="M195.34,157.45c.53.43,3.09-2,7.11-2.51s7.22,1.15,7.59.61c.19-.25-.39-1.07-1.79-1.84a10.29,10.29,0,0,0-6.15-1.09,10,10,0,0,0-5.59,2.61C195.4,156.33,195.09,157.26,195.34,157.45Z" style="fill:#263238"></path><path d="M222.82,186.25c0-.23-2.56-.35-6.68-.36-1,0-2-.06-2.29-.74s0-1.87.3-3.13c.66-2.6,1.34-5.33,2.06-8.19,2.83-11.65,4.74-21.18,4.27-21.29s-3.15,9.25-6,20.9c-.67,2.87-1.32,5.6-1.93,8.22-.24,1.22-.74,2.62,0,4.1a2.58,2.58,0,0,0,1.88,1.28,7.09,7.09,0,0,0,1.77,0C220.3,186.78,222.83,186.48,222.82,186.25Z" style="fill:#263238"></path><path d="M225.85,234.17a75,75,0,0,0,37.83-15.28s-7.82,21.82-37.31,22.73Z" style="fill:#6f4439"></path><path d="M195.92,146.78c.94.75,3.71-.79,7.26-1.56s6.71-.74,7.21-1.82c.21-.52-.45-1.33-1.94-1.91a11.53,11.53,0,0,0-11.66,2.72C195.72,145.39,195.49,146.41,195.92,146.78Z" style="fill:#263238"></path><path d="M244.74,166.73a3.77,3.77,0,0,1-3.29,4.1,3.6,3.6,0,0,1-4.16-3.05,3.77,3.77,0,0,1,3.28-4.1A3.62,3.62,0,0,1,244.74,166.73Z" style="fill:#263238"></path><path d="M250.53,152.17c-.43.53-3.45-1.33-7.48-1s-6.82,2.64-7.3,2.18c-.23-.2.16-1.12,1.37-2.17a10.3,10.3,0,0,1,5.79-2.35,9.79,9.79,0,0,1,6,1.38C250.24,151.08,250.74,151.93,250.53,152.17Z" style="fill:#263238"></path><path d="M248.45,136.29c-.72,1-3.91.31-7.66.59s-6.86,1.22-7.67.32c-.36-.43.06-1.39,1.37-2.38a12.21,12.21,0,0,1,12.35-.74C248.24,134.91,248.76,135.81,248.45,136.29Z" style="fill:#263238"></path><path d="M277.77,172c-.26-2.17,1.6-7.59,3.7-8.19,5.61-1.61,16-2.44,17.89,12.08,2.61,19.83-21.5,18.87-21.61,18.31S278.69,179.44,277.77,172Z" style="fill:#ae7461"></path><path d="M284.91,186c.08-.08.38.19,1,.38a3.47,3.47,0,0,0,2.59-.28c2-1.05,3.32-4.61,2.95-8.2a11.52,11.52,0,0,0-1.62-4.82,4,4,0,0,0-2.95-2.31A1.79,1.79,0,0,0,285,172c-.19.59,0,1-.11,1s-.47-.27-.42-1.11a2.2,2.2,0,0,1,.62-1.35,2.58,2.58,0,0,1,1.84-.75c1.55-.1,3.11,1.13,4,2.6a11.82,11.82,0,0,1,1.92,5.37c.4,4-1.15,8-3.91,9.23a3.72,3.72,0,0,1-3.23-.11C285,186.46,284.85,186,284.91,186Z" style="fill:#6f4439"></path><path d="M182.89,147.93c3.7-3,5.84-6.73,5-11.42,2.76.46,5-3.3,6.3-5.8s3-3.89,2.56-6.65a3.15,3.15,0,0,1,0-1.64c.31-.81,1.22-1.17,2-1.53a13.39,13.39,0,0,0,7.61-10.33,28.42,28.42,0,0,0,13.89.56,10.84,10.84,0,0,0,18.1-3.06,9.72,9.72,0,0,0,7,4,28.68,28.68,0,0,0,8.3-.57,11.47,11.47,0,0,0,9.09,12,2.81,2.81,0,0,1,2,.87,2.89,2.89,0,0,1,0,2.25,9,9,0,0,0,7.42,10.67c-2.93,2.92-1.87,8.7,1.91,10.39.77.35,1.78.76,1.77,1.61a1.9,1.9,0,0,1-.33.9c-1.23,2.15-2.44,4.47-2.31,7s2.12,5,4.59,4.82c-1.15,1.31-2.17,2.93-2,4.66s2.15,3.27,3.69,2.45c.65-.35,10.29-3.52,10.66-4.16,4.67-8.33-3.44-15.88-5.17-25.26s-6.17-18.14-11.92-25.76a45.58,45.58,0,0,0-8.23-8.7,60.3,60.3,0,0,0-11.92-6.68c-5.4-2.5-10.95-5-16.87-5.62-11-1.2-21.68,4.08-31.1,9.94a46.89,46.89,0,0,0-10,7.69c-3.42,3.72-5.7,8.33-7.61,13-2.76,6.75-4.86,13.93-4.67,21.22" style="fill:#263238"></path><path d="M178.13,141.47a7.64,7.64,0,0,1,.81-2.26c.34-.72.84-1.56,1.28-2.61a9.38,9.38,0,0,0,.66-3.85,29.65,29.65,0,0,0-.69-4.9,21.78,21.78,0,0,1-.57-5.92,16.7,16.7,0,0,1,1.84-6.57,16.41,16.41,0,0,1,2.1-3.12,24.47,24.47,0,0,1,2.85-2.71,12.58,12.58,0,0,0,2.7-3,16.37,16.37,0,0,0,1.42-4,26.81,26.81,0,0,1,10.85-15.13,23.79,23.79,0,0,1,4.56-2.39,21.55,21.55,0,0,1,5.14-1.23,24.28,24.28,0,0,1,2.7-.11c.91,0,1.81.1,2.71.15a12.76,12.76,0,0,0,5.3-.64c1.74-.57,3.4-1.43,5.18-2.11a34.42,34.42,0,0,1,5.51-1.68,34,34,0,0,1,5.81-.77,29.84,29.84,0,0,1,6,.36,19.69,19.69,0,0,1,10.81,5.37l.85.88-.33-.08A23.21,23.21,0,0,1,284.35,99l-.18-.18a62.75,62.75,0,0,1,7.42,2.82,21,21,0,0,1,6.3,4.39,13.74,13.74,0,0,1,3.43,6.53,9.45,9.45,0,0,1-1.08,6.95l-.06-.33A16.53,16.53,0,0,1,306,128.8a16.49,16.49,0,0,1-1.93,12.25,19.72,19.72,0,0,0-1.15,1.94,4.2,4.2,0,0,0-.47,2,11.91,11.91,0,0,0,.31,2.06,33.24,33.24,0,0,1,.71,7.56,16,16,0,0,1-1.25,6,9.8,9.8,0,0,1-2.7,3.6c-.94.8-1.81,1.17-2.27,1.6a4.28,4.28,0,0,0-.65.69,2.21,2.21,0,0,1,.6-.75c.45-.45,1.32-.85,2.23-1.66a9.78,9.78,0,0,0,2.58-3.57,15.63,15.63,0,0,0,1.17-5.9,33.41,33.41,0,0,0-.76-7.48,11.88,11.88,0,0,1-.33-2.12,4.57,4.57,0,0,1,.49-2.2,19.74,19.74,0,0,1,1.15-2,15.52,15.52,0,0,0,1-2.08,16.63,16.63,0,0,0,.79-9.87,16.06,16.06,0,0,0-5.69-9.33l-.17-.14.12-.19a9,9,0,0,0,1-6.58,13.12,13.12,0,0,0-3.3-6.27,20.54,20.54,0,0,0-6.16-4.26A64.17,64.17,0,0,0,284,99.34l-.13,0-.05-.14a22.64,22.64,0,0,0-28-13.39l-.18.06-.15-.15c-.28-.28-.55-.57-.83-.86a19.14,19.14,0,0,0-10.48-5.2,30.06,30.06,0,0,0-5.83-.36,34.68,34.68,0,0,0-11.13,2.4c-1.75.67-3.43,1.53-5.22,2.11a13.45,13.45,0,0,1-2.74.63,16,16,0,0,1-2.77,0c-.91,0-1.81-.13-2.69-.16a23,23,0,0,0-2.63.1,21,21,0,0,0-5,1.19,23.27,23.27,0,0,0-4.46,2.32A26.39,26.39,0,0,0,191,102.71a16.69,16.69,0,0,1-1.49,4.07,12.71,12.71,0,0,1-2.8,3.07,24,24,0,0,0-2.83,2.66A16.33,16.33,0,0,0,180,122a21.88,21.88,0,0,0,.52,5.84,28.25,28.25,0,0,1,.64,5,9.5,9.5,0,0,1-.72,3.92c-.47,1.06-1,1.89-1.34,2.59a11.43,11.43,0,0,0-.72,1.63C178.19,141.27,178.15,141.47,178.13,141.47Z" style="fill:#455a64"></path><path d="M245.83,82.26s-.56-.24-1.59-.6a13.52,13.52,0,0,0-4.48-.73,12.61,12.61,0,0,0-6.41,1.75,13.12,13.12,0,0,0-5.29,6.1,11.24,11.24,0,0,0-.71,2.37,2.51,2.51,0,0,0,.4,2.08l.57.61-.83-.13a8.31,8.31,0,0,0-6.05,1.48,8,8,0,0,0-2.92,4.09,8.79,8.79,0,0,0-.38,3.37c.07.8.18,1.22.14,1.24s-.06-.1-.13-.3a5.35,5.35,0,0,1-.21-.92,8.33,8.33,0,0,1,3.19-7.89,8.78,8.78,0,0,1,6.45-1.65l-.26.49a3,3,0,0,1-.56-2.56,11.15,11.15,0,0,1,.75-2.51,13.3,13.3,0,0,1,5.56-6.35,12.93,12.93,0,0,1,11.26-.76,10.14,10.14,0,0,1,1.14.56C245.71,82.15,245.84,82.24,245.83,82.26Z" style="fill:#455a64"></path><path d="M280.84,101.13a3.43,3.43,0,0,1-.61.79,13.16,13.16,0,0,1-2.06,1.84,9.66,9.66,0,0,1-3.81,1.67,7.17,7.17,0,0,1-5.12-.89l.43-.12c-.15.29-.32.58-.48.89s-.39.57-.58.86a12.5,12.5,0,0,1-9.25,4.86,10.89,10.89,0,0,1-3.21-.33,4.12,4.12,0,0,1-1.11-.42,17.45,17.45,0,0,0,4.29.33,12.59,12.59,0,0,0,4.45-1.25,11.9,11.9,0,0,0,4.34-3.55c.19-.28.39-.54.56-.82l.46-.83.16-.3.27.18a6.76,6.76,0,0,0,4.7.87,9.75,9.75,0,0,0,3.68-1.48C279.85,102.16,280.76,101.05,280.84,101.13Z" style="fill:#455a64"></path><path d="M293.58,118.27s0,.13,0,.37a3.73,3.73,0,0,1-.33,1,5.3,5.3,0,0,1-2.94,2.52,10.12,10.12,0,0,1-5.75.08,30.71,30.71,0,0,1-3.28-.86,5.43,5.43,0,0,1-3-2.16l-.17-.31.49.09a22.93,22.93,0,0,1-5.46,4.26,10.29,10.29,0,0,1-5.51,1.25,7.37,7.37,0,0,1-3.62-1.14,4.67,4.67,0,0,1-.81-.65c-.17-.17-.25-.26-.23-.28s.39.3,1.16.73a7.7,7.7,0,0,0,3.52.92,10.17,10.17,0,0,0,5.23-1.32,23.59,23.59,0,0,0,5.3-4.2l.28-.28.2.37.14.25a5,5,0,0,0,2.72,1.92c1.07.37,2.18.62,3.21.87a10.1,10.1,0,0,0,5.48.06,5.25,5.25,0,0,0,2.88-2.23A7.83,7.83,0,0,0,293.58,118.27Z" style="fill:#455a64"></path><path d="M306.19,44.75s-.34,0-.92.28a4.54,4.54,0,0,0-2,1.7,6.24,6.24,0,0,0-1,4A18.6,18.6,0,0,0,303.6,56l.12.31-.34,0a11.37,11.37,0,0,0-6.61,2.93,8.87,8.87,0,0,0-2.91,7.42,8.19,8.19,0,0,0,3.7,6.26l.73.44-.85.1a10.34,10.34,0,0,0-7.13,4.23,9.93,9.93,0,0,0-1.79,6.41,10.73,10.73,0,0,0,1.2,4.3c.5.94.87,1.39.83,1.42a1.76,1.76,0,0,1-.29-.31,7.08,7.08,0,0,1-.71-1,10.3,10.3,0,0,1-1.4-4.37,10.19,10.19,0,0,1,1.75-6.73A10.8,10.8,0,0,1,297.37,73l-.11.54a8.74,8.74,0,0,1-4-6.7,9,9,0,0,1,.65-4.43,10.25,10.25,0,0,1,2.47-3.47,11.78,11.78,0,0,1,7-3l-.21.34a17.79,17.79,0,0,1-1.34-5.48,6.47,6.47,0,0,1,1.2-4.17,4.51,4.51,0,0,1,2.23-1.67,3,3,0,0,1,.72-.15C306.11,44.73,306.19,44.74,306.19,44.75Z" style="fill:#455a64"></path><path d="M346.9,83.45a1.36,1.36,0,0,1-.31.23,8.06,8.06,0,0,1-.93.58,14.38,14.38,0,0,1-3.89,1.4,15.94,15.94,0,0,1-6.33,0,15.22,15.22,0,0,1-7.24-3.56l.45-.1a12.74,12.74,0,0,1-8.19,7.23,9.66,9.66,0,0,1-10.53-4l.51-.09a8.09,8.09,0,0,1-2,3.67,11,11,0,0,1-3,2.24,14.54,14.54,0,0,1-6,1.37,28.83,28.83,0,0,1-4-.15,7.38,7.38,0,0,1-1.4-.21,10,10,0,0,1,1.41,0,36.91,36.91,0,0,0,3.95,0,14.65,14.65,0,0,0,5.78-1.45A8.64,8.64,0,0,0,309.89,85l.16-.69.35.61a9.12,9.12,0,0,0,9.91,3.75,12.27,12.27,0,0,0,7.83-6.87l.16-.35.28.26a14.89,14.89,0,0,0,6.95,3.52,16,16,0,0,0,6.17.11A18.53,18.53,0,0,0,346.9,83.45Z" style="fill:#455a64"></path><path d="M329.62,115.05s0,.16-.19.39a2,2,0,0,1-1.06.64,9.2,9.2,0,0,1-4.48-.19,10.88,10.88,0,0,1-5.57-3.6,11.17,11.17,0,0,1-2.43-7.72v-.07l.47.28a13,13,0,0,1-7.82,2.07,14.46,14.46,0,0,1-6.35-1.87,15.61,15.61,0,0,1-3.56-2.69,5.83,5.83,0,0,1-1.05-1.24,24.33,24.33,0,0,0,4.81,3.56,14.42,14.42,0,0,0,6.17,1.68,12.65,12.65,0,0,0,7.47-2l.5-.34,0,.61v.06A10.55,10.55,0,0,0,324,115.48a9.61,9.61,0,0,0,4.3.37A2,2,0,0,0,329.62,115.05Z" style="fill:#455a64"></path><path d="M262.87,50.78a16.75,16.75,0,0,0-.15,6.21,13.47,13.47,0,0,0,9.39,10.64,13.63,13.63,0,0,0,4.68.61h.37l-.07.36a17.65,17.65,0,0,0,.06,6.5A17.88,17.88,0,0,0,278.9,80a12.35,12.35,0,0,0,1,1.68,1.52,1.52,0,0,0,1.15.68,1,1,0,0,0,.77-.35c.12-.15.13-.27.16-.27s0,.13-.08.33a1.08,1.08,0,0,1-.84.49,1.71,1.71,0,0,1-1.39-.69,12.55,12.55,0,0,1-1.13-1.68,17.62,17.62,0,0,1-1.92-5,17.43,17.43,0,0,1-.13-6.71l.3.35a13.85,13.85,0,0,1-14.53-11.77,13.81,13.81,0,0,1,.08-4.65,8.55,8.55,0,0,1,.33-1.22C262.79,50.91,262.85,50.77,262.87,50.78Z" style="fill:#455a64"></path><path d="M232.72,199.17c.06-.1.47.06,1.2.26a7.9,7.9,0,0,0,3.06.26,5.34,5.34,0,0,0,3.67-2.11,4.45,4.45,0,0,0,.87-2.27,6,6,0,0,0-.52-2.65,9.76,9.76,0,0,0-1.45-2.41,3,3,0,0,0-2-1,5.19,5.19,0,0,0-2.25.34c-.66.25-1.4.65-2,.91-2.55,1.11-4.05,1.88-4.17,1.73s1.23-1.34,3.67-2.71c.63-.34,1.2-.73,2-1.13a6.13,6.13,0,0,1,2.85-.57,4.41,4.41,0,0,1,3,1.42,10.59,10.59,0,0,1,1.77,2.86,7.11,7.11,0,0,1,.6,3.38,5.71,5.71,0,0,1-1.25,3,6.26,6.26,0,0,1-4.72,2.33,6.8,6.8,0,0,1-3.38-.8C233,199.59,232.67,199.25,232.72,199.17Z" style="fill:#263238"></path></g><g id="freepik--food-2--inject-357"><path d="M337.05,441.89l-13.5,24.29s80,3.79,110.47,0l-14.37-24.29Z" style="fill:#e0e0e0"></path><g style="opacity:0.30000000000000004"><path d="M412.13,447.79a5.68,5.68,0,0,0-3.38-.74c-11.51-.06-23.18-.06-34.31,2.69-2.78.69-5.58,1.56-8.45,1.47-3.08-.1-6.12-1.3-9.17-.9-2.37.31-4.64,1.57-7,1.24a8.53,8.53,0,0,0-3-.34c-1,.22-1.65,1.6-.79,2.1l1.08,5.77a7.76,7.76,0,0,0,6.2,4.36,8.06,8.06,0,0,0,7.08-2.95,10.45,10.45,0,0,0,8.33,5.05,10.67,10.67,0,0,0,9-4c3.1,2.37,6.9,4.19,10.9,4.18s8.16-2.21,9.39-5.78a3.47,3.47,0,0,1,.72-1.48,3.7,3.7,0,0,1,2.69-.56,13.71,13.71,0,0,0,10.14-4.28,6,6,0,0,0,1.62-2.87A3,3,0,0,0,412.13,447.79Z"></path></g><path d="M426.07,439.94v.9l-104.85-.19a.93.93,0,0,1-1-.89h0a.93.93,0,0,1,1-.9Z" style="fill:#ae7461"></path><path d="M389,455.06c4.24-.09,6.29-3.95,7.77-7.32,2,3.25,4.91,6.67,9.29,6.06a7.9,7.9,0,0,0,4.17-2,14.7,14.7,0,0,0,3.88-6.38,11.56,11.56,0,0,0-.11-8.25,12.26,12.26,0,0,0-3.41-4.69c-1.5-1.27-3.89-2.15-5.46-1s-.39,7.58-.39,7.58-1.69-3.1-2.23-3.91a22,22,0,0,0-1.92-2.38c-1.64-1.76-4.77-1.73-6.81-.39a8.91,8.91,0,0,0-3.57,5.93,20,20,0,0,0-2.35-6.1,7.68,7.68,0,0,0-5.52-3.59,7.88,7.88,0,0,0-6.54,3.11,17.35,17.35,0,0,0-3.32,5.72s-.83-3.77-1.27-6.06-1.41-4.71-3.54-5.92a5.87,5.87,0,0,0-6.83.94c-1.68,1.73-1.39,4.32-.3,6.45a9,9,0,0,0-4.75-.26,3.62,3.62,0,0,0-1.13.56c-1.71,1.31-1.21,3.31-.5,4.94A27.39,27.39,0,0,0,367,451.53c2.06,1,4.53,1.85,6.69,1s3-2.41,4.16-4.22a31.35,31.35,0,0,0,2.75-6.23c.21,3.82.46,7.82,3.39,10.83A6.94,6.94,0,0,0,389,455.06Z" style="fill:#ffbe9d"></path><path d="M375.82,431.8c.54-1.59,4-3.33,6.54-3.11a7.68,7.68,0,0,1,5.52,3.59,20,20,0,0,1,2.35,6.11,9,9,0,0,1,3.57-5.94c2-1.33,5.17-1.36,6.81.39a23,23,0,0,1,1.92,2.38c.54.82,2.23,3.92,2.23,3.92s-1.22-6.38.39-7.59,4-.31,5.46,1A12.15,12.15,0,0,1,414,437.2a11.56,11.56,0,0,1,.11,8.25,14.64,14.64,0,0,1-3.88,6.38,8,8,0,0,1-4.17,2c-4.38.6-7.28-2.82-9.29-6.07-1.48,3.38-3.53,7.23-7.77,7.32a6.94,6.94,0,0,1-5.07-2.14c-2.93-3-3.18-7-3.39-10.82a31.12,31.12,0,0,1-2.75,6.22c-1.13,1.81-2.09,3.42-4.16,4.23,0,0-1.62-.75,0-2.88s3.39-4.09,3.14-5-3.16.87-3-1.8a5.75,5.75,0,0,1,1.52-3.91,1.16,1.16,0,0,1-1.26-1.53,5.56,5.56,0,0,1,2.27-2.8S374.89,434.54,375.82,431.8Z" style="fill:#9376C0"></path><path d="M360.37,432.65a2.11,2.11,0,0,1,.21.3l.6.89c.52.79,1.29,2,2.33,3.39a43.64,43.64,0,0,0,4.06,5,6.11,6.11,0,0,0,3.24,2,3.86,3.86,0,0,0,2-.2,3.6,3.6,0,0,0,1.61-1.38h0c1.24-1.74,2.29-3.8,3.63-5.85a9.37,9.37,0,0,1,1.16-1.49,3.15,3.15,0,0,1,1.83-.83,4.3,4.3,0,0,1,3.71,1.43,5.92,5.92,0,0,1,1.25,4,26.84,26.84,0,0,1-.54,4.19,8.08,8.08,0,0,0,.22,4.12,3.37,3.37,0,0,0,1.23,1.6,2.56,2.56,0,0,0,1.92.4,3,3,0,0,0,1.77-1.61,17.41,17.41,0,0,0,1.13-2.34c.65-1.59.94-3.3,1.52-4.92a13.67,13.67,0,0,1,1.07-2.33,5.19,5.19,0,0,1,1.68-1.93,2.78,2.78,0,0,1,2.53-.32,3.15,3.15,0,0,1,1.7,1.81,9.83,9.83,0,0,1,.51,2.3c.11.75.22,1.49.32,2.22.21,1.46.42,2.87.62,4.24.08.67.41,1.21,1,1.24a4.86,4.86,0,0,0,1.82-.35,6.62,6.62,0,0,0,2.82-2.15,8.23,8.23,0,0,0,1.52-5.88,15.78,15.78,0,0,0-1.22-4.58c-.5-1.21-1-2.13-1.27-2.75-.13-.29-.25-.52-.34-.71a1.23,1.23,0,0,1-.1-.25,1,1,0,0,1,.15.23l.39.68c.33.61.82,1.51,1.36,2.72a15.61,15.61,0,0,1,1.32,4.63,8.53,8.53,0,0,1-1.52,6.14,7.06,7.06,0,0,1-3,2.29,4.87,4.87,0,0,1-2,.39,1.41,1.41,0,0,1-1-.53,2.37,2.37,0,0,1-.41-1c-.2-1.37-.42-2.79-.64-4.25l-.33-2.22a9.82,9.82,0,0,0-.49-2.19,2.73,2.73,0,0,0-1.44-1.54,2.27,2.27,0,0,0-2.08.29,4.84,4.84,0,0,0-1.52,1.76,13.84,13.84,0,0,0-1,2.25c-.56,1.57-.85,3.29-1.52,4.95a19.71,19.71,0,0,1-1.16,2.41,6,6,0,0,1-.84,1.12,2.5,2.5,0,0,1-1.27.73,3.1,3.1,0,0,1-2.32-.48,3.91,3.91,0,0,1-1.42-1.83A8.48,8.48,0,0,1,385,444a28.75,28.75,0,0,0,.54-4.12,5.5,5.5,0,0,0-1.12-3.63,3.84,3.84,0,0,0-3.29-1.28,2.7,2.7,0,0,0-1.56.7,9.15,9.15,0,0,0-1.1,1.41c-1.33,2-2.4,4.06-3.68,5.84l0,0a4,4,0,0,1-1.83,1.54,4.17,4.17,0,0,1-2.25.21,4.27,4.27,0,0,1-1.95-.86,11.71,11.71,0,0,1-1.47-1.31,41.34,41.34,0,0,1-4-5.09c-1-1.46-1.75-2.64-2.24-3.45l-.55-.93A1.16,1.16,0,0,1,360.37,432.65Z" style="fill:#ff9a6c"></path><path d="M396.51,440.78a28.73,28.73,0,0,0-.23,3.83,28,28,0,0,0,.79,3.75,6.12,6.12,0,0,1-1.31-3.71A6.05,6.05,0,0,1,396.51,440.78Z" style="fill:#263238"></path><path d="M389.44,443.46a11.87,11.87,0,0,1,.77-5.66,23.07,23.07,0,0,1-.77,5.66Z" style="fill:#263238"></path><path d="M404.8,438.89a5.76,5.76,0,0,1,1,2.21,5.67,5.67,0,0,1,.51,2.36,11.11,11.11,0,0,1-1.52-4.57Z" style="fill:#263238"></path><path d="M381.05,438.94c.14,0,0,.9-.18,1.94s-.35,1.9-.49,1.89-.22-.9,0-2S380.91,438.89,381.05,438.94Z" style="fill:#263238"></path><path d="M371.38,441a5,5,0,0,1,.27-1.91c.24-1,.73-1.83.86-1.75a6.11,6.11,0,0,1-.35,1.88C371.92,440.25,371.52,441.06,371.38,441Z" style="fill:#263238"></path><path d="M371.35,445.19a1.27,1.27,0,1,1-1.35,1.27A1.31,1.31,0,0,1,371.35,445.19Z" style="fill:#9376C0"></path><path d="M326.18,452v-.87l101.81.19a.9.9,0,0,1,.93.86h0a.9.9,0,0,1-.94.87Z" style="fill:#ae7461"></path><path d="M362.16,437.36c-4.12.09-6.12,3.83-7.55,7.11-1.95-3.15-4.77-6.48-9-5.89a7.69,7.69,0,0,0-4,1.94,14.24,14.24,0,0,0-3.77,6.19,11.31,11.31,0,0,0,.1,8,11.93,11.93,0,0,0,3.32,4.55c1.45,1.23,3.77,2.09,5.3.93s.38-7.36.38-7.36,1.64,3,2.17,3.8A21.88,21.88,0,0,0,350.9,459c1.59,1.71,4.63,1.67,6.61.38a8.7,8.7,0,0,0,3.47-5.77,19.77,19.77,0,0,0,2.28,5.94,7.5,7.5,0,0,0,5.36,3.48,7.64,7.64,0,0,0,6.35-3,16.92,16.92,0,0,0,3.22-5.56s.82,3.66,1.24,5.89,1.37,4.57,3.44,5.75a5.72,5.72,0,0,0,6.63-.91c1.63-1.69,1.35-4.2.29-6.27a8.81,8.81,0,0,0,4.61.26,3.44,3.44,0,0,0,1.1-.55c1.66-1.27,1.17-3.21.49-4.8a26.57,26.57,0,0,0-12.41-13c-2-1-4.4-1.79-6.5-1s-2.94,2.34-4,4.1a30.53,30.53,0,0,0-2.67,6c-.2-3.7-.45-7.59-3.3-10.51A6.72,6.72,0,0,0,362.16,437.36Z" style="fill:#ffbe9d"></path><path d="M375,460c-.52,1.54-3.88,3.24-6.35,3a7.48,7.48,0,0,1-5.36-3.49,19.61,19.61,0,0,1-2.28-5.93,8.65,8.65,0,0,1-3.47,5.76c-2,1.3-5,1.33-6.61-.37a23,23,0,0,1-1.86-2.31c-.53-.8-2.17-3.8-2.17-3.8s1.18,6.19-.38,7.36-3.85.3-5.3-.94a11.78,11.78,0,0,1-3.32-4.55,11.28,11.28,0,0,1-.1-8,14.19,14.19,0,0,1,3.77-6.19,7.69,7.69,0,0,1,4-1.94c4.25-.59,7.07,2.73,9,5.89,1.43-3.28,3.43-7,7.55-7.11a6.72,6.72,0,0,1,4.91,2.08c2.85,2.92,3.1,6.8,3.3,10.51a30.76,30.76,0,0,1,2.67-6.05c1.1-1.75,2-3.32,4-4.1,0,0,1.57.72,0,2.8s-3.3,4-3.05,4.86,3.07-.86,3,1.74a5.53,5.53,0,0,1-1.48,3.8s1.6-.09,1.23,1.48a5.42,5.42,0,0,1-2.21,2.72S375.87,457.29,375,460Z" style="fill:#9376C0"></path><path d="M390,459.12s-.08-.09-.21-.29l-.58-.86c-.51-.77-1.26-1.89-2.27-3.29a42.34,42.34,0,0,0-3.94-4.84,6,6,0,0,0-3.14-2,3.74,3.74,0,0,0-2,.19,3.55,3.55,0,0,0-1.57,1.33v0h0c-1.2,1.7-2.23,3.69-3.53,5.69a8.76,8.76,0,0,1-1.13,1.45,3.15,3.15,0,0,1-1.77.81,4.2,4.2,0,0,1-3.62-1.4,5.77,5.77,0,0,1-1.21-3.84,26.62,26.62,0,0,1,.52-4.08,7.85,7.85,0,0,0-.21-4,3.2,3.2,0,0,0-1.19-1.54,2.5,2.5,0,0,0-1.86-.39,3,3,0,0,0-1.72,1.55,19.06,19.06,0,0,0-1.09,2.28c-.63,1.54-.92,3.2-1.47,4.78a13.64,13.64,0,0,1-1,2.26,5.19,5.19,0,0,1-1.64,1.88,2.72,2.72,0,0,1-2.46.31,3.08,3.08,0,0,1-1.66-1.76,9.3,9.3,0,0,1-.49-2.24c-.11-.73-.21-1.45-.32-2.16-.2-1.41-.4-2.79-.59-4.11-.09-.66-.4-1.17-1-1.2A4.55,4.55,0,0,0,347,444a6.53,6.53,0,0,0-2.74,2.08,8,8,0,0,0-1.48,5.71,15.14,15.14,0,0,0,1.19,4.45c.49,1.17.93,2.06,1.22,2.67q.21.42.33.69a.76.76,0,0,1,.1.24s0-.07-.14-.22l-.38-.66c-.32-.6-.8-1.47-1.32-2.64a15.11,15.11,0,0,1-1.29-4.5,8.28,8.28,0,0,1,1.48-6,6.72,6.72,0,0,1,2.88-2.23,4.67,4.67,0,0,1,2-.38,1.36,1.36,0,0,1,1,.51,2.25,2.25,0,0,1,.39,1l.63,4.13c.1.7.21,1.42.32,2.15a9.2,9.2,0,0,0,.47,2.12,2.62,2.62,0,0,0,1.4,1.5,2.21,2.21,0,0,0,2-.28,4.73,4.73,0,0,0,1.47-1.71,12.68,12.68,0,0,0,1-2.18c.53-1.52.82-3.19,1.47-4.81a18.61,18.61,0,0,1,1.13-2.34,5.6,5.6,0,0,1,.81-1.09,2.35,2.35,0,0,1,1.24-.71,3.08,3.08,0,0,1,2.26.46,3.78,3.78,0,0,1,1.38,1.79,8.3,8.3,0,0,1,.24,4.27,27.3,27.3,0,0,0-.53,4,5.3,5.3,0,0,0,1.09,3.52,3.67,3.67,0,0,0,3.18,1.24,2.62,2.62,0,0,0,1.51-.67,8,8,0,0,0,1.07-1.37c1.29-1.95,2.33-3.95,3.58-5.67l0,0a3.83,3.83,0,0,1,1.78-1.49,4,4,0,0,1,2.19-.2,4.05,4.05,0,0,1,1.89.83,10.42,10.42,0,0,1,1.43,1.28,41.21,41.21,0,0,1,3.9,4.93c1,1.43,1.69,2.58,2.17,3.36l.53.9A2.37,2.37,0,0,1,390,459.12Z" style="fill:#ff9a6c"></path><path d="M354.88,451.23a30.35,30.35,0,0,0,.22-3.72,32.6,32.6,0,0,0-.76-3.64,7.29,7.29,0,0,1,.54,7.36Z" style="fill:#263238"></path><path d="M361.75,448.62a11.54,11.54,0,0,1-.75,5.5,8.73,8.73,0,0,1,.19-2.77A8.85,8.85,0,0,1,361.75,448.62Z" style="fill:#263238"></path><path d="M346.83,453.06c-.14.05-.58-.91-1-2.14a5.71,5.71,0,0,1-.49-2.3,5.46,5.46,0,0,1,1,2.14A5.38,5.38,0,0,1,346.83,453.06Z" style="fill:#263238"></path><path d="M369.89,453c-.14,0,0-.88.17-1.89s.34-1.84.49-1.84.21.88,0,1.93S370,453.06,369.89,453Z" style="fill:#263238"></path><path d="M379.28,451c.13.05,0,.84-.26,1.85s-.7,1.77-.83,1.7.1-.83.33-1.83S379.14,451,379.28,451Z" style="fill:#263238"></path><path d="M379.31,446.94a1.23,1.23,0,1,1,1.31-1.22A1.27,1.27,0,0,1,379.31,446.94Z" style="fill:#9376C0"></path><path d="M323.55,466.18s17.91,4.33,28.68,4.46,53.66,0,53.66,0,17.52-1.72,28.13-4.46A949,949,0,0,1,323.55,466.18Z" style="fill:#e0e0e0"></path><path d="M351.28,470.61a20,20,0,0,1,0,3.46h54.61v-4.4Z" style="fill:#e0e0e0"></path><path d="M434,466.18l-.29.05-.83.09-3.21.31c-2.78.28-6.82.56-11.82.89-10,.61-23.81,1-39.08,1s-29.09-.6-39.09-1.15c-5-.27-9-.55-11.82-.76l-3.21-.27-.84-.09-.28,0a.81.81,0,0,1,.29,0l.84,0,3.21.18,11.83.59c10,.46,23.81.93,39.07,1s29.08-.31,39.06-.82c5-.28,9-.51,11.83-.72l3.21-.22.84,0Z" style="fill:#263238"></path><path d="M405.89,470.92c0,.15-12.22.26-27.3.26s-27.31-.11-27.31-.26,12.22-.26,27.31-.26S405.89,470.78,405.89,470.92Z" style="fill:#263238"></path></g><g id="freepik--food-1--inject-357"><path d="M262.09,426.14s-10.56,2.31-15.12-11.31-1.62-25.25,7.81-26.43,11.63,3.8,12.94,7.35,4.5,11.54,4.19,18.22C271.74,417.74,268.39,425.28,262.09,426.14Z" style="fill:#9376C0"></path><g style="opacity:0.30000000000000004"><path d="M260.75,418a9.54,9.54,0,0,0,5.19-3.46l-.06.07.09-.1.19-.21a4,4,0,0,0,.32-.48l.11-.13-.1.11a10.55,10.55,0,0,0,1.33-5,10.9,10.9,0,0,0-.27-3.12,4.22,4.22,0,0,0-1.72-2.52,3.76,3.76,0,0,0-3.33-.23,5.47,5.47,0,0,0-2.56,2.24c-.56.91-.9,1.94-1.43,2.87a4.1,4.1,0,0,1-2.33,2.09c-.85.23-1.77,0-2.64.19a3.2,3.2,0,0,0-2.5,3.37A4.76,4.76,0,0,0,253.6,417,9.6,9.6,0,0,0,260.75,418Z"></path></g><g style="opacity:0.30000000000000004"><path d="M257.41,390.3a9.65,9.65,0,0,0-6,1.89l.06-.07-.08.1a1.37,1.37,0,0,1-.23.17l-.44.38-.11.12.1-.1a10.48,10.48,0,0,0-2.66,4.47,10.94,10.94,0,0,0-.61,3.06,4.26,4.26,0,0,0,1,2.9,3.79,3.79,0,0,0,3.14,1.13,5.48,5.48,0,0,0,3.07-1.46c.79-.72,1.41-1.61,2.17-2.36a4.13,4.13,0,0,1,2.79-1.39c.88,0,1.72.47,2.59.55a3.22,3.22,0,0,0,3.33-2.56,4.71,4.71,0,0,0-1.54-3.92A9.57,9.57,0,0,0,257.41,390.3Z"></path></g><g style="opacity:0.30000000000000004"><path d="M255.1,405.5a3.17,3.17,0,0,0-1.19.05l-2.39.4a2.07,2.07,0,0,0-1.63.85,1,1,0,0,0,.2,1.15,1.38,1.38,0,0,0,1.11.39h-.1a7.38,7.38,0,0,0,3.69-.53,2.59,2.59,0,0,0,.88-.58,1.06,1.06,0,0,0,.28-1A1.09,1.09,0,0,0,255.1,405.5Z"></path></g><path d="M248.6,393.65s-.37.71-.88,1.87a18.25,18.25,0,0,0-1.35,9.68c.17,1.26.37,2,.32,2a2,2,0,0,1-.19-.53,10.59,10.59,0,0,1-.34-1.48,16.46,16.46,0,0,1,1.37-9.8,11.53,11.53,0,0,1,.74-1.33A1.58,1.58,0,0,1,248.6,393.65Z" style="fill:#fff"></path><path d="M251.86,390.76c.06.05-.31.42-.79.78s-.92.6-1,.54.3-.41.78-.78S251.81,390.69,251.86,390.76Z" style="fill:#fff"></path><path d="M249.9,417.49a2.82,2.82,0,0,1-1-1.3,2.91,2.91,0,0,1-.43-1.58,10.11,10.11,0,0,1,.69,1.45A10.27,10.27,0,0,1,249.9,417.49Z" style="fill:#fff"></path><path d="M185.68,429.11s2.22,45,64.45,45c58.9,0,60.57-45,60.57-45Z" style="fill:#9376C0"></path><ellipse cx="248.19" cy="429.11" rx="62.51" ry="5.89" style="fill:#9376C0"></ellipse><ellipse cx="248.09" cy="429.11" rx="56.98" ry="4.06" style="opacity:0.30000000000000004"></ellipse><path d="M229.38,400.62a7.78,7.78,0,0,0-4.29,8.87c1,4.5,4.54,11.78,15.85,17.2,15.79,7.57,19.5-7.26,19.5-7.26s2.73-9.89-9.27-16.49C244.22,399.1,235.06,398,229.38,400.62Z" style="fill:#fff"></path><path d="M229.38,400.62l.24-.13.71-.31a14.93,14.93,0,0,1,2.87-.8,26.27,26.27,0,0,1,10.91.59,31.37,31.37,0,0,1,7.08,2.74,21.68,21.68,0,0,1,6.73,5.53,16,16,0,0,1,2.27,4.17,13.64,13.64,0,0,1,.76,4.9,9.31,9.31,0,0,1-.37,2.55,15.21,15.21,0,0,1-1,2.4,13.87,13.87,0,0,1-3.22,4.19,11.91,11.91,0,0,1-2.22,1.51,10.9,10.9,0,0,1-2.51.84,13.28,13.28,0,0,1-5.14,0c-.82-.16-1.62-.42-2.42-.63s-1.52-.6-2.28-.89a22.42,22.42,0,0,1-2.16-1c-.71-.35-1.38-.74-2-1.13-5.32-3.09-9.28-7.32-11.23-11.57a20.09,20.09,0,0,1-1.17-3.1,9.44,9.44,0,0,1-.45-2.94,8,8,0,0,1,1.51-4.47,7.77,7.77,0,0,1,2.2-2,4.44,4.44,0,0,1,.93-.46s-.31.17-.87.55a7.69,7.69,0,0,0-3.48,6.39,9.2,9.2,0,0,0,.48,2.84,20.73,20.73,0,0,0,1.18,3.05c2,4.14,5.88,8.27,11.14,11.3.66.38,1.32.77,2,1.11a17.93,17.93,0,0,0,2.13,1c.74.28,1.46.66,2.23.87s1.56.46,2.36.61a12.83,12.83,0,0,0,4.94,0,11.38,11.38,0,0,0,2.39-.8,12,12,0,0,0,2.11-1.45,13.34,13.34,0,0,0,3.1-4,14.5,14.5,0,0,0,1-2.31,9.3,9.3,0,0,0,.35-2.41,13.07,13.07,0,0,0-.72-4.72,15.46,15.46,0,0,0-2.18-4.05,21.38,21.38,0,0,0-6.56-5.44,31.45,31.45,0,0,0-7-2.76,26.91,26.91,0,0,0-10.78-.75A19.48,19.48,0,0,0,229.38,400.62Z" style="fill:#263238"></path><path d="M241,420.53c-2.49-4.24-1.3-9.56,2.66-11.89s9.18-.78,11.68,3.45,1.3,9.56-2.66,11.89S243.52,424.76,241,420.53Z" style="fill:#9376C0"></path><path d="M248.25,423.51a8.85,8.85,0,0,0,4.84-1.44,2.14,2.14,0,0,1-.58.5,6.22,6.22,0,0,1-3.5,1A2.21,2.21,0,0,1,248.25,423.51Z" style="fill:#fff"></path><path d="M272.57,422.21s-2.3-10.56,11.32-15.12,25.24-1.62,26.43,7.81-3.8,11.63-7.36,12.93-11.54,4.51-18.21,4.19C281,431.86,273.44,428.5,272.57,422.21Z" style="fill:#9376C0"></path><g style="opacity:0.30000000000000004"><path d="M280.75,420.87a9.58,9.58,0,0,0,3.46,5.19l-.07-.06.1.09.21.19a3.34,3.34,0,0,0,.48.32l.12.11-.1-.1a12,12,0,0,0,8.15,1.05,4.17,4.17,0,0,0,2.52-1.71,3.79,3.79,0,0,0,.23-3.33,5.52,5.52,0,0,0-2.24-2.56c-.91-.56-1.94-.9-2.87-1.43a4.1,4.1,0,0,1-2.09-2.33c-.23-.85,0-1.77-.19-2.64a3.2,3.2,0,0,0-3.37-2.5,4.7,4.7,0,0,0-3.34,2.56A9.6,9.6,0,0,0,280.75,420.87Z"></path></g><g style="opacity:0.30000000000000004"><path d="M308.42,417.53a9.59,9.59,0,0,0-1.9-6l.08.06-.1-.08a2.31,2.31,0,0,1-.18-.23c-.12-.15-.24-.3-.37-.44l-.12-.11.1.1a10.48,10.48,0,0,0-4.47-2.66,11,11,0,0,0-3.06-.61,4.26,4.26,0,0,0-2.9,1,3.78,3.78,0,0,0-1.13,3.14,5.47,5.47,0,0,0,1.45,3.07c.73.79,1.62,1.41,2.37,2.17a4.08,4.08,0,0,1,1.38,2.79c0,.88-.46,1.71-.54,2.59a3.21,3.21,0,0,0,2.56,3.33,4.7,4.7,0,0,0,3.91-1.54A9.58,9.58,0,0,0,308.42,417.53Z"></path></g><g style="opacity:0.30000000000000004"><path d="M293.22,415.22a3.4,3.4,0,0,0-.05-1.19l-.4-2.39a2.06,2.06,0,0,0-.85-1.63,1,1,0,0,0-1.15.19,1.41,1.41,0,0,0-.39,1.12v-.1a7.38,7.38,0,0,0,.53,3.69,2.46,2.46,0,0,0,.58.88,1.05,1.05,0,0,0,1,.28A1.12,1.12,0,0,0,293.22,415.22Z"></path></g><path d="M305.07,408.71s-.71-.36-1.87-.87a18.37,18.37,0,0,0-9.69-1.36c-1.25.17-2,.38-2,.33a2,2,0,0,1,.53-.19,10.45,10.45,0,0,1,1.47-.34,16.48,16.48,0,0,1,9.81,1.37,11.53,11.53,0,0,1,1.33.74A2,2,0,0,1,305.07,408.71Z" style="fill:#fff"></path><path d="M308,412c0,.06-.42-.31-.78-.79s-.61-.92-.54-1,.41.3.78.78S308,411.93,308,412Z" style="fill:#fff"></path><path d="M281.23,410a2.79,2.79,0,0,1,1.29-1,3,3,0,0,1,1.59-.43,10.11,10.11,0,0,1-1.45.69A10.27,10.27,0,0,1,281.23,410Z" style="fill:#fff"></path><path d="M285.62,417.26a28.48,28.48,0,0,0-18.64-4c-4.62.71-8.58,2.72-12.1,4.48l-1.89,1c-3,1.44-6.76,3-10.05,2.59a22,22,0,0,1-6-2.2c-1.32-.59-2.64-1.24-4.08-1.79-13.44-5.09-30.79,1.8-38.16,13.19l6,.77,15.69,1.22c.55.05,1.09.07,1.64.07,4.32,0,24,.51,34.94.58,12.31.07,27.26-.7,27.26-.7l12.52-.83,7.58-1C297.67,427.42,291.25,420.58,285.62,417.26Z" style="fill:#ffbe9d"></path><path d="M282.37,415.47a1.73,1.73,0,0,1-.44-.14c-.29-.09-.7-.26-1.25-.43a31.69,31.69,0,0,0-4.72-1.2,30.19,30.19,0,0,0-7.23-.37,27,27,0,0,0-4.22.6,24.81,24.81,0,0,0-4.33,1.38c-2.87,1.2-5.34,2.8-7.78,4a20.72,20.72,0,0,1-6.93,2.14,10.52,10.52,0,0,1-4.85-.68,10.88,10.88,0,0,1-1.2-.56,3,3,0,0,1-.38-.24s.56.29,1.63.68a10.6,10.6,0,0,0,4.78.6,21,21,0,0,0,6.8-2.16c2.41-1.17,4.88-2.79,7.78-4a24.48,24.48,0,0,1,4.4-1.39,27.74,27.74,0,0,1,4.28-.6,29.93,29.93,0,0,1,7.26.44,29.49,29.49,0,0,1,4.73,1.28c.54.19.94.38,1.23.49A2.48,2.48,0,0,1,282.37,415.47Z" style="fill:#263238"></path><path d="M264.64,414.72c0,.1-1.32.32-2.78.91s-2.57,1.3-2.64,1.2a8.81,8.81,0,0,1,5.41-2.13Z" style="fill:#fff"></path><path d="M220.75,416.57a16.31,16.31,0,0,1-2.5.42,17.41,17.41,0,0,1-2.51.33,7.64,7.64,0,0,1,2.46-.64A8.08,8.08,0,0,1,220.75,416.57Z" style="fill:#fff"></path><path d="M220.75,419.91a2.59,2.59,0,0,1-1.16.29,2.67,2.67,0,0,1-1.19,0,2.57,2.57,0,0,1,1.15-.29C220.2,419.83,220.73,419.82,220.75,419.91Z" style="fill:#fff"></path><path d="M295.19,430.48s-.08-.05-.2-.18l-.56-.58c-.49-.51-1.2-1.27-2.15-2.22a51.23,51.23,0,0,0-8.71-7.2,23.65,23.65,0,0,0-7.11-3.09,23.35,23.35,0,0,0-8.85-.5A18.62,18.62,0,0,0,263,418a45.55,45.55,0,0,0-4.5,2.3,33.31,33.31,0,0,1-4.77,2.29,23.25,23.25,0,0,1-5.33,1.25,23.5,23.5,0,0,1-10.63-1.28c-3.27-1.18-6.24-2.72-9.32-3.37a23.32,23.32,0,0,0-8.87-.16,28.43,28.43,0,0,0-7.4,2.34,37.46,37.46,0,0,0-9.27,6.42c-1,.91-1.71,1.66-2.2,2.16l-.56.58-.2.18a1.25,1.25,0,0,1,.16-.22l.52-.61c.47-.53,1.18-1.3,2.14-2.24A36.05,36.05,0,0,1,212,421a28.15,28.15,0,0,1,7.49-2.43,23.57,23.57,0,0,1,9,.11c3.16.66,6.17,2.2,9.39,3.36a23.08,23.08,0,0,0,10.4,1.24,22.59,22.59,0,0,0,5.21-1.21,33.46,33.46,0,0,0,4.71-2.26,46.32,46.32,0,0,1,4.55-2.31,19.64,19.64,0,0,1,4.76-1.27A23.85,23.85,0,0,1,283.76,420a47.9,47.9,0,0,1,8.66,7.37c.93,1,1.62,1.76,2.09,2.29l.52.61A1.25,1.25,0,0,1,295.19,430.48Z" style="fill:#263238"></path><path d="M292.74,431.36s-.07,0-.2-.15l-.56-.49-2.1-1.91a44.33,44.33,0,0,0-8.4-6.12,22.37,22.37,0,0,0-14.9-2.05c-2.86.53-5.54,2-8.31,3.56a29.8,29.8,0,0,1-4.41,2.09,22.82,22.82,0,0,1-4.89,1.18,23.25,23.25,0,0,1-9.83-.83c-3.06-1-5.8-2.37-8.56-3.24a21.9,21.9,0,0,0-8.09-1,27.13,27.13,0,0,0-16,6.47c-.94.8-1.61,1.48-2.06,1.94l-.52.53a1,1,0,0,1-.19.17l.15-.21.48-.56a24,24,0,0,1,2-2,25.91,25.91,0,0,1,9-5.29,26.89,26.89,0,0,1,7.1-1.46,22.57,22.57,0,0,1,8.26,1c2.82.87,5.57,2.28,8.57,3.21a22.71,22.71,0,0,0,9.61.8,21.89,21.89,0,0,0,4.79-1.15,29.57,29.57,0,0,0,4.33-2c1.39-.76,2.75-1.54,4.16-2.18a19.15,19.15,0,0,1,4.3-1.41,22.63,22.63,0,0,1,15.18,2.2,42.08,42.08,0,0,1,8.36,6.3l2,2,.52.52A1.05,1.05,0,0,1,292.74,431.36Z" style="fill:#263238"></path><path d="M246.54,432.7s-.13,0-.38,0a9.58,9.58,0,0,1-1.11,0,18.13,18.13,0,0,1-4-.67,48.44,48.44,0,0,1-5.66-2.05,52.32,52.32,0,0,0-6.87-2.46,18.29,18.29,0,0,0-7.18-.44,19,19,0,0,0-5.65,1.73,22.55,22.55,0,0,0-4.52,3.08,1.23,1.23,0,0,1,.24-.31,9.34,9.34,0,0,1,.78-.78,15.14,15.14,0,0,1,3.34-2.32,18.3,18.3,0,0,1,13.12-1.47,48.86,48.86,0,0,1,6.93,2.53,55.74,55.74,0,0,0,5.57,2.14A26.6,26.6,0,0,0,246.54,432.7Z" style="fill:#263238"></path><path d="M282.82,432.31c-.06.08-1.48-1-3.92-2.53a18.63,18.63,0,0,0-4.56-2,11.36,11.36,0,0,0-6-.09,26.58,26.58,0,0,0-5.65,2.38,35.53,35.53,0,0,1-4.63,2.13,12.94,12.94,0,0,1-3.37.73,4,4,0,0,1-1.26-.05,16.69,16.69,0,0,0,4.5-1,39,39,0,0,0,4.53-2.2,26.34,26.34,0,0,1,5.75-2.47,11.59,11.59,0,0,1,6.26.14,17.75,17.75,0,0,1,4.62,2.17,33,33,0,0,1,2.78,2A5.11,5.11,0,0,1,282.82,432.31Z" style="fill:#263238"></path><path d="M266.16,423.67c.44.66-.34,1.8-1.72,2.54s-2.86.81-3.29.14a5.47,5.47,0,0,0,.49.76c.43.67,1.9.6,3.29-.14s2.16-1.88,1.73-2.55A6.11,6.11,0,0,0,266.16,423.67Z" style="fill:#455a64"></path><path d="M263.37,424.54a3.65,3.65,0,0,1,2.91-.45.73.73,0,0,0-.12-.45c-.43-.66-1.9-.6-3.28.15s-2.16,1.88-1.73,2.54a.93.93,0,0,0,.37.31A3.16,3.16,0,0,1,263.37,424.54Z" style="fill:#455a64"></path><path d="M253,430.38c-.12.84-1.63,1.38-3.4,1.2s-3.12-1-3-1.88a5.36,5.36,0,0,0-.12,1c-.12.85,1.23,1.68,3,1.87s3.3-.34,3.4-1.2C252.91,431,253,430.7,253,430.38Z" style="fill:#455a64"></path><path d="M249.82,429.47a3.81,3.81,0,0,1,2.9,1.38,1,1,0,0,0,.23-.47c.11-.85-1.23-1.68-3-1.87s-3.31.34-3.4,1.2a.79.79,0,0,0,.09.5A4.06,4.06,0,0,1,249.82,429.47Z" style="fill:#455a64"></path><path d="M275.67,432.58a6.31,6.31,0,0,1-.84.09l-2.4.17c-2.08.14-5.1.29-8.84.42-7.46.27-17.79.39-29.19.07s-21.71-1-29.15-1.64c-3.73-.32-6.74-.61-8.81-.85l-2.39-.28a6.9,6.9,0,0,1-.83-.13,4.44,4.44,0,0,1,.84,0l2.4.18,8.82.68c7.44.56,17.74,1.17,29.13,1.49s21.71.26,29.17.08c3.74-.08,6.76-.17,8.84-.25l2.41-.07A4.9,4.9,0,0,1,275.67,432.58Z" style="fill:#263238"></path><path d="M185.68,429.11a2.69,2.69,0,0,0,.11.3,2,2,0,0,0,.72.6,14.69,14.69,0,0,0,3.48,1.15A112.3,112.3,0,0,0,203.42,433c11.42,1.06,27.27,1.7,44.77,1.71s33.35-.65,44.77-1.71a112.3,112.3,0,0,0,13.43-1.87,14.17,14.17,0,0,0,3.48-1.16,1.91,1.91,0,0,0,.72-.59,2.69,2.69,0,0,0,.11-.3.51.51,0,0,1-.07.32,1.85,1.85,0,0,1-.71.67,13.64,13.64,0,0,1-3.48,1.25,102.81,102.81,0,0,1-13.44,2c-11.43,1.15-27.29,1.86-44.81,1.86s-33.38-.71-44.81-1.86a102.81,102.81,0,0,1-13.44-2,13.64,13.64,0,0,1-3.48-1.25,1.85,1.85,0,0,1-.71-.67A.51.51,0,0,1,185.68,429.11Z" style="fill:#263238"></path></g></svg>
