<svg xmlns="http://www.w3.org/2000/svg" viewBox="0 0 750 500"><g id="freepik--Floor--inject-350"><path d="M714.22,471.2c0,.14-151.89.26-339.2.26s-339.24-.12-339.24-.26,151.86-.26,339.24-.26S714.22,471.05,714.22,471.2Z" style="fill:#263238"></path></g><g id="freepik--speech-bubble--inject-350"><path d="M511.1,139.34,515,124.8a48.49,48.49,0,1,1,11.52,13l0,0Z" style="fill:#fff"></path><path d="M511.1,139.34s.37-.06,1-.14l3-.34,11.41-1.26-.15.36,0,0a.21.21,0,0,1,0-.31.24.24,0,0,1,.28,0,48.55,48.55,0,0,0,21.59,9.49,48,48,0,0,0,46.11-18.17,47.73,47.73,0,0,0-2-60.68l-2-2.19-2.16-2a49.34,49.34,0,0,0-4.55-3.64,48.07,48.07,0,0,0-68.53,64.24,1.24,1.24,0,0,1,0,.18l-3,10.71c-.35,1.19-.61,2.12-.81,2.79s-.3,1-.3,1a8.41,8.41,0,0,1,.21-.9c.17-.67.4-1.59.69-2.77l2.81-10.93,0,.17a48.17,48.17,0,0,1-7.07-22.75,48.93,48.93,0,0,1,44-51.09A49.48,49.48,0,0,1,574,54.13a50,50,0,0,1,10.36,5.44A51.88,51.88,0,0,1,589,63.29l2.21,2,2,2.24a48.83,48.83,0,0,1-12.77,74.69,48.32,48.32,0,0,1-16.7,5.7,47.71,47.71,0,0,1-15.59-.16A48.45,48.45,0,0,1,526.4,138l.32-.32,0,0a.23.23,0,0,1,0,.31.15.15,0,0,1-.11,0l-11.6,1-2.92.23Z" style="fill:#263238"></path><polygon points="555.51 123.16 530.06 106.13 536 97.25 553.07 108.67 574.3 80.57 582.82 87.01 555.51 123.16" style="fill:#AA8EDB"></polygon></g><g id="freepik--Character--inject-350"><path d="M298.48,228.43s-22.81,7.18-27.73,36.53c-3.82,22.72-7.41,110.58-7.41,110.58s-9.63,23-11.15,37.67c-1.83,17.75-5.43,57.93-5.43,57.93l31.94.06s17.44-49.67,19.35-58,11.3-67.45,11.3-67.45l4.92-81.47Z" style="fill:#ffbf9d"></path><path d="M463.32,220.49c-3.92-1.35,30.35,4.92,35.17,35.91,3.53,22.77,8.76,109.87,8.76,109.87s10.19,23,11.15,37.67,6.19,67.26,6.19,67.26h-34.7s-15.44-58.94-17.35-67.26-14.76-91-14.76-91L460,256.68Z" style="fill:#ffbf9d"></path><path d="M451.59,379l9.83-87.11,4.11-70.77L411.6,206.81h-56l-59.81,22.65,7.34,64.26c-1.36,1.84,16.95,85.57,16.95,85.57l-11.77,51.23a121.65,121.65,0,0,0-9.55,40.68h181.9l-11.73-36.76Z" style="fill:#ffbf9d"></path><path d="M466.29,426.05S440,462.21,390.07,464.11c-53,2-81.78-33.59-81.78-33.59-3.15,6.29-8.37,21.38-8.37,29.83,6.36,2,15.8,7.39,22.15,10.85H443.38c15.23-12.88,30-23.89,30-23.89C471.79,441.66,469.5,430.75,466.29,426.05Z" style="fill:#AA8EDB"></path><path d="M298,267.77a4,4,0,0,1,.21.77c.13.56.3,1.3.51,2.23.43,1.94,1,4.75,1.7,8.24,1.39,7,3.14,16.63,4.78,27.35s2.85,20.47,3.62,27.53c.38,3.54.66,6.4.83,8.38.08,1,.14,1.71.19,2.28a4,4,0,0,1,0,.8,4.65,4.65,0,0,1-.13-.79c-.08-.57-.17-1.32-.29-2.27-.24-2-.58-4.87-1-8.35-.86-7.05-2.13-16.79-3.76-27.5s-3.34-20.38-4.63-27.36c-.65-3.45-1.17-6.26-1.55-8.27-.16-.94-.3-1.69-.4-2.25A4.29,4.29,0,0,1,298,267.77Z" style="fill:#ff9a6c"></path><path d="M467.26,254.56a2.86,2.86,0,0,1,0,.7c0,.5-.08,1.16-.13,2-.13,1.72-.34,4.21-.64,7.29-.6,6.15-1.57,14.63-2.92,24s-2.84,17.74-4,23.8c-.59,3-1.09,5.48-1.46,7.17-.18.8-.33,1.44-.44,1.94a3.72,3.72,0,0,1-.19.67,3.2,3.2,0,0,1,.08-.69c.09-.5.2-1.15.35-2,.31-1.76.75-4.21,1.29-7.2,1.09-6.08,2.51-14.48,3.87-23.81s2.38-17.79,3.07-23.92c.33-3,.61-5.49.8-7.27.1-.81.18-1.47.24-2A2.89,2.89,0,0,1,467.26,254.56Z" style="fill:#ff9a6c"></path><path d="M415.34,400.7a2.71,2.71,0,0,1-.67-.12l-1.88-.48c-.81-.23-1.8-.49-3-.73s-2.48-.59-4-.82-3.09-.55-4.85-.74-3.62-.38-5.59-.54a94.85,94.85,0,0,0-12.87.17,95.83,95.83,0,0,0-12.71,2.08c-1.92.5-3.75.94-5.42,1.5s-3.24,1.06-4.64,1.58-2.66,1-3.76,1.49-2,.87-2.8,1.24l-1.76.8a2.72,2.72,0,0,1-.64.23,2.19,2.19,0,0,1,.57-.36l1.7-.93c.74-.4,1.66-.88,2.76-1.35s2.32-1.09,3.74-1.61,3-1.15,4.64-1.67,3.52-1.06,5.45-1.58a82.27,82.27,0,0,1,25.78-2.26c2,.18,3.88.31,5.63.6s3.39.54,4.87.84,2.8.64,4,.93,2.15.58,2.95.85l1.84.61C415.13,400.58,415.35,400.67,415.34,400.7Z" style="fill:#ff9a6c"></path><path d="M386.93,427.67c-.2,0-.66-1.44-1-3.31s-.5-3.41-.3-3.44.66,1.44,1,3.3S387.13,427.63,386.93,427.67Z" style="fill:#ff9a6c"></path><path d="M427.27,73.86a40.29,40.29,0,0,1,15,34.14c-.48,6.27-2.21,13.42,1.87,18.2s12,4.6,15.82,9.47c4.56,5.74.74,14.28,2.37,21.42a14.5,14.5,0,0,0,15.42,10.77,56.54,56.54,0,0,1-28,12.17L441.81,170c3,3.52,2.19,9.15-.7,12.75s-7.33,5.57-11.72,7a71.82,71.82,0,0,1-62.93-10.23" style="fill:#263238"></path><path d="M309.47,129.23c1.57-4.81,4.2-9.26,5.26-14.2,2.27-10.62-2.91-22.58,2.24-32.14,3.67-6.81,11.49-10.14,18.88-12.42s15.31-4.2,20.82-9.62c4-4,6.34-9.46,10.37-13.45,5.74-5.69,14.21-7.61,22.28-8.11,8.28-.51,16.84.29,24.29,3.94s13.64,10.52,15,18.71c.64,4,.15,8.18,1.41,12,1.39,4.22,4.71,7.51,6.75,11.46a21.27,21.27,0,0,1-5.32,25.51l-56.86,73.45c-11.94,4.51-40.88-.95-50.12-9.77S305.5,141.36,309.47,129.23Z" style="fill:#263238"></path><path d="M429.92,101.61c-2.34-16.67-15-36.38-31.58-33.33L347.21,85.46c-5,.93-1.21,7.2-.72,12.29l7.76,119,58,7.72-.89-19.9c-.66-10.15-1-14.32-1-14.22s21.14-5.2,23.42-33.47C435,142.86,432.52,120.14,429.92,101.61Z" style="fill:#ffbf9d"></path><path d="M421.34,127.87a3.59,3.59,0,0,1-3.17,3.88,3.44,3.44,0,0,1-3.94-2.95,3.59,3.59,0,0,1,3.17-3.88A3.43,3.43,0,0,1,421.34,127.87Z" style="fill:#263238"></path><path d="M387.11,129.46a3.59,3.59,0,0,1-3.17,3.88,3.44,3.44,0,0,1-3.94-3,3.59,3.59,0,0,1,3.17-3.88A3.43,3.43,0,0,1,387.11,129.46Z" style="fill:#263238"></path><path d="M427.64,115.46c-.38.66-3.72-1.45-7.89-.84s-6.85,3.47-7.39,2.94c-.27-.23.06-1.36,1.21-2.68a9.67,9.67,0,0,1,5.81-3.08,9.57,9.57,0,0,1,6.4,1.41C427.24,114.17,427.84,115.17,427.64,115.46Z" style="fill:#263238"></path><path d="M390.18,118.56c-.5.6-3.78-1.78-8.26-1.59s-7.67,2.73-8.19,2.16c-.25-.25.22-1.32,1.61-2.5a10.92,10.92,0,0,1,6.52-2.45,10.68,10.68,0,0,1,6.61,2C389.9,117.25,390.42,118.29,390.18,118.56Z" style="fill:#263238"></path><path d="M404.24,145c0-.22,2.33-.82,6.18-1.61,1-.18,1.89-.45,2-1.13s-.31-1.76-.88-2.87q-1.67-3.47-3.48-7.27c-4.87-10.36-8.47-18.91-8.05-19.1s4.7,8,9.56,18.41l3.37,7.32c.46,1.09,1.2,2.31.81,3.83a2.49,2.49,0,0,1-1.51,1.56,6.41,6.41,0,0,1-1.65.36C406.7,145,404.27,145.2,404.24,145Z" style="fill:#263238"></path><path d="M410.41,190.39a71.28,71.28,0,0,1-38.17-7.11s10.91,18.88,38.66,14.12Z" style="fill:#ff9a6c"></path><path d="M392.48,156.23a6.15,6.15,0,0,1,2-2.35,4.85,4.85,0,0,1,3.34-.34,7.91,7.91,0,0,1,4.37,2.22,4.71,4.71,0,0,1,1.1,4.62h0c-.43,1.61-2.84,2.49-4.48,2.78a7.37,7.37,0,0,1-4.81-1,4.26,4.26,0,0,1-2.46-3.18A5.27,5.27,0,0,1,392.48,156.23Z" style="fill:#ff9a6c"></path><path d="M393.27,150.8c.63-.08,1,4.1,4.77,6.8s8.23,1.89,8.3,2.47c.08.26-.93.89-2.81,1.08a10.44,10.44,0,0,1-6.91-1.82,9.15,9.15,0,0,1-3.73-5.72C392.6,151.87,393,150.8,393.27,150.8Z" style="fill:#263238"></path><path d="M389.84,103.47c-.3,1.08-4.19.88-8.67,1.77s-8,2.41-8.72,1.51c-.3-.43.26-1.46,1.66-2.59a15.35,15.35,0,0,1,13.24-2.5C389.06,102.2,390,103,389.84,103.47Z" style="fill:#263238"></path><path d="M425.27,101.36c-.71.93-3.81.26-7.46.5s-6.7,1.1-7.48.24c-.35-.42.07-1.33,1.36-2.27a11.58,11.58,0,0,1,5.95-1.9,11.34,11.34,0,0,1,6.09,1.31C425.09,100,425.58,100.91,425.27,101.36Z" style="fill:#263238"></path><path d="M335.91,89.48c2.58-4,7.21-6,11.63-7.72a258,258,0,0,1,59.21-15.08c2.52,4.16.19,9.81-3.62,12.84s-8.69,4.22-13.24,5.92-9.22,4.33-11.09,8.81c-2,4.77-.32,10.42-2.07,15.28-3,8.37-14.69,11.06-17.66,19.45-2.24,6.34,1.43,13.09,2.35,19.75a24,24,0,0,1-23.6,27.36q-2.08-36-4.16-72C333.37,99.07,333.18,93.68,335.91,89.48Z" style="fill:#263238"></path><path d="M287.54,150.13c3.79-3.4,8.55-6.34,10.06-11.2,2.2-7.08-3.49-15.4.17-21.85,3.34-5.88,13.19-5.59,16.29-11.6,2.43-4.69-.36-8.84.56-13s6.78-7.74,11-7.25l32.79,47.52c3,15.94,6.11,24.43,2.68,33.75-1.87,5.12-4.32,10.1-5.06,15.5s.65,11.52,5.06,14.71c-19.6,1.54-38-8.72-54.95-18.64l-18-10.5c-1.87-1.09-3.82-2.26-4.94-4.11C280.57,159.14,283.75,153.53,287.54,150.13Z" style="fill:#263238"></path><path d="M305.62,173.3a9.58,9.58,0,0,0,2.09.41,17.81,17.81,0,0,0,6.11-.44,19,19,0,0,0,8.52-4.58,18.63,18.63,0,0,0,5.6-11.46,19.08,19.08,0,0,0-.64-7.52,30.68,30.68,0,0,0-3.64-7.29,28.82,28.82,0,0,1-3.76-7.55c-.72-2.73-.72-6,1.05-8.32s5.1-3,8.17-4.21a8.93,8.93,0,0,0,4.18-3.1,8.68,8.68,0,0,0,1.35-5.14c0-3.59-1.57-6.87-2.23-10.21a11.26,11.26,0,0,1,0-5,7,7,0,0,1,2.83-4c2.83-2,6.44-2.34,9.92-2.65a21.27,21.27,0,0,0,10.1-3,19.09,19.09,0,0,0,6.92-7.5,31.3,31.3,0,0,0,2.55-9.39,43.35,43.35,0,0,1,1.92-8.82,19.62,19.62,0,0,1,4.61-6.95A22,22,0,0,1,396.94,53a27,27,0,0,1,7.56,5.75,35.3,35.3,0,0,1,4.66,6.69A1.68,1.68,0,0,0,409,65c-.16-.32-.34-.83-.68-1.44a26,26,0,0,0-3.47-5,26.88,26.88,0,0,0-7.59-6,23,23,0,0,0-12.5-2.76A23.38,23.38,0,0,0,370.58,56a20.62,20.62,0,0,0-4.89,7.28,44.72,44.72,0,0,0-2,9,30.37,30.37,0,0,1-2.49,9.07,17.93,17.93,0,0,1-6.53,7A20.21,20.21,0,0,1,345,91.13c-3.44.31-7.3.6-10.47,2.85a8.1,8.1,0,0,0-3.27,4.61,12.24,12.24,0,0,0,0,5.52c.72,3.54,2.19,6.72,2.22,10a7.64,7.64,0,0,1-1.14,4.49,7.9,7.9,0,0,1-3.69,2.71c-1.46.62-3,1-4.55,1.69a9.29,9.29,0,0,0-4,2.9c-2.06,2.77-2,6.31-1.19,9.2a29.49,29.49,0,0,0,3.93,7.81,30.09,30.09,0,0,1,3.6,7,18.46,18.46,0,0,1,.68,7.17,18,18,0,0,1-5.25,11.09,18.8,18.8,0,0,1-8.18,4.61A21.1,21.1,0,0,1,305.62,173.3Z" style="fill:#455a64"></path><path d="M279.47,139.52a4,4,0,0,0-.65,1.6,7,7,0,0,0,.84,4.86,7.38,7.38,0,0,0,2.51,2.64,7.82,7.82,0,0,0,4.19,1.12,9.81,9.81,0,0,0,8.59-5.45,13.2,13.2,0,0,0,1.39-6,18.2,18.2,0,0,0-1.38-6.48c-1.55-4.24-4.38-8.37-4.44-13.33a9.05,9.05,0,0,1,2.28-6.74c1.74-1.77,4.44-2.21,7.12-2.23s5.62.25,8.49-.88a7.35,7.35,0,0,0,3.49-2.94,10.63,10.63,0,0,0,1.44-4.32c.36-3.06-.36-6-.71-8.72a19.22,19.22,0,0,1,.45-8.08,20.45,20.45,0,0,1,9.12-12c4.25-2.56,9.17-2.84,13.6-3.1s8.77-.52,12.41-2A25.72,25.72,0,0,0,357,62a25.39,25.39,0,0,0,4.81-6.18,18.62,18.62,0,0,0,2.34-6.22,36.26,36.26,0,0,1-2.72,6A26.24,26.24,0,0,1,347.93,66.8c-3.53,1.34-7.7,1.57-12.18,1.77s-9.53.45-14.08,3.14A21.44,21.44,0,0,0,312,84.29a20.4,20.4,0,0,0-.5,8.53c.37,2.84,1,5.66.7,8.43s-1.71,5.4-4.22,6.35-5.33.73-8.08.81-5.81.48-7.87,2.57a10.11,10.11,0,0,0-2.56,7.54,19.27,19.27,0,0,0,1.79,7.3c.95,2.23,2,4.29,2.82,6.35a17.24,17.24,0,0,1,1.38,6.15,12.37,12.37,0,0,1-1.23,5.6,9.14,9.14,0,0,1-7.88,5.18,7.37,7.37,0,0,1-3.9-.94,7.05,7.05,0,0,1-2.4-2.4,7,7,0,0,1-1-4.6C279.22,140.07,279.53,139.55,279.47,139.52Z" style="fill:#263238"></path><path d="M486.08,151.23a7.74,7.74,0,0,1-.07,5.13,6.72,6.72,0,0,1-4.07,4.13,7.09,7.09,0,0,1-7.2-2,6.45,6.45,0,0,1-1.68-4.1,13.41,13.41,0,0,1,.75-5c1-3.32,3.16-6.93,2.84-11.26a15.85,15.85,0,0,0-6-11.33,18.64,18.64,0,0,0-6.11-3.22,27.57,27.57,0,0,0-7-1,37.07,37.07,0,0,1-6.78-.71,9,9,0,0,1-5.27-3.28,11,11,0,0,1-1.91-5.8,22.22,22.22,0,0,1,.51-6c.8-3.91,2-7.72,1.76-11.47a17.4,17.4,0,0,0-3.5-9.52,22.43,22.43,0,0,0-6.39-5.4,41.31,41.31,0,0,1-5.11-3.53,13.19,13.19,0,0,1-3.21-4.12s0,.12.08.34a5.64,5.64,0,0,0,.39,1,10.53,10.53,0,0,0,2.44,3.15A38.71,38.71,0,0,0,435.66,81a22.35,22.35,0,0,1,6.09,5.34,16.68,16.68,0,0,1,3.2,9.09c.17,3.53-1,7.22-1.84,11.21a23.17,23.17,0,0,0-.57,6.33,12.21,12.21,0,0,0,2.1,6.39,10.07,10.07,0,0,0,5.9,3.72,36.83,36.83,0,0,0,7,.75,26.18,26.18,0,0,1,6.7.95,17.54,17.54,0,0,1,5.75,3,14.84,14.84,0,0,1,5.61,10.53c.34,3.95-1.62,7.42-2.69,10.9a14.19,14.19,0,0,0-.73,5.32,7.36,7.36,0,0,0,2,4.59,7.73,7.73,0,0,0,8,2,7.48,7.48,0,0,0,4.47-8.58A3.94,3.94,0,0,0,486.08,151.23Z" style="fill:#263238"></path><path d="M384,319.33a1.38,1.38,0,0,1-.1.3c-.09.22-.2.51-.35.86-.29.76-.8,1.85-1.48,3.23a49.27,49.27,0,0,1-7.42,10.75,42.41,42.41,0,0,1-15.82,11,38,38,0,0,1-23.44,1.35,31.49,31.49,0,0,1-5.87-2.19,30.41,30.41,0,0,1-2.68-1.52c-.42-.28-.87-.53-1.27-.83l-1.2-.92a30.38,30.38,0,0,1-7.4-8.75,44.6,44.6,0,0,1-5.36-18.55,105,105,0,0,1-.15-13.07c.08-1.51.14-2.7.18-3.55,0-.38.05-.68.07-.92a2.67,2.67,0,0,1,0-.31,1.14,1.14,0,0,1,0,.32v.92c0,.85-.05,2-.09,3.55a115.13,115.13,0,0,0,.31,13,44.85,44.85,0,0,0,5.41,18.34,29.94,29.94,0,0,0,7.31,8.59l1.18.9c.39.3.83.54,1.25.82a27.88,27.88,0,0,0,2.63,1.48,31.24,31.24,0,0,0,5.78,2.16,37.84,37.84,0,0,0,23.13-1.29,42.48,42.48,0,0,0,15.72-10.86,51,51,0,0,0,7.51-10.59c.71-1.37,1.24-2.44,1.57-3.18l.39-.84A1.83,1.83,0,0,1,384,319.33Z" style="fill:#ff9a6c"></path><path d="M387,319.33a1.83,1.83,0,0,1,.15.28l.39.84c.32.74.84,1.81,1.55,3.17a51.37,51.37,0,0,0,7.43,10.59,42.37,42.37,0,0,0,15.62,10.87,37.19,37.19,0,0,0,23,1.26A29.36,29.36,0,0,0,446,340.93a30.16,30.16,0,0,0,7.2-8.61A45.21,45.21,0,0,0,458.47,314a114.25,114.25,0,0,0,.31-13q-.06-2.26-.09-3.54c0-.38,0-.68,0-.92a1.09,1.09,0,0,1,0-.31,1.61,1.61,0,0,1,0,.31c0,.24,0,.54.06.92,0,.84.1,2,.18,3.53a105.86,105.86,0,0,1-.14,13,45,45,0,0,1-5.26,18.51,30.37,30.37,0,0,1-7.3,8.78,30,30,0,0,1-10.94,5.52A37.49,37.49,0,0,1,412,345.53a42.25,42.25,0,0,1-15.72-11.08,49.7,49.7,0,0,1-7.34-10.74c-.68-1.38-1.18-2.47-1.47-3.22l-.34-.86A1.38,1.38,0,0,1,387,319.33Z" style="fill:#ff9a6c"></path><path d="M342.21,309.11a10.18,10.18,0,0,0-7.33,2,9.74,9.74,0,0,0-2.31,11.7,9.41,9.41,0,0,0,10.81,4.48,10,10,0,0,0,6.62-9.92C349.72,313.07,346.82,310,342.21,309.11Z" style="fill:#ff9a6c"></path><path d="M341.56,312.67a5.63,5.63,0,0,0-4,1.11,5.34,5.34,0,0,0-1.26,6.42,5.15,5.15,0,0,0,5.93,2.45,5.47,5.47,0,0,0,3.62-5.44A4.85,4.85,0,0,0,341.56,312.67Z" style="fill:#e37c4d"></path><path d="M427.93,310.39a9.83,9.83,0,0,1,6.89,1.85,8.74,8.74,0,0,1,2.17,10.7,8.92,8.92,0,0,1-10.16,4.1,9.14,9.14,0,0,1-6.22-9.07C420.87,314,423.59,311.19,427.93,310.39Z" style="fill:#ff9a6c"></path><path d="M428.54,313.65a5.4,5.4,0,0,1,3.78,1,4.81,4.81,0,0,1,1.19,5.87,4.91,4.91,0,0,1-5.58,2.24,5,5,0,0,1-3.41-5A4.49,4.49,0,0,1,428.54,313.65Z" style="fill:#e37c4d"></path></g><g id="freepik--device-2--inject-350"><rect x="597.54" y="228.95" width="19.43" height="89.41" style="fill:#e0e0e0"></rect><rect x="262.7" y="229.06" width="247.36" height="140.95" style="fill:#263238"></rect><path d="M306.12,373.24c2.93-16.39,5.94-33.83,5.94-33.83l4.84-73.88L301.36,233s-22.44,6.51-27.29,33.13c-3.75,20.6-7.29,100.28-7.29,100.28s-1.31,2.72-3,6.82Z" style="fill:#455a64"></path><path d="M513.11,373.24c-3-8.37-6.29-15.23-6.29-15.23s-5.15-79-8.63-99.63c-4.73-28.12-38.46-33.8-34.61-32.58l-3.24,32.83-2.2,51s6.58,39,10.95,63.62Z" style="fill:#455a64"></path><path d="M322.6,369.83l-.82,3.41H453.3L452,369.52l9.68-79,4-64.19-8.13-2H326.18l-27.49,9.59,7.23,58.28C304.58,293.89,322.6,369.83,322.6,369.83Z" style="fill:#455a64"></path><path d="M518.43,215.86H255.61a5.25,5.25,0,0,0-5.25,5.25V375.35a5.25,5.25,0,0,0,5.25,5.25H518.43a5.25,5.25,0,0,0,5.25-5.25V221.11A5.25,5.25,0,0,0,518.43,215.86ZM510.06,370H262.7V229.06H510.06Z" style="fill:#e0e0e0"></path><path d="M384,319.33a1.38,1.38,0,0,1-.1.3c-.09.22-.2.51-.35.86-.29.76-.8,1.85-1.48,3.23a49.27,49.27,0,0,1-7.42,10.75,42.41,42.41,0,0,1-15.82,11,38,38,0,0,1-23.44,1.35,31.49,31.49,0,0,1-5.87-2.19,30.41,30.41,0,0,1-2.68-1.52c-.42-.28-.87-.53-1.27-.83l-1.2-.92a30.38,30.38,0,0,1-7.4-8.75,44.6,44.6,0,0,1-5.36-18.55,105,105,0,0,1-.15-13.07c.08-1.51.14-2.7.18-3.55,0-.38.05-.68.07-.92a2.67,2.67,0,0,1,0-.31,1.14,1.14,0,0,1,0,.32v.92c0,.85-.05,2-.09,3.55a115.13,115.13,0,0,0,.31,13,44.85,44.85,0,0,0,5.41,18.34,29.94,29.94,0,0,0,7.31,8.59l1.18.9c.39.3.83.54,1.25.82a27.88,27.88,0,0,0,2.63,1.48,31.24,31.24,0,0,0,5.78,2.16,37.84,37.84,0,0,0,23.13-1.29,42.48,42.48,0,0,0,15.72-10.86,51,51,0,0,0,7.51-10.59c.71-1.37,1.24-2.44,1.57-3.18l.39-.84A1.83,1.83,0,0,1,384,319.33Z" style="fill:#263238"></path><path d="M387,319.33a1.83,1.83,0,0,1,.15.28l.39.84c.32.74.84,1.81,1.55,3.17a51.37,51.37,0,0,0,7.43,10.59,42.37,42.37,0,0,0,15.62,10.87,37.19,37.19,0,0,0,23,1.26A29.36,29.36,0,0,0,446,340.93a30.16,30.16,0,0,0,7.2-8.61A45.21,45.21,0,0,0,458.47,314a114.25,114.25,0,0,0,.31-13q-.06-2.26-.09-3.54c0-.38,0-.68,0-.92a1.09,1.09,0,0,1,0-.31,1.61,1.61,0,0,1,0,.31c0,.24,0,.54.06.92,0,.84.1,2,.18,3.53a105.86,105.86,0,0,1-.14,13,45,45,0,0,1-5.26,18.51,30.37,30.37,0,0,1-7.3,8.78,30,30,0,0,1-10.94,5.52A37.49,37.49,0,0,1,412,345.53a42.25,42.25,0,0,1-15.72-11.08,49.7,49.7,0,0,1-7.34-10.74c-.68-1.38-1.18-2.47-1.47-3.22l-.34-.86A1.38,1.38,0,0,1,387,319.33Z" style="fill:#263238"></path><g style="opacity:0.30000000000000004"><path d="M317.65,320.93a36.19,36.19,0,0,0,12.93,17.44A25.24,25.24,0,0,0,345,343.25h0a28.47,28.47,0,0,0,16.22-4.51c6.46-4.14,10.44-9.21,13.88-15.84,4.86-9.37,5.92-21.13.92-29.57-3.17-5.37-8.45-9-14.1-11.29A37.37,37.37,0,0,0,342,279.37a31,31,0,0,0-18.47,10C316.11,297.92,314.24,310.71,317.65,320.93Z"></path></g><path d="M342.21,309.11a10.18,10.18,0,0,0-7.33,2,9.74,9.74,0,0,0-2.31,11.7,9.41,9.41,0,0,0,10.81,4.48,10,10,0,0,0,6.62-9.92C349.72,313.07,346.82,310,342.21,309.11Z" style="fill:#263238"></path><g style="opacity:0.30000000000000004"><path d="M341.56,312.67a5.63,5.63,0,0,0-4,1.11,5.34,5.34,0,0,0-1.26,6.42,5.15,5.15,0,0,0,5.93,2.45,5.47,5.47,0,0,0,3.62-5.44A4.85,4.85,0,0,0,341.56,312.67Z"></path></g><path d="M355.12,304.31a13.87,13.87,0,0,0-1.31,1.23,16.59,16.59,0,0,0-2.1,3.82,11.13,11.13,0,0,1-1.25,2.15,5.35,5.35,0,0,1-1.52,1.38c-1,.62-1.83.51-1.81.45a7.06,7.06,0,0,0,1.61-.75,6,6,0,0,0,1.34-1.37,11.93,11.93,0,0,0,1.16-2.08,13,13,0,0,1,2.3-3.85C354.36,304.45,355.11,304.25,355.12,304.31Z" style="fill:#263238"></path><path d="M358.91,298.81a3.06,3.06,0,0,0-2.65.33,8.79,8.79,0,0,0-4.3,9.06l.22.6c1.86-2.55,5.6-3.12,7.31-5.78a3.79,3.79,0,0,0,.65-2.28A2.35,2.35,0,0,0,358.91,298.81Z" style="fill:#263238"></path><path d="M354.79,313.47a1.68,1.68,0,0,0-1.07.22c-.29.17-.59.49-1,.8a6,6,0,0,1-1.46.8,5.86,5.86,0,0,1-3,.28c-.76-.13-1.18-.38-1.15-.44a9.57,9.57,0,0,0,3.95-.33,6.67,6.67,0,0,0,1.36-.7,8.56,8.56,0,0,1,1.11-.74,1.38,1.38,0,0,1,.95-.1C354.73,313.33,354.81,313.44,354.79,313.47Z" style="fill:#263238"></path><path d="M347.6,305.35a11.86,11.86,0,0,1-2.73,5.83,15.09,15.09,0,0,1,1.3-2.95A16.2,16.2,0,0,1,347.6,305.35Z" style="fill:#263238"></path><path d="M343.7,299.19c0-.05.6.45.76,1.56a5.3,5.3,0,0,1-.11,1.91,12.64,12.64,0,0,1-.78,2.17,15.23,15.23,0,0,0-.79,2.08,6.06,6.06,0,0,0-.21,1.75,6.64,6.64,0,0,0,.39,1.61c0,.05-.59-.46-.75-1.57a5.1,5.1,0,0,1,.11-1.91,13.82,13.82,0,0,1,.77-2.17,14.65,14.65,0,0,0,.79-2.07,5.5,5.5,0,0,0,.21-1.76A6.3,6.3,0,0,0,343.7,299.19Z" style="fill:#263238"></path><path d="M333.57,302.5A3.3,3.3,0,0,1,334,304a20.53,20.53,0,0,0,.5,3.63,6.7,6.7,0,0,0,2.07,2.89c.7.63,1.16,1,1.11,1.08a4.33,4.33,0,0,1-1.35-.8,6.18,6.18,0,0,1-2.33-3,14,14,0,0,1-.37-3.76A9.23,9.23,0,0,1,333.57,302.5Z" style="fill:#263238"></path><path d="M333.35,314.3a3.43,3.43,0,0,1-2.25-1.05c-1.07-.92-1.5-2-1.37-2.06s.73.82,1.71,1.66S333.4,314.16,333.35,314.3Z" style="fill:#263238"></path><path d="M324.85,315.43a38.92,38.92,0,0,0,3.84,1.68,36.72,36.72,0,0,0,4.14.74,9.07,9.07,0,0,1-8-2.42Z" style="fill:#263238"></path><path d="M347.75,295.09A2.41,2.41,0,0,0,346.3,293a2.22,2.22,0,0,0-1.77.46,8,8,0,0,0-3.09,6.09,22.59,22.59,0,0,0,.94,7l.89-.86a27.61,27.61,0,0,0,3.41-4.84A9.34,9.34,0,0,0,347.75,295.09Z" style="fill:#263238"></path><path d="M349.15,301.21a1,1,0,0,0-1,.1,2.61,2.61,0,0,0-.72.76,8.35,8.35,0,0,0-1.22,6.56l.19.17a20.27,20.27,0,0,0,2.2-2.77,7,7,0,0,0,1.14-3.35A1.51,1.51,0,0,0,349.15,301.21Z" style="fill:#263238"></path><path d="M336.42,299.32a4,4,0,0,0-3.12-3.15,4.93,4.93,0,0,0-3.79,1.75,4.76,4.76,0,0,0-1.61,2.91,5.8,5.8,0,0,0,1.5,3.63c1.4,1.94,3,4,5.25,4.64l.27-.45a29.78,29.78,0,0,1,1.17-4.62A9.45,9.45,0,0,0,336.42,299.32Z" style="fill:#263238"></path><path d="M352.36,314.14a6.66,6.66,0,0,1,6.48-4.79,3.37,3.37,0,0,1,2.47,1c.82.95.77,2.37.62,3.63a4.93,4.93,0,0,1-.82,2.51,3.64,3.64,0,0,1-2.86,1.14,7,7,0,0,1-6-3.46" style="fill:#263238"></path><path d="M328.85,317.42a9.12,9.12,0,0,0-2.93-3.68,3.08,3.08,0,0,0-2.73-.73,2.26,2.26,0,0,0-1.36,2.33,3.06,3.06,0,0,0,1.59,2.3,4.56,4.56,0,0,0,2.77.47,12.14,12.14,0,0,0,2.76-.75" style="fill:#263238"></path><path d="M331.25,313.24a5.36,5.36,0,0,0-3.05-5.06,2.31,2.31,0,0,0-1.48-.22,1.2,1.2,0,0,0-.93,1.09,1.86,1.86,0,0,0,.62,1.16c.56.61,1.15,1.19,1.76,1.74a5.87,5.87,0,0,0,1.41,1,2.32,2.32,0,0,0,1.69.2" style="fill:#263238"></path><path d="M329.37,323.22c-.1-.1.68-1,2-1.43a3.42,3.42,0,0,1,2.43-.24,18.93,18.93,0,0,1-2.25.72A19.91,19.91,0,0,1,329.37,323.22Z" style="fill:#263238"></path><path d="M333.57,330a9.34,9.34,0,0,1,3-6.66c.12.1-.9,1.4-1.73,3.23S333.72,330,333.57,330Z" style="fill:#263238"></path><path d="M342.66,335.85a13.35,13.35,0,0,1-1.4-5.58,13.19,13.19,0,0,1,.6-5.71c.16,0-.31,2.55-.08,5.68S342.81,335.8,342.66,335.85Z" style="fill:#263238"></path><path d="M351.58,332.16a3.35,3.35,0,0,1-1.51-.59,4,4,0,0,1-1.35-1.21,3.79,3.79,0,0,1-.5-2.17,6.46,6.46,0,0,0-1-3.54,6.17,6.17,0,0,1-.73-1.42c.05,0,.48.41,1.05,1.23a7.49,7.49,0,0,1,.83,1.56,5.89,5.89,0,0,1,.35,2.17,3.5,3.5,0,0,0,.39,1.92,4,4,0,0,0,1.14,1.15A9,9,0,0,1,351.58,332.16Z" style="fill:#263238"></path><path d="M351.91,322.7c-.1.11-.71-.36-1.47-.91s-1.39-1-1.33-1.11.84.11,1.64.69S352,322.61,351.91,322.7Z" style="fill:#263238"></path><path d="M359.81,326.78a10.83,10.83,0,0,0-.83-3.07,4.88,4.88,0,0,0-2.1-2.29c-1.67-.87-3.7-.36-5.41.45l-.21.74a22.56,22.56,0,0,0,2.64,3.82,8.07,8.07,0,0,0,3.81,2.48,1.84,1.84,0,0,0,1.77-.25A2.22,2.22,0,0,0,359.81,326.78Z" style="fill:#263238"></path><path d="M352.36,332.32a10.11,10.11,0,0,0-1.08-1.09,7.21,7.21,0,0,1-2.45-4.59l-.78,1.19a27.53,27.53,0,0,0-.24,4.26,4.88,4.88,0,0,0,.6,2.62,2.54,2.54,0,0,0,1.81,1.12,2.5,2.5,0,0,0,2-.66,2.09,2.09,0,0,0,.68-1.43A2.32,2.32,0,0,0,352.36,332.32Z" style="fill:#263238"></path><path d="M344.32,338.45h-.09Z" style="fill:#263238"></path><path d="M345.12,336.93c.12-.58-.33-1.2-.51-1.77a11.29,11.29,0,0,0-2.36-4.16,1,1,0,0,0-.53-.35c-.44-.08-.76.31-.93.63a9.48,9.48,0,0,0-1.19,3.11,3.58,3.58,0,0,0,1,3.09,4.08,4.08,0,0,0,3.67,1C344.88,338.17,345,337.49,345.12,336.93Z" style="fill:#263238"></path><path d="M333.86,326.84v0a11.16,11.16,0,0,0-3.15,2.3,3.92,3.92,0,0,0-.91,3.68,3.68,3.68,0,0,0,1.62,1.9,2.4,2.4,0,0,0,1.84.41c.88-.22,1.41-1.13,1.83-1.95a4.27,4.27,0,0,0-1.23-6.36Z" style="fill:#263238"></path><path d="M330.61,322.72l.16-.16a7.12,7.12,0,0,0-4,.16,2.4,2.4,0,0,0-1.13.71,2.05,2.05,0,0,0-.24,1.73,3.18,3.18,0,0,0,1.39,1.94,2,2,0,0,0,2.16,0,3.06,3.06,0,0,0,.75-1.14,26.59,26.59,0,0,0,1.2-3.34Z" style="fill:#263238"></path><g style="opacity:0.30000000000000004"><path d="M451,321.21a33.2,33.2,0,0,1-12.16,16,24.2,24.2,0,0,1-13.59,4.47h0A27.35,27.35,0,0,1,410,337.5c-6.07-3.78-9.82-8.43-13-14.49-4.57-8.57-5.56-19.33-.87-27.05,3-4.92,7.95-8.21,13.26-10.33a36,36,0,0,1,18.74-2.44,29.4,29.4,0,0,1,17.36,9.17C452.46,300.16,454.23,311.86,451,321.21Z"></path></g><path d="M427.93,310.39a9.83,9.83,0,0,1,6.89,1.85,8.74,8.74,0,0,1,2.17,10.7,8.92,8.92,0,0,1-10.16,4.1,9.14,9.14,0,0,1-6.22-9.07C420.87,314,423.59,311.19,427.93,310.39Z" style="fill:#263238"></path><g style="opacity:0.30000000000000004"><path d="M428.54,313.65a5.4,5.4,0,0,1,3.78,1,4.81,4.81,0,0,1,1.19,5.87,4.91,4.91,0,0,1-5.58,2.24,5,5,0,0,1-3.41-5A4.49,4.49,0,0,1,428.54,313.65Z"></path></g><path d="M415.79,306c0-.06.71.11,1.49.88a11.76,11.76,0,0,1,2.17,3.54,7.48,7.48,0,0,0,2.36,3.15,8.33,8.33,0,0,0,1.5.7,2.27,2.27,0,0,1-1.7-.39,5.39,5.39,0,0,1-1.44-1.25,10.58,10.58,0,0,1-1.18-2,15,15,0,0,0-2-3.51C416.35,306.36,415.75,306.08,415.79,306Z" style="fill:#263238"></path><path d="M412.23,301a2.91,2.91,0,0,1,2.49.31,8,8,0,0,1,4,8.28l-.21.55c-1.74-2.33-5.26-2.85-6.87-5.29a3.38,3.38,0,0,1-.61-2.08A2.14,2.14,0,0,1,412.23,301Z" style="fill:#263238"></path><path d="M416.1,314.38s.06-.13.27-.2a1.29,1.29,0,0,1,.9.09,7.68,7.68,0,0,1,1.05.67,6.21,6.21,0,0,0,1.29.64,9.73,9.73,0,0,0,3.7.32c0,.06-.37.29-1.09.42a5.41,5.41,0,0,1-2.79-.25,5.81,5.81,0,0,1-1.38-.73c-.4-.29-.67-.58-.95-.74A1.73,1.73,0,0,0,416.1,314.38Z" style="fill:#263238"></path><path d="M422.86,307a12.58,12.58,0,0,1,1.36,2.62,13.53,13.53,0,0,1,1.21,2.71,6.48,6.48,0,0,1-1.68-2.48A6.61,6.61,0,0,1,422.86,307Z" style="fill:#263238"></path><path d="M426.52,301.32a7.7,7.7,0,0,0-.35,1.46,5.09,5.09,0,0,0,.2,1.61,13.56,13.56,0,0,0,.74,1.89,11.4,11.4,0,0,1,.73,2,4.5,4.5,0,0,1,.1,1.76c-.15,1-.68,1.48-.71,1.43a7.7,7.7,0,0,0,.35-1.46,5.4,5.4,0,0,0-.2-1.61,15.08,15.08,0,0,0-.75-1.89,13.31,13.31,0,0,1-.73-2,4.68,4.68,0,0,1-.09-1.76C426,301.72,426.49,301.27,426.52,301.32Z" style="fill:#263238"></path><path d="M436.05,304.34a7.36,7.36,0,0,1,0,1.43,11.94,11.94,0,0,1-.35,3.47,5.67,5.67,0,0,1-2.21,2.73,3.54,3.54,0,0,1-1.26.71c0-.06.38-.42,1-1a6.22,6.22,0,0,0,1.94-2.62,17.87,17.87,0,0,0,.48-3.33A3,3,0,0,1,436.05,304.34Z" style="fill:#263238"></path><path d="M436.26,315.14c-.05-.14.86-.56,1.77-1.34s1.5-1.58,1.63-1.51-.28,1.07-1.29,1.91A3.08,3.08,0,0,1,436.26,315.14Z" style="fill:#263238"></path><path d="M444.25,316.18a8.56,8.56,0,0,1-7.5,2.21c0-.16,1.8-.07,3.87-.7S444.16,316.05,444.25,316.18Z" style="fill:#263238"></path><path d="M422.72,297.57a2.23,2.23,0,0,1,1.37-1.91,2.11,2.11,0,0,1,1.66.43,7.22,7.22,0,0,1,2.9,5.57,20.3,20.3,0,0,1-.88,6.41l-.84-.79a24.47,24.47,0,0,1-3.2-4.43A8.36,8.36,0,0,1,422.72,297.57Z" style="fill:#263238"></path><path d="M421.4,303.17a1,1,0,0,1,.93.09,2.32,2.32,0,0,1,.67.69,7.46,7.46,0,0,1,1.15,6l-.18.15a18.08,18.08,0,0,1-2.07-2.54,6.3,6.3,0,0,1-1.07-3.06A1.36,1.36,0,0,1,421.4,303.17Z" style="fill:#263238"></path><path d="M433.37,301.43a3.71,3.71,0,0,1,2.93-2.87,4.63,4.63,0,0,1,3.56,1.6,4.24,4.24,0,0,1,1.52,2.66,5.24,5.24,0,0,1-1.41,3.32c-1.32,1.78-2.8,3.67-4.93,4.24l-.26-.4a26,26,0,0,0-1.09-4.23A8.39,8.39,0,0,1,433.37,301.43Z" style="fill:#263238"></path><path d="M418.38,315a6.22,6.22,0,0,0-6.08-4.37,3.24,3.24,0,0,0-2.33.93,4.2,4.2,0,0,0-.58,3.33,4.36,4.36,0,0,0,.77,2.29,3.51,3.51,0,0,0,2.69,1.05,6.69,6.69,0,0,0,5.64-3.17" style="fill:#263238"></path><path d="M440.49,318a8.37,8.37,0,0,1,2.75-3.37,3,3,0,0,1,2.57-.67,2.07,2.07,0,0,1,1.28,2.13,2.84,2.84,0,0,1-1.49,2.11,4.51,4.51,0,0,1-2.61.43,11.14,11.14,0,0,1-2.59-.69" style="fill:#263238"></path><path d="M438.23,314.17a4.89,4.89,0,0,1,2.87-4.62,2.23,2.23,0,0,1,1.39-.21,1.1,1.1,0,0,1,.87,1,1.64,1.64,0,0,1-.58,1.06c-.53.55-1.08,1.09-1.65,1.59a5.88,5.88,0,0,1-1.33.95,2.31,2.31,0,0,1-1.59.18" style="fill:#263238"></path><path d="M440,323.3c-.1.12-.92-.44-2-.84a15.49,15.49,0,0,1-2.11-.68,3.06,3.06,0,0,1,2.29.19C439.36,322.41,440.1,323.2,440,323.3Z" style="fill:#263238"></path><path d="M436.05,329.48c-.15,0-.46-1.47-1.25-3.13s-1.73-2.86-1.61-3a6.05,6.05,0,0,1,2.08,2.74A6.16,6.16,0,0,1,436.05,329.48Z" style="fill:#263238"></path><path d="M427.5,334.85c-.15-.05.62-2.27.82-5.13s-.22-5.16-.06-5.19a11.62,11.62,0,0,1,.58,5.23A11.4,11.4,0,0,1,427.5,334.85Z" style="fill:#263238"></path><path d="M419.12,331.48c0-.07.48-.33,1.21-.82a4.08,4.08,0,0,0,1.07-1.05,3.07,3.07,0,0,0,.38-1.75,5,5,0,0,1,.32-2,7.32,7.32,0,0,1,.79-1.44c.54-.75.94-1.15,1-1.11a5.44,5.44,0,0,1-.68,1.31,5.77,5.77,0,0,0-.91,3.25,3.37,3.37,0,0,1-.5,2,3.78,3.78,0,0,1-1.27,1.09A3,3,0,0,1,419.12,331.48Z" style="fill:#263238"></path><path d="M418.81,322.83c-.11-.1.34-.71,1.09-1.24s1.48-.74,1.54-.61-.53.53-1.24,1S418.91,322.93,418.81,322.83Z" style="fill:#263238"></path><path d="M411.38,326.56a9.5,9.5,0,0,1,.79-2.81,4.51,4.51,0,0,1,2-2.1c1.57-.79,3.48-.32,5.08.42l.2.67a20.67,20.67,0,0,1-2.48,3.5,7.57,7.57,0,0,1-3.59,2.27,1.75,1.75,0,0,1-1.65-.24A1.92,1.92,0,0,1,411.38,326.56Z" style="fill:#263238"></path><path d="M418.39,331.62a9.44,9.44,0,0,1,1-1,6.54,6.54,0,0,0,2.3-4.2l.73,1.09a24.12,24.12,0,0,1,.23,3.89,4.35,4.35,0,0,1-.56,2.4,2.42,2.42,0,0,1-1.7,1,2.39,2.39,0,0,1-1.88-.61,1.87,1.87,0,0,1-.64-1.31A2.08,2.08,0,0,1,418.39,331.62Z" style="fill:#263238"></path><path d="M426,337.23H426Z" style="fill:#263238"></path><path d="M425.19,335.84c-.11-.52.32-1.1.48-1.61a10.22,10.22,0,0,1,2.22-3.81.86.86,0,0,1,.5-.32c.41-.07.71.28.87.58a8.23,8.23,0,0,1,1.12,2.85,3.19,3.19,0,0,1-.92,2.82,3.91,3.91,0,0,1-3.45.89C425.41,337,425.31,336.36,425.19,335.84Z" style="fill:#263238"></path><path d="M435.78,326.62h0a10.59,10.59,0,0,1,3,2.1,3.55,3.55,0,0,1,.86,3.38,3.39,3.39,0,0,1-1.53,1.73,2.34,2.34,0,0,1-1.73.38c-.83-.21-1.32-1-1.72-1.79a3.83,3.83,0,0,1,1.16-5.81Z" style="fill:#263238"></path><path d="M438.83,322.84l-.14-.14a6.79,6.79,0,0,1,3.79.15,2.14,2.14,0,0,1,1.06.64,1.85,1.85,0,0,1,.23,1.59,2.9,2.9,0,0,1-1.31,1.77,1.85,1.85,0,0,1-2,0,2.55,2.55,0,0,1-.71-1.05,22.35,22.35,0,0,1-1.13-3.05Z" style="fill:#263238"></path><rect x="516.26" y="228.05" width="80.5" height="19.93" transform="translate(-48.13 210.39) rotate(-20.54)" style="fill:#e0e0e0"></rect><circle cx="603.73" cy="220.32" r="16.47" style="fill:#455a64"></circle><path d="M603.73,237.28a17,17,0,1,1,17-17A17,17,0,0,1,603.73,237.28Zm0-32.93a16,16,0,1,0,16,16A16,16,0,0,0,603.73,204.35Z" style="fill:#e0e0e0"></path><circle cx="618.62" cy="463.27" r="7.92" transform="translate(-85.66 144.98) rotate(-12.51)" style="fill:#263238"></circle><circle cx="548.66" cy="463.27" r="7.92" transform="translate(-91.5 137.94) rotate(-13.24)" style="fill:#263238"></circle><circle cx="649.61" cy="463.27" r="7.92" transform="translate(-88.82 161.05) rotate(-13.24)" style="fill:#263238"></circle><polygon points="653.76 310.45 653.76 455.35 543.42 455.35 543.42 357.54 653.76 310.45" style="fill:#e0e0e0"></polygon><g style="opacity:0.30000000000000004"><polygon points="653.76 310.45 653.76 455.35 543.42 455.35 543.42 357.54 653.76 310.45"></polygon></g><polygon points="653.76 310.45 621.65 357.39 543.42 357.39 578.56 310.45 653.76 310.45" style="fill:#e0e0e0"></polygon><path d="M639.38,318.9l-11.13,15.39a7.47,7.47,0,0,1-6,3.09H569.32a1.93,1.93,0,0,1-1.55-3.08L580,318a7.46,7.46,0,0,1,6-3h51.44A2.46,2.46,0,0,1,639.38,318.9Z" style="fill:#455a64"></path><path d="M575,328.06a1.92,1.92,0,0,0,.88.3,3.91,3.91,0,0,0,2.38-1.14,7.84,7.84,0,0,1,1.61-1.2,3.13,3.13,0,0,1,1.13-.36,1.58,1.58,0,0,1,1.24.38c.74.66.64,1.75,1.14,2.46a1.11,1.11,0,0,0,1.12.48,2.65,2.65,0,0,0,1.26-.7,6.61,6.61,0,0,0,1-1.23,5.67,5.67,0,0,1,1.23-1.27,1.79,1.79,0,0,1,1.88-.23,2.25,2.25,0,0,1,1.11,1.62c.15.63.21,1.27.32,1.9a2.43,2.43,0,0,0,.74,1.59,1.32,1.32,0,0,0,1.61-.13A5.53,5.53,0,0,0,595,329q1.18-1.75,2.42-3.6l1.25-1.85a18.11,18.11,0,0,1,1.36-1.87,5.15,5.15,0,0,1,1.91-1.49,2.74,2.74,0,0,1,2.5.2,4.71,4.71,0,0,1,1.78,4.52,42.44,42.44,0,0,0-.65,4.73,2.92,2.92,0,0,0,.73,2,2.63,2.63,0,0,0,2,.66,3.8,3.8,0,0,0,2-.68,5.55,5.55,0,0,0,1.42-1.59,26.38,26.38,0,0,0,1.71-3.93,8,8,0,0,1,2.37-3.46,3.91,3.91,0,0,1,3.91-.49A2.54,2.54,0,0,1,621,323.6a4,4,0,0,1,.13,1.86c-.16,1.2-.62,2.23-.68,3.27a2.46,2.46,0,0,0,1.13,2.43,1.41,1.41,0,0,0,1.22,0,2.55,2.55,0,0,0,.94-.79c.51-.65.86-1.37,1.35-1.94a5.9,5.9,0,0,1,4.19-2.08,4,4,0,0,1,1,.06s-.33,0-1,0a6,6,0,0,0-2.55.86,5.53,5.53,0,0,0-1.46,1.28c-.45.54-.79,1.26-1.31,2a2.87,2.87,0,0,1-1,.9,1.73,1.73,0,0,1-1.49,0A2.78,2.78,0,0,1,620,328.7c.06-1.11.51-2.17.66-3.29a3.57,3.57,0,0,0-.13-1.66,2.13,2.13,0,0,0-1.11-1.21A3.49,3.49,0,0,0,616,323a7.62,7.62,0,0,0-2.2,3.28,27.19,27.19,0,0,1-1.74,4,5.82,5.82,0,0,1-1.55,1.74,4.3,4.3,0,0,1-2.26.78,3.1,3.1,0,0,1-2.33-.81,3.35,3.35,0,0,1-.89-2.33,41.09,41.09,0,0,1,.66-4.8,5.12,5.12,0,0,0-.24-2.28,3.42,3.42,0,0,0-1.31-1.75,2.21,2.21,0,0,0-2-.17,4.65,4.65,0,0,0-1.71,1.35c-.95,1.15-1.74,2.47-2.59,3.67s-1.64,2.42-2.43,3.59a6.11,6.11,0,0,1-1.42,1.63,2.14,2.14,0,0,1-1.05.43,1.68,1.68,0,0,1-1.11-.31,2.8,2.8,0,0,1-.91-1.88c-.11-.66-.16-1.29-.3-1.88a1.83,1.83,0,0,0-.87-1.35,1.39,1.39,0,0,0-1.47.19,5.32,5.32,0,0,0-1.15,1.17,7.71,7.71,0,0,1-1.08,1.28,3.1,3.1,0,0,1-1.45.77,1.47,1.47,0,0,1-1.45-.64c-.56-.89-.45-1.91-1.06-2.43a1.82,1.82,0,0,0-2.06,0,7.36,7.36,0,0,0-1.6,1.14,3.85,3.85,0,0,1-2.52,1.08,1.37,1.37,0,0,1-.68-.24Z" style="fill:#fff"></path><path d="M569.45,343.87c-2.28,1.89-2.83,5-1.24,6.9s4.74,2,7,.05,2.84-5,1.24-6.9S571.73,342,569.45,343.87Z" style="fill:#AA8EDB"></path><path d="M609.82,351.05a1,1,0,0,0-.26,1.45,1.14,1.14,0,1,0,.26-1.45Z" style="fill:#fafafa"></path><path d="M603.49,351.05a1,1,0,1,0,1.21,1.46,1,1,0,1,0-1.21-1.46Z" style="fill:#fafafa"></path><path d="M597.17,351.05a1,1,0,1,0,1.47,0A1.05,1.05,0,0,0,597.17,351.05Z" style="fill:#fafafa"></path><path d="M590.84,351.05a1,1,0,1,0,1.21,1.46,1,1,0,1,0-1.21-1.46Z" style="fill:#fafafa"></path><path d="M613,346.42a1,1,0,1,0,1.47,0A1.05,1.05,0,0,0,613,346.42Z" style="fill:#AA8EDB"></path><path d="M606.66,346.42a1,1,0,1,0,1.46,0A1,1,0,0,0,606.66,346.42Z" style="fill:#AA8EDB"></path><path d="M600.33,346.42a1,1,0,1,0,1.47,0A1.05,1.05,0,0,0,600.33,346.42Z" style="fill:#AA8EDB"></path><path d="M594,346.42a1,1,0,1,0,1.21,1.46,1,1,0,1,0-1.21-1.46Z" style="fill:#AA8EDB"></path><path d="M616.13,341.8a1,1,0,1,0,1.21,1.46,1,1,0,0,0,.26-1.44A1,1,0,0,0,616.13,341.8Z" style="fill:#455a64"></path><path d="M609.81,341.8a1,1,0,1,0,1.47,0A1,1,0,0,0,609.81,341.8Z" style="fill:#455a64"></path><path d="M603.48,341.8a1.06,1.06,0,0,0-.26,1.45,1,1,0,0,0,1.47,0,1,1,0,0,0,.26-1.44A1,1,0,0,0,603.48,341.8Z" style="fill:#455a64"></path><path d="M597.16,341.8a1,1,0,1,0,1.47,0A1,1,0,0,0,597.16,341.8Z" style="fill:#455a64"></path><path d="M621.38,455.73c-.14,0-.26-21.88-.26-48.87s.12-48.88.26-48.88.26,21.88.26,48.88S621.53,455.73,621.38,455.73Z" style="fill:#263238"></path><path d="M553.29,446.13s0-.12,0-.39,0-.67,0-1.18c0-1.07,0-2.63,0-4.64,0-4.08,0-10-.07-17.52,0-15.08-.07-36.44-.12-61.59v-.23h.24l56.88,0h.27v.26c0,32.17,0,61.83-.06,85.32v.21h-.2l-41.52-.11-11.4-.05-3,0c-.67,0-1,0-1,0l1.05,0,3,0,11.45-.06,41.39-.11-.21.21c0-23.49,0-53.15-.05-85.32l.26.26h0l-56.88,0,.24-.24c0,25.09-.09,46.39-.12,61.43,0,7.53,0,13.48-.06,17.58,0,2,0,3.6,0,4.68,0,.52,0,.92,0,1.21S553.29,446.13,553.29,446.13Z" style="fill:#263238"></path><path d="M524.36,286.93c-.14,0-.26-13.58-.26-30.33s.12-30.34.26-30.34.26,13.58.26,30.34S524.51,286.93,524.36,286.93Z" style="fill:#263238"></path><rect x="274.41" y="241.98" width="39.86" height="5.24" style="fill:#fff"></rect><rect x="274.41" y="251.42" width="17.28" height="5.24" style="fill:#fff"></rect><path d="M640,310.6c0,.15-13.73.26-30.66.26s-30.66-.11-30.66-.26,13.72-.26,30.66-.26S640,310.46,640,310.6Z" style="fill:#263238"></path></g><g id="freepik--device-1--inject-350"><rect x="81.74" y="183.28" width="57.16" height="287.91" style="fill:#e0e0e0"></rect><g style="opacity:0.30000000000000004"><rect x="81.74" y="183.28" width="28.58" height="287.91"></rect></g><path d="M102.49,471.2c-.14,0-.26-62.7-.26-140s.12-140,.26-140,.26,62.68.26,140S102.63,471.2,102.49,471.2Z"></path><path d="M139.09,190.07c0,.15-12.61.26-28.17.26s-28.17-.11-28.17-.26,12.61-.26,28.17-.26S139.09,189.93,139.09,190.07Z"></path><polygon points="123.64 269.48 125.81 218.25 145.56 218.25 141.22 269.48 123.64 269.48" style="fill:#263238"></polygon><g style="opacity:0.30000000000000004"><polygon points="125.81 218.25 121.6 218.25 121.6 269.48 123.64 269.48 125.81 218.25"></polygon></g><path d="M125.81,287.53h10.9l20.66-24v-65a5,5,0,0,1,5-5.05h75.44a5.47,5.47,0,0,1,5.46,5.47v24l-3.21,9.68h-2.49l-.45,31.82H226.37L215.58,236v-3.32h-6.09l-1.93,3.88H192.62v58.1H176.29l-8.85,8.85h67.78v6.91H125.81C122.35,302.6,122.18,295,125.81,287.53Z" style="fill:#e0e0e0"></path><path d="M240,232.66c0,.14-5.64.26-12.61.26s-12.61-.12-12.61-.26,5.65-.26,12.61-.26S240,232.52,240,232.66Z" style="fill:#263238"></path><g style="opacity:0.30000000000000004"><path d="M176.29,294.64c.89-.89,0-57.84,0-57.84h16.33v57.84Z"></path></g><g style="opacity:0.30000000000000004"><path d="M229,264.52l-.11-71.14h8.75a5.63,5.63,0,0,1,5.63,5.62v24l-3.21,9.68h-2.49l-.45,31.82Z"></path></g><path d="M157.36,263.56a2.15,2.15,0,0,1-.32.46l-1,1.26-3.83,4.58c-3.32,3.88-7.83,9.15-12.8,15l-2.48,2.86,0,0a22.78,22.78,0,0,0-2.66,8.94,24.89,24.89,0,0,0,.44,7.54,24,24,0,0,0,1.54,4.8c.49,1.09.8,1.66.76,1.68s-.11-.12-.27-.39-.41-.66-.66-1.21a21.73,21.73,0,0,1-1.71-4.81,24.58,24.58,0,0,1-.56-7.64,23.08,23.08,0,0,1,2.67-9.16v0l0,0L139,284.5l12.92-14.88c1.63-1.85,3-3.36,4-4.47L157,264A2.4,2.4,0,0,1,157.36,263.56Z" style="fill:#263238"></path><path d="M159.82,310.4a28.52,28.52,0,0,1,3.82-3.89,29.13,29.13,0,0,1,4.17-3.52,28.24,28.24,0,0,1-3.82,3.9A28.62,28.62,0,0,1,159.82,310.4Z" style="fill:#263238"></path><path d="M193.55,236.47l-.31,0-.92,0-3.5.06-12.53.09.22-.22c0,5.84,0,12.81,0,20.3,0,10.35-.05,19.71-.07,26.56,0,3.35-.06,6.09-.08,8,0,.92,0,1.64-.05,2.19a3.93,3.93,0,0,1-.06.77,6.77,6.77,0,0,1,0-.77c0-.55,0-1.27-.05-2.19,0-1.95-.05-4.69-.08-8,0-6.85-.05-16.21-.08-26.56,0-7.49,0-14.46.05-20.3v-.22h.21l12.53.09,3.5.06.92,0A1.2,1.2,0,0,1,193.55,236.47Z" style="fill:#263238"></path><g style="opacity:0.30000000000000004"><rect x="224.32" y="302.99" width="11.36" height="7.41"></rect></g><path d="M229,264.52c-.14,0-.26-15.86-.26-35.42s.12-35.42.26-35.42.26,15.85.26,35.42S229.18,264.52,229,264.52Z" style="fill:#263238"></path><g style="opacity:0.30000000000000004"><rect x="168.87" y="219.91" width="53.11" height="3.53" rx="1.12"></rect></g><g style="opacity:0.30000000000000004"><rect x="168.87" y="213.75" width="53.11" height="3.53" rx="1.12"></rect></g><path d="M153.29,377.72a15,15,0,0,1-5.31-1,18.64,18.64,0,0,1-10.48-11.33,51,51,0,0,1-2.83-15c-.1-2.71-.35-5.73-2-7.27a6,6,0,0,0-4.49-1.2l-.14-3a8.85,8.85,0,0,1,6.66,2c2.52,2.32,2.86,6.05,3,9.36a48.46,48.46,0,0,0,2.67,14.12,15.64,15.64,0,0,0,8.73,9.52,11.43,11.43,0,0,0,12-2.23,13.66,13.66,0,0,0,3.45-9.16c.24-6.34-2.38-12.49-4.68-17.14-2-4-3.9-8.07-5.76-12-.77-1.63-1.53-3.25-2.31-4.88-2.56-5.4-3.3-9.59-3.15-17.93l3,0c-.14,7.9.5,11.62,2.86,16.59.78,1.63,1.54,3.26,2.31,4.89,1.85,3.93,3.77,8,5.73,12,2.47,5,5.26,11.56,5,18.58a16.63,16.63,0,0,1-4.32,11.15A13.89,13.89,0,0,1,153.29,377.72Z" style="fill:#263238"></path><path d="M144,310.62a8.19,8.19,0,0,1-1.36.09l-3.77.07-13.05.09h-.15l-.07-.13a22.07,22.07,0,0,1-2.41-7.36,26.79,26.79,0,0,1,.24-8.8,31,31,0,0,1,2.2-7.13l.06-.12h.13l7.07.09,1.94.05a3.1,3.1,0,0,1,.68.06,3.1,3.1,0,0,1-.68.06l-1.94.06-7.07.09.18-.12a31.53,31.53,0,0,0-2.09,7,27,27,0,0,0-.2,8.65,22.31,22.31,0,0,0,2.32,7.2l-.21-.13,13.05.09,3.77.07A11.38,11.38,0,0,1,144,310.62Z" style="fill:#263238"></path></g></svg>
