<svg xmlns="http://www.w3.org/2000/svg" viewBox="0 0 500 500"><g id="freepik--Floor--inject-321"><path d="M456.43,466.26c0,.14-94.67.26-211.42.26s-211.44-.12-211.44-.26S128.22,466,245,466,456.43,466.11,456.43,466.26Z" style="fill:#263238"></path></g><g id="freepik--female-sexual-organs--inject-321"><path d="M140.88,187.3a40.75,40.75,0,0,0,51.32-14.64,201.89,201.89,0,0,1-2.15,25.16c-20.86-.35-41.77,4.29-58.91,16.17Z" style="fill:#AA8EDB"></path><g style="opacity:0.7000000000000001"><path d="M140.88,187.3a40.75,40.75,0,0,0,51.32-14.64,201.89,201.89,0,0,1-2.15,25.16c-20.86-.35-41.77,4.29-58.91,16.17Z" style="fill:#fff"></path></g><path d="M349.48,188.34a40.79,40.79,0,0,1-51.33-14.65,200,200,0,0,0,2.16,25.16c20.85-.35,41.77,4.29,58.91,16.17Z" style="fill:#AA8EDB"></path><g style="opacity:0.7000000000000001"><path d="M349.48,188.34a40.79,40.79,0,0,1-51.33-14.65,200,200,0,0,0,2.16,25.16c20.85-.35,41.77,4.29,58.91,16.17Z" style="fill:#fff"></path></g><path d="M427.23,135.15c-2.35-10.07-6.46-22.41-24.76-28.36a31.35,31.35,0,0,0-17.84-15.48c-12.81-4.19-17.84-1-22.87,4.5s-4.57,8.69-15.55,11-20.12-.46-26.07,5-5.49,17.38-11,25.16-10.06,14.18-23.32,12.35-28.12-5.8-39-6.86a21.63,21.63,0,0,0-3.68,0c-10.88.91-25.72,5-39,6.86s-17.84-4.58-23.33-12.35-5-19.67-11-25.16-15.09-2.74-26.07-5-10.52-5.49-15.55-11-10.06-8.69-22.87-4.5a31.35,31.35,0,0,0-17.84,15.48c-18.29,5.95-22.41,18.29-24.75,28.36s7.83,27.9,15.61,38.42S87,202.21,87,202.21l40.61-34.29S80.7,169,83.45,140.64s27.9-35.68,37.05-29.28,7.31,9.15,14.63,9.15S153,115,160.29,121s5.94,12.81,6.86,19.67,0,11.89,7.77,16.92,16.47,5,16.93,17.38-10.06,37.51-2.75,56.72S212,255.44,212,272.82s-5,27,0,46.2,15.1,28.36,14.64,50.31l-.46,22a40.14,40.14,0,0,1,17-5.4h3.68a40.06,40.06,0,0,1,17,5.4l-.46-22C263,347.38,273,338.23,278.06,319s0-28.82,0-46.2,15.55-21.95,22.87-41.16-3.2-44.37-2.74-56.72,9.14-12.35,16.92-17.38,6.86-10.06,7.77-16.92-.45-13.73,6.87-19.67,17.83-.46,25.15-.46,5.49-2.74,14.64-9.15,34.3.92,37,29.28-42.38,26.68-42.38,26.68l41.26,33.51s-.65-15.16,6.15-27.26C418,162.16,429.57,145.21,427.23,135.15Z" style="fill:#AA8EDB"></path><path d="M427.23,135.15c-2.35-10.07-6.46-22.41-24.76-28.36a31.35,31.35,0,0,0-17.84-15.48c-12.81-4.19-17.84-1-22.87,4.5s-4.57,8.69-15.55,11-20.12-.46-26.07,5-5.49,17.38-11,25.16-10.06,14.18-23.32,12.35-28.12-5.8-39-6.86a21.63,21.63,0,0,0-3.68,0c-10.88.91-25.72,5-39,6.86s-17.84-4.58-23.33-12.35-5-19.67-11-25.16-15.09-2.74-26.07-5-10.52-5.49-15.55-11-10.06-8.69-22.87-4.5a31.35,31.35,0,0,0-17.84,15.48c-18.29,5.95-22.41,18.29-24.75,28.36s7.83,27.9,15.61,38.42S87,202.21,87,202.21l40.61-34.29S80.7,169,83.45,140.64s27.9-35.68,37.05-29.28,7.31,9.15,14.63,9.15S153,115,160.29,121s5.94,12.81,6.86,19.67,0,11.89,7.77,16.92,16.47,5,16.93,17.38-10.06,37.51-2.75,56.72S212,255.44,212,272.82s-5,27,0,46.2,15.1,28.36,14.64,50.31l-.46,22a40.14,40.14,0,0,1,17-5.4h3.68a40.06,40.06,0,0,1,17,5.4l-.46-22C263,347.38,273,338.23,278.06,319s0-28.82,0-46.2,15.55-21.95,22.87-41.16-3.2-44.37-2.74-56.72,9.14-12.35,16.92-17.38,6.86-10.06,7.77-16.92-.45-13.73,6.87-19.67,17.83-.46,25.15-.46,5.49-2.74,14.64-9.15,34.3.92,37,29.28-42.38,26.68-42.38,26.68l41.26,33.51s-.65-15.16,6.15-27.26C418,162.16,429.57,145.21,427.23,135.15Z" style="fill:#fff;opacity:0.4"></path><path d="M199.08,171.77a1.42,1.42,0,0,1,.32.18c.21.14.52.34.9.63a24.75,24.75,0,0,1,3.13,2.8,27.9,27.9,0,0,1,3.95,5.36,28.91,28.91,0,0,1,3.11,8.24c.74,3.21.69,6.82.88,10.64s.29,7.92.63,12.2a73,73,0,0,0,2.05,13.3,25.25,25.25,0,0,0,2.7,6.54,37.83,37.83,0,0,0,4.34,5.87,113.48,113.48,0,0,0,10.57,9.9,15.44,15.44,0,0,1,2.46,2.52,5.78,5.78,0,0,1,1.15,3.3c0,1.16-.1,2.28-.11,3.36a4.94,4.94,0,0,0,.72,3c.58.84,1.53,1.43,2.11,2.4a3.72,3.72,0,0,1,.16,3.17c-.34,1-.85,1.88-1.24,2.77a6.31,6.31,0,0,0-.67,2.73c.1,1.86,1.35,3.38,2,5.08a5.45,5.45,0,0,1,.35,2.64,11.24,11.24,0,0,1-.64,2.46,13.47,13.47,0,0,0-1.17,4.41,3.42,3.42,0,0,0,.64,1.91c.39.55.9,1,1.3,1.52a2.42,2.42,0,0,1,.59,1.83,7.27,7.27,0,0,1-.55,1.67,2.57,2.57,0,0,0-.21,1.49,3.44,3.44,0,0,0,.68,1.21,2.4,2.4,0,0,1,.57,1.19,3.29,3.29,0,0,1-.11,1.15c-.18.68-.39,1.24-.47,1.7a1.23,1.23,0,0,0,.17,1c.14.19.27.24.25.26a.8.8,0,0,1-.29-.23,1.3,1.3,0,0,1-.23-1.06c.07-.48.28-1.05.43-1.73a2.8,2.8,0,0,0,.08-1.09,2.27,2.27,0,0,0-.54-1.1,3.38,3.38,0,0,1-.74-1.27,2.76,2.76,0,0,1,.2-1.62,7.45,7.45,0,0,0,.51-1.62,2.09,2.09,0,0,0-.55-1.63c-.38-.5-.89-.95-1.32-1.52a3.74,3.74,0,0,1-.71-2.07,13.18,13.18,0,0,1,1.16-4.53,6.58,6.58,0,0,0,.26-4.86c-.31-.82-.76-1.6-1.17-2.44a6.87,6.87,0,0,1-.85-2.75c-.07-2.08,1.27-3.78,1.9-5.65a3.27,3.27,0,0,0-.13-2.82c-.5-.86-1.44-1.45-2.1-2.37a5.34,5.34,0,0,1-.81-3.25c0-1.13.16-2.23.11-3.33a5.33,5.33,0,0,0-1.07-3.06,15,15,0,0,0-2.4-2.44,114,114,0,0,1-10.62-9.93,38.57,38.57,0,0,1-4.39-6,26,26,0,0,1-2.74-6.64,72.86,72.86,0,0,1-2-13.39c-.33-4.3-.45-8.4-.59-12.23s-.1-7.41-.81-10.58a29,29,0,0,0-3-8.18,28.22,28.22,0,0,0-3.85-5.36,26.87,26.87,0,0,0-3.06-2.86c-.37-.3-.67-.51-.86-.66Z" style="fill:#263238"></path><path d="M261.91,317.64a1.29,1.29,0,0,1-.3.24,9.67,9.67,0,0,1-.92.61,18.71,18.71,0,0,1-3.7,1.68c-3.26,1.17-8,1.66-13.24,1.75a63.84,63.84,0,0,1-7.37-.08,21.14,21.14,0,0,1-5.88-1.3,13.8,13.8,0,0,1-3.55-2,9.48,9.48,0,0,1-.83-.73c-.18-.18-.26-.28-.25-.3s.41.34,1.19.88a14.67,14.67,0,0,0,3.55,1.82,21.74,21.74,0,0,0,5.81,1.18,68,68,0,0,0,7.32.05c5.2-.09,9.91-.53,13.14-1.6A28.39,28.39,0,0,0,261.91,317.64Z"></path><path d="M423.84,135.4c-1.64-9.6-2.35-20.15-21.09-25.77,0,0-4.43-1.41-5.26-3.28S390.35,92.64,377.3,93s-14.85,5.86-20,11-9.37,5.63-14.06,5.86-16.4-1.17-20.62,3.52S313.48,127,312.3,134.7s-4,18-10.77,22-25.31,15.23-44,16.41c-6.72.42-10.24.63-12,.72l-.27,0v0h-.39v0l-.26,0c-1.76-.09-5.28-.3-12-.72-18.75-1.18-37.26-12.42-44.05-16.41s-9.61-14.29-10.78-22-6.09-16.64-10.31-21.32-15.93-3.28-20.62-3.52-8.9-.7-14.06-5.86-7-10.66-20-11-19.35,11.48-20.18,13.36-5.26,3.28-5.26,3.28C68.54,115.25,67.84,125.8,66.2,135.4s.34,12.57,4,20.39c3.54,7.59,11.25,13.12,13.69,22.45s4.21,17.82,4.21,17.82l37.65-27.32s-14.22-2-19.93-1.91-8.06-3-13.25-5.26S81.94,151,81.38,146.34a43.68,43.68,0,0,1,3.7-21c3.36-6.94,13.44-15,19.6-17.36s14.78-.11,17.47,1,7.39,7.28,9,8.18,5,1.23,8.29.89,7.39-2.8,13.42-2.57,10.77,4.7,12.45,6.72,2.69,7.61,4.25,16.35,2.92,10.08,4.26,12.54,6.51,9.28,17.47,12.88,18.14,13,22.18,16.58,4.14,10.75,5.26,14.78,1.46,12.21,2.91,20.05,9.3,14.33,12.32,17.24a34.1,34.1,0,0,1,7.39,10.87,10.25,10.25,0,0,1,.67,6c-.22,1.68-1.79,2.58-2.91,4.15s-.33.89-.22,3.47,2,3.92,3,4.93a3.45,3.45,0,0,1,.45,3.69c-.45,1-2.58,5.16-2.58,5.16a10.22,10.22,0,0,0,.45,3.47c.56,1.56,1.57,1.9,1.79,4a5.62,5.62,0,0,1-1.68,4.7c-1,1-.22,1.12.34,3.47s1.79,3.14,1.46,4.26-1.24.9-1,2.58,1.34,2.57,1.34,4-.56,1.68-.67,2.24.56,9.18.11,11.31a5.87,5.87,0,0,1-5.49,4.81c-3.58.45-4.92,0-8.73-3.36s-5.38-11.08-5.94-13.55-.67-4.81-2.8-4.48-2.24,6.5-2.46,10.08.78,4.93,1.68,8.51,4.26,4.6,5.71,6.28,1.12,3.58-.33,5.93-1.12,1.68-1,4.26,2.69,2.46,4.14,4.93.22,3.47-.11,6.49,1.68,2.24,3.81,4.26,2.12,2.46,2.24,5.15-1.12,5.6-.12,8.73,2.58,2.58,2.69,5-2.69,2.24-3.36,4.15,3.25,3.13,3.59,5.93-.79,1.46-2.13,2.92-1.12,1.79,0,2.68.56,1.57.11,3-2.46.78-1.68,1.9-.31,3.94-.31,3.94a47.93,47.93,0,0,1,13.54-2.82,36.89,36.89,0,0,1,13,2.51s-.3-2.51.48-3.63-1.23-.45-1.68-1.9-1-2.13.11-3,1.35-1.23,0-2.68-2.46-.12-2.12-2.92,4.25-4,3.58-5.93-3.47-1.68-3.36-4.15,1.68-1.9,2.69-5-.23-6-.11-8.73.11-3.14,2.24-5.15,4.14-1.23,3.8-4.26-1.56-4-.11-6.49,4-2.36,4.15-4.93.44-1.91-1-4.26-1.79-4.25-.34-5.93,4.82-2.69,5.71-6.28,1.91-4.92,1.68-8.51-.33-9.74-2.46-10.08-2.24,2-2.8,4.48-2.13,10.2-5.94,13.55-5.15,3.81-8.73,3.36a5.87,5.87,0,0,1-5.49-4.81c-.45-2.13.22-10.75.11-11.31s-.67-.79-.67-2.24,1.12-2.35,1.34-4-.67-1.46-1-2.58.89-1.9,1.45-4.26,1.35-2.46.34-3.47a5.62,5.62,0,0,1-1.68-4.7c.22-2.13,1.23-2.47,1.79-4a10.22,10.22,0,0,0,.45-3.47s-2.13-4.15-2.58-5.16a3.47,3.47,0,0,1,.45-3.69c1-1,2.91-2.35,3-4.93s.9-1.9-.22-3.47-2.69-2.47-2.91-4.15a10.25,10.25,0,0,1,.67-6,34.1,34.1,0,0,1,7.39-10.87c3-2.91,10.87-9.4,12.32-17.24s1.79-16,2.91-20.05,1.24-11.2,5.27-14.78,11.21-13,22.17-16.58,16.13-10.41,17.47-12.88,2.69-3.81,4.26-12.54,2.58-14.34,4.26-16.35,6.41-6.5,12.44-6.72,10.18,2.24,13.43,2.57,6.72,0,8.28-.89,6.27-7.06,9-8.18,11.31-3.36,17.47-1,16.24,10.42,19.6,17.36a43.68,43.68,0,0,1,3.7,21c-.56,4.7-6,13-11.16,15.23s-7.54,5.37-13.26,5.26-19.93,1.91-19.93,1.91L404.42,198a71.5,71.5,0,0,1,1.74-19.8c2.45-9.33,10.16-14.86,13.69-22.45C423.49,148,425.48,145,423.84,135.4Z" style="fill:#AA8EDB"></path><path d="M291,171.77a2.1,2.1,0,0,1-.29.22c-.2.15-.5.36-.87.66a27.74,27.74,0,0,0-3.06,2.86,28.22,28.22,0,0,0-3.85,5.36,29,29,0,0,0-3,8.18c-.71,3.17-.64,6.75-.81,10.58s-.26,7.93-.59,12.23a72.86,72.86,0,0,1-2,13.39,25.61,25.61,0,0,1-2.74,6.64,38.57,38.57,0,0,1-4.39,6,112.74,112.74,0,0,1-10.62,9.93,15,15,0,0,0-2.4,2.44,5.32,5.32,0,0,0-1.06,3.06c-.06,1.1.09,2.2.1,3.33a5.34,5.34,0,0,1-.81,3.25c-.66.92-1.6,1.51-2.1,2.37a3.27,3.27,0,0,0-.13,2.82c.63,1.87,2,3.57,1.9,5.65a7,7,0,0,1-.84,2.75,24.53,24.53,0,0,0-1.17,2.44,6.53,6.53,0,0,0,.26,4.86,13.65,13.65,0,0,1,1.16,4.53,3.82,3.82,0,0,1-.72,2.07c-.42.57-.93,1-1.32,1.52a2.13,2.13,0,0,0-.55,1.63,7.45,7.45,0,0,0,.51,1.62,2.85,2.85,0,0,1,.21,1.62A3.67,3.67,0,0,1,251,295a2.21,2.21,0,0,0-.55,1.1,3,3,0,0,0,.08,1.09c.16.68.37,1.25.43,1.73a1.3,1.3,0,0,1-.22,1.06.77.77,0,0,1-.3.23s.11-.07.26-.26a1.24,1.24,0,0,0,.16-1c-.07-.46-.29-1-.47-1.7a3.3,3.3,0,0,1-.1-1.15,2.38,2.38,0,0,1,.56-1.19,3.47,3.47,0,0,0,.69-1.21,2.66,2.66,0,0,0-.22-1.49,7.27,7.27,0,0,1-.54-1.67,2.41,2.41,0,0,1,.58-1.83c.4-.52.91-1,1.3-1.52a3.43,3.43,0,0,0,.65-1.91,13.5,13.5,0,0,0-1.18-4.41,11.23,11.23,0,0,1-.63-2.46,5.45,5.45,0,0,1,.34-2.64c.62-1.7,1.87-3.22,2-5.08a6.17,6.17,0,0,0-.67-2.73c-.39-.89-.9-1.77-1.23-2.77A3.72,3.72,0,0,1,252,262c.59-1,1.53-1.56,2.12-2.4a5,5,0,0,0,.72-3c0-1.08-.17-2.2-.12-3.36a5.86,5.86,0,0,1,1.15-3.3,15.5,15.5,0,0,1,2.47-2.52,114.75,114.75,0,0,0,10.57-9.9,39.17,39.17,0,0,0,4.34-5.87,26,26,0,0,0,2.7-6.54,73.92,73.92,0,0,0,2.05-13.3c.34-4.28.48-8.38.63-12.2s.13-7.43.87-10.64a29.21,29.21,0,0,1,3.11-8.24,28.33,28.33,0,0,1,4-5.36,24.75,24.75,0,0,1,3.13-2.8c.39-.29.69-.49.9-.63A1.74,1.74,0,0,1,291,171.77Z" style="fill:#263238"></path><path d="M401.24,191a16,16,0,0,0-11.41-21.09c-3.43-.8-7.06-.47-10.44-1.45-2.12-.62-4.07-1.74-6.22-2.23-5.8-1.33-12,2.52-14.47,7.92-2.75-.27-5.07,2.11-6.24,4.62s-1.66,5.33-3.2,7.63c-.91,1.35-2.15,2.47-3,3.87a10.8,10.8,0,0,0-.84,8c.66,2.67,4.91,5.53,4.91,5.53s1.58,7.84,4.11,9.91,6.22,3.09,9.14,1.61a8.51,8.51,0,0,0,13.22.65,10.7,10.7,0,0,0,18.08-4.06,13.94,13.94,0,0,0,9.15-8.79C405.45,198.91,403.86,194.48,401.24,191Z" style="fill:#AA8EDB"></path><g style="opacity:0.7000000000000001"><path d="M401.24,191a16,16,0,0,0-11.41-21.09c-3.43-.8-7.06-.47-10.44-1.45-2.12-.62-4.07-1.74-6.22-2.23-5.8-1.33-12,2.52-14.47,7.92-2.75-.27-5.07,2.11-6.24,4.62s-1.66,5.33-3.2,7.63c-.91,1.35-2.15,2.47-3,3.87a10.8,10.8,0,0,0-.84,8c.66,2.67,4.91,5.53,4.91,5.53s1.58,7.84,4.11,9.91,6.22,3.09,9.14,1.61a8.51,8.51,0,0,0,13.22.65,10.7,10.7,0,0,0,18.08-4.06,13.94,13.94,0,0,0,9.15-8.79C405.45,198.91,403.86,194.48,401.24,191Z" style="fill:#fff"></path></g><path d="M364.21,209.94s.16.43.52,1.16a7.85,7.85,0,0,0,2.18,2.63,7.18,7.18,0,0,0,4.69,1.57,7.59,7.59,0,0,0,5.41-2.61,8.77,8.77,0,0,0,.91-1.34,3.66,3.66,0,0,1,1.12-1.3,5,5,0,0,1,1.52-.59,6.89,6.89,0,0,0,4.82-4,7.46,7.46,0,0,0,.67-3.34c0-.82-.18-1.26-.13-1.27s.06.1.12.31a4.23,4.23,0,0,1,.19.94,7,7,0,0,1-.54,3.49,7.44,7.44,0,0,1-3.56,3.82c-.91.47-2,.52-2.84,1s-1.12,1.7-1.92,2.57a7.94,7.94,0,0,1-5.75,2.73,7.63,7.63,0,0,1-7.05-4.55,4.62,4.62,0,0,1-.31-.91C364.21,210.05,364.19,209.94,364.21,209.94Z" style="fill:#263238"></path><path d="M393.43,202a26.35,26.35,0,0,0,2-2,11.1,11.1,0,0,0,1-12.75c-.88-1.52-1.72-2.27-1.65-2.33s.24.14.6.49a9.25,9.25,0,0,1,1.33,1.67,10.85,10.85,0,0,1-1.05,13.14,9.21,9.21,0,0,1-1.57,1.43C393.7,201.85,393.45,202,393.43,202Z" style="fill:#263238"></path><path d="M360.59,180.17a.86.86,0,0,1,0-.3,5.52,5.52,0,0,1,.19-.82,7.9,7.9,0,0,1,1.48-2.72,8.27,8.27,0,0,1,12.7.07l-.25-.07a6.48,6.48,0,0,1,4.19.09,6.87,6.87,0,0,1,2.77,1.8,5.81,5.81,0,0,1,1.18,1.82,2.37,2.37,0,0,1,.21.76,8.47,8.47,0,0,0-1.59-2.38,6.92,6.92,0,0,0-2.7-1.63,6.13,6.13,0,0,0-3.91,0l-.15.05-.1-.12a7.9,7.9,0,0,0-12.09-.14A10.1,10.1,0,0,0,360.59,180.17Z" style="fill:#263238"></path><path d="M363.17,214.81a1.63,1.63,0,0,1-.27.33,3.72,3.72,0,0,1-1,.67,4.39,4.39,0,0,1-1.92.29,9.36,9.36,0,0,1-2.5-.55,8.86,8.86,0,0,1-2.76-1.42,7.26,7.26,0,0,1-2.17-2.84,36.26,36.26,0,0,1-1.39-3.66,11.54,11.54,0,0,1-.39-2.06,9.89,9.89,0,0,1,0-1.09c0-.36.11-.75,0-.85a4.45,4.45,0,0,0-.88-.36,5.84,5.84,0,0,1-1-.46,7.88,7.88,0,0,1-1.69-1.25,9,9,0,0,1-2.18-3.31,8.94,8.94,0,0,1,.17-6.56,10.07,10.07,0,0,1,2.57-3.64,7.43,7.43,0,0,1,1-.75c.23-.15.36-.22.37-.2s-.46.36-1.2,1.09a10.27,10.27,0,0,0-2.38,3.63,8.48,8.48,0,0,0,2,9.4,7.28,7.28,0,0,0,1.6,1.18,5.94,5.94,0,0,0,.92.43l.48.17a1.38,1.38,0,0,1,.58.31.88.88,0,0,1,.19.68l0,.52a8.68,8.68,0,0,0,0,1,10.87,10.87,0,0,0,.37,2,37.15,37.15,0,0,0,1.34,3.61,7.12,7.12,0,0,0,2,2.72,9.25,9.25,0,0,0,2.63,1.41,10.08,10.08,0,0,0,2.41.6,4.43,4.43,0,0,0,1.83-.2A6.13,6.13,0,0,0,363.17,214.81Z" style="fill:#263238"></path><path d="M89.12,189.92a16,16,0,0,1,11.41-21.09c3.42-.8,7.06-.47,10.44-1.45,2.11-.62,4.07-1.74,6.22-2.23,5.79-1.33,12,2.51,14.46,7.92,2.75-.27,5.08,2.11,6.24,4.62s1.67,5.33,3.21,7.63c.9,1.35,2.14,2.46,3,3.87a10.75,10.75,0,0,1,.84,8c-.65,2.67-4.9,5.53-4.9,5.53s-1.59,7.83-4.12,9.91-6.22,3.09-9.14,1.61a8.51,8.51,0,0,1-13.22.65,10.71,10.71,0,0,1-18.08-4.06A13.94,13.94,0,0,1,86.3,202C84.9,197.88,86.49,193.45,89.12,189.92Z" style="fill:#AA8EDB"></path><g style="opacity:0.7000000000000001"><path d="M89.12,189.92a16,16,0,0,1,11.41-21.09c3.42-.8,7.06-.47,10.44-1.45,2.11-.62,4.07-1.74,6.22-2.23,5.79-1.33,12,2.51,14.46,7.92,2.75-.27,5.08,2.11,6.24,4.62s1.67,5.33,3.21,7.63c.9,1.35,2.14,2.46,3,3.87a10.75,10.75,0,0,1,.84,8c-.65,2.67-4.9,5.53-4.9,5.53s-1.59,7.83-4.12,9.91-6.22,3.09-9.14,1.61a8.51,8.51,0,0,1-13.22.65,10.71,10.71,0,0,1-18.08-4.06A13.94,13.94,0,0,1,86.3,202C84.9,197.88,86.49,193.45,89.12,189.92Z" style="fill:#fff"></path></g><path d="M126.15,208.9a1.07,1.07,0,0,1-.05.34,6.52,6.52,0,0,1-.31.91,7.63,7.63,0,0,1-7.05,4.55A7.9,7.9,0,0,1,113,212c-.8-.87-1.12-2.05-1.93-2.57s-1.93-.57-2.83-1.05a7.49,7.49,0,0,1-3.57-3.81,7.2,7.2,0,0,1-.54-3.49,5.82,5.82,0,0,1,.19-.94c.07-.21.11-.32.13-.32s-.1.46-.14,1.27a7.41,7.41,0,0,0,.67,3.34,7.28,7.28,0,0,0,3.44,3.56,8.1,8.1,0,0,0,1.39.47,5.27,5.27,0,0,1,1.52.58,3.67,3.67,0,0,1,1.11,1.31,8.16,8.16,0,0,0,.92,1.34,7.55,7.55,0,0,0,5.4,2.61,7.2,7.2,0,0,0,4.7-1.57,7.8,7.8,0,0,0,2.17-2.63C126,209.34,126.1,208.89,126.15,208.9Z" style="fill:#263238"></path><path d="M129.76,179.13a9.85,9.85,0,0,0-1.94-3.61,8.12,8.12,0,0,0-3.67-2.4,8.1,8.1,0,0,0-8.42,2.54l-.1.12-.15-.05a6.16,6.16,0,0,0-3.92,0,6.88,6.88,0,0,0-2.69,1.63,8.6,8.6,0,0,0-1.6,2.37,2.43,2.43,0,0,1,.21-.75,5.81,5.81,0,0,1,1.18-1.82,6.91,6.91,0,0,1,2.78-1.8,6.48,6.48,0,0,1,4.19-.09l-.25.07a8.15,8.15,0,0,1,12.69-.07,8,8,0,0,1,1.49,2.72,5.24,5.24,0,0,1,.18.82C129.77,179,129.78,179.13,129.76,179.13Z" style="fill:#263238"></path><path d="M127.18,213.78a6.13,6.13,0,0,0,1.37.83,4.45,4.45,0,0,0,1.83.2,9.85,9.85,0,0,0,2.41-.6,9.12,9.12,0,0,0,2.63-1.41,7.14,7.14,0,0,0,2-2.72,34.7,34.7,0,0,0,1.33-3.61,10.07,10.07,0,0,0,.37-2,7,7,0,0,0,0-1l-.05-.53a.86.86,0,0,1,.2-.67,1.25,1.25,0,0,1,.57-.31l.49-.17a7.7,7.7,0,0,0,.92-.43,7.52,7.52,0,0,0,1.6-1.18,8.52,8.52,0,0,0,2-9.4,10.71,10.71,0,0,0-2.38-3.64c-.74-.73-1.23-1.05-1.2-1.09a1.54,1.54,0,0,1,.37.21,7.26,7.26,0,0,1,.95.75,10.07,10.07,0,0,1,2.57,3.64,8.88,8.88,0,0,1,.17,6.56,9,9,0,0,1-2.17,3.31,8.13,8.13,0,0,1-1.69,1.25,6.23,6.23,0,0,1-1,.46,4.2,4.2,0,0,0-.88.36c-.14.1-.05.49,0,.85a7.92,7.92,0,0,1,0,1.09,10.72,10.72,0,0,1-.39,2.06,34,34,0,0,1-1.39,3.66,7.24,7.24,0,0,1-2.16,2.84,9,9,0,0,1-2.77,1.42,9.28,9.28,0,0,1-2.5.55,4.42,4.42,0,0,1-1.92-.29,3.79,3.79,0,0,1-1-.67A2.06,2.06,0,0,1,127.18,213.78Z" style="fill:#263238"></path><g style="opacity:0.30000000000000004"><path d="M315.35,148.31c-3,5.59-4.83,5.05-11.7,10.07s-11.74,6.29-16,8.61a53.52,53.52,0,0,0-17.05,14.1c-5.6,7.14-5.51,20.62-7.62,26s-6.08,14.39-10,16.24S240,225,232.89,218.32s-9.26-26.66-13.5-36.17-7.65-11.1-15.58-14.54-22.16-12.55-25.67-16.94c-3.27-4.07-2.61-2.88-5.78-14.51S171,124,165,118.71s-12.14-3.17-12.14-3.17c6,.22,10.77,4.7,12.45,6.72s2.69,7.61,4.25,16.35,2.92,10.08,4.26,12.54,6.51,9.28,17.47,12.88,18.14,13,22.18,16.58,4.14,10.75,5.26,14.78,1.46,12.21,2.91,20.05,9.3,14.33,12.32,17.24a34.1,34.1,0,0,1,7.39,10.87,10.25,10.25,0,0,1,.67,6c-.22,1.68-1.79,2.58-2.91,4.15s-.33.89-.22,3.47,2,3.92,3,4.93a3.45,3.45,0,0,1,.45,3.69c-.45,1-2.58,5.16-2.58,5.16a10.22,10.22,0,0,0,.45,3.47c.56,1.56,1.57,1.9,1.79,4a5.62,5.62,0,0,1-1.68,4.7c-1,1-.22,1.12.34,3.47s1.79,3.14,1.46,4.26-1.24.9-1,2.58,1.34,2.57,1.34,4-.56,1.68-.67,2.24.56,9.18.11,11.31a5.87,5.87,0,0,1-5.49,4.81c-3.58.45-4.92,0-8.73-3.36s-5.38-11.08-5.94-13.55-.67-4.81-2.8-4.48-2.24,6.5-2.46,10.08.78,4.93,1.68,8.51,4.26,4.6,5.71,6.28,1.12,3.58-.33,5.93-1.12,1.68-1,4.26,2.69,2.46,4.14,4.93.22,3.47-.11,6.49,1.68,2.24,3.81,4.26,2.12,2.46,2.24,5.15-1.12,5.6-.12,8.73,2.58,2.58,2.69,5-2.69,2.24-3.36,4.15,3.25,3.13,3.59,5.93-.79,1.46-2.13,2.92-1.12,1.79,0,2.68.56,1.57.11,3-2.46.78-1.68,1.9-.31,3.94-.31,3.94a47.93,47.93,0,0,1,13.54-2.82,36.89,36.89,0,0,1,13,2.51s-.3-2.51.48-3.63-1.23-.45-1.68-1.9-1-2.13.11-3,1.35-1.23,0-2.68-2.46-.12-2.12-2.92,4.25-4,3.58-5.93-3.47-1.68-3.36-4.15,1.68-1.9,2.69-5-.23-6-.11-8.73.11-3.14,2.24-5.15,4.14-1.23,3.8-4.26-1.56-4-.11-6.49,4-2.36,4.15-4.93.44-1.91-1-4.26-1.79-4.25-.34-5.93,4.82-2.69,5.71-6.28,1.91-4.92,1.68-8.51-.33-9.74-2.46-10.08-2.24,2-2.8,4.48-2.13,10.2-5.94,13.55-5.15,3.81-8.73,3.36a5.87,5.87,0,0,1-5.49-4.81c-.45-2.13.22-10.75.11-11.31s-.67-.79-.67-2.24,1.12-2.35,1.34-4-.67-1.46-1-2.58.89-1.9,1.45-4.26,1.35-2.46.34-3.47a5.62,5.62,0,0,1-1.68-4.7c.22-2.13,1.23-2.47,1.79-4a10.22,10.22,0,0,0,.45-3.47s-2.13-4.15-2.58-5.16a3.47,3.47,0,0,1,.45-3.69c1-1,2.91-2.35,3-4.93s.9-1.9-.22-3.47-2.69-2.47-2.91-4.15a10.25,10.25,0,0,1,.67-6,34.1,34.1,0,0,1,7.39-10.87c3-2.91,10.87-9.4,12.32-17.24s1.79-16,2.91-20.05,1.24-11.2,5.27-14.78,11.21-13,22.17-16.58,16.13-10.41,17.47-12.88,2.69-3.81,4.26-12.54Z"></path></g><path d="M366.56,109.84s-.3.16-.8.55a13.59,13.59,0,0,0-2,2c-.79.92-1.65,2.13-2.86,3.39a8.82,8.82,0,0,1-5.2,2.67,24.09,24.09,0,0,1-7.12-.47,27.73,27.73,0,0,1-3.81-1.17,17.17,17.17,0,0,0-4-.86c-2.82-.18-5.93-.35-8.76.92a15.07,15.07,0,0,0-7,6.2c-1.75,2.8-2.21,6.06-3,9.09s-1.31,6-1.81,8.82a25.43,25.43,0,0,1-2.24,7.87,29.69,29.69,0,0,1-4.09,5.84,31.37,31.37,0,0,1-8,6.46c-1.06.6-1.92,1-2.5,1.26l-.68.28-.23.08s.07,0,.21-.13l.66-.32c.57-.28,1.41-.71,2.45-1.33a32.45,32.45,0,0,0,7.85-6.52,30.14,30.14,0,0,0,4-5.8,25,25,0,0,0,2.16-7.77c.49-2.84,1.11-5.79,1.79-8.84.34-1.53.7-3.08,1.09-4.65a17.58,17.58,0,0,1,1.91-4.58,15.6,15.6,0,0,1,7.25-6.39,13,13,0,0,1,4.54-1,32.68,32.68,0,0,1,4.44.11,17.52,17.52,0,0,1,4.14.89,27.78,27.78,0,0,0,3.74,1.19,24.23,24.23,0,0,0,7,.52,8.75,8.75,0,0,0,5.07-2.52c1.2-1.22,2.09-2.42,2.91-3.33a11,11,0,0,1,2-1.91,3.46,3.46,0,0,1,.63-.38Z" style="fill:#263238"></path><path d="M144.41,116.81a1,1,0,0,1,.26-.11l.79-.26,1.28-.42,1.8-.4a19.63,19.63,0,0,1,5-.34,15,15,0,0,1,6.41,1.85,14.19,14.19,0,0,1,3.15,2.32,15.61,15.61,0,0,1,2.67,3.3,29.14,29.14,0,0,1,2.72,8.89c.59,3.21,1.08,6.61,1.92,10.05a40.07,40.07,0,0,0,1.63,5.13,39.28,39.28,0,0,0,2.24,5.07,22.78,22.78,0,0,0,7.56,7.68,29.7,29.7,0,0,0,4.61,2.39c1.57.62,3.17,1.18,4.67,1.83a58.73,58.73,0,0,1,14.81,9,50.27,50.27,0,0,1,8,8.52c.81,1.12,1.39,2,1.76,2.65.19.31.33.55.41.72s.13.25.12.26a1.55,1.55,0,0,1-.16-.24l-.45-.69c-.39-.61-1-1.49-1.83-2.59a52.69,52.69,0,0,0-8.09-8.38A59.67,59.67,0,0,0,191,164.19c-1.5-.65-3.06-1.18-4.67-1.81a30.12,30.12,0,0,1-4.68-2.42,23.11,23.11,0,0,1-7.73-7.84,38.58,38.58,0,0,1-2.27-5.13A42.15,42.15,0,0,1,170,141.8c-.83-3.47-1.31-6.88-1.89-10.08a29,29,0,0,0-2.63-8.78,15.36,15.36,0,0,0-5.64-5.51,14.88,14.88,0,0,0-6.27-1.89,20.14,20.14,0,0,0-5,.26l-1.79.36-1.29.37-.8.22A.93.93,0,0,1,144.41,116.81Z" style="fill:#263238"></path><path d="M278.6,168.78a4.22,4.22,0,0,1-.6.26l-1.77.66c-.77.29-1.72.63-2.84,1s-2.37.76-3.8,1.11l-2.23.58c-.78.2-1.6.35-2.44.53-1.68.4-3.51.68-5.42,1a101.9,101.9,0,0,1-12.59,1.06,104.45,104.45,0,0,1-12.62-.62c-1.92-.26-3.75-.48-5.45-.81-.85-.16-1.67-.28-2.46-.45l-2.25-.51c-1.44-.29-2.71-.68-3.84-1s-2.08-.59-2.86-.86l-1.79-.59-.62-.24a2.78,2.78,0,0,1,.65.14l1.81.52c.79.23,1.75.51,2.88.78s2.41.63,3.85.91l2.24.47c.79.16,1.61.27,2.46.42,1.69.32,3.52.52,5.43.76a98.16,98.16,0,0,0,25.09-.43c1.91-.31,3.73-.58,5.41-.95.84-.18,1.66-.32,2.44-.51l2.23-.55c1.43-.32,2.69-.72,3.81-1s2.07-.61,2.85-.88L278,169A2.81,2.81,0,0,1,278.6,168.78Z" style="fill:#263238"></path><path d="M248.68,284.32c0,.13-1.7-.27-3.79-.36s-3.77.17-3.8,0a11.17,11.17,0,0,1,7.59.33Z" style="fill:#263238"></path><path d="M246.4,279.32c-.08.11-.75-.23-1.63-.27s-1.59.23-1.66.11.64-.64,1.68-.58S246.48,279.23,246.4,279.32Z" style="fill:#263238"></path><path d="M249.76,271.44s-.11-.07-.32-.1-.55,0-1,0c-.82,0-2-.06-3.21-.06-2.5,0-4.52.21-4.54.07a14.12,14.12,0,0,1,4.54-.54,22.2,22.2,0,0,1,3.24.2,5.48,5.48,0,0,1,1,.19C249.73,271.26,249.79,271.43,249.76,271.44Z" style="fill:#263238"></path><path d="M246.19,263.17c0,.14-.68.11-1.47.12s-1.45,0-1.48-.09.62-.38,1.47-.38S246.22,263.05,246.19,263.17Z" style="fill:#263238"></path><path d="M250.08,254.73a4.48,4.48,0,0,1-1.46.82,11.6,11.6,0,0,1-4,.8,11.33,11.33,0,0,1-4-.61,4.28,4.28,0,0,1-1.5-.74,15.2,15.2,0,0,0,10.92-.27Z" style="fill:#263238"></path><path d="M246.55,250.3a2.7,2.7,0,0,1-2,.67,2.65,2.65,0,0,1-2.06-.62c.05-.13.94.17,2.05.15S246.49,250.17,246.55,250.3Z" style="fill:#263238"></path><path d="M247.86,242.48c.06,0-.07.41-.57.7a4.5,4.5,0,0,1-2,.56,3.77,3.77,0,0,1-2.8-1,18,18,0,0,0,2.78.51,6.17,6.17,0,0,0,1.92-.39C247.61,242.7,247.8,242.45,247.86,242.48Z" style="fill:#263238"></path><path d="M252.27,231.84s-.09.24-.34.61A18.08,18.08,0,0,1,250.8,234a8,8,0,0,1-2.15,1.88,9,9,0,0,1-3.33,1,3.94,3.94,0,0,1-1.84-.24,9.39,9.39,0,0,1-1.48-.83c-.44-.28-.85-.55-1.26-.78a5.08,5.08,0,0,1-1.11-.73,8.9,8.9,0,0,1-1.17-1.51c-.25-.36-.4-.56-.37-.59s.22.14.51.48a14.45,14.45,0,0,0,1.25,1.37,5.7,5.7,0,0,0,1.08.64c.42.22.86.48,1.31.75a8.61,8.61,0,0,0,1.4.77,3.73,3.73,0,0,0,1.64.2,9.26,9.26,0,0,0,3.17-1,8.22,8.22,0,0,0,2.1-1.71A24.47,24.47,0,0,1,252.27,231.84Z" style="fill:#263238"></path><path d="M259.23,331.88a7,7,0,0,1-1.09.53,14.05,14.05,0,0,1-1.32.52c-.52.19-1.11.42-1.78.6a35.23,35.23,0,0,1-4.78,1.1,39.83,39.83,0,0,1-6,.44,39.14,39.14,0,0,1-6-.55,34.09,34.09,0,0,1-4.76-1.18c-.67-.19-1.25-.43-1.77-.63s-1-.38-1.31-.54a6.35,6.35,0,0,1-1.08-.55c0-.09,1.61.63,4.26,1.4a38.82,38.82,0,0,0,4.73,1.07,42.88,42.88,0,0,0,5.92.5,42.07,42.07,0,0,0,5.92-.4,40.29,40.29,0,0,0,4.74-1C257.61,332.48,259.19,331.79,259.23,331.88Z" style="fill:#263238"></path><path d="M256.54,344a2.63,2.63,0,0,1-.77.56,10.93,10.93,0,0,1-2.41,1,27.08,27.08,0,0,1-8.54.66,29,29,0,0,1-8.45-1.47,17.39,17.39,0,0,1-2.38-1,3.44,3.44,0,0,1-.81-.52c0-.07,1.23.59,3.3,1.24a32.58,32.58,0,0,0,8.36,1.32,30.59,30.59,0,0,0,8.43-.51A19,19,0,0,0,256.54,344Z" style="fill:#263238"></path><path d="M253.37,356.75s-.17.21-.54.5a9.48,9.48,0,0,1-1.73,1,13.86,13.86,0,0,1-6.52,1.21,21.9,21.9,0,0,1-6.48-1.41,11.31,11.31,0,0,1-2.49-1.14,24.16,24.16,0,0,1,2.6.82A25.35,25.35,0,0,0,244.6,359a15,15,0,0,0,6.36-1C252.5,357.35,253.32,356.68,253.37,356.75Z" style="fill:#263238"></path><path d="M254.69,369.73a2.66,2.66,0,0,1-.63.46,13.13,13.13,0,0,1-1.89,1,18.36,18.36,0,0,1-3,1,18.32,18.32,0,0,1-7.71.12,17.6,17.6,0,0,1-3-.88,14.12,14.12,0,0,1-1.92-.92c-.43-.26-.66-.41-.64-.44s1,.47,2.68,1a19.26,19.26,0,0,0,3,.77,21.3,21.3,0,0,0,3.78.3,21.61,21.61,0,0,0,3.76-.42,20.33,20.33,0,0,0,3-.86C253.69,370.23,254.64,369.65,254.69,369.73Z" style="fill:#263238"></path><path d="M250.94,376.9a4.57,4.57,0,0,1-1.63,1,9.75,9.75,0,0,1-2,.63,13.18,13.18,0,0,1-2.58.18,16,16,0,0,1-4.58-.88,6.27,6.27,0,0,1-1.76-.8,33.79,33.79,0,0,0,6.36,1.21,14.07,14.07,0,0,0,2.49-.15,10.63,10.63,0,0,0,2-.5C250.28,377.23,250.9,376.83,250.94,376.9Z" style="fill:#263238"></path><path d="M252.61,383.13a15.8,15.8,0,0,1-2.54,0c-1.56-.05-3.71-.1-6.09-.06s-4.53.16-6.09.26a15,15,0,0,1-2.53.11,11.74,11.74,0,0,1,2.5-.44,60.33,60.33,0,0,1,6.11-.41c2.39,0,4.56.07,6.12.21A12.62,12.62,0,0,1,252.61,383.13Z" style="fill:#263238"></path><path d="M251,363.87a3.73,3.73,0,0,1-1.47,1,10.13,10.13,0,0,1-4.13.82,19.54,19.54,0,0,1-4.17-.47,6.17,6.17,0,0,1-1.67-.48,6.13,6.13,0,0,1,1.72.15,30.78,30.78,0,0,0,4.12.33,12.3,12.3,0,0,0,4-.66C250.4,364.17,251,363.81,251,363.87Z" style="fill:#263238"></path><path d="M257.7,322.52s0,.09-.05.25a1.23,1.23,0,0,1-.56.46,23.69,23.69,0,0,1-2.45.82,36,36,0,0,1-16.85.66,24.42,24.42,0,0,1-2.5-.62,3,3,0,0,1-.88-.33c0-.07,1.31.27,3.44.62a41.22,41.22,0,0,0,16.7-.65c1-.25,1.9-.5,2.47-.67A1.18,1.18,0,0,0,257.7,322.52Z" style="fill:#263238"></path></g><g id="freepik--Plants--inject-321"><path d="M198,299.37a33.63,33.63,0,0,0-1.64-38.06,33.9,33.9,0,0,0,.12,39.95" style="fill:#455a64"></path><path d="M196,290.72a5.53,5.53,0,0,0-.06-1.15c-.07-.73-.17-1.8-.27-3.12-.21-2.63-.39-6.28-.31-10.31s.42-7.66.74-10.29c.16-1.31.3-2.37.41-3.1a5.69,5.69,0,0,0,.11-1.15,5.66,5.66,0,0,0-.28,1.12c-.16.72-.35,1.78-.55,3.09a81.26,81.26,0,0,0-.44,20.67c.15,1.32.29,2.38.42,3.11A5.51,5.51,0,0,0,196,290.72Z" style="fill:#263238"></path><path d="M157.06,278.43a13.14,13.14,0,0,1,3.51-4,15.93,15.93,0,0,1-11.39,2c-1.28-.26-2.73-.95-2.84-2.27a3.59,3.59,0,0,1,1.21-2.46,42.25,42.25,0,0,1,8.52-7.22,11,11,0,0,1-4.94-1.87c-1.37-1.12-2.12-3.23-1.18-4.79a5.5,5.5,0,0,1,2.31-1.87,39.46,39.46,0,0,1,18.32-4.6c3.35,0,6.84.49,9.51,2.45s5.47,5.06,4.14,8.2l.23-.92A31.55,31.55,0,0,1,163,283.81c-1.83.52-4,.79-5.39-.48S156.29,280,157.06,278.43Z" style="fill:#AA8EDB"></path><path d="M160.18,274.77a6.28,6.28,0,0,0,.93-.67l2.45-1.89c2.08-1.58,5-3.68,8.35-5.84s6.44-4,8.69-5.32l2.65-1.59a5,5,0,0,0,.94-.63,5.31,5.31,0,0,0-1,.47l-2.72,1.47c-2.28,1.26-5.41,3.05-8.77,5.21a96.94,96.94,0,0,0-8.31,6c-1,.82-1.82,1.51-2.36,2A4.93,4.93,0,0,0,160.18,274.77Z" style="fill:#263238"></path><path d="M155.47,264.37a6.33,6.33,0,0,0,1.15.1c.74,0,1.81,0,3.13,0a62.94,62.94,0,0,0,10.34-1.07,64,64,0,0,0,10.07-2.79c1.25-.47,2.26-.88,2.94-1.19a5.16,5.16,0,0,0,1.05-.52,7.38,7.38,0,0,0-1.11.35c-.7.26-1.72.62-3,1.05A77.94,77.94,0,0,1,170,263a76.47,76.47,0,0,1-10.27,1.19c-1.32.07-2.39.1-3.13.12A4.81,4.81,0,0,0,155.47,264.37Z" style="fill:#263238"></path><g style="opacity:0.30000000000000004"><path d="M182.1,259.89c-6.86,4.68-15.83,7.27-23.58,4.58C167.29,264,175.59,263,182.1,259.89Z"></path></g><path d="M153.78,231c-.77-1.13-1.45-2.56-.91-3.82a3.1,3.1,0,0,1,3.18-1.57,9.18,9.18,0,0,1,3.49,1.41,11.45,11.45,0,0,1-4-7.3c-.11-.94,0-2.11.88-2.51a2.44,2.44,0,0,1,1.93.22,28.78,28.78,0,0,1,6.81,4.05,8.33,8.33,0,0,1,.12-3.85,2.84,2.84,0,0,1,3-2,3.86,3.86,0,0,1,1.79,1.12,28.09,28.09,0,0,1,7.29,11.41,11.89,11.89,0,0,1,.54,7.13c-.7,2.32-2.15,5-4.57,4.87l.68-.07A21.81,21.81,0,0,1,153.78,231Z" style="fill:#AA8EDB"></path><path d="M175.24,239.52s0-.06-.14-.17-.26-.26-.43-.44-.42-.42-.68-.7-.57-.59-.88-1c-.64-.72-1.36-1.61-2.11-2.63a36.57,36.57,0,0,1-2.22-3.47,35.53,35.53,0,0,1-1.78-3.73c-.46-1.18-.83-2.26-1.09-3.19-.14-.46-.23-.88-.33-1.25s-.17-.69-.22-1l-.13-.6-.06-.21a.53.53,0,0,0,0,.22c0,.16.06.36.1.61s.1.59.18,1,.17.8.31,1.26a27.68,27.68,0,0,0,1,3.23,33.69,33.69,0,0,0,1.77,3.75,34.59,34.59,0,0,0,2.25,3.49,33.75,33.75,0,0,0,2.16,2.61c.32.36.63.67.9.94s.51.5.71.68.34.3.46.42Z" style="fill:#263238"></path><path d="M169.22,232s-.12-.11-.36-.27-.59-.39-1-.66c-.88-.54-2.12-1.25-3.53-2s-2.7-1.32-3.66-1.73l-1.13-.46c-.27-.11-.42-.16-.43-.14a1.87,1.87,0,0,0,.4.21l1.1.53c.94.45,2.22,1.06,3.62,1.79s2.65,1.41,3.56,1.92l1.07.59A2.28,2.28,0,0,0,169.22,232Z" style="fill:#263238"></path><path d="M165.19,221.44s-.8,6.48,3.68,10.09C168.87,231.53,165.76,226.23,165.19,221.44Z" style="opacity:0.30000000000000004"></path><path d="M297.61,297.15a33.63,33.63,0,0,1,6.27-37.58,33.9,33.9,0,0,1-5,39.64" style="fill:#455a64"></path><path d="M300.65,288.81a5.39,5.39,0,0,1,.2-1.14c.16-.72.39-1.77.65-3.06.53-2.59,1.15-6.19,1.56-10.2s.52-7.66.52-10.3c0-1.32,0-2.39,0-3.13a5.73,5.73,0,0,1,0-1.15,5.6,5.6,0,0,1,.14,1.14c.07.74.13,1.81.17,3.14a81.51,81.51,0,0,1-2.09,20.57c-.3,1.29-.57,2.33-.79,3A5.89,5.89,0,0,1,300.65,288.81Z" style="fill:#263238"></path><path d="M335.36,273.51a13,13,0,0,0-3-4.39,15.92,15.92,0,0,0,11.06,3.38c1.3-.11,2.82-.61,3.09-1.9a3.55,3.55,0,0,0-.9-2.6,41.87,41.87,0,0,0-7.58-8.2,11,11,0,0,0,5.13-1.25c1.5-.95,2.5-3,1.76-4.62a5.64,5.64,0,0,0-2.06-2.14A39.42,39.42,0,0,0,325.25,245c-3.33-.41-6.85-.34-9.75,1.27s-6,4.36-5.1,7.64l-.11-.95a31.52,31.52,0,0,0,18.55,25.17c1.76.75,3.9,1.28,5.41.19S335.93,275.2,335.36,273.51Z" style="fill:#AA8EDB"></path><path d="M332.71,269.5a6.33,6.33,0,0,1-.84-.77l-2.2-2.18c-1.87-1.82-4.52-4.27-7.57-6.81s-5.92-4.75-8-6.34l-2.44-1.9a5.27,5.27,0,0,1-.86-.75,5.78,5.78,0,0,1,1,.6c.61.41,1.47,1,2.53,1.78,2.11,1.53,5,3.7,8.07,6.25a97.29,97.29,0,0,1,7.52,6.94c.9.95,1.62,1.73,2.1,2.29A4.88,4.88,0,0,1,332.71,269.5Z" style="fill:#263238"></path><path d="M338.66,259.75a5.31,5.31,0,0,1-1.15,0c-.74,0-1.81-.17-3.12-.35A62.72,62.72,0,0,1,324.26,257a64.43,64.43,0,0,1-9.65-4c-1.19-.62-2.14-1.14-2.78-1.53a5,5,0,0,1-1-.65,7,7,0,0,1,1.06.49c.66.34,1.63.82,2.83,1.4a78.6,78.6,0,0,0,9.65,3.85,75.82,75.82,0,0,0,10,2.44c1.3.22,2.36.39,3.09.49A5.85,5.85,0,0,1,338.66,259.75Z" style="fill:#263238"></path><g style="opacity:0.30000000000000004"><path d="M312.77,252.06c6.24,5.48,14.82,9.15,22.85,7.42C327,257.94,318.86,255.9,312.77,252.06Z"></path></g><path d="M331.77,234.94c.91-1,1.76-2.36,1.38-3.68a3.09,3.09,0,0,0-3-1.94,9,9,0,0,0-3.63,1,11.39,11.39,0,0,0,4.82-6.77c.23-.92.24-2.09-.56-2.59a2.49,2.49,0,0,0-1.95,0,28.63,28.63,0,0,0-7.25,3.19,8.26,8.26,0,0,0,.35-3.84,2.83,2.83,0,0,0-2.7-2.34,3.86,3.86,0,0,0-1.91.89,28.18,28.18,0,0,0-8.63,10.44,11.93,11.93,0,0,0-1.4,7c.42,2.39,1.53,5.23,3.94,5.39l-.66-.15A21.79,21.79,0,0,0,331.77,234.94Z" style="fill:#AA8EDB"></path><path d="M309.43,240.82l.16-.14.48-.39c.22-.17.48-.37.76-.62s.64-.52,1-.84c.72-.64,1.55-1.43,2.42-2.35a39.06,39.06,0,0,0,2.63-3.18,36.68,36.68,0,0,0,2.21-3.48,30.29,30.29,0,0,0,1.47-3c.2-.43.34-.84.48-1.2s.25-.66.34-.92.15-.43.21-.58a2,2,0,0,1,.08-.2.87.87,0,0,1,0,.21l-.17.6q-.1.39-.3.93c-.13.36-.26.78-.46,1.22a28.48,28.48,0,0,1-1.43,3.07,31,31,0,0,1-4.88,6.7,31.36,31.36,0,0,1-2.46,2.33c-.36.32-.71.59-1,.82s-.56.44-.78.59l-.51.36C309.5,240.79,309.44,240.83,309.43,240.82Z" style="fill:#263238"></path><path d="M316.32,234.06a2.69,2.69,0,0,1,.4-.22l1.11-.53c.94-.43,2.26-1,3.74-1.53s2.85-1,3.84-1.28l1.19-.32a2.32,2.32,0,0,1,.44-.09,1.33,1.33,0,0,1-.42.17l-1.16.39c-1,.33-2.33.79-3.81,1.33s-2.81,1.08-3.76,1.47l-1.14.46A2,2,0,0,1,316.32,234.06Z" style="fill:#263238"></path><path d="M321.61,224.1s0,6.53-4.88,9.56C316.73,233.66,320.46,228.79,321.61,224.1Z" style="opacity:0.30000000000000004"></path></g><g id="freepik--speech-bubble--inject-321"><path d="M252.08,123.25,248,112.76a35.85,35.85,0,0,1-16.77-14.23,36.13,36.13,0,1,1,29.44,17h0Z" style="fill:#fff"></path><path d="M252.08,123.25s.19-.2.56-.55l1.65-1.52,6.31-5.79.06.28h0a.16.16,0,0,1-.11-.21.16.16,0,0,1,.16-.12,36.28,36.28,0,0,0,17.19-3.82,35.79,35.79,0,0,0-8.23-66.95l-2.16-.45-2.17-.24A37.32,37.32,0,0,0,261,43.7a35.88,35.88,0,0,0-12.89,68.91l.09.1,2.91,7.78c.32.87.57,1.54.75,2s.25.72.25.72a4.86,4.86,0,0,1-.28-.64c-.19-.48-.46-1.13-.8-2l-3.14-7.82.09.1a36,36,0,0,1-14.3-10.58,36.51,36.51,0,0,1,3.95-50.17A37,37,0,0,1,261,42.91a38.79,38.79,0,0,1,4.44.19l2.23.25,2.2.45A36.44,36.44,0,0,1,295.1,94.39a36.08,36.08,0,0,1-7.53,10.8,35.67,35.67,0,0,1-9.46,6.79,36.06,36.06,0,0,1-17.43,3.69l.06-.32h0a.16.16,0,0,1,.11.21.22.22,0,0,1-.05.08l-6.53,5.72-1.66,1.43C252.26,123.11,252.07,123.26,252.08,123.25Z" style="fill:#263238"></path><rect x="264.59" y="66.4" width="7.81" height="28.04" transform="translate(536.99 160.83) rotate(180)" style="fill:#AA8EDB"></rect><rect x="250.25" y="66.4" width="7.81" height="28.04" transform="translate(508.31 160.83) rotate(180)" style="fill:#AA8EDB"></rect></g><g id="freepik--Hourglass--inject-321"><path d="M163.46,393.31c-4.5-3.49-2.13-5.51.85-7.79,13.61-10.41,21.71-25,23.91-43.76.73-6.18.76-12.46,1.13-19,0,0-88.79.62-89.87.53,0,2,0,3.57,0,5.14-.26,24.35,7.38,44.05,25.35,57.54,4.2,3.16,2.9,5.2-.45,7.84-14.94,11.77-23.26,28.15-24.69,49.09-.31,4.65,0,9.36,0,14l89.32-.05c0-2,0-3.36,0-4.69C189.64,427.18,181.51,407.31,163.46,393.31Z" style="fill:#e0e0e0"></path><path d="M163.46,393.31s1.36,1,3.82,3.14A63.87,63.87,0,0,1,176.79,407a62.87,62.87,0,0,1,9.57,20.27,74.29,74.29,0,0,1,2.44,13.85c.06.62.11,1.24.17,1.87l.09,1.91c0,1.28.14,2.58.11,3.9,0,2.63,0,5.32,0,8.09V457H189l-89.32.11H99.4v-.24c0-3.1-.12-6.24-.11-9.43a76.51,76.51,0,0,1,.66-9.63l.33-2.42c.14-.81.29-1.61.43-2.42.26-1.62.7-3.22,1.06-4.84a70.79,70.79,0,0,1,3.21-9.5,61.87,61.87,0,0,1,11-17.28,64.11,64.11,0,0,1,7.61-7.2c.67-.57,1.36-1.09,2-1.68a5.92,5.92,0,0,0,1.51-2,2.42,2.42,0,0,0-.34-2.28,7.92,7.92,0,0,0-1.79-1.82,62.19,62.19,0,0,1-13-13,61.12,61.12,0,0,1-8.38-15.91,77.14,77.14,0,0,1-3.77-17.15,145.88,145.88,0,0,1-.57-17v-.25h.27l89.85-.48h.21v.21c-.35,6.18-.43,12.09-1,17.67a74.56,74.56,0,0,1-3.2,15.46,59.63,59.63,0,0,1-12.49,21.85,58.31,58.31,0,0,1-6.7,6.37c-2,1.72-4.1,2.89-4.9,4.56a2.47,2.47,0,0,0-.23,1.23,3.4,3.4,0,0,0,.33,1.05,6,6,0,0,0,1.06,1.37c.32.34.61.55.78.71l.27.24-.29-.22a9.45,9.45,0,0,1-.8-.69,5.84,5.84,0,0,1-1.09-1.37,3.2,3.2,0,0,1-.36-1.08,2.48,2.48,0,0,1,.23-1.29c.82-1.73,2.89-2.91,4.89-4.64a59.37,59.37,0,0,0,19-28.18,74.77,74.77,0,0,0,3.14-15.41c.57-5.55.63-11.46,1-17.65l.19.2c-25.37.18-55.92.48-89.89.58l.27-.24a147,147,0,0,0,.57,17,76.66,76.66,0,0,0,3.76,17,60.52,60.52,0,0,0,8.31,15.77A61.71,61.71,0,0,0,125.24,386a8.43,8.43,0,0,1,1.91,1.95,3,3,0,0,1,.39,2.75c-.78,1.77-2.36,2.77-3.67,3.9a63.76,63.76,0,0,0-7.54,7.14,61.31,61.31,0,0,0-10.88,17.13,71.19,71.19,0,0,0-3.19,9.43c-.36,1.61-.79,3.19-1.05,4.8-.15.81-.29,1.61-.43,2.41l-.33,2.4a75.7,75.7,0,0,0-.66,9.57c0,3.17.1,6.32.1,9.43l-.24-.25,89.32,0-.19.18q0-4.14,0-8.09c0-1.31-.05-2.61-.09-3.88,0-.64-.06-1.28-.08-1.91s-.12-1.25-.17-1.87a75.1,75.1,0,0,0-2.39-13.8,63,63,0,0,0-9.46-20.22,64.76,64.76,0,0,0-9.41-10.56c-1.19-1.1-2.18-1.85-2.8-2.4S163.46,393.31,163.46,393.31Z" style="fill:#263238"></path><rect x="90.07" y="315.49" width="108.68" height="9.83" rx="4.91" style="fill:#263238"></rect><rect x="90.07" y="456.43" width="108.68" height="9.83" rx="4.91" style="fill:#263238"></rect><path d="M145.24,397.58s-4.87,6.67-4.67,11.61a5.24,5.24,0,0,0,2,4.24,4.29,4.29,0,0,0,5.07,0,5.13,5.13,0,0,0,2.14-4.28C150,404.25,145.24,397.58,145.24,397.58Z" style="fill:#AA8EDB"></path><path d="M131.39,380a1.85,1.85,0,0,1-.45-.17l-1.24-.58c-.27-.13-.57-.26-.89-.43l-1-.59-1.17-.69c-.41-.25-.82-.55-1.26-.85a39.9,39.9,0,0,1-5.73-4.8,47,47,0,0,1-5.77-7.11,50.56,50.56,0,0,1-6.74-15.15,41.09,41.09,0,0,1-1-4.93l-.17-1.36a1.6,1.6,0,0,1,0-.48,2.13,2.13,0,0,1,.12.46c.08.37.16.81.27,1.34.19,1.17.59,2.84,1.14,4.88a53.47,53.47,0,0,0,6.82,14.95A49.8,49.8,0,0,0,120,371.6a43.43,43.43,0,0,0,5.61,4.83c.43.31.82.62,1.22.88l1.14.71,1,.62.86.48,1.2.66C131.26,379.93,131.4,380,131.39,380Z" style="fill:#263238"></path><path d="M181,448.86H107.65s-.31-16.16,2.61-23.56,17.59,3.8,34.15,5,28-9.55,28-9.55S182.29,431.11,181,448.86Z" style="fill:#AA8EDB"></path><path d="M131.18,397.58a3.14,3.14,0,0,1-.44.34l-1.31.9c-.28.19-.61.39-.94.64l-1.07.84-1.23,1c-.43.36-.85.77-1.3,1.17a47.5,47.5,0,0,0-5.82,6.34,55.51,55.51,0,0,0-5.5,9,58.05,58.05,0,0,0-5.38,18.3c-.21,1.22-.21,2.33-.31,3.3s-.1,1.82-.11,2.5,0,1.17,0,1.59a2.39,2.39,0,0,1,0,.55,2,2,0,0,1-.06-.55c0-.42,0-.95-.05-1.59a23.79,23.79,0,0,1,0-2.51c.07-1,0-2.1.23-3.33a55.64,55.64,0,0,1,5.28-18.49,53.35,53.35,0,0,1,5.59-9,45.08,45.08,0,0,1,6-6.32c.47-.4.9-.81,1.34-1.15l1.26-.94,1.1-.81c.35-.24.69-.43,1-.61l1.36-.82A2,2,0,0,1,131.18,397.58Z" style="fill:#263238"></path><path d="M107.64,331.32S107.63,370,143,380c0,0-15.94-21.32-7-48.72Z" style="fill:#fff;opacity:0.30000000000000004"></path><path d="M180.51,442.1s0-38.66-35.33-48.71c0,0,15.94,21.32,7,48.71Z" style="fill:#fff;opacity:0.30000000000000004"></path></g><g id="freepik--Calendar--inject-321"><path d="M118.66,182.53l-79,8.26a7.49,7.49,0,0,0-6.56,8.31l8.48,81.09A7.5,7.5,0,0,0,49.7,287l2.27-.24,22-2.31,54.71-5.72a7.49,7.49,0,0,0,6.56-8.31L126.8,189.3A7.48,7.48,0,0,0,118.66,182.53Z" style="fill:#fff"></path><path d="M33.62,186.58h94.23a0,0,0,0,1,0,0v24a6.52,6.52,0,0,1-6.52,6.52H40.94a7.32,7.32,0,0,1-7.32-7.32V186.58a0,0,0,0,1,0,0Z" transform="translate(182.04 394.18) rotate(174.03)" style="fill:#AA8EDB"></path><path d="M67.86,205.25c0,.17,6.47-.36,14.41-1.19s14.37-1.65,14.35-1.82-6.47.37-14.41,1.2S67.84,205.08,67.86,205.25Z" style="fill:#263238"></path><path d="M118.76,182.52a5.68,5.68,0,0,1,.94-.06,6.9,6.9,0,0,1,2.7.58,7.42,7.42,0,0,1,3.4,3,7.61,7.61,0,0,1,1,2.77c.15,1,.25,2.15.38,3.33,1,9.42,2.46,23,4.25,39.84.89,8.41,1.87,17.62,2.91,27.51.26,2.48.53,5,.8,7.55.12,1.28.29,2.55.38,3.87a7.78,7.78,0,0,1-.81,3.93,7.6,7.6,0,0,1-2.7,3,8,8,0,0,1-3.84,1.19l-8,.84-70.53,7.4a7.61,7.61,0,0,1-7.78-4.79,8.25,8.25,0,0,1-.56-2.38L41,277.69c-.16-1.57-.33-3.14-.49-4.7-.65-6.25-1.29-12.42-1.93-18.47-1.26-12.1-2.47-23.78-3.63-34.91q-.87-8.34-1.69-16.25c-.14-1.32-.27-2.63-.41-3.93a10,10,0,0,1,0-2h0a7.86,7.86,0,0,1,.45-1.93,7.59,7.59,0,0,1,2.18-3.17,7.47,7.47,0,0,1,3.36-1.65c9.68-1.07,18.63-1.95,26.84-2.81l38.84-4,10.56-1.05,2.75-.26c.62-.06.94-.07.94-.07l-.93.12-2.74.31-10.56,1.16-38.82,4.14c-8.19.89-17.2,1.79-26.79,2.87a7.05,7.05,0,0,0-3.17,1.56,7.26,7.26,0,0,0-2,3,8.07,8.07,0,0,0-.42,1.81h0a10.1,10.1,0,0,0,0,1.9c.14,1.3.28,2.6.42,3.92q.82,7.91,1.71,16.25c1.17,11.13,2.39,22.8,3.67,34.91q.94,9.07,1.93,18.46c.16,1.57.33,3.14.49,4.71a19.24,19.24,0,0,0,.77,4.61,7.1,7.1,0,0,0,7.26,4.45l70.53-7.35,8-.84a7.55,7.55,0,0,0,3.65-1.11,7.11,7.11,0,0,0,2.53-2.8,7.26,7.26,0,0,0,.78-3.68c-.09-1.28-.26-2.58-.38-3.86-.27-2.55-.53-5.07-.78-7.54-1-9.89-2-19.11-2.85-27.52-1.73-16.82-3.12-30.44-4.09-39.86-.13-1.17-.21-2.3-.35-3.32a7.57,7.57,0,0,0-1-2.72,7.33,7.33,0,0,0-3.31-3,7.11,7.11,0,0,0-2.66-.63,5,5,0,0,0-.7,0Z" style="fill:#263238"></path><path d="M66.55,200.41h0A3.1,3.1,0,0,0,69.27,197L67.66,181.5a3.11,3.11,0,0,0-3.38-2.81h0a3.1,3.1,0,0,0-2.72,3.44l1.62,15.47A3.11,3.11,0,0,0,66.55,200.41Z" style="fill:#e0e0e0"></path><path d="M66.45,200.42a3.87,3.87,0,0,1-1.81-.55,3,3,0,0,1-1.22-1.8c-.13-.86-.18-1.94-.3-3.08-.23-2.33-.49-5.06-.78-8.07-.16-1.52-.32-3.11-.48-4.76a2.85,2.85,0,0,1,.55-2.16,2.75,2.75,0,0,1,2-1,2.66,2.66,0,0,1,2.1.73,3,3,0,0,1,.88,2.08c.18,1.65.35,3.24.52,4.76.33,3,.64,5.73.9,8.06.07.57.14,1.11.2,1.63a8.42,8.42,0,0,1,.11,1.43,3,3,0,0,1-1,2,4,4,0,0,1-1.72.8,1.25,1.25,0,0,0,.51,0,2.89,2.89,0,0,0,1.36-.61,3.18,3.18,0,0,0,1.13-2.09,8.56,8.56,0,0,0-.06-1.51c0-.52-.1-1.06-.15-1.64-.23-2.33-.49-5.06-.78-8.07-.16-1.52-.32-3.12-.48-4.77a3.57,3.57,0,0,0-1.06-2.45,3.22,3.22,0,0,0-2.57-.9,3.27,3.27,0,0,0-2.41,1.25,3.46,3.46,0,0,0-.67,2.6c.18,1.65.35,3.24.52,4.76.33,3,.64,5.73.9,8.06.15,1.15.23,2.16.41,3.11a3.13,3.13,0,0,0,1.42,1.92,2.78,2.78,0,0,0,1.42.41A1.14,1.14,0,0,0,66.45,200.42Z" style="fill:#263238"></path><path d="M95.16,197.41h0A3.1,3.1,0,0,0,97.88,194L96.27,178.5a3.12,3.12,0,0,0-3.38-2.81h0a3.1,3.1,0,0,0-2.72,3.45l1.61,15.46A3.11,3.11,0,0,0,95.16,197.41Z" style="fill:#e0e0e0"></path><path d="M95.06,197.42a3.59,3.59,0,0,1-1.81-.55A2.93,2.93,0,0,1,92,195.08c-.13-.86-.19-1.94-.3-3.08-.23-2.33-.49-5.06-.78-8.07-.16-1.52-.32-3.12-.48-4.77A2.84,2.84,0,0,1,91,177a2.71,2.71,0,0,1,2-1,2.66,2.66,0,0,1,2.1.73,3,3,0,0,1,.88,2.07q.27,2.47.51,4.77c.34,3,.65,5.73.91,8.06.07.57.13,1.11.2,1.63a8.34,8.34,0,0,1,.11,1.43,2.93,2.93,0,0,1-1,1.94,3.76,3.76,0,0,1-1.71.8,1.32,1.32,0,0,0,.51,0,3,3,0,0,0,1.36-.61,3.18,3.18,0,0,0,1.13-2.1,8.44,8.44,0,0,0-.06-1.5c0-.52-.1-1.07-.15-1.64-.23-2.33-.49-5.06-.78-8.07-.16-1.52-.32-3.12-.48-4.77a3.62,3.62,0,0,0-1.06-2.46,3.25,3.25,0,0,0-2.57-.9,3.32,3.32,0,0,0-2.41,1.25,3.46,3.46,0,0,0-.67,2.6c.18,1.65.35,3.25.51,4.77.34,3,.65,5.73.91,8.06.15,1.15.22,2.16.41,3.11a3.13,3.13,0,0,0,1.42,1.92,2.88,2.88,0,0,0,1.42.41C94.89,197.5,95.06,197.44,95.06,197.42Z" style="fill:#263238"></path><path d="M83.21,221.6s-15.48,21.09-13.27,35.27a14.34,14.34,0,0,0,8.5,11.47,18.66,18.66,0,0,0,18.23-1.77,14.34,14.34,0,0,0,6.38-13.16C102.28,239.08,83.21,221.6,83.21,221.6Z" style="fill:#e0e0e0"></path><path d="M106.26,219.73s-6.39,8.7-5.48,14.56a5.94,5.94,0,0,0,3.51,4.73,7.7,7.7,0,0,0,7.52-.73,5.9,5.9,0,0,0,2.63-5.43C114.13,226.94,106.26,219.73,106.26,219.73Z" style="fill:#e0e0e0"></path><path d="M60.05,254s-3.95,5.38-3.38,9A3.64,3.64,0,0,0,58.83,266a4.75,4.75,0,0,0,4.65-.45,3.64,3.64,0,0,0,1.63-3.35C64.91,258.5,60.05,254,60.05,254Z" style="fill:#e0e0e0"></path><rect x="82" y="227.95" width="9.15" height="41" transform="translate(177.38 1.51) rotate(39.4)" style="fill:#AA8EDB"></rect><rect x="82" y="227.95" width="9.15" height="41" transform="translate(-160.36 157.65) rotate(-50.6)" style="fill:#AA8EDB"></rect></g><g id="freepik--Character--inject-321"><path d="M365.06,211.57s-9.15,1.14-10.7,9.46S351,254.49,350.58,258s-3.43,9-4,19.41-.56,26.5-.56,26.5L353.6,306s6.13-15.16,7.64-26.5,4.39-16.22,3.69-20.82,1.82-16.34,1.82-16.34Z" style="fill:#ffbf9d"></path><path d="M419.18,214.14s9.16,1.14,10.7,9.46,3.36,33.47,3.79,36.93,3.43,9,4,19.41.22,26.6.22,26.6l-7.25,2.06s-6.13-15.16-7.64-26.5-4.38-16.22-3.68-20.82-1.83-16.34-1.83-16.34Z" style="fill:#ffbf9d"></path><path d="M366.94,274.88s-14.44,23.93-12.61,44.73,10.58,61,10.58,61,2.53,33,6.5,50.49,3.26,23.08,3.26,23.08h17.5s1.23-44.63,0-54-1.35-12.68.55-20.8l1.59-56.81,1.8-46.33Z" style="fill:#263238"></path><path d="M417.15,274.88s15.62,22.11,14.65,43-7.95,60.83-7.95,60.83,1.11,34-2.13,51.6S418.2,456,418.2,456l-16.26-1.89s-3.08-44.56-2.26-54,.83-12.72-1.41-20.76l-4-56.71V274.88Z" style="fill:#263238"></path><path d="M375.06,441l.9,15.9s-16.45,6.23-16.58,9.18l32-.58-.36-24.83Z" style="fill:#263238"></path><path d="M385.84,455.33a1.27,1.27,0,0,1,.93,1.43,1.26,1.26,0,0,1-1.45.9,1.2,1.2,0,1,1,.64-2.29" style="fill:#e0e0e0"></path><path d="M391.41,465.45l-.14-2.5-30.66,1.49s-1.41.62-1.23,1.59Z" style="fill:#455a64"></path><path d="M375.44,456.7c0,.15.79.21,1.57.68s1.2,1.1,1.35,1-.11-.92-1.07-1.48S375.4,456.57,375.44,456.7Z" style="fill:#fff"></path><path d="M372.11,458.1c0,.15.65.4,1.19,1s.71,1.3.87,1.29.23-.86-.46-1.63S372.11,458,372.11,458.1Z" style="fill:#fff"></path><path d="M370.28,462c.14,0,.34-.73-.08-1.55s-1.15-1.13-1.22-1,.4.56.73,1.24S370.12,462,370.28,462Z" style="fill:#fff"></path><path d="M375.65,453.06c.07.13.78-.09,1.67,0s1.58.29,1.66.16-.6-.65-1.64-.69S375.57,452.94,375.65,453.06Z" style="fill:#fff"></path><path d="M417.59,443.63l-1.74,19.19L419,478.38a2,2,0,0,1-1.75,2.34h0a2.07,2.07,0,0,1-1.76-.62c-2.86-3-13.3-14.1-13.1-15.49.25-1.62.44-20.36.44-20.36Z" style="fill:#263238"></path><path d="M417.27,480.72,402.5,463.31l-.05.81a2.85,2.85,0,0,0,.6,2c1.17,1.51,4.49,5.62,12.4,14a2.1,2.1,0,0,0,1.82.62Z" style="fill:#455a64"></path><g style="opacity:0.6000000000000001"><path d="M407,457.36a1.16,1.16,0,0,1,.24,1.58,1.17,1.17,0,1,1-1.86-1.43,1.25,1.25,0,0,1,1.71-.07" style="fill:#fff"></path></g><path d="M413.27,472a6.12,6.12,0,0,1,1.85-1.39,6.59,6.59,0,0,1,2.32-.28c0-.05-.22-.21-.68-.3a3.22,3.22,0,0,0-1.81.19,3.15,3.15,0,0,0-1.42,1.1C413.27,471.74,413.22,472,413.27,472Z" style="fill:#fff"></path><path d="M414.52,474.7a16.77,16.77,0,0,1,1.82-.72,18.69,18.69,0,0,1,2-.12,2.35,2.35,0,0,0-2.06-.29C415,473.83,414.42,474.64,414.52,474.7Z" style="fill:#fff"></path><path d="M410.85,468.57a22,22,0,0,1,2.73-1.29,22.37,22.37,0,0,1,3-.48,4.7,4.7,0,0,0-3.14.08A4.47,4.47,0,0,0,410.85,468.57Z" style="fill:#fff"></path><path d="M410.87,462.7c0,.12,1.17-.26,2.61-.22s2.55.44,2.6.32a4.05,4.05,0,0,0-2.59-.74A4,4,0,0,0,410.87,462.7Z" style="fill:#fff"></path><path d="M411.23,457.05a10.21,10.21,0,0,1,2.71-.29,9.8,9.8,0,0,1,2.6.8s-.16-.29-.61-.58a4.5,4.5,0,0,0-1.94-.65,4.59,4.59,0,0,0-2.05.27C411.45,456.8,411.2,457,411.23,457.05Z" style="fill:#fff"></path><polygon points="374.78 203.04 383.5 202.41 404.71 202.72 422.59 208.78 411.85 225.07 394.44 231.28 380.92 228.06 373.18 218.63 374.78 203.04" style="fill:#ffbf9d"></polygon><path d="M421.61,252.88l4.74-42.65-14.79-5.64h-.1c-4.11,11.81-9,14.74-13.13,16.28-4.26,1.59-9.22,3.33-16.77-3.15-6.72-5.77-3.71-14.9-3.71-14.9s-10.46-.63-14.72.72-5.91,7.79-6.88,10.6l.05,7.47,6.13,26.26h0s.17,20.21-.19,22.41,2.73,6.27,6.37,7.61c2.92,1.08,34.36,2.29,47.5,1.51,2.78-.17,7.47-4.63,5.51-9.67Z" style="fill:#AA8EDB"></path><path d="M435.74,246.67l-3.36-26.75c-.81-4.4-2.4-8.19-6-9.69h0L420,250.94l1.76,4.58Z" style="fill:#AA8EDB"></path><polygon points="356.25 214.14 349.79 239.94 366.94 249.87 360.09 214.14 356.25 214.14" style="fill:#AA8EDB"></polygon><path d="M357.42,222.85c.07,0,.15,1.28.36,3.33a72.48,72.48,0,0,0,1.26,7.94,74.69,74.69,0,0,0,2.14,7.75,32.82,32.82,0,0,1,1.05,3.17,3.49,3.49,0,0,1-.43-.79c-.25-.53-.57-1.3-.94-2.26a54.81,54.81,0,0,1-2.31-7.76,53.86,53.86,0,0,1-1.12-8c-.06-1-.08-1.88-.07-2.46A2.69,2.69,0,0,1,357.42,222.85Z" style="fill:#263238"></path><path d="M425.58,218.41a7.91,7.91,0,0,1-.14,1.47l-.54,4c-.45,3.36-1,8-1.59,13.13s-.93,9.8-1.19,13.18c-.12,1.62-.22,3-.3,4a9.45,9.45,0,0,1-.17,1.47,9,9,0,0,1,0-1.48c0-.94.06-2.31.15-4,.16-3.38.49-8.06,1-13.2s1.19-9.79,1.74-13.13c.27-1.67.51-3,.69-4A8.78,8.78,0,0,1,425.58,218.41Z" style="fill:#263238"></path><path d="M408.12,270.27a8.26,8.26,0,0,1-1.4-.43c-.9-.3-2.18-.79-3.74-1.43a91.72,91.72,0,0,1-22.61-13.55c-1.31-1.07-2.34-2-3-2.61a9.45,9.45,0,0,1-1-1,7.74,7.74,0,0,1,1.17.89c.73.6,1.8,1.45,3.13,2.49A112.08,112.08,0,0,0,391.45,262a108.85,108.85,0,0,0,11.67,6.05c1.54.69,2.79,1.22,3.66,1.58A8.7,8.7,0,0,1,408.12,270.27Z" style="fill:#263238"></path><path d="M370.14,189.93c.11-2.4-.77-4.71-1.52-7s-1.37-4.75-.74-7.06c.8-2.92,3.4-4.94,4.8-7.62s1.49-5.84,1.74-8.86.76-6.23,2.74-8.51c2.52-2.88,9.1-3.4,12.2-1.18.48,17.2,4.52,34.61.87,51.42a45,45,0,0,1-24-5.78C368.59,194.87,370,192.33,370.14,189.93Z" style="fill:#263238"></path><path d="M406.43,206.59l2.35-47.48a3.67,3.67,0,0,0-3.16-3.83l-19.21-5.49c-6.18-.84-10.51,6.74-11.08,13-.63,7-1.13,15.48-.46,20.71,1.35,10.5,9.26,12.06,9.26,12.06,0,10.35-.22,11.12-.22,11.12l3.92,8.14Z" style="fill:#ffbf9d"></path><path d="M377.68,171.23a1.34,1.34,0,0,0,1.24,1.39,1.29,1.29,0,0,0,1.41-1.17,1.35,1.35,0,0,0-1.25-1.4A1.27,1.27,0,0,0,377.68,171.23Z" style="fill:#263238"></path><path d="M377.08,167.26c.16.18,1.18-.55,2.61-.5s2.46.8,2.62.62-.08-.39-.52-.74a3.63,3.63,0,0,0-2.1-.72,3.46,3.46,0,0,0-2.09.62C377.15,166.86,377,167.18,377.08,167.26Z" style="fill:#263238"></path><path d="M390.6,171.38a1.33,1.33,0,0,0,1.24,1.39,1.28,1.28,0,0,0,1.41-1.17,1.35,1.35,0,0,0-1.25-1.39A1.27,1.27,0,0,0,390.6,171.38Z" style="fill:#263238"></path><path d="M391.13,167.93c.16.18,1.19-.54,2.62-.5s2.46.8,2.62.63-.08-.4-.53-.75a3.67,3.67,0,0,0-2.09-.72,3.46,3.46,0,0,0-2.09.62C391.21,167.54,391.05,167.85,391.13,167.93Z" style="fill:#263238"></path><path d="M385.64,178.49a9.71,9.71,0,0,0-2.31-.49c-.37-.05-.71-.13-.77-.39a1.86,1.86,0,0,1,.28-1.08c.37-.89.75-1.81,1.16-2.78,1.61-3.95,2.79-7.21,2.63-7.27s-1.59,3.09-3.21,7l-1.11,2.79a2.19,2.19,0,0,0-.23,1.45.93.93,0,0,0,.58.55,2.71,2.71,0,0,0,.62.11A9.37,9.37,0,0,0,385.64,178.49Z" style="fill:#263238"></path><path d="M384.17,195.54a26.11,26.11,0,0,0,14-3.34s-3.7,7.36-14.05,6.08Z" style="fill:#ff9a6c"></path><path d="M390.55,181.55a2.3,2.3,0,0,0-1.86-1.09,3.4,3.4,0,0,0-2.87,1.48,1.58,1.58,0,0,0-.13,1.09,1.45,1.45,0,0,0,.33.51,5.8,5.8,0,0,0,2.08,1.11,2.19,2.19,0,0,0,2.35-.77A2.25,2.25,0,0,0,390.55,181.55Z" style="fill:#ff9a6c"></path><path d="M390.67,162c.13.39,1.56.25,3.23.5s3,.75,3.25.41c.11-.17-.12-.54-.65-.94a5.5,5.5,0,0,0-2.4-.92,5.32,5.32,0,0,0-2.55.23C390.93,161.48,390.61,161.78,390.67,162Z" style="fill:#e0e0e0"></path><path d="M377.72,162.3c.24.34,1.24,0,2.42,0s2.19.29,2.43-.05c.1-.16-.05-.5-.48-.82a3.49,3.49,0,0,0-3.9,0C377.76,161.81,377.61,162.14,377.72,162.3Z" style="fill:#263238"></path><path d="M384.16,149.7c1.78-4.31,5.63-5.21,9.76-5.66s10.26,1.28,13.67,3.53a31.86,31.86,0,0,1,7.56,6.47c1.83,2.38,2.65,5.11,3.79,7.86,1.76,4.28,1.65,9,1.9,13.6a83.39,83.39,0,0,0,2.73,17.1c.54,2,1.09,4.4-1.72,5.55a6.45,6.45,0,0,1-1.64.4c-4.37.54-8.59,2-13.44,2.28h-3c-3.8,0-5.74-2.46-5.61-5.59.39-9.45,5-25,5.46-27.95C403.62,167.28,405.2,146.9,384.16,149.7Z" style="fill:#263238"></path><path d="M385.53,149.59a6.17,6.17,0,0,1,2.19,4.32c.22,1.65.12,3.33.43,5a10.39,10.39,0,0,0,5.93,7.49c1,.42,2.29.59,2.88-.29a5.78,5.78,0,0,0,3.47,5.48c1.54.62,3.26.52,4.87.88s3.32,1.49,3.4,3.16l.68-11.62-3.24-10.27-9.95-6Z" style="fill:#263238"></path><path d="M403.17,168.74a7.25,7.25,0,0,1-.95-.78,6.88,6.88,0,0,1-1.57-2.93,23.64,23.64,0,0,1-.7-4.94,40.89,40.89,0,0,0-.7-6.12,11.8,11.8,0,0,0-2.71-5.49,6.7,6.7,0,0,0-2.18-1.57,6.6,6.6,0,0,0-2.26-.57,5.33,5.33,0,0,0-3.24.78,2.67,2.67,0,0,0-.43.32,1.54,1.54,0,0,0-.29.26c-.14.15-.22.23-.21.24a6.09,6.09,0,0,1,1-.75,5.26,5.26,0,0,1,3.19-.71,6.52,6.52,0,0,1,4.32,2.13,11.68,11.68,0,0,1,2.65,5.4,43.21,43.21,0,0,1,.71,6.09,24,24,0,0,0,.74,5,7,7,0,0,0,1.65,3A3.76,3.76,0,0,0,403.17,168.74Z" style="fill:#fff"></path><path d="M411.81,167.34a6.16,6.16,0,0,1-1.52-.39,8,8,0,0,1-3.18-2.81,16.26,16.26,0,0,1-1.46-2.6,11.64,11.64,0,0,1-.81-3.31c-.14-1.2-.19-2.47-.33-3.79a15.68,15.68,0,0,0-.32-2,11.28,11.28,0,0,0-.65-2,10.71,10.71,0,0,0-5.57-5.4,10,10,0,0,0-6.32-.43,10.21,10.21,0,0,0-3.87,1.89,7.5,7.5,0,0,0-1.15,1.09l.08-.07.22-.21c.1-.09.22-.21.37-.33s.32-.28.53-.42a10.52,10.52,0,0,1,3.86-1.82,10,10,0,0,1,6.22.47,10.28,10.28,0,0,1,6.09,7.26,19.87,19.87,0,0,1,.32,2c.14,1.31.19,2.58.34,3.8a12.1,12.1,0,0,0,.84,3.35,15.3,15.3,0,0,0,1.5,2.61,7.94,7.94,0,0,0,3.26,2.81,4.83,4.83,0,0,0,1.14.29l.31,0Z" style="fill:#fff"></path><path d="M397,166.08a.67.67,0,0,0,0,.1l0,.29c0,.13,0,.29.05.47l.13.64a6.94,6.94,0,0,0,.66,1.66,5.86,5.86,0,0,0,1.57,1.78,9.3,9.3,0,0,0,6,1.49,17.63,17.63,0,0,0,3.7-.58,15.16,15.16,0,0,0,3.78-1.53l.23-.14-.27,0a14.32,14.32,0,0,1-4.33-1.36l-.08,0-.06.18a13.63,13.63,0,0,0,9-1.62l.18-.1-.2-.07a17.05,17.05,0,0,1-5.32-2.71,8.63,8.63,0,0,1-2.77-3.73,8.72,8.72,0,0,1-.46-3l.06-.82c0-.09,0-.16,0-.21v-.07s0,0,0,.07l0,.21c0,.19,0,.47-.09.82a7.92,7.92,0,0,0,3.2,6.88,17.09,17.09,0,0,0,5.35,2.77v-.17a13.59,13.59,0,0,1-8.85,1.59l-.66-.11.6.29.08,0a14.41,14.41,0,0,0,4.39,1.37l0-.18a15,15,0,0,1-3.73,1.52,17.32,17.32,0,0,1-3.65.59,9.15,9.15,0,0,1-5.89-1.43,5.65,5.65,0,0,1-1.56-1.72,6.77,6.77,0,0,1-.68-1.63c-.06-.24-.1-.44-.15-.63s-.05-.34-.07-.46l0-.29C397,166.12,397,166.08,397,166.08Z" style="fill:#fff"></path><path d="M418.25,194.68c.05,0-.58-5.6-1.41-12.49s-1.55-12.48-1.6-12.47.57,5.6,1.4,12.49S418.19,194.68,418.25,194.68Z" style="fill:#fff"></path><path d="M377.32,171.07c0,.14-.4.27-.87.09s-.68-.56-.58-.66.41,0,.77.17S377.32,170.92,377.32,171.07Z" style="fill:#ff9a6c"></path><path d="M377.19,171.76c0,.14-.26.3-.61.44s-.68.2-.76.08.16-.41.57-.57S377.17,171.62,377.19,171.76Z" style="fill:#ff9a6c"></path><path d="M397,171.33c0,.15-.43.33-1,.42s-1.07,0-1.09-.11.43-.32,1-.41S397,171.19,397,171.33Z" style="fill:#ff9a6c"></path><path d="M396.69,172.53c0,.14-.43.18-.92.1s-.86-.26-.83-.41.44-.19.92-.1S396.72,172.38,396.69,172.53Z" style="fill:#ff9a6c"></path><path d="M391.92,179.7c-.13.06-.37-.16-.68-.37s-.6-.36-.59-.5.45-.23.88.07S392.05,179.64,391.92,179.7Z" style="fill:#ff9a6c"></path><path d="M392.8,179.63c-.15,0-.33-.31-.66-.57s-.67-.4-.68-.55.53-.26,1,.15S392.94,179.62,392.8,179.63Z" style="fill:#ff9a6c"></path><path d="M391.24,181c0,.06-.23.33-.7.71a10.31,10.31,0,0,1-2.05,1.3,4.77,4.77,0,0,1-3.37.47,25.16,25.16,0,0,0,3.16-1,23.25,23.25,0,0,0,2.05-1.12C390.85,181.11,391.2,181,391.24,181Z" style="fill:#263238"></path><path d="M395.89,205.25c-.14,0-.33-.67-.43-1.52s0-1.57.09-1.58.34.66.43,1.52S396,205.23,395.89,205.25Z" style="fill:#ff9a6c"></path><path d="M397.39,206.17c-.14,0-.4-.75-.44-1.74s.17-1.79.31-1.77.18.8.21,1.75S397.53,206.14,397.39,206.17Z" style="fill:#ff9a6c"></path><path d="M430.44,307.39a6.63,6.63,0,0,1-1.95,3.84,16,16,0,0,0-2.66,5.29s-1.57,7.4-2,9.8-.48,4.62,1.43,4.23,2.54-1.82,3-6.25l1.18-2.3,1,1.82v7.12s-4.92,4.51-4.62,5.86S427,338,427,338l.76.77,7.48-5.09,3-9.33-.49-12.11.23-9.41-7.8-1.24Z" style="fill:#ffbf9d"></path><path d="M353.56,306.87a6.75,6.75,0,0,0,2,3.84,16,16,0,0,1,2.66,5.29s1.57,7.4,2,9.8.48,4.61-1.44,4.23-2.53-1.83-3-6.25l-1.19-2.3-1,1.82v7.11s4.91,4.52,4.62,5.87-1.21,1.15-1.21,1.15l-.76.77-7.49-5.09-3-9.33.49-12.11-.24-9.41,7.81-1.24Z" style="fill:#ffbf9d"></path><path d="M349.64,306.43a4.4,4.4,0,0,1-.34-2.07c-.05-1.15,0-2.08.18-2.09a8.46,8.46,0,0,1,.16,4.16Z" style="fill:#ff9a6c"></path><path d="M351.73,307c-.14,0-.37-.82-.51-1.87s-.14-1.92,0-1.94.37.82.51,1.87S351.88,306.93,351.73,307Z" style="fill:#ff9a6c"></path><path d="M435.08,318.19a5.75,5.75,0,0,1-.35-2.41,6,6,0,0,1,.18-2.43,5.8,5.8,0,0,1,.34,2.41A5.9,5.9,0,0,1,435.08,318.19Z" style="fill:#ff9a6c"></path><path d="M436.29,317.84c-.14,0-.3-.68-.34-1.54s0-1.56.18-1.57.29.68.34,1.54S436.43,317.84,436.29,317.84Z" style="fill:#ff9a6c"></path></g></svg>
